G04 EAGLE Gerber RS-274X export*
G75*
%MOMM*%
%FSLAX34Y34*%
%LPD*%
%INTop Copper*%
%IPPOS*%
%AMOC8*
5,1,8,0,0,1.08239X$1,22.5*%
G01*
%ADD10C,0.025000*%
%ADD11C,0.400000*%
%ADD12C,0.250000*%

G36*
X1389123Y32172D02*
X1389123Y32172D01*
X1389124Y32172D01*
X1394321Y34838D01*
X1394322Y34839D01*
X1394323Y34839D01*
X1434149Y92998D01*
X1434149Y93000D01*
X1434150Y93002D01*
X1424341Y133247D01*
X1397723Y242625D01*
X1366927Y369168D01*
X1366924Y369170D01*
X1366923Y369172D01*
X1249669Y390147D01*
X1232044Y393299D01*
X1232043Y393299D01*
X1232042Y393299D01*
X1187734Y381037D01*
X1067972Y347893D01*
X1067968Y347887D01*
X1076836Y308154D01*
X1085941Y267355D01*
X1116680Y129626D01*
X1125854Y88522D01*
X1125856Y88520D01*
X1125856Y88519D01*
X1197007Y37348D01*
X1197074Y37300D01*
X1197074Y37299D01*
X1197693Y36922D01*
X1197694Y36922D01*
X1197694Y36921D01*
X1199064Y36463D01*
X1199065Y36463D01*
X1199786Y36393D01*
X1199787Y36393D01*
X1200944Y36367D01*
X1389121Y32171D01*
X1389123Y32172D01*
G37*
G36*
X345978Y103326D02*
X345978Y103326D01*
X345980Y103326D01*
X444829Y257843D01*
X444828Y257848D01*
X444828Y257849D01*
X214287Y471801D01*
X214285Y471801D01*
X214284Y471801D01*
X214284Y471802D01*
X214140Y471806D01*
X214139Y471806D01*
X213962Y471811D01*
X213961Y471811D01*
X213785Y471816D01*
X213784Y471816D01*
X213607Y471821D01*
X213606Y471821D01*
X213429Y471826D01*
X213428Y471826D01*
X213251Y471831D01*
X213250Y471831D01*
X213073Y471836D01*
X213072Y471836D01*
X212895Y471841D01*
X212894Y471841D01*
X212718Y471846D01*
X212717Y471846D01*
X212540Y471851D01*
X212539Y471851D01*
X212362Y471856D01*
X212361Y471856D01*
X212184Y471861D01*
X212183Y471861D01*
X212006Y471866D01*
X212005Y471866D01*
X211828Y471871D01*
X211827Y471871D01*
X211650Y471876D01*
X211649Y471876D01*
X211473Y471881D01*
X211472Y471881D01*
X211295Y471886D01*
X211294Y471886D01*
X211117Y471891D01*
X211116Y471891D01*
X210939Y471896D01*
X210938Y471896D01*
X210761Y471901D01*
X210760Y471901D01*
X210583Y471906D01*
X210582Y471906D01*
X210406Y471910D01*
X210406Y471911D01*
X210405Y471911D01*
X210228Y471915D01*
X210227Y471915D01*
X210050Y471920D01*
X210049Y471920D01*
X209872Y471925D01*
X209871Y471925D01*
X209694Y471930D01*
X209693Y471930D01*
X209516Y471935D01*
X209515Y471935D01*
X209338Y471940D01*
X209337Y471940D01*
X209161Y471945D01*
X209160Y471945D01*
X208983Y471950D01*
X208982Y471950D01*
X208805Y471955D01*
X208804Y471955D01*
X208627Y471960D01*
X208626Y471960D01*
X208449Y471965D01*
X208448Y471965D01*
X208271Y471970D01*
X208270Y471970D01*
X208094Y471975D01*
X208093Y471975D01*
X207916Y471980D01*
X207915Y471980D01*
X207738Y471985D01*
X207737Y471985D01*
X207560Y471990D01*
X207559Y471990D01*
X207382Y471995D01*
X207381Y471995D01*
X207204Y472000D01*
X207203Y472000D01*
X207026Y472005D01*
X207025Y472005D01*
X206849Y472010D01*
X206848Y472010D01*
X206671Y472015D01*
X206670Y472015D01*
X206493Y472020D01*
X206492Y472020D01*
X206315Y472025D01*
X206314Y472025D01*
X206137Y472030D01*
X206136Y472030D01*
X205959Y472035D01*
X205958Y472035D01*
X205782Y472040D01*
X205781Y472040D01*
X205604Y472045D01*
X205603Y472045D01*
X205426Y472050D01*
X205425Y472050D01*
X205248Y472055D01*
X205247Y472055D01*
X205070Y472060D01*
X205069Y472060D01*
X204892Y472065D01*
X204891Y472065D01*
X204714Y472069D01*
X204714Y472070D01*
X204713Y472070D01*
X204537Y472074D01*
X204536Y472074D01*
X204359Y472079D01*
X204358Y472079D01*
X204181Y472084D01*
X204180Y472084D01*
X204003Y472089D01*
X204002Y472089D01*
X203825Y472094D01*
X203824Y472094D01*
X203647Y472099D01*
X203646Y472099D01*
X203470Y472104D01*
X203469Y472104D01*
X203292Y472109D01*
X203291Y472109D01*
X203114Y472114D01*
X203113Y472114D01*
X202936Y472119D01*
X202935Y472119D01*
X202758Y472124D01*
X202757Y472124D01*
X202580Y472129D01*
X202579Y472129D01*
X202403Y472134D01*
X202402Y472134D01*
X202225Y472139D01*
X202224Y472139D01*
X202047Y472144D01*
X202046Y472144D01*
X201869Y472149D01*
X201868Y472149D01*
X201691Y472154D01*
X201690Y472154D01*
X201513Y472159D01*
X201512Y472159D01*
X201335Y472164D01*
X201334Y472164D01*
X201158Y472169D01*
X201157Y472169D01*
X200980Y472174D01*
X200979Y472174D01*
X200802Y472179D01*
X200801Y472179D01*
X200624Y472184D01*
X200623Y472184D01*
X200446Y472189D01*
X200445Y472189D01*
X200268Y472194D01*
X200267Y472194D01*
X200091Y472199D01*
X200090Y472199D01*
X199913Y472204D01*
X199912Y472204D01*
X199735Y472209D01*
X199734Y472209D01*
X199557Y472214D01*
X199556Y472214D01*
X199379Y472219D01*
X199378Y472219D01*
X199201Y472224D01*
X199200Y472224D01*
X199023Y472228D01*
X199023Y472229D01*
X199022Y472229D01*
X198846Y472233D01*
X198845Y472233D01*
X198668Y472238D01*
X198667Y472238D01*
X198490Y472243D01*
X198489Y472243D01*
X198312Y472248D01*
X198311Y472248D01*
X198134Y472253D01*
X198133Y472253D01*
X197956Y472258D01*
X197955Y472258D01*
X197779Y472263D01*
X197778Y472263D01*
X197601Y472268D01*
X197600Y472268D01*
X197423Y472273D01*
X197422Y472273D01*
X197245Y472278D01*
X197244Y472278D01*
X197067Y472283D01*
X197066Y472283D01*
X196889Y472288D01*
X196888Y472288D01*
X196711Y472293D01*
X196710Y472293D01*
X196534Y472298D01*
X196533Y472298D01*
X196356Y472303D01*
X196355Y472303D01*
X196178Y472308D01*
X196177Y472308D01*
X196000Y472313D01*
X195999Y472313D01*
X195822Y472318D01*
X195821Y472318D01*
X195644Y472323D01*
X195643Y472323D01*
X195467Y472328D01*
X195466Y472328D01*
X195289Y472333D01*
X195288Y472333D01*
X195111Y472338D01*
X195110Y472338D01*
X194933Y472343D01*
X194932Y472343D01*
X194755Y472348D01*
X194754Y472348D01*
X194577Y472353D01*
X194576Y472353D01*
X194399Y472358D01*
X194398Y472358D01*
X194222Y472363D01*
X194221Y472363D01*
X194044Y472368D01*
X194043Y472368D01*
X193866Y472373D01*
X193865Y472373D01*
X193688Y472378D01*
X193687Y472378D01*
X193510Y472383D01*
X193509Y472383D01*
X193332Y472387D01*
X193332Y472388D01*
X193331Y472388D01*
X193155Y472392D01*
X193154Y472392D01*
X192977Y472397D01*
X192976Y472397D01*
X192799Y472402D01*
X192798Y472402D01*
X192621Y472407D01*
X192620Y472407D01*
X192443Y472412D01*
X192442Y472412D01*
X192265Y472417D01*
X192264Y472417D01*
X192087Y472422D01*
X192086Y472422D01*
X191910Y472427D01*
X191909Y472427D01*
X191732Y472432D01*
X191731Y472432D01*
X191554Y472437D01*
X191553Y472437D01*
X191376Y472442D01*
X191375Y472442D01*
X191198Y472447D01*
X191197Y472447D01*
X191020Y472452D01*
X191019Y472452D01*
X190843Y472457D01*
X190842Y472457D01*
X190665Y472462D01*
X190664Y472462D01*
X190487Y472467D01*
X190486Y472467D01*
X190309Y472472D01*
X190308Y472472D01*
X190131Y472477D01*
X190130Y472477D01*
X189953Y472482D01*
X189952Y472482D01*
X189775Y472487D01*
X189774Y472487D01*
X189598Y472492D01*
X189597Y472492D01*
X189420Y472497D01*
X189419Y472497D01*
X189242Y472502D01*
X189241Y472502D01*
X189064Y472507D01*
X189063Y472507D01*
X188886Y472512D01*
X188885Y472512D01*
X188708Y472517D01*
X188707Y472517D01*
X188531Y472522D01*
X188530Y472522D01*
X188353Y472527D01*
X188352Y472527D01*
X188175Y472532D01*
X188174Y472532D01*
X187997Y472537D01*
X187996Y472537D01*
X187819Y472542D01*
X187818Y472542D01*
X187641Y472546D01*
X187641Y472547D01*
X187640Y472547D01*
X187464Y472551D01*
X187463Y472551D01*
X187286Y472556D01*
X187285Y472556D01*
X187108Y472561D01*
X187107Y472561D01*
X186930Y472566D01*
X186929Y472566D01*
X186752Y472571D01*
X186751Y472571D01*
X186574Y472576D01*
X186573Y472576D01*
X186396Y472581D01*
X186395Y472581D01*
X186219Y472586D01*
X186218Y472586D01*
X186041Y472591D01*
X186040Y472591D01*
X185863Y472596D01*
X185862Y472596D01*
X185685Y472601D01*
X185684Y472601D01*
X185507Y472606D01*
X185506Y472606D01*
X185329Y472611D01*
X185328Y472611D01*
X185152Y472616D01*
X185151Y472616D01*
X184974Y472621D01*
X184973Y472621D01*
X184796Y472626D01*
X184795Y472626D01*
X184618Y472631D01*
X184617Y472631D01*
X184440Y472636D01*
X184439Y472636D01*
X184262Y472641D01*
X184261Y472641D01*
X184084Y472646D01*
X184083Y472646D01*
X183907Y472651D01*
X183906Y472651D01*
X183729Y472656D01*
X183728Y472656D01*
X183551Y472661D01*
X183550Y472661D01*
X183373Y472666D01*
X183372Y472666D01*
X183195Y472671D01*
X183194Y472671D01*
X183017Y472676D01*
X183016Y472676D01*
X182840Y472681D01*
X182839Y472681D01*
X182662Y472686D01*
X182661Y472686D01*
X182484Y472691D01*
X182483Y472691D01*
X182306Y472696D01*
X182305Y472696D01*
X182128Y472701D01*
X182127Y472701D01*
X181950Y472705D01*
X181950Y472706D01*
X181949Y472706D01*
X181772Y472710D01*
X181771Y472710D01*
X181595Y472715D01*
X181594Y472715D01*
X181417Y472720D01*
X181416Y472720D01*
X181239Y472725D01*
X181238Y472725D01*
X181061Y472730D01*
X181060Y472730D01*
X180883Y472735D01*
X180882Y472735D01*
X180705Y472740D01*
X180704Y472740D01*
X180528Y472745D01*
X180527Y472745D01*
X180350Y472750D01*
X180349Y472750D01*
X180172Y472755D01*
X180171Y472755D01*
X179994Y472760D01*
X179993Y472760D01*
X179816Y472765D01*
X179815Y472765D01*
X179638Y472770D01*
X179637Y472770D01*
X179460Y472775D01*
X179459Y472775D01*
X179283Y472780D01*
X179282Y472780D01*
X179105Y472785D01*
X179104Y472785D01*
X178927Y472790D01*
X178926Y472790D01*
X178749Y472795D01*
X178748Y472795D01*
X178571Y472800D01*
X178570Y472800D01*
X178393Y472805D01*
X178392Y472805D01*
X178216Y472810D01*
X178215Y472810D01*
X178038Y472815D01*
X178037Y472815D01*
X177860Y472820D01*
X177859Y472820D01*
X177682Y472825D01*
X177681Y472825D01*
X177504Y472830D01*
X177503Y472830D01*
X177326Y472835D01*
X177325Y472835D01*
X177148Y472840D01*
X177147Y472840D01*
X176971Y472845D01*
X176970Y472845D01*
X176793Y472850D01*
X176792Y472850D01*
X176615Y472855D01*
X176614Y472855D01*
X176437Y472860D01*
X176436Y472860D01*
X176259Y472864D01*
X176259Y472865D01*
X176258Y472865D01*
X176081Y472869D01*
X176080Y472869D01*
X175904Y472874D01*
X175903Y472874D01*
X175726Y472879D01*
X175725Y472879D01*
X175548Y472884D01*
X175547Y472884D01*
X175370Y472889D01*
X175369Y472889D01*
X175192Y472894D01*
X175191Y472894D01*
X175014Y472899D01*
X175013Y472899D01*
X174836Y472904D01*
X174835Y472904D01*
X174659Y472909D01*
X174658Y472909D01*
X174481Y472914D01*
X174480Y472914D01*
X174303Y472919D01*
X174302Y472919D01*
X174125Y472924D01*
X174124Y472924D01*
X173947Y472929D01*
X173946Y472929D01*
X173769Y472934D01*
X173768Y472934D01*
X173592Y472939D01*
X173591Y472939D01*
X173414Y472944D01*
X173413Y472944D01*
X173236Y472949D01*
X173235Y472949D01*
X173058Y472954D01*
X173057Y472954D01*
X172880Y472959D01*
X172879Y472959D01*
X172702Y472964D01*
X172701Y472964D01*
X172525Y472969D01*
X172524Y472969D01*
X172523Y472969D01*
X172347Y472974D01*
X172346Y472974D01*
X172169Y472979D01*
X172168Y472979D01*
X171991Y472984D01*
X171990Y472984D01*
X171813Y472989D01*
X171812Y472989D01*
X171635Y472994D01*
X171634Y472994D01*
X171457Y472999D01*
X171456Y472999D01*
X171280Y473004D01*
X171279Y473004D01*
X171102Y473009D01*
X171101Y473009D01*
X170924Y473014D01*
X170923Y473014D01*
X170746Y473019D01*
X170745Y473019D01*
X170568Y473023D01*
X170568Y473024D01*
X170567Y473024D01*
X170390Y473028D01*
X170389Y473028D01*
X170213Y473033D01*
X170212Y473033D01*
X170035Y473038D01*
X170034Y473038D01*
X169857Y473043D01*
X169856Y473043D01*
X169679Y473048D01*
X169678Y473048D01*
X169501Y473053D01*
X169500Y473053D01*
X169323Y473058D01*
X169322Y473058D01*
X169145Y473063D01*
X169144Y473063D01*
X168968Y473068D01*
X168967Y473068D01*
X168790Y473073D01*
X168789Y473073D01*
X168612Y473078D01*
X168611Y473078D01*
X168434Y473083D01*
X168433Y473083D01*
X168256Y473088D01*
X168255Y473088D01*
X168078Y473093D01*
X168077Y473093D01*
X167901Y473098D01*
X167900Y473098D01*
X167723Y473103D01*
X167722Y473103D01*
X167545Y473108D01*
X167544Y473108D01*
X167367Y473113D01*
X167366Y473113D01*
X167189Y473118D01*
X167188Y473118D01*
X167011Y473123D01*
X167010Y473123D01*
X166833Y473128D01*
X166832Y473128D01*
X166656Y473133D01*
X166655Y473133D01*
X166478Y473138D01*
X166477Y473138D01*
X166300Y473143D01*
X166299Y473143D01*
X166122Y473148D01*
X166121Y473148D01*
X165944Y473153D01*
X165943Y473153D01*
X165766Y473158D01*
X165765Y473158D01*
X165589Y473163D01*
X165588Y473163D01*
X165411Y473168D01*
X165410Y473168D01*
X165233Y473173D01*
X165232Y473173D01*
X165055Y473178D01*
X165054Y473178D01*
X164877Y473182D01*
X164877Y473183D01*
X164876Y473183D01*
X164699Y473187D01*
X164698Y473187D01*
X164521Y473192D01*
X164520Y473192D01*
X164344Y473197D01*
X164343Y473197D01*
X164166Y473202D01*
X164165Y473202D01*
X163988Y473207D01*
X163987Y473207D01*
X163810Y473212D01*
X163809Y473212D01*
X163632Y473217D01*
X163631Y473217D01*
X163454Y473222D01*
X163453Y473222D01*
X163277Y473227D01*
X163276Y473227D01*
X163099Y473232D01*
X163098Y473232D01*
X162921Y473237D01*
X162920Y473237D01*
X162743Y473242D01*
X162742Y473242D01*
X162565Y473247D01*
X162564Y473247D01*
X162387Y473252D01*
X162386Y473252D01*
X162209Y473257D01*
X162208Y473257D01*
X162032Y473262D01*
X162031Y473262D01*
X161854Y473267D01*
X161853Y473267D01*
X161676Y473272D01*
X161675Y473272D01*
X161498Y473277D01*
X161497Y473277D01*
X161320Y473282D01*
X161319Y473282D01*
X161142Y473287D01*
X161141Y473287D01*
X160965Y473292D01*
X160964Y473292D01*
X160787Y473297D01*
X160786Y473297D01*
X160609Y473302D01*
X160608Y473302D01*
X160431Y473307D01*
X160430Y473307D01*
X160253Y473312D01*
X160252Y473312D01*
X160075Y473317D01*
X160074Y473317D01*
X159897Y473322D01*
X159896Y473322D01*
X159720Y473327D01*
X159719Y473327D01*
X159542Y473332D01*
X159541Y473332D01*
X159364Y473337D01*
X159363Y473337D01*
X159186Y473341D01*
X159186Y473342D01*
X159185Y473342D01*
X159008Y473346D01*
X159007Y473346D01*
X158830Y473351D01*
X158829Y473351D01*
X158653Y473356D01*
X158652Y473356D01*
X158475Y473361D01*
X158474Y473361D01*
X158297Y473366D01*
X158296Y473366D01*
X158119Y473371D01*
X158118Y473371D01*
X157941Y473376D01*
X157940Y473376D01*
X157763Y473381D01*
X157762Y473381D01*
X157586Y473386D01*
X157585Y473386D01*
X157584Y473386D01*
X157408Y473391D01*
X157407Y473391D01*
X157230Y473396D01*
X157229Y473396D01*
X157052Y473401D01*
X157051Y473401D01*
X156874Y473406D01*
X156873Y473406D01*
X156696Y473411D01*
X156695Y473411D01*
X156518Y473416D01*
X156517Y473416D01*
X156341Y473421D01*
X156340Y473421D01*
X156163Y473426D01*
X156162Y473426D01*
X155985Y473431D01*
X155984Y473431D01*
X155807Y473436D01*
X155806Y473436D01*
X155629Y473441D01*
X155628Y473441D01*
X155451Y473446D01*
X155450Y473446D01*
X155274Y473451D01*
X155273Y473451D01*
X155096Y473456D01*
X155095Y473456D01*
X154918Y473461D01*
X154917Y473461D01*
X154740Y473466D01*
X154739Y473466D01*
X154562Y473471D01*
X154561Y473471D01*
X154384Y473476D01*
X154383Y473476D01*
X154206Y473481D01*
X154205Y473481D01*
X154029Y473486D01*
X154028Y473486D01*
X153851Y473491D01*
X153850Y473491D01*
X153673Y473496D01*
X153672Y473496D01*
X153495Y473500D01*
X153495Y473501D01*
X153494Y473501D01*
X153317Y473505D01*
X153316Y473505D01*
X153139Y473510D01*
X153138Y473510D01*
X152962Y473515D01*
X152961Y473515D01*
X152784Y473520D01*
X152783Y473520D01*
X152606Y473525D01*
X152605Y473525D01*
X152428Y473530D01*
X152427Y473530D01*
X152250Y473535D01*
X152249Y473535D01*
X152072Y473540D01*
X152071Y473540D01*
X151894Y473545D01*
X151893Y473545D01*
X151717Y473550D01*
X151716Y473550D01*
X151539Y473555D01*
X151538Y473555D01*
X151361Y473560D01*
X151360Y473560D01*
X151183Y473565D01*
X151182Y473565D01*
X151005Y473570D01*
X151004Y473570D01*
X150827Y473575D01*
X150826Y473575D01*
X150650Y473580D01*
X150649Y473580D01*
X150472Y473585D01*
X150471Y473585D01*
X150294Y473590D01*
X150293Y473590D01*
X150116Y473595D01*
X150115Y473595D01*
X149938Y473600D01*
X149937Y473600D01*
X149760Y473605D01*
X149759Y473605D01*
X149582Y473610D01*
X149581Y473610D01*
X149405Y473615D01*
X149404Y473615D01*
X149227Y473620D01*
X149226Y473620D01*
X149049Y473625D01*
X149048Y473625D01*
X148871Y473630D01*
X148870Y473630D01*
X148693Y473635D01*
X148692Y473635D01*
X148515Y473640D01*
X148514Y473640D01*
X148338Y473645D01*
X148337Y473645D01*
X148160Y473650D01*
X148159Y473650D01*
X147982Y473655D01*
X147981Y473655D01*
X147804Y473659D01*
X147804Y473660D01*
X147803Y473660D01*
X147626Y473664D01*
X147625Y473664D01*
X147448Y473669D01*
X147447Y473669D01*
X147270Y473674D01*
X147269Y473674D01*
X147093Y473679D01*
X147092Y473679D01*
X146915Y473684D01*
X146914Y473684D01*
X146737Y473689D01*
X146736Y473689D01*
X146559Y473694D01*
X146558Y473694D01*
X146381Y473699D01*
X146380Y473699D01*
X146203Y473704D01*
X146202Y473704D01*
X146026Y473709D01*
X146025Y473709D01*
X145848Y473714D01*
X145847Y473714D01*
X145670Y473719D01*
X145669Y473719D01*
X145492Y473724D01*
X145491Y473724D01*
X145314Y473729D01*
X145313Y473729D01*
X145136Y473734D01*
X145135Y473734D01*
X144958Y473739D01*
X144957Y473739D01*
X144781Y473744D01*
X144780Y473744D01*
X144603Y473749D01*
X144602Y473749D01*
X144425Y473754D01*
X144424Y473754D01*
X144247Y473759D01*
X144246Y473759D01*
X144069Y473764D01*
X144068Y473764D01*
X143891Y473769D01*
X143890Y473769D01*
X143714Y473774D01*
X143713Y473774D01*
X143536Y473779D01*
X143535Y473779D01*
X143358Y473784D01*
X143357Y473784D01*
X143180Y473789D01*
X143179Y473789D01*
X143002Y473794D01*
X143001Y473794D01*
X142824Y473799D01*
X142823Y473799D01*
X142647Y473804D01*
X142646Y473804D01*
X142645Y473804D01*
X142469Y473809D01*
X142468Y473809D01*
X142291Y473814D01*
X142290Y473814D01*
X142113Y473818D01*
X142113Y473819D01*
X142112Y473819D01*
X141935Y473823D01*
X141934Y473823D01*
X141757Y473828D01*
X141756Y473828D01*
X141579Y473833D01*
X141578Y473833D01*
X141402Y473838D01*
X141401Y473838D01*
X141224Y473843D01*
X141223Y473843D01*
X141046Y473848D01*
X141045Y473848D01*
X140868Y473853D01*
X140867Y473853D01*
X140690Y473858D01*
X140689Y473858D01*
X140512Y473863D01*
X140511Y473863D01*
X140335Y473868D01*
X140334Y473868D01*
X140157Y473873D01*
X140156Y473873D01*
X139979Y473878D01*
X139978Y473878D01*
X139801Y473883D01*
X139800Y473883D01*
X139623Y473888D01*
X139622Y473888D01*
X139445Y473893D01*
X139444Y473893D01*
X139267Y473898D01*
X139266Y473898D01*
X139090Y473903D01*
X139089Y473903D01*
X138912Y473908D01*
X138911Y473908D01*
X138734Y473913D01*
X138733Y473913D01*
X138556Y473918D01*
X138555Y473918D01*
X138378Y473923D01*
X138377Y473923D01*
X138200Y473928D01*
X138199Y473928D01*
X138023Y473933D01*
X138022Y473933D01*
X137845Y473938D01*
X137844Y473938D01*
X137667Y473943D01*
X137666Y473943D01*
X137489Y473948D01*
X137488Y473948D01*
X137311Y473953D01*
X137310Y473953D01*
X137133Y473958D01*
X137132Y473958D01*
X136955Y473963D01*
X136954Y473963D01*
X136778Y473968D01*
X136777Y473968D01*
X136600Y473973D01*
X136599Y473973D01*
X136422Y473977D01*
X136422Y473978D01*
X136421Y473978D01*
X136244Y473982D01*
X136243Y473982D01*
X136066Y473987D01*
X136065Y473987D01*
X135888Y473992D01*
X135887Y473992D01*
X135711Y473997D01*
X135710Y473997D01*
X135533Y474002D01*
X135532Y474002D01*
X135355Y474007D01*
X135354Y474007D01*
X135177Y474012D01*
X135176Y474012D01*
X134999Y474017D01*
X134998Y474017D01*
X134821Y474022D01*
X134820Y474022D01*
X134643Y474027D01*
X134642Y474027D01*
X134466Y474032D01*
X134465Y474032D01*
X134288Y474037D01*
X134287Y474037D01*
X134110Y474042D01*
X134109Y474042D01*
X133932Y474047D01*
X133931Y474047D01*
X133754Y474052D01*
X133753Y474052D01*
X133576Y474057D01*
X133575Y474057D01*
X133399Y474062D01*
X133398Y474062D01*
X133221Y474067D01*
X133220Y474067D01*
X133043Y474072D01*
X133042Y474072D01*
X132865Y474077D01*
X132864Y474077D01*
X132687Y474082D01*
X132686Y474082D01*
X132509Y474087D01*
X132508Y474087D01*
X132331Y474092D01*
X132330Y474092D01*
X132154Y474097D01*
X132153Y474097D01*
X131976Y474102D01*
X131975Y474102D01*
X131798Y474107D01*
X131797Y474107D01*
X131620Y474112D01*
X131619Y474112D01*
X131442Y474117D01*
X131441Y474117D01*
X131264Y474122D01*
X131263Y474122D01*
X131087Y474127D01*
X131086Y474127D01*
X130909Y474132D01*
X130908Y474132D01*
X130731Y474136D01*
X130731Y474137D01*
X130730Y474137D01*
X130553Y474141D01*
X130552Y474141D01*
X130375Y474146D01*
X130374Y474146D01*
X130197Y474151D01*
X130196Y474151D01*
X130019Y474156D01*
X130018Y474156D01*
X129842Y474161D01*
X129841Y474161D01*
X129770Y474163D01*
X129769Y474163D01*
X126950Y473470D01*
X126949Y473468D01*
X126947Y473468D01*
X124882Y471427D01*
X124882Y471426D01*
X124881Y471426D01*
X20191Y289470D01*
X20191Y289469D01*
X20191Y289468D01*
X20192Y289466D01*
X20191Y289464D01*
X190115Y103325D01*
X190118Y103325D01*
X190119Y103324D01*
X345976Y103324D01*
X345978Y103326D01*
G37*
%LPC*%
G36*
X289270Y142244D02*
X289270Y142244D01*
X289269Y142244D01*
X289268Y142245D01*
X216529Y142245D01*
X216529Y142244D01*
X216528Y142244D01*
X215973Y142015D01*
X215420Y142244D01*
X215419Y142244D01*
X215418Y142245D01*
X214819Y142245D01*
X214395Y142669D01*
X214393Y142669D01*
X214393Y142670D01*
X212075Y143631D01*
X211033Y144062D01*
X210601Y145105D01*
X209642Y147422D01*
X209641Y147423D01*
X209641Y147424D01*
X209217Y147848D01*
X209217Y148447D01*
X209216Y148448D01*
X209216Y148449D01*
X208987Y149003D01*
X209216Y149557D01*
X209216Y149558D01*
X209217Y149559D01*
X209217Y212471D01*
X209212Y212476D01*
X209212Y212475D01*
X209212Y212476D01*
X146300Y212476D01*
X146299Y212475D01*
X146298Y212475D01*
X145744Y212246D01*
X145190Y212475D01*
X145189Y212475D01*
X145188Y212476D01*
X144589Y212476D01*
X144165Y212900D01*
X144164Y212900D01*
X144163Y212901D01*
X140803Y214292D01*
X139998Y216235D01*
X139411Y217653D01*
X139410Y217654D01*
X139410Y217655D01*
X138986Y218079D01*
X138986Y218678D01*
X138985Y218679D01*
X138985Y218680D01*
X138756Y219234D01*
X138985Y219788D01*
X138985Y219789D01*
X138986Y219790D01*
X138986Y292529D01*
X138985Y292529D01*
X138985Y292530D01*
X138756Y293085D01*
X138985Y293638D01*
X138985Y293639D01*
X138986Y293640D01*
X138986Y294239D01*
X139410Y294663D01*
X139410Y294665D01*
X139411Y294665D01*
X140372Y296983D01*
X140803Y298025D01*
X141846Y298457D01*
X144163Y299416D01*
X144164Y299417D01*
X144165Y299417D01*
X144589Y299841D01*
X145188Y299841D01*
X145189Y299842D01*
X145190Y299842D01*
X145744Y300071D01*
X146298Y299842D01*
X146299Y299842D01*
X146300Y299841D01*
X209212Y299841D01*
X209217Y299846D01*
X209216Y299846D01*
X209217Y299846D01*
X209217Y362758D01*
X209216Y362759D01*
X209216Y362760D01*
X208987Y363314D01*
X209216Y363868D01*
X209216Y363869D01*
X209217Y363869D01*
X209217Y363870D01*
X209217Y364469D01*
X209641Y364893D01*
X209641Y364894D01*
X209642Y364895D01*
X210599Y367207D01*
X211033Y368255D01*
X212071Y368684D01*
X214393Y369647D01*
X214393Y369648D01*
X214395Y369648D01*
X214819Y370072D01*
X215418Y370072D01*
X215419Y370073D01*
X215420Y370073D01*
X215973Y370302D01*
X216528Y370073D01*
X216529Y370073D01*
X216529Y370072D01*
X289268Y370072D01*
X289269Y370073D01*
X289270Y370073D01*
X289824Y370302D01*
X290378Y370073D01*
X290379Y370073D01*
X290380Y370072D01*
X290979Y370072D01*
X291403Y369648D01*
X291405Y369648D01*
X291405Y369647D01*
X292779Y369078D01*
X294766Y368255D01*
X296157Y364895D01*
X296158Y364894D01*
X296158Y364893D01*
X296582Y364469D01*
X296582Y363870D01*
X296583Y363869D01*
X296583Y363868D01*
X296812Y363314D01*
X296583Y362760D01*
X296583Y362759D01*
X296582Y362758D01*
X296582Y299846D01*
X296587Y299841D01*
X296587Y299842D01*
X296587Y299841D01*
X359499Y299841D01*
X359500Y299842D01*
X359501Y299842D01*
X360055Y300071D01*
X360609Y299842D01*
X360610Y299842D01*
X360611Y299841D01*
X361210Y299841D01*
X361634Y299417D01*
X361635Y299417D01*
X361636Y299416D01*
X362859Y298910D01*
X363889Y298483D01*
X364996Y298025D01*
X365456Y296914D01*
X365881Y295888D01*
X366387Y294665D01*
X366388Y294664D01*
X366388Y294663D01*
X366812Y294239D01*
X366812Y293640D01*
X366813Y293639D01*
X366813Y293638D01*
X367042Y293084D01*
X366813Y292530D01*
X366812Y292529D01*
X366813Y292529D01*
X366812Y292528D01*
X366812Y219790D01*
X366813Y219789D01*
X366813Y219788D01*
X367042Y219235D01*
X366813Y218680D01*
X366813Y218679D01*
X366812Y218679D01*
X366812Y218079D01*
X366388Y217655D01*
X366388Y217654D01*
X366387Y217653D01*
X365881Y216429D01*
X365881Y216428D01*
X365880Y216428D01*
X365422Y215321D01*
X364996Y214292D01*
X363892Y213835D01*
X362860Y213407D01*
X362859Y213407D01*
X361636Y212901D01*
X361635Y212900D01*
X361634Y212900D01*
X361210Y212476D01*
X360611Y212476D01*
X360610Y212475D01*
X360609Y212475D01*
X360055Y212246D01*
X359501Y212475D01*
X359500Y212475D01*
X359499Y212476D01*
X296587Y212476D01*
X296582Y212471D01*
X296583Y212471D01*
X296582Y212471D01*
X296582Y149559D01*
X296583Y149558D01*
X296583Y149557D01*
X296812Y149003D01*
X296583Y148449D01*
X296583Y148448D01*
X296582Y148447D01*
X296582Y147848D01*
X296158Y147424D01*
X296158Y147423D01*
X296157Y147422D01*
X294766Y144062D01*
X292823Y143257D01*
X291405Y142670D01*
X291404Y142669D01*
X291403Y142669D01*
X290979Y142245D01*
X290380Y142245D01*
X290379Y142244D01*
X290378Y142244D01*
X289824Y142015D01*
X289270Y142244D01*
G37*
%LPD*%
G36*
X1003159Y364290D02*
X1003159Y364290D01*
X1003160Y364289D01*
X1088994Y384080D01*
X1088996Y384083D01*
X1088998Y384084D01*
X1105598Y439466D01*
X1105597Y439468D01*
X1105598Y439470D01*
X1076126Y502936D01*
X1076123Y502938D01*
X1076121Y502939D01*
X1076059Y502937D01*
X1076058Y502937D01*
X1075918Y502932D01*
X1075778Y502927D01*
X1075777Y502927D01*
X1075638Y502922D01*
X1075637Y502922D01*
X1075498Y502917D01*
X1075497Y502917D01*
X1075357Y502912D01*
X1075217Y502907D01*
X1075216Y502907D01*
X1075077Y502902D01*
X1075076Y502902D01*
X1074936Y502897D01*
X1074796Y502892D01*
X1074795Y502892D01*
X1074656Y502887D01*
X1074655Y502887D01*
X1074516Y502882D01*
X1074515Y502882D01*
X1074375Y502877D01*
X1074235Y502872D01*
X1074234Y502872D01*
X1074095Y502867D01*
X1074094Y502867D01*
X1073955Y502862D01*
X1073954Y502862D01*
X1073814Y502857D01*
X1073674Y502852D01*
X1073673Y502852D01*
X1073534Y502847D01*
X1073533Y502847D01*
X1073394Y502842D01*
X1073393Y502842D01*
X1073253Y502837D01*
X1073113Y502833D01*
X1073112Y502833D01*
X1073112Y502832D01*
X1072973Y502828D01*
X1072972Y502828D01*
X1072832Y502823D01*
X1072692Y502818D01*
X1072691Y502818D01*
X1072552Y502813D01*
X1072551Y502813D01*
X1072412Y502808D01*
X1072411Y502808D01*
X1072271Y502803D01*
X1072131Y502798D01*
X1072130Y502798D01*
X1071991Y502793D01*
X1071990Y502793D01*
X1071851Y502788D01*
X1071850Y502788D01*
X1071710Y502783D01*
X1071570Y502778D01*
X1071569Y502778D01*
X1071430Y502773D01*
X1071429Y502773D01*
X1071290Y502768D01*
X1071289Y502768D01*
X1071149Y502763D01*
X1071009Y502758D01*
X1071008Y502758D01*
X1070869Y502753D01*
X1070868Y502753D01*
X1070729Y502748D01*
X1070728Y502748D01*
X1070588Y502743D01*
X1070448Y502738D01*
X1070447Y502738D01*
X1070308Y502733D01*
X1070307Y502733D01*
X1070167Y502728D01*
X1070027Y502723D01*
X1070026Y502723D01*
X1069887Y502718D01*
X1069886Y502718D01*
X1069747Y502713D01*
X1069746Y502713D01*
X1069606Y502708D01*
X1069466Y502703D01*
X1069465Y502703D01*
X1069326Y502698D01*
X1069325Y502698D01*
X1069186Y502693D01*
X1069185Y502693D01*
X1069045Y502688D01*
X1068905Y502683D01*
X1068904Y502683D01*
X1068765Y502678D01*
X1068764Y502678D01*
X1068625Y502674D01*
X1068624Y502674D01*
X1068624Y502673D01*
X1068484Y502669D01*
X1068344Y502664D01*
X1068343Y502664D01*
X1068204Y502659D01*
X1068203Y502659D01*
X1068064Y502654D01*
X1068063Y502654D01*
X1067923Y502649D01*
X1067783Y502644D01*
X1067782Y502644D01*
X1067643Y502639D01*
X1067642Y502639D01*
X1067502Y502634D01*
X1067362Y502629D01*
X1067361Y502629D01*
X1067222Y502624D01*
X1067221Y502624D01*
X1067082Y502619D01*
X1067081Y502619D01*
X1066941Y502614D01*
X1066801Y502609D01*
X1066800Y502609D01*
X1066661Y502604D01*
X1066660Y502604D01*
X1066521Y502599D01*
X1066520Y502599D01*
X1066380Y502594D01*
X1066240Y502589D01*
X1066239Y502589D01*
X1066100Y502584D01*
X1066099Y502584D01*
X1065960Y502579D01*
X1065959Y502579D01*
X1065819Y502574D01*
X1065679Y502569D01*
X1065678Y502569D01*
X1065539Y502564D01*
X1065538Y502564D01*
X1065399Y502559D01*
X1065398Y502559D01*
X1065258Y502554D01*
X1065257Y502554D01*
X1065118Y502549D01*
X1065117Y502549D01*
X1064978Y502544D01*
X1064977Y502544D01*
X1064837Y502539D01*
X1064697Y502534D01*
X1064696Y502534D01*
X1064557Y502529D01*
X1064556Y502529D01*
X1064417Y502524D01*
X1064416Y502524D01*
X1064276Y502519D01*
X1064136Y502515D01*
X1064135Y502515D01*
X1064135Y502514D01*
X1063996Y502510D01*
X1063995Y502510D01*
X1063856Y502505D01*
X1063855Y502505D01*
X1063715Y502500D01*
X1063575Y502495D01*
X1063574Y502495D01*
X1063435Y502490D01*
X1063434Y502490D01*
X1063295Y502485D01*
X1063294Y502485D01*
X1063154Y502480D01*
X1063014Y502475D01*
X1063013Y502475D01*
X1062874Y502470D01*
X1062873Y502470D01*
X1062733Y502465D01*
X1062593Y502460D01*
X1062592Y502460D01*
X1062453Y502455D01*
X1062452Y502455D01*
X1062313Y502450D01*
X1062312Y502450D01*
X1062172Y502445D01*
X1062032Y502440D01*
X1062031Y502440D01*
X1061892Y502435D01*
X1061891Y502435D01*
X1061752Y502430D01*
X1061751Y502430D01*
X1061611Y502425D01*
X1061471Y502420D01*
X1061470Y502420D01*
X1061331Y502415D01*
X1061330Y502415D01*
X1061191Y502410D01*
X1061190Y502410D01*
X1061050Y502405D01*
X1060910Y502400D01*
X1060909Y502400D01*
X1060770Y502395D01*
X1060769Y502395D01*
X1060630Y502390D01*
X1060629Y502390D01*
X1060489Y502385D01*
X1060349Y502380D01*
X1060348Y502380D01*
X1060209Y502375D01*
X1060208Y502375D01*
X1060068Y502370D01*
X1059928Y502365D01*
X1059927Y502365D01*
X1059788Y502360D01*
X1059787Y502360D01*
X1059648Y502356D01*
X1059647Y502356D01*
X1059647Y502355D01*
X1059507Y502351D01*
X1059367Y502346D01*
X1059366Y502346D01*
X1059227Y502341D01*
X1059226Y502341D01*
X1059087Y502336D01*
X1059086Y502336D01*
X1058946Y502331D01*
X1058806Y502326D01*
X1058805Y502326D01*
X1058666Y502321D01*
X1058665Y502321D01*
X1058526Y502316D01*
X1058525Y502316D01*
X1058385Y502311D01*
X1058245Y502306D01*
X1058244Y502306D01*
X1058105Y502301D01*
X1058104Y502301D01*
X1057965Y502296D01*
X1057964Y502296D01*
X1057824Y502291D01*
X1057823Y502291D01*
X1057684Y502286D01*
X1057683Y502286D01*
X1057544Y502281D01*
X1057543Y502281D01*
X1057403Y502276D01*
X1057263Y502271D01*
X1057262Y502271D01*
X1057123Y502266D01*
X1057122Y502266D01*
X1056983Y502261D01*
X1056982Y502261D01*
X1056842Y502256D01*
X1056702Y502251D01*
X1056701Y502251D01*
X1056562Y502246D01*
X1056561Y502246D01*
X1056422Y502241D01*
X1056421Y502241D01*
X1056281Y502236D01*
X1056141Y502231D01*
X1056140Y502231D01*
X1056001Y502226D01*
X1056000Y502226D01*
X1055861Y502221D01*
X1055860Y502221D01*
X1055720Y502216D01*
X1055580Y502211D01*
X1055579Y502211D01*
X1055440Y502206D01*
X1055439Y502206D01*
X1055299Y502201D01*
X1055159Y502197D01*
X1055158Y502196D01*
X1055019Y502192D01*
X1055018Y502192D01*
X1054879Y502187D01*
X1054878Y502187D01*
X1054738Y502182D01*
X1054598Y502177D01*
X1054597Y502177D01*
X1054458Y502172D01*
X1054457Y502172D01*
X1054318Y502167D01*
X1054317Y502167D01*
X1054177Y502162D01*
X1054037Y502157D01*
X1054036Y502157D01*
X1053897Y502152D01*
X1053896Y502152D01*
X1053757Y502147D01*
X1053756Y502147D01*
X1053616Y502142D01*
X1053476Y502137D01*
X1053475Y502137D01*
X1053336Y502132D01*
X1053335Y502132D01*
X1053196Y502127D01*
X1053195Y502127D01*
X1053055Y502122D01*
X1052915Y502117D01*
X1052914Y502117D01*
X1052775Y502112D01*
X1052774Y502112D01*
X1052634Y502107D01*
X1052494Y502102D01*
X1052493Y502102D01*
X1052354Y502097D01*
X1052353Y502097D01*
X1052214Y502092D01*
X1052213Y502092D01*
X1052073Y502087D01*
X1051933Y502082D01*
X1051932Y502082D01*
X1051793Y502077D01*
X1051792Y502077D01*
X1051653Y502072D01*
X1051652Y502072D01*
X1051512Y502067D01*
X1051372Y502062D01*
X1051371Y502062D01*
X1051232Y502057D01*
X1051231Y502057D01*
X1051092Y502052D01*
X1051091Y502052D01*
X1050951Y502047D01*
X1050811Y502042D01*
X1050810Y502042D01*
X1050671Y502038D01*
X1050670Y502038D01*
X1050670Y502037D01*
X1050531Y502033D01*
X1050530Y502033D01*
X1050390Y502028D01*
X1050250Y502023D01*
X1050249Y502023D01*
X1050110Y502018D01*
X1050109Y502018D01*
X1049969Y502013D01*
X1049829Y502008D01*
X1049828Y502008D01*
X1049689Y502003D01*
X1049688Y502003D01*
X1049549Y501998D01*
X1049548Y501998D01*
X1049408Y501993D01*
X1049268Y501988D01*
X1049267Y501988D01*
X1049128Y501983D01*
X1049127Y501983D01*
X1048988Y501978D01*
X1048987Y501978D01*
X1048847Y501973D01*
X1048707Y501968D01*
X1048706Y501968D01*
X1048567Y501963D01*
X1048566Y501963D01*
X1048427Y501958D01*
X1048426Y501958D01*
X1048286Y501953D01*
X1048146Y501948D01*
X1048145Y501948D01*
X1048006Y501943D01*
X1048005Y501943D01*
X1047865Y501938D01*
X1047725Y501933D01*
X1047724Y501933D01*
X1047585Y501928D01*
X1047584Y501928D01*
X1047445Y501923D01*
X1047444Y501923D01*
X1047304Y501918D01*
X1047164Y501913D01*
X1047163Y501913D01*
X1047024Y501908D01*
X1047023Y501908D01*
X1046884Y501903D01*
X1046883Y501903D01*
X1046743Y501898D01*
X1046603Y501893D01*
X1046602Y501893D01*
X1046463Y501888D01*
X1046462Y501888D01*
X1046323Y501883D01*
X1046322Y501883D01*
X1046182Y501879D01*
X1046182Y501878D01*
X1046042Y501874D01*
X1046041Y501874D01*
X1045902Y501869D01*
X1045901Y501869D01*
X1045762Y501864D01*
X1045761Y501864D01*
X1045621Y501859D01*
X1045481Y501854D01*
X1045480Y501854D01*
X1045341Y501849D01*
X1045340Y501849D01*
X1045200Y501844D01*
X1045060Y501839D01*
X1045059Y501839D01*
X1044920Y501834D01*
X1044919Y501834D01*
X1044780Y501829D01*
X1044779Y501829D01*
X1044639Y501824D01*
X1044499Y501819D01*
X1044498Y501819D01*
X1044359Y501814D01*
X1044358Y501814D01*
X1044219Y501809D01*
X1044218Y501809D01*
X1044078Y501804D01*
X1043938Y501799D01*
X1043937Y501799D01*
X1043798Y501794D01*
X1043797Y501794D01*
X1043658Y501789D01*
X1043657Y501789D01*
X1043517Y501784D01*
X1043377Y501779D01*
X1043376Y501779D01*
X1043237Y501774D01*
X1043236Y501774D01*
X1043097Y501769D01*
X1043096Y501769D01*
X1042956Y501764D01*
X1042816Y501759D01*
X1042815Y501759D01*
X1042676Y501754D01*
X1042675Y501754D01*
X1042535Y501749D01*
X1042395Y501744D01*
X1042394Y501744D01*
X1042255Y501739D01*
X1042254Y501739D01*
X1042115Y501734D01*
X1042114Y501734D01*
X1041974Y501729D01*
X1041834Y501724D01*
X1041833Y501724D01*
X1041694Y501720D01*
X1041693Y501720D01*
X1041693Y501719D01*
X1041554Y501715D01*
X1041553Y501715D01*
X1041413Y501710D01*
X1041273Y501705D01*
X1041272Y501705D01*
X1041133Y501700D01*
X1041132Y501700D01*
X1040993Y501695D01*
X1040992Y501695D01*
X1040852Y501690D01*
X1040712Y501685D01*
X1040711Y501685D01*
X1040572Y501680D01*
X1040571Y501680D01*
X1040431Y501675D01*
X1040291Y501670D01*
X1040290Y501670D01*
X1040151Y501665D01*
X1040150Y501665D01*
X1040011Y501660D01*
X1040010Y501660D01*
X1039870Y501655D01*
X1039730Y501650D01*
X1039729Y501650D01*
X1039590Y501645D01*
X1039589Y501645D01*
X1039450Y501640D01*
X1039449Y501640D01*
X1039309Y501635D01*
X1039169Y501630D01*
X1039168Y501630D01*
X1039029Y501625D01*
X1039028Y501625D01*
X1038889Y501620D01*
X1038888Y501620D01*
X1038748Y501615D01*
X1038608Y501610D01*
X1038607Y501610D01*
X1038468Y501605D01*
X1038467Y501605D01*
X1038328Y501600D01*
X1038327Y501600D01*
X1038187Y501595D01*
X1038047Y501590D01*
X1038046Y501590D01*
X1037907Y501585D01*
X1037906Y501585D01*
X1037766Y501580D01*
X1037626Y501575D01*
X1037625Y501575D01*
X1037486Y501570D01*
X1037485Y501570D01*
X1037346Y501565D01*
X1037345Y501565D01*
X1037205Y501561D01*
X1037205Y501560D01*
X1037065Y501556D01*
X1037064Y501556D01*
X1036925Y501551D01*
X1036924Y501551D01*
X1036785Y501546D01*
X1036784Y501546D01*
X1036644Y501541D01*
X1036504Y501536D01*
X1036503Y501536D01*
X1036364Y501531D01*
X1036363Y501531D01*
X1036224Y501526D01*
X1036223Y501526D01*
X1036083Y501521D01*
X1035943Y501516D01*
X1035942Y501516D01*
X1035803Y501511D01*
X1035802Y501511D01*
X1035663Y501506D01*
X1035662Y501506D01*
X1035522Y501501D01*
X1035382Y501496D01*
X1035381Y501496D01*
X1035242Y501491D01*
X1035241Y501491D01*
X1035101Y501486D01*
X1034961Y501481D01*
X1034960Y501481D01*
X1034821Y501476D01*
X1034820Y501476D01*
X1034681Y501471D01*
X1034680Y501471D01*
X1034540Y501466D01*
X1034400Y501461D01*
X1034399Y501461D01*
X1034260Y501456D01*
X1034259Y501456D01*
X1034120Y501451D01*
X1034119Y501451D01*
X1033979Y501446D01*
X1033839Y501441D01*
X1033838Y501441D01*
X1033699Y501436D01*
X1033698Y501436D01*
X1033559Y501431D01*
X1033558Y501431D01*
X1033418Y501426D01*
X1033278Y501421D01*
X1033277Y501421D01*
X1033138Y501416D01*
X1033137Y501416D01*
X1032998Y501411D01*
X1032997Y501411D01*
X1032857Y501406D01*
X1032856Y501406D01*
X1032717Y501402D01*
X1032716Y501402D01*
X1032716Y501401D01*
X1032577Y501397D01*
X1032576Y501397D01*
X1032436Y501392D01*
X1032296Y501387D01*
X1032295Y501387D01*
X1032156Y501382D01*
X1032155Y501382D01*
X1032016Y501377D01*
X1032015Y501377D01*
X1031875Y501372D01*
X1031735Y501367D01*
X1031734Y501367D01*
X1031595Y501362D01*
X1031594Y501362D01*
X1031455Y501357D01*
X1031454Y501357D01*
X1031314Y501352D01*
X1031174Y501347D01*
X1031173Y501347D01*
X1031034Y501342D01*
X1031033Y501342D01*
X1030894Y501337D01*
X1030893Y501337D01*
X1030753Y501332D01*
X1030613Y501327D01*
X1030612Y501327D01*
X1030473Y501322D01*
X1030472Y501322D01*
X1030332Y501317D01*
X1030192Y501312D01*
X1030191Y501312D01*
X1030052Y501307D01*
X1030051Y501307D01*
X1029912Y501302D01*
X1029911Y501302D01*
X1029771Y501297D01*
X1029631Y501292D01*
X1029630Y501292D01*
X1029491Y501287D01*
X1029490Y501287D01*
X1029351Y501282D01*
X1029350Y501282D01*
X1029210Y501277D01*
X1029070Y501272D01*
X1029069Y501272D01*
X1028930Y501267D01*
X1028929Y501267D01*
X1028790Y501262D01*
X1028789Y501262D01*
X1028649Y501257D01*
X1028509Y501252D01*
X1028508Y501252D01*
X1028369Y501247D01*
X1028368Y501247D01*
X1028229Y501243D01*
X1028228Y501243D01*
X1028228Y501242D01*
X1028088Y501238D01*
X1027948Y501233D01*
X1027947Y501233D01*
X1027808Y501228D01*
X1027807Y501228D01*
X1027667Y501223D01*
X1027527Y501218D01*
X1027526Y501218D01*
X1027387Y501213D01*
X1027386Y501213D01*
X1027247Y501208D01*
X1027246Y501208D01*
X1027106Y501203D01*
X1026966Y501198D01*
X1026965Y501198D01*
X1026826Y501193D01*
X1026825Y501193D01*
X1026686Y501188D01*
X1026685Y501188D01*
X1026545Y501183D01*
X1026405Y501178D01*
X1026404Y501178D01*
X1026265Y501173D01*
X1026264Y501173D01*
X1026125Y501168D01*
X1026124Y501168D01*
X1025984Y501163D01*
X1025844Y501158D01*
X1025843Y501158D01*
X1025704Y501153D01*
X1025703Y501153D01*
X1025564Y501148D01*
X1025563Y501148D01*
X1025423Y501143D01*
X1025283Y501138D01*
X1025282Y501138D01*
X1025143Y501133D01*
X1025142Y501133D01*
X1025002Y501128D01*
X1024862Y501123D01*
X1024861Y501123D01*
X1024722Y501118D01*
X1024721Y501118D01*
X1024582Y501113D01*
X1024581Y501113D01*
X1024441Y501108D01*
X1024301Y501103D01*
X1024300Y501103D01*
X1024161Y501098D01*
X1024160Y501098D01*
X1024021Y501093D01*
X1024020Y501093D01*
X1023880Y501088D01*
X1023740Y501084D01*
X1023739Y501084D01*
X1023739Y501083D01*
X1023600Y501079D01*
X1023599Y501079D01*
X1023460Y501074D01*
X1023459Y501074D01*
X1023319Y501069D01*
X1023179Y501064D01*
X1023178Y501064D01*
X1023039Y501059D01*
X1023038Y501059D01*
X1022898Y501054D01*
X1022758Y501049D01*
X1022757Y501049D01*
X1022618Y501044D01*
X1022617Y501044D01*
X1022478Y501039D01*
X1022477Y501039D01*
X1022337Y501034D01*
X1022197Y501029D01*
X1022196Y501029D01*
X1022057Y501024D01*
X1022056Y501024D01*
X1021917Y501019D01*
X1021916Y501019D01*
X1021776Y501014D01*
X1021636Y501009D01*
X1021635Y501009D01*
X1021496Y501004D01*
X1021495Y501004D01*
X1021356Y500999D01*
X1021355Y500999D01*
X1021215Y500994D01*
X1021075Y500989D01*
X1021074Y500989D01*
X1020935Y500984D01*
X1020934Y500984D01*
X1020795Y500979D01*
X1020794Y500979D01*
X1020654Y500974D01*
X1020514Y500969D01*
X1020513Y500969D01*
X1020374Y500964D01*
X1020373Y500964D01*
X1020233Y500959D01*
X1020093Y500954D01*
X1020092Y500954D01*
X1019953Y500949D01*
X1019952Y500949D01*
X1019813Y500944D01*
X1019812Y500944D01*
X1019672Y500939D01*
X1019532Y500934D01*
X1019531Y500934D01*
X1019392Y500929D01*
X1019391Y500929D01*
X1019252Y500925D01*
X1019251Y500925D01*
X1019251Y500924D01*
X1019111Y500920D01*
X1018971Y500915D01*
X1018970Y500915D01*
X1018831Y500910D01*
X1018830Y500910D01*
X1018691Y500905D01*
X1018690Y500905D01*
X1018550Y500900D01*
X1018410Y500895D01*
X1018409Y500895D01*
X1018270Y500890D01*
X1018269Y500890D01*
X1018130Y500885D01*
X1018129Y500885D01*
X1017989Y500880D01*
X1017849Y500875D01*
X1017848Y500875D01*
X1017709Y500870D01*
X1017708Y500870D01*
X1017568Y500865D01*
X1017428Y500860D01*
X1017427Y500860D01*
X1017288Y500855D01*
X1017287Y500855D01*
X1017148Y500850D01*
X1017147Y500850D01*
X1017007Y500845D01*
X1016867Y500840D01*
X1016866Y500840D01*
X1016727Y500835D01*
X1016726Y500835D01*
X1016587Y500830D01*
X1016586Y500830D01*
X1016446Y500825D01*
X1016306Y500820D01*
X1016305Y500820D01*
X1016166Y500815D01*
X1016165Y500815D01*
X1016026Y500810D01*
X1016025Y500810D01*
X1015885Y500805D01*
X1015745Y500800D01*
X1015744Y500800D01*
X1015605Y500795D01*
X1015604Y500795D01*
X1015464Y500790D01*
X1015324Y500785D01*
X1015323Y500785D01*
X1015184Y500780D01*
X1015183Y500780D01*
X1015044Y500775D01*
X1015043Y500775D01*
X1014903Y500770D01*
X1014763Y500766D01*
X1014762Y500766D01*
X1014762Y500765D01*
X1014623Y500761D01*
X1014622Y500761D01*
X1014483Y500756D01*
X1014482Y500756D01*
X1014342Y500751D01*
X1014202Y500746D01*
X1014201Y500746D01*
X1014062Y500741D01*
X1014061Y500741D01*
X1013922Y500736D01*
X1013921Y500736D01*
X1013781Y500731D01*
X1013641Y500726D01*
X1013640Y500726D01*
X1013501Y500721D01*
X1013500Y500721D01*
X1013361Y500716D01*
X1013360Y500716D01*
X1013220Y500711D01*
X1013080Y500706D01*
X1013079Y500706D01*
X1012940Y500701D01*
X1012939Y500701D01*
X1012799Y500696D01*
X1012659Y500691D01*
X1012658Y500691D01*
X1012519Y500686D01*
X1012518Y500686D01*
X1012379Y500681D01*
X1012378Y500681D01*
X1012238Y500676D01*
X1012098Y500671D01*
X1012097Y500671D01*
X1011958Y500666D01*
X1011957Y500666D01*
X1011818Y500661D01*
X1011817Y500661D01*
X1011677Y500656D01*
X1011537Y500651D01*
X1011536Y500651D01*
X1011397Y500646D01*
X1011396Y500646D01*
X1011257Y500641D01*
X1011256Y500641D01*
X1011116Y500636D01*
X1010976Y500631D01*
X1010975Y500631D01*
X1010836Y500626D01*
X1010835Y500626D01*
X1010696Y500621D01*
X1010695Y500621D01*
X1010555Y500616D01*
X1010415Y500611D01*
X1010414Y500611D01*
X1010275Y500607D01*
X1010274Y500607D01*
X1010274Y500606D01*
X1010134Y500602D01*
X1009994Y500597D01*
X1009993Y500597D01*
X1009854Y500592D01*
X1009853Y500592D01*
X1009714Y500587D01*
X1009713Y500587D01*
X1009573Y500582D01*
X1009433Y500577D01*
X1009432Y500577D01*
X1009293Y500572D01*
X1009292Y500572D01*
X1009153Y500567D01*
X1009152Y500567D01*
X1009012Y500562D01*
X1008872Y500557D01*
X1008871Y500557D01*
X1008732Y500552D01*
X1008731Y500552D01*
X1008592Y500547D01*
X1008591Y500547D01*
X1008451Y500542D01*
X1008311Y500537D01*
X1008310Y500537D01*
X1008171Y500532D01*
X1008170Y500532D01*
X1008030Y500527D01*
X1007890Y500522D01*
X1007889Y500522D01*
X1007750Y500517D01*
X1007749Y500517D01*
X1007610Y500512D01*
X1007609Y500512D01*
X1007469Y500507D01*
X1007329Y500502D01*
X1007328Y500502D01*
X1007189Y500497D01*
X1007188Y500497D01*
X1007049Y500492D01*
X1007048Y500492D01*
X1006908Y500487D01*
X1006768Y500482D01*
X1006767Y500482D01*
X1006628Y500477D01*
X1006627Y500477D01*
X1006488Y500472D01*
X1006487Y500472D01*
X1006347Y500467D01*
X1006207Y500462D01*
X1006206Y500462D01*
X1006067Y500457D01*
X1006066Y500457D01*
X1005927Y500452D01*
X1005926Y500452D01*
X1005786Y500448D01*
X1005786Y500447D01*
X1005646Y500443D01*
X1005645Y500443D01*
X1005506Y500438D01*
X1005505Y500438D01*
X1005365Y500433D01*
X1005225Y500428D01*
X1005224Y500428D01*
X1005085Y500423D01*
X1005084Y500423D01*
X1004945Y500418D01*
X1004944Y500418D01*
X1004804Y500413D01*
X1004664Y500408D01*
X1004663Y500408D01*
X1004524Y500403D01*
X1004523Y500403D01*
X1004384Y500398D01*
X1004383Y500398D01*
X1004243Y500393D01*
X1004103Y500388D01*
X1004102Y500388D01*
X1003963Y500383D01*
X1003962Y500383D01*
X1003823Y500378D01*
X1003822Y500378D01*
X1003682Y500373D01*
X1003542Y500368D01*
X1003541Y500368D01*
X1003402Y500363D01*
X1003401Y500363D01*
X1003262Y500358D01*
X1003261Y500358D01*
X1003121Y500353D01*
X1002981Y500348D01*
X1002980Y500348D01*
X1002841Y500343D01*
X1002840Y500343D01*
X1002700Y500338D01*
X1002560Y500333D01*
X1002559Y500333D01*
X1002420Y500328D01*
X1002419Y500328D01*
X1002280Y500323D01*
X1002279Y500323D01*
X1002139Y500318D01*
X1001999Y500313D01*
X1001998Y500313D01*
X1001859Y500308D01*
X1001858Y500308D01*
X1001719Y500303D01*
X1001718Y500303D01*
X1001578Y500298D01*
X1001438Y500293D01*
X1001437Y500293D01*
X1001298Y500289D01*
X1001297Y500289D01*
X1001297Y500288D01*
X1001158Y500284D01*
X1001157Y500284D01*
X1001017Y500279D01*
X1000877Y500274D01*
X1000876Y500274D01*
X1000737Y500269D01*
X1000736Y500269D01*
X1000597Y500264D01*
X1000596Y500264D01*
X1000456Y500259D01*
X1000455Y500259D01*
X1000316Y500254D01*
X1000315Y500254D01*
X1000176Y500249D01*
X1000175Y500249D01*
X1000035Y500244D01*
X999895Y500239D01*
X999894Y500239D01*
X999755Y500234D01*
X999754Y500234D01*
X999615Y500229D01*
X999614Y500229D01*
X999474Y500224D01*
X999334Y500219D01*
X999333Y500219D01*
X999194Y500214D01*
X999193Y500214D01*
X999054Y500209D01*
X999053Y500209D01*
X998913Y500204D01*
X998773Y500199D01*
X998772Y500199D01*
X998633Y500194D01*
X998632Y500194D01*
X998493Y500189D01*
X998492Y500189D01*
X998352Y500184D01*
X998212Y500179D01*
X998211Y500179D01*
X998072Y500174D01*
X998071Y500174D01*
X997931Y500169D01*
X997791Y500164D01*
X997790Y500164D01*
X997651Y500159D01*
X997650Y500159D01*
X997511Y500154D01*
X997510Y500154D01*
X997370Y500149D01*
X997230Y500144D01*
X997229Y500144D01*
X997090Y500139D01*
X997089Y500139D01*
X996950Y500134D01*
X996949Y500134D01*
X996809Y500130D01*
X996809Y500129D01*
X996669Y500125D01*
X996668Y500125D01*
X996529Y500120D01*
X996528Y500120D01*
X996389Y500115D01*
X996388Y500115D01*
X996248Y500110D01*
X996108Y500105D01*
X996107Y500105D01*
X995968Y500100D01*
X995967Y500100D01*
X995828Y500095D01*
X995827Y500095D01*
X995687Y500090D01*
X995547Y500085D01*
X995546Y500085D01*
X995407Y500080D01*
X995406Y500080D01*
X995266Y500075D01*
X995126Y500070D01*
X995125Y500070D01*
X994986Y500065D01*
X994985Y500065D01*
X994846Y500060D01*
X994845Y500060D01*
X994705Y500055D01*
X994565Y500050D01*
X994564Y500050D01*
X994425Y500045D01*
X994424Y500045D01*
X994285Y500040D01*
X994284Y500040D01*
X994144Y500035D01*
X994004Y500030D01*
X994003Y500030D01*
X993864Y500025D01*
X993863Y500025D01*
X993724Y500020D01*
X993723Y500020D01*
X993583Y500015D01*
X993443Y500010D01*
X993442Y500010D01*
X993303Y500005D01*
X993302Y500005D01*
X993163Y500000D01*
X993162Y500000D01*
X993022Y499995D01*
X992882Y499990D01*
X992881Y499990D01*
X992742Y499985D01*
X992741Y499985D01*
X992601Y499980D01*
X992461Y499975D01*
X992460Y499975D01*
X992321Y499971D01*
X992320Y499971D01*
X992320Y499970D01*
X992181Y499966D01*
X992180Y499966D01*
X992040Y499961D01*
X991900Y499956D01*
X991899Y499956D01*
X991760Y499951D01*
X991759Y499951D01*
X991620Y499946D01*
X991619Y499946D01*
X991479Y499941D01*
X991339Y499936D01*
X991338Y499936D01*
X991199Y499931D01*
X991198Y499931D01*
X991059Y499926D01*
X991058Y499926D01*
X990918Y499921D01*
X990778Y499916D01*
X990777Y499916D01*
X990638Y499911D01*
X990637Y499911D01*
X990497Y499906D01*
X990357Y499901D01*
X990356Y499901D01*
X990217Y499896D01*
X990216Y499896D01*
X990077Y499891D01*
X990076Y499891D01*
X989936Y499886D01*
X989796Y499881D01*
X989795Y499881D01*
X989656Y499876D01*
X989655Y499876D01*
X989516Y499871D01*
X989515Y499871D01*
X989375Y499866D01*
X989235Y499861D01*
X989234Y499861D01*
X989095Y499856D01*
X989094Y499856D01*
X988955Y499851D01*
X988954Y499851D01*
X988814Y499846D01*
X988674Y499841D01*
X988673Y499841D01*
X988534Y499836D01*
X988533Y499836D01*
X988394Y499831D01*
X988393Y499831D01*
X988253Y499826D01*
X988113Y499821D01*
X988112Y499821D01*
X987973Y499816D01*
X987972Y499816D01*
X987832Y499812D01*
X987832Y499811D01*
X987692Y499807D01*
X987691Y499807D01*
X987552Y499802D01*
X987551Y499802D01*
X987412Y499797D01*
X987411Y499797D01*
X987271Y499792D01*
X987131Y499787D01*
X987130Y499787D01*
X986991Y499782D01*
X986990Y499782D01*
X986851Y499777D01*
X986850Y499777D01*
X986710Y499772D01*
X986570Y499767D01*
X986569Y499767D01*
X986430Y499762D01*
X986429Y499762D01*
X986290Y499757D01*
X986289Y499757D01*
X986149Y499752D01*
X986009Y499747D01*
X986008Y499747D01*
X985869Y499742D01*
X985868Y499742D01*
X985729Y499737D01*
X985728Y499737D01*
X985588Y499732D01*
X985448Y499727D01*
X985447Y499727D01*
X985308Y499722D01*
X985307Y499722D01*
X985167Y499717D01*
X985027Y499712D01*
X985026Y499712D01*
X984887Y499707D01*
X984886Y499707D01*
X984747Y499702D01*
X984746Y499702D01*
X984606Y499697D01*
X984466Y499692D01*
X984465Y499692D01*
X984326Y499687D01*
X984325Y499687D01*
X984186Y499682D01*
X984185Y499682D01*
X984045Y499677D01*
X983905Y499672D01*
X983904Y499672D01*
X983765Y499667D01*
X983764Y499667D01*
X983625Y499662D01*
X983624Y499662D01*
X983484Y499657D01*
X983344Y499653D01*
X983343Y499653D01*
X983343Y499652D01*
X983204Y499648D01*
X983203Y499648D01*
X983063Y499643D01*
X982923Y499638D01*
X982922Y499638D01*
X982783Y499633D01*
X982782Y499633D01*
X982643Y499628D01*
X982642Y499628D01*
X982502Y499623D01*
X982362Y499618D01*
X982361Y499618D01*
X982222Y499613D01*
X982221Y499613D01*
X982082Y499608D01*
X982081Y499608D01*
X981941Y499603D01*
X981801Y499598D01*
X981800Y499598D01*
X981661Y499593D01*
X981660Y499593D01*
X981521Y499588D01*
X981520Y499588D01*
X981380Y499583D01*
X981240Y499578D01*
X981239Y499578D01*
X981100Y499573D01*
X981099Y499573D01*
X980960Y499568D01*
X980959Y499568D01*
X980819Y499563D01*
X980679Y499558D01*
X980678Y499558D01*
X980539Y499553D01*
X980538Y499553D01*
X980398Y499548D01*
X980258Y499543D01*
X980257Y499543D01*
X980118Y499538D01*
X980117Y499538D01*
X979978Y499533D01*
X979977Y499533D01*
X979837Y499528D01*
X979697Y499523D01*
X979696Y499523D01*
X979557Y499518D01*
X979556Y499518D01*
X979417Y499513D01*
X979416Y499513D01*
X979276Y499508D01*
X979136Y499503D01*
X979135Y499503D01*
X978996Y499498D01*
X978995Y499498D01*
X978856Y499494D01*
X978855Y499494D01*
X978855Y499493D01*
X978715Y499489D01*
X978575Y499484D01*
X978574Y499484D01*
X978435Y499479D01*
X978434Y499479D01*
X978295Y499474D01*
X978294Y499474D01*
X978154Y499469D01*
X978014Y499464D01*
X978013Y499464D01*
X977874Y499459D01*
X977873Y499459D01*
X977733Y499454D01*
X977593Y499449D01*
X977592Y499449D01*
X977453Y499444D01*
X977452Y499444D01*
X977313Y499439D01*
X977312Y499439D01*
X977172Y499434D01*
X977032Y499429D01*
X977031Y499429D01*
X976892Y499424D01*
X976891Y499424D01*
X976752Y499419D01*
X976751Y499419D01*
X976611Y499414D01*
X976471Y499409D01*
X976470Y499409D01*
X976331Y499404D01*
X976330Y499404D01*
X976191Y499399D01*
X976190Y499399D01*
X976050Y499394D01*
X975910Y499389D01*
X975909Y499389D01*
X975770Y499384D01*
X975769Y499384D01*
X975630Y499379D01*
X975629Y499379D01*
X975489Y499374D01*
X975488Y499374D01*
X975349Y499369D01*
X975348Y499369D01*
X975209Y499364D01*
X975208Y499364D01*
X975068Y499359D01*
X974928Y499354D01*
X974927Y499354D01*
X974788Y499349D01*
X974787Y499349D01*
X974648Y499344D01*
X974647Y499344D01*
X974507Y499339D01*
X974367Y499335D01*
X974366Y499335D01*
X974366Y499334D01*
X974227Y499330D01*
X974226Y499330D01*
X974087Y499325D01*
X974086Y499325D01*
X973946Y499320D01*
X973806Y499315D01*
X973805Y499315D01*
X973666Y499310D01*
X973665Y499310D01*
X973526Y499305D01*
X973525Y499305D01*
X973385Y499300D01*
X973245Y499295D01*
X973244Y499295D01*
X973105Y499290D01*
X973104Y499290D01*
X972964Y499285D01*
X972824Y499280D01*
X972823Y499280D01*
X972684Y499275D01*
X972683Y499275D01*
X972544Y499270D01*
X972543Y499270D01*
X972403Y499265D01*
X972263Y499260D01*
X972262Y499260D01*
X972123Y499255D01*
X972122Y499255D01*
X971983Y499250D01*
X971982Y499250D01*
X971842Y499245D01*
X971702Y499240D01*
X971701Y499240D01*
X971562Y499235D01*
X971561Y499235D01*
X971422Y499230D01*
X971421Y499230D01*
X971281Y499225D01*
X971141Y499220D01*
X971140Y499220D01*
X971001Y499215D01*
X971000Y499215D01*
X970861Y499210D01*
X970860Y499210D01*
X970720Y499205D01*
X970580Y499200D01*
X970579Y499200D01*
X970440Y499195D01*
X970439Y499195D01*
X970299Y499190D01*
X970159Y499185D01*
X970158Y499185D01*
X970019Y499180D01*
X970018Y499180D01*
X969879Y499176D01*
X969878Y499176D01*
X969878Y499175D01*
X969738Y499171D01*
X969598Y499166D01*
X969597Y499166D01*
X969458Y499161D01*
X969457Y499161D01*
X969318Y499156D01*
X969317Y499156D01*
X969177Y499151D01*
X969037Y499146D01*
X969036Y499146D01*
X968978Y499144D01*
X968976Y499142D01*
X968974Y499142D01*
X924865Y439325D01*
X924866Y439324D01*
X924864Y439323D01*
X924866Y439322D01*
X924866Y439319D01*
X924868Y439319D01*
X924869Y439318D01*
X938931Y439449D01*
X939131Y378798D01*
X939134Y378795D01*
X939135Y378794D01*
X1003158Y364289D01*
X1003159Y364290D01*
G37*
%LPC*%
G36*
X1002702Y368060D02*
X1002702Y368060D01*
X1002701Y368060D01*
X1002700Y368060D01*
X1002699Y368061D01*
X1002257Y368013D01*
X1001672Y368484D01*
X1001671Y368484D01*
X1001671Y368485D01*
X997529Y370190D01*
X996438Y370637D01*
X995990Y371713D01*
X994282Y375803D01*
X994281Y375804D01*
X994281Y375805D01*
X993854Y376232D01*
X993854Y376827D01*
X993853Y376828D01*
X993853Y376829D01*
X993624Y377378D01*
X993853Y377937D01*
X993854Y377937D01*
X993853Y377938D01*
X993854Y377939D01*
X993854Y443324D01*
X995488Y444958D01*
X1002477Y444958D01*
X1002478Y444959D01*
X1002479Y444959D01*
X1002480Y444961D01*
X1002482Y444963D01*
X1002480Y444964D01*
X1002481Y444966D01*
X973313Y481674D01*
X973312Y481674D01*
X973312Y481675D01*
X972661Y482187D01*
X972617Y482548D01*
X972616Y482549D01*
X972616Y482550D01*
X972391Y482834D01*
X972392Y482848D01*
X972393Y482852D01*
X972393Y482853D01*
X972393Y482857D01*
X972393Y482858D01*
X972395Y482872D01*
X972395Y482877D01*
X972396Y482882D01*
X972398Y482897D01*
X972398Y482902D01*
X972399Y482907D01*
X972401Y482922D01*
X972401Y482927D01*
X972402Y482932D01*
X972403Y482947D01*
X972404Y482952D01*
X972405Y482957D01*
X972406Y482972D01*
X972407Y482977D01*
X972407Y482982D01*
X972409Y482997D01*
X972410Y483002D01*
X972410Y483007D01*
X972411Y483012D01*
X972412Y483021D01*
X972413Y483026D01*
X972413Y483031D01*
X972414Y483036D01*
X972415Y483046D01*
X972415Y483051D01*
X972416Y483056D01*
X972416Y483061D01*
X972417Y483061D01*
X972418Y483071D01*
X972418Y483076D01*
X972419Y483081D01*
X972419Y483086D01*
X972420Y483096D01*
X972421Y483096D01*
X972420Y483096D01*
X972421Y483101D01*
X972422Y483106D01*
X972422Y483111D01*
X972423Y483121D01*
X972424Y483126D01*
X972424Y483131D01*
X972425Y483136D01*
X972426Y483146D01*
X972427Y483151D01*
X972427Y483156D01*
X972428Y483161D01*
X972429Y483170D01*
X972429Y483171D01*
X972430Y483175D01*
X972430Y483176D01*
X972430Y483180D01*
X972431Y483185D01*
X972432Y483195D01*
X972432Y483200D01*
X972433Y483205D01*
X972434Y483210D01*
X972435Y483220D01*
X972435Y483225D01*
X972436Y483230D01*
X972436Y483235D01*
X972438Y483245D01*
X972438Y483250D01*
X972439Y483255D01*
X972439Y483260D01*
X972440Y483270D01*
X972441Y483275D01*
X972442Y483280D01*
X972442Y483285D01*
X972443Y483295D01*
X972444Y483300D01*
X972444Y483305D01*
X972445Y483310D01*
X972447Y483325D01*
X972447Y483329D01*
X972447Y483330D01*
X972448Y483334D01*
X972448Y483335D01*
X972449Y483349D01*
X972450Y483349D01*
X972449Y483349D01*
X972450Y483354D01*
X972451Y483359D01*
X972452Y483374D01*
X972453Y483379D01*
X972453Y483384D01*
X972455Y483399D01*
X972456Y483404D01*
X972456Y483409D01*
X972458Y483424D01*
X972459Y483429D01*
X972459Y483434D01*
X972461Y483449D01*
X972461Y483454D01*
X972462Y483459D01*
X972464Y483474D01*
X972464Y483479D01*
X972465Y483484D01*
X972465Y483489D01*
X972467Y483498D01*
X972467Y483503D01*
X972468Y483508D01*
X972468Y483513D01*
X972469Y483523D01*
X972470Y483528D01*
X972471Y483533D01*
X972471Y483538D01*
X972472Y483548D01*
X972473Y483553D01*
X972473Y483558D01*
X972474Y483563D01*
X972475Y483573D01*
X972476Y483578D01*
X972476Y483583D01*
X972477Y483588D01*
X972478Y483598D01*
X972478Y483603D01*
X972479Y483603D01*
X972478Y483603D01*
X972479Y483608D01*
X972480Y483613D01*
X972481Y483623D01*
X972481Y483628D01*
X972482Y483633D01*
X972482Y483638D01*
X972484Y483647D01*
X972484Y483648D01*
X972484Y483652D01*
X972484Y483653D01*
X972485Y483657D01*
X972484Y483658D01*
X972485Y483659D01*
X971793Y489446D01*
X971792Y489447D01*
X971792Y489448D01*
X971521Y489858D01*
X971537Y489938D01*
X971556Y490032D01*
X971559Y490047D01*
X971578Y490142D01*
X971597Y490236D01*
X971617Y490330D01*
X971636Y490425D01*
X971655Y490519D01*
X971661Y490549D01*
X971661Y490550D01*
X971661Y490551D01*
X971577Y491251D01*
X971882Y491638D01*
X971882Y491640D01*
X971883Y491640D01*
X971891Y491682D01*
X971904Y491747D01*
X971934Y491891D01*
X971947Y491955D01*
X971960Y492020D01*
X971973Y492084D01*
X971981Y492123D01*
X972569Y492512D01*
X972569Y492513D01*
X972570Y492513D01*
X973006Y493067D01*
X973495Y493126D01*
X973496Y493127D01*
X973497Y493127D01*
X978352Y496342D01*
X978352Y496343D01*
X978353Y496343D01*
X978919Y496947D01*
X979282Y496959D01*
X979283Y496959D01*
X979284Y496960D01*
X979285Y496960D01*
X979588Y497160D01*
X980400Y496996D01*
X980401Y496995D01*
X982566Y497066D01*
X987894Y497243D01*
X988877Y497276D01*
X990207Y497320D01*
X1007645Y497898D01*
X1009366Y497955D01*
X1009958Y497975D01*
X1028619Y498594D01*
X1034283Y498782D01*
X1037094Y498875D01*
X1037095Y498876D01*
X1037096Y498875D01*
X1037771Y499117D01*
X1038205Y498913D01*
X1038206Y498913D01*
X1038207Y498912D01*
X1038687Y498928D01*
X1039211Y498438D01*
X1039212Y498438D01*
X1039212Y498437D01*
X1043942Y496205D01*
X1043943Y496205D01*
X1043944Y496204D01*
X1044652Y496113D01*
X1044947Y495731D01*
X1044949Y495731D01*
X1044949Y495730D01*
X1045386Y495523D01*
X1045627Y494851D01*
X1045628Y494851D01*
X1045628Y494850D01*
X1049335Y490051D01*
X1049336Y490051D01*
X1049337Y490050D01*
X1049338Y490050D01*
X1049342Y490050D01*
X1049342Y490052D01*
X1049344Y490052D01*
X1049437Y490279D01*
X1049851Y491334D01*
X1049873Y491344D01*
X1049874Y491346D01*
X1049876Y491346D01*
X1049885Y491368D01*
X1050932Y491805D01*
X1054871Y493522D01*
X1054872Y493524D01*
X1054873Y493524D01*
X1055286Y493954D01*
X1055888Y493966D01*
X1055889Y493967D01*
X1055890Y493967D01*
X1056442Y494208D01*
X1056998Y493989D01*
X1056999Y493990D01*
X1057000Y493989D01*
X1066980Y494194D01*
X1066981Y494194D01*
X1066982Y494194D01*
X1067556Y494435D01*
X1068089Y494217D01*
X1068090Y494217D01*
X1068091Y494217D01*
X1068091Y494216D01*
X1068668Y494228D01*
X1069117Y493797D01*
X1069118Y493797D01*
X1069118Y493796D01*
X1072364Y492470D01*
X1072366Y492471D01*
X1072368Y492470D01*
X1072398Y492482D01*
X1073430Y492034D01*
X1073431Y492034D01*
X1074474Y491608D01*
X1074486Y491578D01*
X1074488Y491577D01*
X1074489Y491576D01*
X1074518Y491563D01*
X1074932Y490516D01*
X1075368Y489477D01*
X1075356Y489448D01*
X1075356Y489447D01*
X1075357Y489446D01*
X1075356Y489444D01*
X1076593Y486315D01*
X1076595Y486315D01*
X1076594Y486314D01*
X1077014Y485877D01*
X1077002Y485283D01*
X1077003Y485283D01*
X1077002Y485282D01*
X1077221Y484729D01*
X1076980Y484174D01*
X1076980Y484173D01*
X1076980Y484172D01*
X1076550Y462767D01*
X1076552Y462766D01*
X1076551Y462764D01*
X1085843Y449017D01*
X1085844Y449016D01*
X1086448Y448472D01*
X1086468Y448093D01*
X1086469Y448092D01*
X1086469Y448090D01*
X1086682Y447776D01*
X1086527Y446978D01*
X1086528Y446977D01*
X1086527Y446976D01*
X1086824Y441365D01*
X1086826Y441364D01*
X1086825Y441363D01*
X1087062Y440969D01*
X1086883Y440254D01*
X1086884Y440253D01*
X1086883Y440252D01*
X1086922Y439516D01*
X1086615Y439175D01*
X1086615Y439173D01*
X1086614Y439172D01*
X1086504Y438727D01*
X1085871Y438347D01*
X1085871Y438346D01*
X1085870Y438346D01*
X1085377Y437798D01*
X1085354Y437797D01*
X1085353Y437797D01*
X1085260Y437792D01*
X1085259Y437792D01*
X1085166Y437787D01*
X1085072Y437782D01*
X1084978Y437777D01*
X1084919Y437774D01*
X1084918Y437772D01*
X1084917Y437773D01*
X1080102Y434877D01*
X1080101Y434877D01*
X1079526Y434302D01*
X1079146Y434302D01*
X1079145Y434301D01*
X1079144Y434301D01*
X1078818Y434105D01*
X1078756Y434121D01*
X1078755Y434121D01*
X1078754Y434120D01*
X1078750Y434118D01*
X1078750Y434117D01*
X1078750Y434116D01*
X1079528Y392666D01*
X1079529Y392665D01*
X1079529Y392664D01*
X1079764Y392183D01*
X1079549Y391556D01*
X1079550Y391555D01*
X1079549Y391554D01*
X1079561Y390891D01*
X1079190Y390505D01*
X1079190Y390504D01*
X1079189Y390504D01*
X1077990Y387006D01*
X1077732Y385995D01*
X1077622Y385930D01*
X1077622Y385928D01*
X1077620Y385927D01*
X1077579Y385807D01*
X1076642Y385348D01*
X1073461Y383460D01*
X1073460Y383459D01*
X1073459Y383459D01*
X1073158Y383016D01*
X1072506Y382893D01*
X1072505Y382892D01*
X1071934Y382554D01*
X1071416Y382686D01*
X1071414Y382685D01*
X1071413Y382686D01*
X1058292Y380203D01*
X1058291Y380201D01*
X1058289Y380201D01*
X1058198Y380090D01*
X1057174Y379991D01*
X1056164Y379800D01*
X1056106Y379839D01*
X1056103Y379838D01*
X1056101Y379839D01*
X1055572Y379619D01*
X1055146Y379795D01*
X1055145Y379794D01*
X1055144Y379795D01*
X1054685Y379751D01*
X1054117Y380218D01*
X1054116Y380218D01*
X1054116Y380219D01*
X1049983Y381923D01*
X1048900Y382368D01*
X1048453Y383440D01*
X1046749Y387523D01*
X1046748Y387524D01*
X1046748Y387525D01*
X1046322Y387952D01*
X1046322Y388547D01*
X1046321Y388548D01*
X1046321Y388549D01*
X1046092Y389099D01*
X1046321Y389657D01*
X1046321Y389658D01*
X1046322Y389659D01*
X1046322Y412741D01*
X1046321Y412742D01*
X1046317Y412746D01*
X1046317Y412745D01*
X1046316Y412746D01*
X1038868Y411282D01*
X1038865Y411277D01*
X1038864Y411277D01*
X1038864Y383792D01*
X1038865Y383791D01*
X1038865Y383790D01*
X1039090Y383316D01*
X1038864Y382681D01*
X1038865Y382680D01*
X1038864Y382679D01*
X1038864Y382006D01*
X1038493Y381635D01*
X1038493Y381633D01*
X1038492Y381633D01*
X1037303Y378287D01*
X1037075Y377313D01*
X1036925Y377221D01*
X1036925Y377219D01*
X1036923Y377218D01*
X1036864Y377052D01*
X1035961Y376623D01*
X1032940Y374750D01*
X1032940Y374748D01*
X1032939Y374748D01*
X1032655Y374307D01*
X1031997Y374164D01*
X1031996Y374163D01*
X1031995Y374163D01*
X1031423Y373809D01*
X1030912Y373929D01*
X1030911Y373928D01*
X1030910Y373928D01*
X1030910Y373929D01*
X1006040Y368542D01*
X1006039Y368540D01*
X1006037Y368540D01*
X1005932Y368410D01*
X1004931Y368302D01*
X1004930Y368302D01*
X1003945Y368088D01*
X1003806Y368178D01*
X1003804Y368177D01*
X1003802Y368178D01*
X1003113Y367891D01*
X1002702Y368060D01*
G37*
%LPD*%
%LPC*%
G36*
X1314815Y213345D02*
X1314815Y213345D01*
X1314815Y213344D01*
X1314814Y213345D01*
X1313945Y213257D01*
X1313702Y213456D01*
X1313700Y213456D01*
X1313699Y213457D01*
X1304853Y214349D01*
X1304852Y214347D01*
X1304850Y214348D01*
X1304572Y214202D01*
X1303737Y214461D01*
X1303736Y214461D01*
X1302867Y214549D01*
X1302668Y214792D01*
X1302666Y214792D01*
X1302666Y214794D01*
X1294343Y217378D01*
X1294341Y217377D01*
X1294340Y217378D01*
X1293897Y217291D01*
X1293280Y217707D01*
X1293279Y217707D01*
X1293278Y217708D01*
X1292568Y217929D01*
X1292357Y218329D01*
X1292356Y218329D01*
X1292356Y218331D01*
X1276818Y228806D01*
X1276816Y228806D01*
X1276816Y228807D01*
X1276239Y228919D01*
X1275897Y229426D01*
X1275896Y229426D01*
X1275896Y229427D01*
X1275389Y229769D01*
X1275277Y230346D01*
X1275276Y230347D01*
X1275276Y230348D01*
X1264800Y245885D01*
X1264799Y245885D01*
X1264799Y245886D01*
X1264399Y246097D01*
X1264178Y246807D01*
X1264177Y246808D01*
X1264177Y246809D01*
X1263761Y247426D01*
X1263848Y247869D01*
X1263847Y247871D01*
X1263848Y247872D01*
X1261265Y256195D01*
X1261263Y256196D01*
X1261263Y256197D01*
X1261020Y256396D01*
X1260932Y257266D01*
X1260932Y257267D01*
X1260673Y258102D01*
X1260819Y258379D01*
X1260818Y258381D01*
X1260819Y258382D01*
X1259927Y267228D01*
X1259926Y267229D01*
X1259926Y267231D01*
X1259727Y267474D01*
X1259815Y268343D01*
X1259814Y268344D01*
X1259815Y268344D01*
X1259727Y269214D01*
X1259926Y269457D01*
X1259926Y269459D01*
X1259927Y269460D01*
X1260819Y278307D01*
X1260819Y278308D01*
X1260818Y278308D01*
X1260819Y278310D01*
X1260673Y278587D01*
X1260932Y279423D01*
X1261020Y280293D01*
X1261263Y280492D01*
X1261263Y280494D01*
X1261265Y280494D01*
X1263848Y288817D01*
X1263847Y288819D01*
X1263848Y288820D01*
X1263761Y289263D01*
X1264177Y289880D01*
X1264177Y289881D01*
X1264178Y289882D01*
X1264399Y290592D01*
X1264799Y290803D01*
X1264799Y290804D01*
X1264800Y290804D01*
X1275276Y306341D01*
X1275276Y306343D01*
X1275277Y306343D01*
X1275389Y306920D01*
X1275896Y307262D01*
X1275896Y307263D01*
X1275897Y307263D01*
X1276239Y307770D01*
X1276816Y307882D01*
X1276817Y307883D01*
X1276818Y307883D01*
X1292356Y318358D01*
X1292356Y318360D01*
X1292357Y318360D01*
X1292568Y318760D01*
X1293278Y318981D01*
X1293279Y318982D01*
X1293280Y318982D01*
X1293897Y319398D01*
X1294340Y319311D01*
X1294342Y319312D01*
X1294343Y319311D01*
X1302666Y321895D01*
X1302667Y321897D01*
X1302668Y321897D01*
X1302867Y322140D01*
X1303737Y322228D01*
X1304572Y322487D01*
X1304850Y322341D01*
X1304851Y322341D01*
X1304852Y322341D01*
X1304853Y322340D01*
X1313699Y323232D01*
X1313700Y323233D01*
X1313702Y323233D01*
X1313945Y323432D01*
X1314815Y323344D01*
X1314815Y323345D01*
X1314816Y323344D01*
X1315685Y323432D01*
X1315928Y323233D01*
X1315930Y323233D01*
X1315931Y323232D01*
X1324777Y322340D01*
X1324778Y322341D01*
X1324779Y322341D01*
X1324780Y322341D01*
X1325058Y322487D01*
X1325893Y322228D01*
X1325894Y322228D01*
X1326763Y322140D01*
X1326962Y321897D01*
X1326964Y321897D01*
X1326964Y321895D01*
X1335287Y319311D01*
X1335289Y319312D01*
X1335290Y319311D01*
X1335733Y319398D01*
X1336350Y318982D01*
X1336351Y318982D01*
X1336352Y318981D01*
X1337062Y318760D01*
X1337273Y318360D01*
X1337274Y318360D01*
X1337274Y318358D01*
X1352812Y307883D01*
X1352814Y307883D01*
X1352814Y307882D01*
X1353391Y307770D01*
X1353733Y307263D01*
X1353734Y307263D01*
X1353734Y307262D01*
X1354241Y306920D01*
X1354353Y306343D01*
X1354354Y306342D01*
X1354354Y306341D01*
X1364830Y290804D01*
X1364831Y290804D01*
X1364831Y290803D01*
X1365231Y290592D01*
X1365452Y289882D01*
X1365453Y289881D01*
X1365453Y289880D01*
X1365869Y289263D01*
X1365782Y288820D01*
X1365783Y288818D01*
X1365782Y288817D01*
X1368365Y280494D01*
X1368367Y280493D01*
X1368367Y280492D01*
X1368610Y280293D01*
X1368698Y279423D01*
X1368957Y278587D01*
X1368811Y278310D01*
X1368811Y278309D01*
X1368812Y278308D01*
X1368811Y278307D01*
X1369703Y269460D01*
X1369704Y269459D01*
X1369704Y269457D01*
X1369903Y269214D01*
X1369815Y268345D01*
X1369816Y268344D01*
X1369815Y268344D01*
X1369903Y267474D01*
X1369704Y267231D01*
X1369704Y267229D01*
X1369703Y267229D01*
X1369703Y267228D01*
X1368811Y258382D01*
X1368812Y258381D01*
X1368811Y258379D01*
X1368957Y258102D01*
X1368698Y257267D01*
X1368698Y257266D01*
X1368610Y256396D01*
X1368367Y256197D01*
X1368367Y256195D01*
X1368365Y256195D01*
X1365782Y247872D01*
X1365783Y247871D01*
X1365782Y247870D01*
X1365783Y247870D01*
X1365782Y247869D01*
X1365869Y247426D01*
X1365453Y246809D01*
X1365453Y246808D01*
X1365452Y246807D01*
X1365231Y246097D01*
X1364831Y245886D01*
X1364831Y245885D01*
X1364830Y245885D01*
X1354354Y230348D01*
X1354354Y230346D01*
X1354353Y230346D01*
X1354241Y229769D01*
X1353734Y229427D01*
X1353734Y229426D01*
X1353733Y229426D01*
X1353391Y228919D01*
X1352814Y228807D01*
X1352813Y228806D01*
X1352812Y228806D01*
X1337274Y218331D01*
X1337274Y218329D01*
X1337273Y218329D01*
X1337062Y217929D01*
X1336352Y217708D01*
X1336351Y217707D01*
X1336350Y217707D01*
X1335733Y217291D01*
X1335290Y217378D01*
X1335288Y217377D01*
X1335287Y217378D01*
X1326964Y214794D01*
X1326963Y214792D01*
X1326962Y214792D01*
X1326763Y214549D01*
X1325893Y214461D01*
X1325058Y214202D01*
X1324780Y214348D01*
X1324778Y214348D01*
X1324777Y214349D01*
X1315931Y213457D01*
X1315930Y213456D01*
X1315928Y213456D01*
X1315685Y213257D01*
X1314815Y213345D01*
G37*
%LPD*%
%LPC*%
G36*
X1156918Y236854D02*
X1156918Y236854D01*
X1156918Y236853D01*
X1156917Y236854D01*
X1156048Y236766D01*
X1155805Y236965D01*
X1155803Y236965D01*
X1155802Y236966D01*
X1146955Y237858D01*
X1146954Y237856D01*
X1146953Y237857D01*
X1146675Y237711D01*
X1145840Y237970D01*
X1145839Y237970D01*
X1144969Y238058D01*
X1144770Y238301D01*
X1144768Y238301D01*
X1144768Y238303D01*
X1136445Y240886D01*
X1136443Y240885D01*
X1136442Y240886D01*
X1135999Y240800D01*
X1135382Y241215D01*
X1135381Y241215D01*
X1135380Y241216D01*
X1134670Y241437D01*
X1134459Y241837D01*
X1134458Y241837D01*
X1134458Y241839D01*
X1118921Y252315D01*
X1118919Y252315D01*
X1118919Y252316D01*
X1118342Y252428D01*
X1118000Y252935D01*
X1117999Y252935D01*
X1117999Y252936D01*
X1117492Y253278D01*
X1117380Y253855D01*
X1117379Y253856D01*
X1117379Y253857D01*
X1106904Y269394D01*
X1106902Y269394D01*
X1106902Y269395D01*
X1106502Y269606D01*
X1106281Y270316D01*
X1106280Y270317D01*
X1106280Y270318D01*
X1105864Y270935D01*
X1105951Y271378D01*
X1105950Y271380D01*
X1105951Y271381D01*
X1103367Y279704D01*
X1103365Y279705D01*
X1103365Y279706D01*
X1103122Y279905D01*
X1103034Y280775D01*
X1102775Y281610D01*
X1102921Y281888D01*
X1102921Y281889D01*
X1102921Y281890D01*
X1102921Y281891D01*
X1102922Y281891D01*
X1102030Y290737D01*
X1102029Y290738D01*
X1102029Y290739D01*
X1101830Y290983D01*
X1101918Y291852D01*
X1101917Y291853D01*
X1101918Y291853D01*
X1101830Y292723D01*
X1102029Y292966D01*
X1102029Y292968D01*
X1102030Y292969D01*
X1102922Y301816D01*
X1102920Y301817D01*
X1102921Y301819D01*
X1102775Y302097D01*
X1103034Y302931D01*
X1103034Y302932D01*
X1103122Y303802D01*
X1103365Y304001D01*
X1103365Y304003D01*
X1103367Y304003D01*
X1105951Y312325D01*
X1105950Y312327D01*
X1105951Y312328D01*
X1105864Y312771D01*
X1106280Y313388D01*
X1106280Y313389D01*
X1106281Y313390D01*
X1106502Y314100D01*
X1106902Y314311D01*
X1106902Y314312D01*
X1106904Y314313D01*
X1117379Y329850D01*
X1117379Y329852D01*
X1117380Y329852D01*
X1117492Y330429D01*
X1117999Y330771D01*
X1117999Y330772D01*
X1118000Y330772D01*
X1118342Y331279D01*
X1118919Y331391D01*
X1118920Y331392D01*
X1118921Y331392D01*
X1134458Y341868D01*
X1134458Y341869D01*
X1134459Y341869D01*
X1134670Y342269D01*
X1135380Y342490D01*
X1135381Y342491D01*
X1135382Y342491D01*
X1135999Y342907D01*
X1136442Y342820D01*
X1136444Y342821D01*
X1136445Y342820D01*
X1144768Y345403D01*
X1144769Y345405D01*
X1144770Y345405D01*
X1144969Y345648D01*
X1145839Y345736D01*
X1146675Y345995D01*
X1146952Y345849D01*
X1146954Y345850D01*
X1146955Y345849D01*
X1155802Y346741D01*
X1155803Y346742D01*
X1155805Y346742D01*
X1156048Y346941D01*
X1156917Y346853D01*
X1156918Y346854D01*
X1156918Y346853D01*
X1157788Y346941D01*
X1158031Y346742D01*
X1158033Y346742D01*
X1158034Y346741D01*
X1166880Y345849D01*
X1166881Y345850D01*
X1166883Y345849D01*
X1167160Y345995D01*
X1167995Y345736D01*
X1167996Y345736D01*
X1168866Y345648D01*
X1169065Y345405D01*
X1169067Y345405D01*
X1169067Y345403D01*
X1177390Y342820D01*
X1177392Y342821D01*
X1177393Y342820D01*
X1177836Y342907D01*
X1178453Y342491D01*
X1178454Y342491D01*
X1178455Y342490D01*
X1179165Y342269D01*
X1179376Y341869D01*
X1179377Y341869D01*
X1179377Y341868D01*
X1194914Y331392D01*
X1194916Y331392D01*
X1194916Y331391D01*
X1195493Y331279D01*
X1195835Y330772D01*
X1195836Y330772D01*
X1195836Y330771D01*
X1196343Y330429D01*
X1196455Y329852D01*
X1196456Y329851D01*
X1196456Y329850D01*
X1206931Y314313D01*
X1206933Y314312D01*
X1206933Y314311D01*
X1207333Y314100D01*
X1207554Y313390D01*
X1207555Y313389D01*
X1207555Y313388D01*
X1207971Y312771D01*
X1207884Y312328D01*
X1207885Y312326D01*
X1207884Y312325D01*
X1210468Y304003D01*
X1210470Y304002D01*
X1210470Y304001D01*
X1210713Y303802D01*
X1210801Y302932D01*
X1210801Y302931D01*
X1211060Y302097D01*
X1210914Y301819D01*
X1210914Y301817D01*
X1210913Y301816D01*
X1211805Y292969D01*
X1211806Y292968D01*
X1211806Y292966D01*
X1212005Y292723D01*
X1211917Y291854D01*
X1211918Y291853D01*
X1211917Y291853D01*
X1212005Y290983D01*
X1211806Y290739D01*
X1211806Y290738D01*
X1211805Y290737D01*
X1210913Y281891D01*
X1210915Y281890D01*
X1210914Y281888D01*
X1211060Y281610D01*
X1210801Y280775D01*
X1210801Y280774D01*
X1210713Y279905D01*
X1210470Y279706D01*
X1210470Y279704D01*
X1210468Y279704D01*
X1207884Y271381D01*
X1207885Y271379D01*
X1207884Y271378D01*
X1207971Y270935D01*
X1207555Y270318D01*
X1207555Y270317D01*
X1207554Y270316D01*
X1207333Y269606D01*
X1206933Y269395D01*
X1206933Y269394D01*
X1206931Y269394D01*
X1196456Y253857D01*
X1196456Y253855D01*
X1196455Y253855D01*
X1196343Y253278D01*
X1195836Y252936D01*
X1195836Y252935D01*
X1195835Y252935D01*
X1195493Y252428D01*
X1194916Y252316D01*
X1194915Y252315D01*
X1194914Y252315D01*
X1179377Y241839D01*
X1179377Y241837D01*
X1179376Y241837D01*
X1179165Y241437D01*
X1178455Y241216D01*
X1178454Y241215D01*
X1178453Y241215D01*
X1177836Y240800D01*
X1177393Y240886D01*
X1177391Y240885D01*
X1177390Y240886D01*
X1169067Y238303D01*
X1169066Y238301D01*
X1169065Y238301D01*
X1168866Y238058D01*
X1167996Y237970D01*
X1167995Y237970D01*
X1167160Y237711D01*
X1166882Y237857D01*
X1166881Y237857D01*
X1166880Y237858D01*
X1158034Y236966D01*
X1158033Y236965D01*
X1158032Y236965D01*
X1157788Y236766D01*
X1156918Y236854D01*
G37*
%LPD*%
G36*
X1004037Y373816D02*
X1004037Y373816D01*
X1004038Y373816D01*
X1029873Y379412D01*
X1029874Y379413D01*
X1029875Y379413D01*
X1032321Y380929D01*
X1032321Y380931D01*
X1032323Y380932D01*
X1033286Y383641D01*
X1033285Y383641D01*
X1033286Y383641D01*
X1033285Y383642D01*
X1033286Y383643D01*
X1033286Y413303D01*
X1033285Y413303D01*
X1033286Y413304D01*
X1033115Y414171D01*
X1033285Y414423D01*
X1033285Y414425D01*
X1033286Y414426D01*
X1033286Y414730D01*
X1033910Y415355D01*
X1033910Y415356D01*
X1033911Y415356D01*
X1034403Y416089D01*
X1034702Y416148D01*
X1034703Y416149D01*
X1034705Y416149D01*
X1034920Y416364D01*
X1035803Y416364D01*
X1035803Y416365D01*
X1035804Y416364D01*
X1047738Y418711D01*
X1047739Y418712D01*
X1047740Y418712D01*
X1047956Y418927D01*
X1048839Y418927D01*
X1048839Y418928D01*
X1048840Y418927D01*
X1049707Y419098D01*
X1049959Y418928D01*
X1049961Y418928D01*
X1049962Y418927D01*
X1050266Y418927D01*
X1050891Y418303D01*
X1050892Y418303D01*
X1050892Y418302D01*
X1051625Y417810D01*
X1051684Y417511D01*
X1051685Y417510D01*
X1051685Y417508D01*
X1051900Y417293D01*
X1051900Y416410D01*
X1051901Y416410D01*
X1051900Y416409D01*
X1052071Y415542D01*
X1051901Y415290D01*
X1051901Y415289D01*
X1051901Y415288D01*
X1051900Y415287D01*
X1051900Y389667D01*
X1051901Y389666D01*
X1051901Y389665D01*
X1053159Y386649D01*
X1053161Y386648D01*
X1053162Y386646D01*
X1055988Y385481D01*
X1055989Y385482D01*
X1055990Y385481D01*
X1056386Y385519D01*
X1070502Y388191D01*
X1070503Y388192D01*
X1073008Y389678D01*
X1073008Y389680D01*
X1073010Y389681D01*
X1073953Y392432D01*
X1073952Y392433D01*
X1073953Y392434D01*
X1073136Y435912D01*
X1073135Y435914D01*
X1073135Y435916D01*
X1073115Y435936D01*
X1073115Y437064D01*
X1073094Y438194D01*
X1073113Y438214D01*
X1073114Y438217D01*
X1073115Y438218D01*
X1073115Y438246D01*
X1073913Y439044D01*
X1074697Y439858D01*
X1074725Y439859D01*
X1074727Y439860D01*
X1074729Y439860D01*
X1074749Y439880D01*
X1075877Y439880D01*
X1077007Y439901D01*
X1077027Y439882D01*
X1077030Y439881D01*
X1077031Y439880D01*
X1077596Y439880D01*
X1077597Y439881D01*
X1077598Y439881D01*
X1081200Y442047D01*
X1081201Y442050D01*
X1081202Y442051D01*
X1080980Y446249D01*
X1080979Y446250D01*
X1080979Y446252D01*
X1071567Y460177D01*
X1070932Y460838D01*
X1070938Y461107D01*
X1070936Y461108D01*
X1070937Y461110D01*
X1070786Y461332D01*
X1070960Y462231D01*
X1070960Y462232D01*
X1071402Y484272D01*
X1071401Y484273D01*
X1071401Y484274D01*
X1071402Y484274D01*
X1070194Y487329D01*
X1070191Y487330D01*
X1070191Y487332D01*
X1067051Y488615D01*
X1067049Y488615D01*
X1067049Y488616D01*
X1066873Y488612D01*
X1066872Y488612D01*
X1066631Y488607D01*
X1066630Y488607D01*
X1066629Y488607D01*
X1066389Y488602D01*
X1066387Y488602D01*
X1066146Y488597D01*
X1066145Y488597D01*
X1065904Y488592D01*
X1065902Y488592D01*
X1065662Y488587D01*
X1065660Y488587D01*
X1065419Y488582D01*
X1065418Y488582D01*
X1065177Y488577D01*
X1065175Y488577D01*
X1064935Y488572D01*
X1064933Y488572D01*
X1064692Y488567D01*
X1064691Y488567D01*
X1064450Y488562D01*
X1064448Y488562D01*
X1064207Y488557D01*
X1064206Y488557D01*
X1063965Y488552D01*
X1063964Y488552D01*
X1063723Y488547D01*
X1063721Y488547D01*
X1063480Y488542D01*
X1063479Y488542D01*
X1063238Y488537D01*
X1063237Y488537D01*
X1062996Y488532D01*
X1062994Y488532D01*
X1062753Y488527D01*
X1062752Y488527D01*
X1062511Y488523D01*
X1062510Y488523D01*
X1062510Y488522D01*
X1062269Y488518D01*
X1062267Y488518D01*
X1062026Y488513D01*
X1062025Y488513D01*
X1061784Y488508D01*
X1061783Y488508D01*
X1061542Y488503D01*
X1061540Y488503D01*
X1061299Y488498D01*
X1061298Y488498D01*
X1061057Y488493D01*
X1061056Y488493D01*
X1060815Y488488D01*
X1060813Y488488D01*
X1060572Y488483D01*
X1060571Y488483D01*
X1060330Y488478D01*
X1060329Y488478D01*
X1060328Y488478D01*
X1060088Y488473D01*
X1060086Y488473D01*
X1059845Y488468D01*
X1059844Y488468D01*
X1059603Y488463D01*
X1059601Y488463D01*
X1059361Y488458D01*
X1059359Y488458D01*
X1059118Y488453D01*
X1059117Y488453D01*
X1058876Y488448D01*
X1058874Y488448D01*
X1058634Y488443D01*
X1058632Y488443D01*
X1058391Y488438D01*
X1058390Y488438D01*
X1058149Y488433D01*
X1058147Y488433D01*
X1057907Y488428D01*
X1057905Y488428D01*
X1057664Y488423D01*
X1057663Y488423D01*
X1057422Y488418D01*
X1057420Y488418D01*
X1057179Y488413D01*
X1057178Y488413D01*
X1057108Y488412D01*
X1057107Y488411D01*
X1057106Y488411D01*
X1054177Y487134D01*
X1054176Y487132D01*
X1054174Y487132D01*
X1052959Y484176D01*
X1052959Y484175D01*
X1052958Y484174D01*
X1052958Y483254D01*
X1052815Y483111D01*
X1052815Y483109D01*
X1052814Y483108D01*
X1052813Y483102D01*
X1052812Y483092D01*
X1052811Y483087D01*
X1052810Y483077D01*
X1052809Y483067D01*
X1052808Y483062D01*
X1052807Y483053D01*
X1052807Y483052D01*
X1052806Y483043D01*
X1052805Y483038D01*
X1052804Y483028D01*
X1052802Y483013D01*
X1052801Y483003D01*
X1052799Y482988D01*
X1052797Y482978D01*
X1052795Y482963D01*
X1052794Y482953D01*
X1052792Y482938D01*
X1052791Y482928D01*
X1052789Y482913D01*
X1052788Y482908D01*
X1052015Y482311D01*
X1052015Y482310D01*
X1051324Y481620D01*
X1051123Y481620D01*
X1051121Y481618D01*
X1051119Y481619D01*
X1050960Y481495D01*
X1049991Y481620D01*
X1049990Y481620D01*
X1049014Y481620D01*
X1048871Y481763D01*
X1048869Y481763D01*
X1048868Y481764D01*
X1048668Y481790D01*
X1048071Y482563D01*
X1048070Y482563D01*
X1048071Y482563D01*
X1048054Y482580D01*
X1048053Y482580D01*
X1048052Y482581D01*
X1048040Y482586D01*
X1048034Y482599D01*
X1048033Y482599D01*
X1048033Y482600D01*
X1047380Y483254D01*
X1047380Y483455D01*
X1047378Y483457D01*
X1047379Y483459D01*
X1041355Y491257D01*
X1041353Y491257D01*
X1041353Y491258D01*
X1037045Y493291D01*
X1037044Y493291D01*
X1037043Y493292D01*
X1036910Y493288D01*
X1036909Y493288D01*
X1036761Y493283D01*
X1036760Y493283D01*
X1036611Y493278D01*
X1036610Y493278D01*
X1036461Y493273D01*
X1036460Y493273D01*
X1036312Y493268D01*
X1036311Y493268D01*
X1036162Y493263D01*
X1036161Y493263D01*
X1036012Y493258D01*
X1035863Y493253D01*
X1035862Y493253D01*
X1035713Y493248D01*
X1035712Y493248D01*
X1035564Y493243D01*
X1035563Y493243D01*
X1035414Y493238D01*
X1035413Y493238D01*
X1035264Y493233D01*
X1035263Y493233D01*
X1035115Y493228D01*
X1035114Y493228D01*
X1034965Y493223D01*
X1034964Y493223D01*
X1034815Y493218D01*
X1034666Y493213D01*
X1034665Y493213D01*
X1034516Y493208D01*
X1034515Y493208D01*
X1034367Y493203D01*
X1034366Y493203D01*
X1034217Y493198D01*
X1034216Y493198D01*
X1034091Y493194D01*
X1034065Y493193D01*
X1033916Y493188D01*
X1033915Y493188D01*
X1033766Y493183D01*
X1033765Y493183D01*
X1033616Y493178D01*
X1033615Y493178D01*
X1033467Y493173D01*
X1033466Y493173D01*
X1033317Y493168D01*
X1033316Y493168D01*
X1033167Y493163D01*
X1033166Y493163D01*
X1033017Y493158D01*
X1032868Y493153D01*
X1032867Y493153D01*
X1032718Y493148D01*
X1032717Y493148D01*
X1032568Y493143D01*
X1032567Y493143D01*
X1032419Y493138D01*
X1032418Y493138D01*
X1032269Y493134D01*
X1032268Y493134D01*
X1032268Y493133D01*
X1032119Y493129D01*
X1032118Y493129D01*
X1031969Y493124D01*
X1031820Y493119D01*
X1031819Y493119D01*
X1031670Y493114D01*
X1031669Y493114D01*
X1031520Y493109D01*
X1031519Y493109D01*
X1031371Y493104D01*
X1031370Y493104D01*
X1031221Y493099D01*
X1031220Y493099D01*
X1031071Y493094D01*
X1031070Y493094D01*
X1030921Y493089D01*
X1030772Y493084D01*
X1030771Y493084D01*
X1030622Y493079D01*
X1030621Y493079D01*
X1030472Y493074D01*
X1030323Y493069D01*
X1030322Y493069D01*
X1030173Y493064D01*
X1030172Y493064D01*
X1030023Y493059D01*
X1030022Y493059D01*
X1029895Y493055D01*
X1029874Y493054D01*
X1029725Y493049D01*
X1029724Y493049D01*
X1029575Y493044D01*
X1029574Y493044D01*
X1029425Y493039D01*
X1029424Y493039D01*
X1029275Y493034D01*
X1029274Y493034D01*
X1029125Y493029D01*
X1029124Y493029D01*
X1028998Y493025D01*
X1028975Y493024D01*
X1028974Y493024D01*
X1028825Y493019D01*
X1028824Y493019D01*
X1028676Y493014D01*
X1028675Y493014D01*
X1028526Y493009D01*
X1028525Y493009D01*
X1028376Y493004D01*
X1028375Y493004D01*
X1028227Y492999D01*
X1028226Y492999D01*
X1028077Y492994D01*
X1028076Y492994D01*
X1027927Y492989D01*
X1027926Y492989D01*
X1027778Y492984D01*
X1027777Y492984D01*
X1027628Y492979D01*
X1027627Y492979D01*
X1027582Y492978D01*
X1027476Y492975D01*
X1027475Y492975D01*
X1027475Y492974D01*
X1027326Y492970D01*
X1027177Y492965D01*
X1027176Y492965D01*
X1027027Y492960D01*
X1027026Y492960D01*
X1026877Y492955D01*
X1026876Y492955D01*
X1026727Y492950D01*
X1026726Y492950D01*
X1026577Y492945D01*
X1026576Y492945D01*
X1026427Y492940D01*
X1026278Y492935D01*
X1026277Y492935D01*
X1026128Y492930D01*
X1026127Y492930D01*
X1025978Y492925D01*
X1025977Y492925D01*
X1025828Y492920D01*
X1025827Y492920D01*
X1025678Y492915D01*
X1025677Y492915D01*
X1025528Y492910D01*
X1025379Y492905D01*
X1025378Y492905D01*
X1025229Y492900D01*
X1025228Y492900D01*
X1025079Y492895D01*
X1025078Y492895D01*
X1024929Y492890D01*
X1024928Y492890D01*
X1024779Y492885D01*
X1024778Y492885D01*
X1024629Y492880D01*
X1024480Y492875D01*
X1024479Y492875D01*
X1024330Y492870D01*
X1024329Y492870D01*
X1024180Y492865D01*
X1024179Y492865D01*
X1024030Y492860D01*
X1024029Y492860D01*
X1023880Y492855D01*
X1023879Y492855D01*
X1023730Y492850D01*
X1023581Y492845D01*
X1023580Y492845D01*
X1023431Y492840D01*
X1023430Y492840D01*
X1023281Y492835D01*
X1023280Y492835D01*
X1023131Y492830D01*
X1023130Y492830D01*
X1022981Y492825D01*
X1022980Y492825D01*
X1022831Y492820D01*
X1022682Y492816D01*
X1022681Y492816D01*
X1022681Y492815D01*
X1022532Y492811D01*
X1022531Y492811D01*
X1022382Y492806D01*
X1022381Y492806D01*
X1022232Y492801D01*
X1022231Y492801D01*
X1022082Y492796D01*
X1022081Y492796D01*
X1021932Y492791D01*
X1021783Y492786D01*
X1021782Y492786D01*
X1021633Y492781D01*
X1021632Y492781D01*
X1021483Y492776D01*
X1021482Y492776D01*
X1021333Y492771D01*
X1021332Y492771D01*
X1021183Y492766D01*
X1021182Y492766D01*
X1021033Y492761D01*
X1020884Y492756D01*
X1020883Y492756D01*
X1020734Y492751D01*
X1020733Y492751D01*
X1020584Y492746D01*
X1020583Y492746D01*
X1020434Y492741D01*
X1020433Y492741D01*
X1020284Y492736D01*
X1020283Y492736D01*
X1020134Y492731D01*
X1019985Y492726D01*
X1019984Y492726D01*
X1019835Y492721D01*
X1019834Y492721D01*
X1019685Y492716D01*
X1019684Y492716D01*
X1019535Y492711D01*
X1019534Y492711D01*
X1019385Y492706D01*
X1019384Y492706D01*
X1019235Y492701D01*
X1019086Y492696D01*
X1019085Y492696D01*
X1018936Y492691D01*
X1018935Y492691D01*
X1018786Y492686D01*
X1018785Y492686D01*
X1018636Y492681D01*
X1018635Y492681D01*
X1018486Y492676D01*
X1018485Y492676D01*
X1018336Y492671D01*
X1018187Y492666D01*
X1018186Y492666D01*
X1018037Y492661D01*
X1018036Y492661D01*
X1017887Y492657D01*
X1017886Y492657D01*
X1017886Y492656D01*
X1017737Y492652D01*
X1017736Y492652D01*
X1017587Y492647D01*
X1017586Y492647D01*
X1017437Y492642D01*
X1017288Y492637D01*
X1017287Y492637D01*
X1017138Y492632D01*
X1017137Y492632D01*
X1016988Y492627D01*
X1016987Y492627D01*
X1016838Y492622D01*
X1016837Y492622D01*
X1016688Y492617D01*
X1016687Y492617D01*
X1016538Y492612D01*
X1016389Y492607D01*
X1016388Y492607D01*
X1016239Y492602D01*
X1016238Y492602D01*
X1016089Y492597D01*
X1016088Y492597D01*
X1015939Y492592D01*
X1015938Y492592D01*
X1015789Y492587D01*
X1015788Y492587D01*
X1015639Y492582D01*
X1015490Y492577D01*
X1015489Y492577D01*
X1015340Y492572D01*
X1015339Y492572D01*
X1015190Y492567D01*
X1015189Y492567D01*
X1015040Y492562D01*
X1015039Y492562D01*
X1014890Y492557D01*
X1014889Y492557D01*
X1014740Y492552D01*
X1014591Y492547D01*
X1014590Y492547D01*
X1014441Y492542D01*
X1014440Y492542D01*
X1014291Y492537D01*
X1014290Y492537D01*
X1014141Y492532D01*
X1014140Y492532D01*
X1013991Y492527D01*
X1013990Y492527D01*
X1013841Y492522D01*
X1013692Y492517D01*
X1013691Y492517D01*
X1013542Y492512D01*
X1013541Y492512D01*
X1013392Y492507D01*
X1013391Y492507D01*
X1013242Y492502D01*
X1013241Y492502D01*
X1013092Y492498D01*
X1013091Y492498D01*
X1013091Y492497D01*
X1012942Y492493D01*
X1012793Y492488D01*
X1012792Y492488D01*
X1012643Y492483D01*
X1012642Y492483D01*
X1012493Y492478D01*
X1012492Y492478D01*
X1012343Y492473D01*
X1012342Y492473D01*
X1012193Y492468D01*
X1012192Y492468D01*
X1012043Y492463D01*
X1011894Y492458D01*
X1011893Y492458D01*
X1011744Y492453D01*
X1011743Y492453D01*
X1011594Y492448D01*
X1011593Y492448D01*
X1011444Y492443D01*
X1011443Y492443D01*
X1011294Y492438D01*
X1011293Y492438D01*
X1011144Y492433D01*
X1010995Y492428D01*
X1010994Y492428D01*
X1010845Y492423D01*
X1010844Y492423D01*
X1010695Y492418D01*
X1010694Y492418D01*
X1010545Y492413D01*
X1010544Y492413D01*
X1010395Y492408D01*
X1010394Y492408D01*
X1010245Y492403D01*
X1010096Y492398D01*
X1010095Y492398D01*
X1009946Y492393D01*
X1009945Y492393D01*
X1009796Y492388D01*
X1009795Y492388D01*
X1009646Y492383D01*
X1009645Y492383D01*
X1009496Y492378D01*
X1009495Y492378D01*
X1009346Y492373D01*
X1009197Y492368D01*
X1009196Y492368D01*
X1009124Y492366D01*
X1009047Y492363D01*
X1009046Y492363D01*
X1008897Y492358D01*
X1008896Y492358D01*
X1008747Y492353D01*
X1008746Y492353D01*
X1008597Y492348D01*
X1008596Y492348D01*
X1008447Y492343D01*
X1008298Y492339D01*
X1008297Y492339D01*
X1008297Y492338D01*
X1008148Y492334D01*
X1008147Y492334D01*
X1007998Y492329D01*
X1007997Y492329D01*
X1007848Y492324D01*
X1007847Y492324D01*
X1007698Y492319D01*
X1007697Y492319D01*
X1007548Y492314D01*
X1007399Y492309D01*
X1007398Y492309D01*
X1007249Y492304D01*
X1007248Y492304D01*
X1007099Y492299D01*
X1007098Y492299D01*
X1006949Y492294D01*
X1006948Y492294D01*
X1006799Y492289D01*
X1006798Y492289D01*
X1006649Y492284D01*
X1006500Y492279D01*
X1006499Y492279D01*
X1006350Y492274D01*
X1006349Y492274D01*
X1006200Y492269D01*
X1006199Y492269D01*
X1006050Y492264D01*
X1006049Y492264D01*
X1005900Y492259D01*
X1005899Y492259D01*
X1005750Y492254D01*
X1005601Y492249D01*
X1005600Y492249D01*
X1005451Y492244D01*
X1005450Y492244D01*
X1005301Y492239D01*
X1005300Y492239D01*
X1005151Y492234D01*
X1005150Y492234D01*
X1005001Y492229D01*
X1005000Y492229D01*
X1004851Y492224D01*
X1004702Y492219D01*
X1004701Y492219D01*
X1004552Y492214D01*
X1004551Y492214D01*
X1004402Y492209D01*
X1004401Y492209D01*
X1004252Y492204D01*
X1004251Y492204D01*
X1004102Y492199D01*
X1004101Y492199D01*
X1003952Y492194D01*
X1003803Y492189D01*
X1003802Y492189D01*
X1003653Y492184D01*
X1003652Y492184D01*
X1003503Y492180D01*
X1003502Y492180D01*
X1003502Y492179D01*
X1003353Y492175D01*
X1003352Y492175D01*
X1003203Y492170D01*
X1003202Y492170D01*
X1003053Y492165D01*
X1002904Y492160D01*
X1002903Y492160D01*
X1002754Y492155D01*
X1002753Y492155D01*
X1002604Y492150D01*
X1002603Y492150D01*
X1002454Y492145D01*
X1002453Y492145D01*
X1002304Y492140D01*
X1002303Y492140D01*
X1002154Y492135D01*
X1002005Y492130D01*
X1002004Y492130D01*
X1001855Y492125D01*
X1001854Y492125D01*
X1001705Y492120D01*
X1001704Y492120D01*
X1001555Y492115D01*
X1001554Y492115D01*
X1001405Y492110D01*
X1001404Y492110D01*
X1001255Y492105D01*
X1001106Y492100D01*
X1001105Y492100D01*
X1000956Y492095D01*
X1000955Y492095D01*
X1000806Y492090D01*
X1000805Y492090D01*
X1000656Y492085D01*
X1000655Y492085D01*
X1000506Y492080D01*
X1000505Y492080D01*
X1000356Y492075D01*
X1000207Y492070D01*
X1000206Y492070D01*
X1000057Y492065D01*
X1000056Y492065D01*
X999907Y492060D01*
X999906Y492060D01*
X999757Y492055D01*
X999756Y492055D01*
X999607Y492050D01*
X999458Y492045D01*
X999457Y492045D01*
X999308Y492040D01*
X999307Y492040D01*
X999158Y492035D01*
X999157Y492035D01*
X999008Y492030D01*
X999007Y492030D01*
X998858Y492025D01*
X998857Y492025D01*
X998708Y492021D01*
X998708Y492020D01*
X998559Y492016D01*
X998558Y492016D01*
X998409Y492011D01*
X998408Y492011D01*
X998259Y492006D01*
X998258Y492006D01*
X998109Y492001D01*
X998108Y492001D01*
X997959Y491996D01*
X997958Y491996D01*
X997809Y491991D01*
X997660Y491986D01*
X997659Y491986D01*
X997510Y491981D01*
X997509Y491981D01*
X997360Y491976D01*
X997359Y491976D01*
X997210Y491971D01*
X997209Y491971D01*
X997060Y491966D01*
X997059Y491966D01*
X996910Y491961D01*
X996761Y491956D01*
X996760Y491956D01*
X996611Y491951D01*
X996610Y491951D01*
X996461Y491946D01*
X996460Y491946D01*
X996311Y491941D01*
X996310Y491941D01*
X996161Y491936D01*
X996160Y491936D01*
X996011Y491931D01*
X995862Y491926D01*
X995861Y491926D01*
X995712Y491921D01*
X995711Y491921D01*
X995562Y491916D01*
X995561Y491916D01*
X995412Y491911D01*
X995411Y491911D01*
X995262Y491906D01*
X995261Y491906D01*
X995112Y491901D01*
X994963Y491896D01*
X994962Y491896D01*
X994813Y491891D01*
X994812Y491891D01*
X994663Y491886D01*
X994662Y491886D01*
X994513Y491881D01*
X994512Y491881D01*
X994363Y491876D01*
X994362Y491876D01*
X994213Y491871D01*
X994064Y491866D01*
X994063Y491866D01*
X993914Y491862D01*
X993913Y491862D01*
X993913Y491861D01*
X993764Y491857D01*
X993763Y491857D01*
X993614Y491852D01*
X993613Y491852D01*
X993464Y491847D01*
X993463Y491847D01*
X993314Y491842D01*
X993165Y491837D01*
X993164Y491837D01*
X993015Y491832D01*
X993014Y491832D01*
X992865Y491827D01*
X992864Y491827D01*
X992715Y491822D01*
X992714Y491822D01*
X992565Y491817D01*
X992564Y491817D01*
X992415Y491812D01*
X992266Y491807D01*
X992265Y491807D01*
X992116Y491802D01*
X992115Y491802D01*
X991966Y491797D01*
X991965Y491797D01*
X991816Y491792D01*
X991815Y491792D01*
X991666Y491787D01*
X991665Y491787D01*
X991516Y491782D01*
X991367Y491777D01*
X991366Y491777D01*
X991217Y491772D01*
X991216Y491772D01*
X991067Y491767D01*
X991066Y491767D01*
X990917Y491762D01*
X990916Y491762D01*
X990767Y491757D01*
X990766Y491757D01*
X990617Y491752D01*
X990468Y491747D01*
X990467Y491747D01*
X990318Y491742D01*
X990317Y491742D01*
X990168Y491737D01*
X990167Y491737D01*
X990018Y491732D01*
X990017Y491732D01*
X989868Y491727D01*
X989719Y491722D01*
X989718Y491722D01*
X989569Y491717D01*
X989568Y491717D01*
X989419Y491712D01*
X989418Y491712D01*
X989269Y491707D01*
X989268Y491707D01*
X989213Y491706D01*
X989119Y491703D01*
X989118Y491703D01*
X989118Y491702D01*
X988970Y491698D01*
X988969Y491698D01*
X988820Y491693D01*
X988819Y491693D01*
X988670Y491688D01*
X988669Y491688D01*
X988520Y491683D01*
X988371Y491678D01*
X988370Y491678D01*
X988221Y491673D01*
X988220Y491673D01*
X988071Y491668D01*
X988070Y491668D01*
X987921Y491663D01*
X987772Y491658D01*
X987771Y491658D01*
X987622Y491653D01*
X987621Y491653D01*
X987472Y491648D01*
X987471Y491648D01*
X987323Y491643D01*
X987322Y491643D01*
X987173Y491638D01*
X987172Y491638D01*
X987023Y491633D01*
X987022Y491633D01*
X986873Y491628D01*
X986724Y491623D01*
X986723Y491623D01*
X986574Y491618D01*
X986573Y491618D01*
X986424Y491613D01*
X986423Y491613D01*
X986274Y491608D01*
X986125Y491603D01*
X986124Y491603D01*
X985975Y491598D01*
X985974Y491598D01*
X985825Y491593D01*
X985824Y491593D01*
X985676Y491588D01*
X985675Y491588D01*
X985526Y491583D01*
X985525Y491583D01*
X985376Y491578D01*
X985375Y491578D01*
X985226Y491573D01*
X985077Y491568D01*
X985076Y491568D01*
X984927Y491563D01*
X984926Y491563D01*
X984777Y491558D01*
X984776Y491558D01*
X984628Y491553D01*
X984627Y491553D01*
X984478Y491548D01*
X984477Y491548D01*
X984328Y491544D01*
X984327Y491544D01*
X984327Y491543D01*
X984178Y491539D01*
X984029Y491534D01*
X984028Y491534D01*
X983883Y491529D01*
X983882Y491528D01*
X983742Y491524D01*
X983741Y491524D01*
X983591Y491519D01*
X983590Y491519D01*
X983439Y491514D01*
X983438Y491514D01*
X983287Y491509D01*
X983136Y491504D01*
X983135Y491504D01*
X982984Y491499D01*
X982983Y491499D01*
X982833Y491494D01*
X982832Y491494D01*
X982688Y491489D01*
X982681Y491489D01*
X982680Y491489D01*
X982532Y491484D01*
X982531Y491484D01*
X982382Y491479D01*
X982381Y491479D01*
X982232Y491474D01*
X982231Y491474D01*
X982083Y491469D01*
X982082Y491469D01*
X981933Y491464D01*
X981932Y491464D01*
X981783Y491459D01*
X981634Y491454D01*
X981633Y491454D01*
X981570Y491452D01*
X981569Y491452D01*
X981469Y491449D01*
X981318Y491444D01*
X981317Y491444D01*
X981167Y491439D01*
X981166Y491439D01*
X981048Y491435D01*
X981046Y491434D01*
X981045Y491434D01*
X977460Y489060D01*
X977459Y489057D01*
X977458Y489056D01*
X977969Y484783D01*
X977970Y484781D01*
X977970Y484780D01*
X1008170Y446772D01*
X1008172Y446772D01*
X1008172Y446771D01*
X1008636Y446548D01*
X1008862Y445903D01*
X1008863Y445902D01*
X1008863Y445901D01*
X1009287Y445367D01*
X1009287Y445365D01*
X1009286Y445350D01*
X1009285Y445350D01*
X1009286Y445350D01*
X1009285Y445345D01*
X1009284Y445340D01*
X1009283Y445325D01*
X1009282Y445320D01*
X1009282Y445315D01*
X1009280Y445300D01*
X1009279Y445295D01*
X1009279Y445290D01*
X1009277Y445275D01*
X1009276Y445270D01*
X1009276Y445265D01*
X1009274Y445250D01*
X1009274Y445245D01*
X1009273Y445240D01*
X1009271Y445225D01*
X1009271Y445220D01*
X1009270Y445216D01*
X1009270Y445215D01*
X1009268Y445201D01*
X1009268Y445196D01*
X1009267Y445191D01*
X1009266Y445176D01*
X1009265Y445171D01*
X1009264Y445166D01*
X1009263Y445151D01*
X1009262Y445146D01*
X1009262Y445141D01*
X1009260Y445131D01*
X1009260Y445126D01*
X1009259Y445121D01*
X1009259Y445116D01*
X1009258Y445106D01*
X1009257Y445101D01*
X1009257Y445096D01*
X1009256Y445096D01*
X1009257Y445096D01*
X1009256Y445091D01*
X1009255Y445081D01*
X1009254Y445076D01*
X1009254Y445071D01*
X1009253Y445066D01*
X1009252Y445057D01*
X1009252Y445056D01*
X1009251Y445052D01*
X1009251Y445051D01*
X1009251Y445047D01*
X1009250Y445042D01*
X1009249Y445032D01*
X1009249Y445027D01*
X1009248Y445022D01*
X1009247Y445017D01*
X1009246Y445007D01*
X1009246Y445002D01*
X1009245Y444997D01*
X1009245Y444992D01*
X1009243Y444982D01*
X1009243Y444977D01*
X1009242Y444972D01*
X1009242Y444967D01*
X1009241Y444957D01*
X1009240Y444952D01*
X1009239Y444947D01*
X1009239Y444942D01*
X1009238Y444932D01*
X1009237Y444927D01*
X1009237Y444922D01*
X1009236Y444917D01*
X1009235Y444907D01*
X1009234Y444902D01*
X1009234Y444898D01*
X1009234Y444897D01*
X1009233Y444893D01*
X1009233Y444892D01*
X1009232Y444883D01*
X1009231Y444878D01*
X1009231Y444873D01*
X1009230Y444868D01*
X1009229Y444858D01*
X1009229Y444855D01*
X1009230Y444854D01*
X1009229Y444853D01*
X1009399Y444367D01*
X1009103Y443751D01*
X1009103Y443750D01*
X1009102Y443750D01*
X1009102Y443745D01*
X1009101Y443740D01*
X1009101Y443735D01*
X1009100Y443725D01*
X1009099Y443720D01*
X1009098Y443715D01*
X1009098Y443710D01*
X1009097Y443700D01*
X1009096Y443695D01*
X1009096Y443690D01*
X1009095Y443685D01*
X1009094Y443675D01*
X1009093Y443670D01*
X1009093Y443665D01*
X1009092Y443660D01*
X1009091Y443650D01*
X1009090Y443645D01*
X1009090Y443640D01*
X1009089Y443635D01*
X1009088Y443626D01*
X1009088Y443625D01*
X1009088Y443621D01*
X1009088Y443620D01*
X1009087Y443616D01*
X1009087Y443611D01*
X1009086Y443611D01*
X1009087Y443611D01*
X1009085Y443601D01*
X1009085Y443596D01*
X1009084Y443591D01*
X1009084Y443586D01*
X1009083Y443576D01*
X1009082Y443576D01*
X1009083Y443576D01*
X1009082Y443571D01*
X1009081Y443566D01*
X1009081Y443561D01*
X1009079Y443546D01*
X1009079Y443541D01*
X1009078Y443536D01*
X1009076Y443521D01*
X1009076Y443516D01*
X1009075Y443511D01*
X1009073Y443496D01*
X1009073Y443491D01*
X1009072Y443486D01*
X1009071Y443471D01*
X1009070Y443467D01*
X1009070Y443466D01*
X1009069Y443462D01*
X1009069Y443461D01*
X1009068Y443447D01*
X1009067Y443442D01*
X1009067Y443437D01*
X1009066Y443432D01*
X1009065Y443422D01*
X1009064Y443417D01*
X1009064Y443412D01*
X1009063Y443407D01*
X1009062Y443397D01*
X1009061Y443392D01*
X1009061Y443387D01*
X1009060Y443382D01*
X1009059Y443372D01*
X1009059Y443367D01*
X1009058Y443362D01*
X1009058Y443357D01*
X1009057Y443357D01*
X1009056Y443347D01*
X1009056Y443342D01*
X1009055Y443337D01*
X1009055Y443332D01*
X1009054Y443322D01*
X1009053Y443322D01*
X1009054Y443322D01*
X1009053Y443317D01*
X1009052Y443312D01*
X1009052Y443308D01*
X1009052Y443307D01*
X1009051Y443298D01*
X1009050Y443293D01*
X1009050Y443288D01*
X1009049Y443283D01*
X1009048Y443273D01*
X1009047Y443268D01*
X1009047Y443263D01*
X1009046Y443258D01*
X1009045Y443248D01*
X1009044Y443243D01*
X1009044Y443238D01*
X1009043Y443233D01*
X1009042Y443223D01*
X1009042Y443218D01*
X1009041Y443213D01*
X1009040Y443208D01*
X1009039Y443193D01*
X1009038Y443188D01*
X1009038Y443183D01*
X1009036Y443168D01*
X1009035Y443163D01*
X1009035Y443158D01*
X1009033Y443144D01*
X1009033Y443143D01*
X1009032Y443139D01*
X1009032Y443134D01*
X1009030Y443119D01*
X1009030Y443114D01*
X1009029Y443109D01*
X1009027Y443094D01*
X1009027Y443089D01*
X1009026Y443084D01*
X1009026Y443079D01*
X1009025Y443071D01*
X1008621Y442751D01*
X1008621Y442749D01*
X1008620Y442749D01*
X1008035Y441533D01*
X1008035Y441532D01*
X1008034Y441531D01*
X1008034Y441014D01*
X1007553Y440532D01*
X1007553Y440531D01*
X1007552Y440531D01*
X1007257Y439918D01*
X1006768Y439747D01*
X1006767Y439746D01*
X1006766Y439746D01*
X1006400Y439380D01*
X1005720Y439380D01*
X1005719Y439379D01*
X1005718Y439380D01*
X1005076Y439155D01*
X1004609Y439379D01*
X1004608Y439379D01*
X1004607Y439380D01*
X999437Y439380D01*
X999432Y439375D01*
X999433Y439375D01*
X999432Y439375D01*
X999432Y377947D01*
X999433Y377946D01*
X999433Y377945D01*
X1000696Y374920D01*
X1000698Y374919D01*
X1000699Y374917D01*
X1003510Y373760D01*
X1003512Y373760D01*
X1003513Y373759D01*
X1004037Y373816D01*
G37*
G36*
X423202Y341286D02*
X423202Y341286D01*
X486009Y351455D01*
X486012Y351458D01*
X486013Y351459D01*
X486024Y351511D01*
X486053Y351655D01*
X486066Y351719D01*
X486079Y351784D01*
X486092Y351848D01*
X486092Y351849D01*
X486106Y351913D01*
X486119Y351978D01*
X486132Y352042D01*
X486161Y352186D01*
X486174Y352251D01*
X486187Y352316D01*
X486200Y352380D01*
X486214Y352445D01*
X486227Y352509D01*
X486240Y352574D01*
X486269Y352718D01*
X486282Y352783D01*
X486295Y352847D01*
X486308Y352912D01*
X486309Y352912D01*
X486322Y352976D01*
X486335Y353041D01*
X486348Y353106D01*
X486377Y353250D01*
X486390Y353314D01*
X486403Y353379D01*
X486417Y353443D01*
X486430Y353508D01*
X486443Y353573D01*
X486485Y353781D01*
X486498Y353846D01*
X486511Y353911D01*
X486525Y353975D01*
X486538Y354040D01*
X486551Y354104D01*
X486593Y354313D01*
X486606Y354378D01*
X486619Y354442D01*
X486633Y354507D01*
X486646Y354571D01*
X486659Y354636D01*
X486688Y354780D01*
X486701Y354845D01*
X486714Y354909D01*
X486727Y354974D01*
X486728Y354974D01*
X486741Y355038D01*
X486754Y355103D01*
X486767Y355168D01*
X486796Y355312D01*
X486809Y355376D01*
X486822Y355441D01*
X486836Y355505D01*
X486836Y355506D01*
X486849Y355570D01*
X486862Y355635D01*
X486875Y355699D01*
X486904Y355843D01*
X486917Y355908D01*
X486930Y355973D01*
X486944Y356037D01*
X486957Y356102D01*
X486970Y356166D01*
X486983Y356231D01*
X487012Y356375D01*
X487025Y356440D01*
X487038Y356504D01*
X487052Y356569D01*
X487065Y356633D01*
X487078Y356698D01*
X487120Y356907D01*
X487133Y356971D01*
X487146Y357036D01*
X487147Y357036D01*
X487160Y357100D01*
X487173Y357165D01*
X487186Y357230D01*
X487228Y357438D01*
X487241Y357503D01*
X487255Y357568D01*
X487268Y357632D01*
X487281Y357697D01*
X487294Y357761D01*
X487323Y357905D01*
X487336Y357970D01*
X487349Y358035D01*
X487363Y358099D01*
X487376Y358164D01*
X487389Y358228D01*
X487402Y358293D01*
X487431Y358437D01*
X487444Y358502D01*
X487457Y358566D01*
X487471Y358631D01*
X487484Y358695D01*
X487497Y358760D01*
X487510Y358825D01*
X487539Y358969D01*
X487552Y359033D01*
X487565Y359098D01*
X487566Y359098D01*
X487579Y359162D01*
X487579Y359163D01*
X487592Y359227D01*
X487605Y359292D01*
X487618Y359356D01*
X487647Y359500D01*
X487660Y359565D01*
X487674Y359630D01*
X487687Y359694D01*
X487700Y359759D01*
X487713Y359823D01*
X487755Y360032D01*
X487768Y360097D01*
X487782Y360161D01*
X487795Y360226D01*
X487808Y360290D01*
X487821Y360355D01*
X487863Y360564D01*
X487876Y360628D01*
X487890Y360693D01*
X487903Y360757D01*
X487916Y360822D01*
X487929Y360887D01*
X487971Y361095D01*
X487984Y361160D01*
X487985Y361160D01*
X487998Y361225D01*
X488011Y361289D01*
X488024Y361354D01*
X488037Y361418D01*
X488066Y361562D01*
X488079Y361627D01*
X488093Y361692D01*
X488106Y361756D01*
X488119Y361821D01*
X488132Y361885D01*
X488145Y361950D01*
X488174Y362094D01*
X488187Y362159D01*
X488201Y362223D01*
X488214Y362288D01*
X488227Y362352D01*
X488240Y362417D01*
X488253Y362482D01*
X488282Y362626D01*
X488295Y362690D01*
X488309Y362755D01*
X488322Y362819D01*
X488322Y362820D01*
X488335Y362884D01*
X488348Y362949D01*
X488390Y363157D01*
X488403Y363222D01*
X488404Y363222D01*
X488417Y363287D01*
X488430Y363351D01*
X488443Y363416D01*
X488456Y363480D01*
X488498Y363689D01*
X488512Y363754D01*
X488525Y363818D01*
X488538Y363883D01*
X488551Y363947D01*
X488564Y364012D01*
X488606Y364221D01*
X488620Y364285D01*
X488633Y364350D01*
X488646Y364414D01*
X488659Y364479D01*
X488672Y364544D01*
X488701Y364688D01*
X488714Y364752D01*
X488728Y364817D01*
X488741Y364882D01*
X488754Y364946D01*
X488767Y365011D01*
X488780Y365075D01*
X488809Y365219D01*
X488822Y365284D01*
X488823Y365284D01*
X488836Y365349D01*
X488849Y365413D01*
X488862Y365478D01*
X488875Y365542D01*
X488888Y365607D01*
X488917Y365751D01*
X488931Y365816D01*
X488944Y365880D01*
X488957Y365945D01*
X488970Y366009D01*
X488983Y366074D01*
X488996Y366139D01*
X489025Y366283D01*
X489039Y366347D01*
X489052Y366412D01*
X489065Y366476D01*
X489065Y366477D01*
X489078Y366541D01*
X489091Y366606D01*
X489133Y366814D01*
X489147Y366879D01*
X489160Y366944D01*
X489173Y367008D01*
X489186Y367073D01*
X489199Y367137D01*
X489241Y367346D01*
X489242Y367346D01*
X489255Y367411D01*
X489268Y367475D01*
X489281Y367540D01*
X489294Y367604D01*
X489307Y367669D01*
X489336Y367813D01*
X489350Y367878D01*
X489363Y367942D01*
X489376Y368007D01*
X489389Y368071D01*
X489402Y368136D01*
X489415Y368201D01*
X489444Y368345D01*
X489458Y368409D01*
X489471Y368474D01*
X489484Y368539D01*
X489497Y368603D01*
X489510Y368668D01*
X489523Y368732D01*
X489552Y368876D01*
X489566Y368941D01*
X489579Y369006D01*
X489592Y369070D01*
X489605Y369135D01*
X489618Y369199D01*
X489631Y369264D01*
X489660Y369408D01*
X489661Y369408D01*
X489674Y369473D01*
X489687Y369537D01*
X489700Y369602D01*
X489713Y369666D01*
X489726Y369731D01*
X489769Y369940D01*
X489782Y370004D01*
X489795Y370069D01*
X489808Y370133D01*
X489808Y370134D01*
X489821Y370198D01*
X489834Y370263D01*
X489877Y370471D01*
X489890Y370536D01*
X489903Y370601D01*
X489916Y370665D01*
X489929Y370730D01*
X489942Y370794D01*
X489971Y370938D01*
X489985Y371003D01*
X489998Y371068D01*
X490011Y371132D01*
X490024Y371197D01*
X490037Y371261D01*
X490050Y371326D01*
X490079Y371470D01*
X490080Y371470D01*
X490093Y371535D01*
X490106Y371599D01*
X490119Y371664D01*
X490132Y371728D01*
X490145Y371793D01*
X490158Y371858D01*
X490188Y372002D01*
X490201Y372066D01*
X490214Y372131D01*
X490227Y372196D01*
X490240Y372260D01*
X490253Y372325D01*
X490266Y372389D01*
X490296Y372533D01*
X490309Y372598D01*
X490322Y372663D01*
X490335Y372727D01*
X490348Y372792D01*
X490361Y372856D01*
X490404Y373065D01*
X490417Y373130D01*
X490430Y373194D01*
X490443Y373259D01*
X490456Y373323D01*
X490469Y373388D01*
X490512Y373597D01*
X490525Y373661D01*
X490538Y373726D01*
X490551Y373790D01*
X490551Y373791D01*
X490564Y373855D01*
X490577Y373920D01*
X490620Y374128D01*
X490633Y374193D01*
X490646Y374258D01*
X490659Y374322D01*
X490672Y374387D01*
X490685Y374451D01*
X490715Y374595D01*
X490728Y374660D01*
X490741Y374725D01*
X490754Y374789D01*
X490767Y374854D01*
X490780Y374918D01*
X490793Y374983D01*
X490823Y375127D01*
X490836Y375192D01*
X490849Y375256D01*
X490862Y375321D01*
X490875Y375385D01*
X490888Y375450D01*
X490901Y375515D01*
X490931Y375659D01*
X490944Y375723D01*
X490957Y375788D01*
X490970Y375853D01*
X490983Y375917D01*
X490996Y375982D01*
X491009Y376046D01*
X491039Y376190D01*
X491052Y376255D01*
X491065Y376320D01*
X491078Y376384D01*
X491091Y376449D01*
X491104Y376513D01*
X491147Y376722D01*
X491160Y376787D01*
X491173Y376851D01*
X491186Y376916D01*
X491199Y376980D01*
X491212Y377045D01*
X491255Y377254D01*
X491268Y377318D01*
X491281Y377383D01*
X491294Y377447D01*
X491294Y377448D01*
X491307Y377512D01*
X491320Y377577D01*
X491350Y377721D01*
X491363Y377785D01*
X491376Y377850D01*
X491389Y377915D01*
X491402Y377979D01*
X491415Y378044D01*
X491428Y378108D01*
X491458Y378252D01*
X491471Y378317D01*
X491484Y378382D01*
X491497Y378446D01*
X491510Y378511D01*
X491523Y378575D01*
X491536Y378640D01*
X491566Y378784D01*
X491579Y378849D01*
X491592Y378913D01*
X491605Y378978D01*
X491618Y379042D01*
X491631Y379107D01*
X491644Y379172D01*
X491674Y379316D01*
X491687Y379380D01*
X491700Y379445D01*
X491713Y379510D01*
X491726Y379574D01*
X491739Y379639D01*
X491782Y379847D01*
X491795Y379912D01*
X491808Y379977D01*
X491821Y380041D01*
X491834Y380106D01*
X491847Y380170D01*
X491890Y380379D01*
X491903Y380444D01*
X491916Y380508D01*
X491929Y380573D01*
X491942Y380637D01*
X491955Y380702D01*
X491985Y380846D01*
X491998Y380911D01*
X492011Y380975D01*
X492024Y381040D01*
X492037Y381104D01*
X492037Y381105D01*
X492050Y381169D01*
X492063Y381234D01*
X492093Y381378D01*
X492106Y381442D01*
X492119Y381507D01*
X492132Y381572D01*
X492145Y381636D01*
X492158Y381701D01*
X492171Y381765D01*
X492201Y381909D01*
X492214Y381974D01*
X492227Y382039D01*
X492240Y382103D01*
X492253Y382168D01*
X492266Y382232D01*
X492279Y382297D01*
X492280Y382297D01*
X492309Y382441D01*
X492322Y382506D01*
X492335Y382570D01*
X492348Y382635D01*
X492361Y382699D01*
X492374Y382764D01*
X492417Y382973D01*
X492430Y383037D01*
X492443Y383102D01*
X492456Y383167D01*
X492469Y383231D01*
X492482Y383296D01*
X492525Y383504D01*
X492538Y383569D01*
X492551Y383634D01*
X492564Y383698D01*
X492577Y383763D01*
X492590Y383827D01*
X492620Y383971D01*
X492620Y383972D01*
X492633Y384036D01*
X492646Y384101D01*
X492659Y384165D01*
X492672Y384230D01*
X492685Y384294D01*
X492698Y384359D01*
X492699Y384359D01*
X492728Y384503D01*
X492741Y384568D01*
X492754Y384632D01*
X492767Y384697D01*
X492780Y384761D01*
X492780Y384762D01*
X492793Y384826D01*
X492807Y384891D01*
X492836Y385035D01*
X492849Y385099D01*
X492862Y385164D01*
X492875Y385229D01*
X492888Y385293D01*
X492901Y385358D01*
X492915Y385422D01*
X492944Y385566D01*
X492957Y385631D01*
X492970Y385696D01*
X492983Y385760D01*
X492996Y385825D01*
X493009Y385889D01*
X493052Y386098D01*
X493065Y386163D01*
X493078Y386227D01*
X493091Y386292D01*
X493104Y386356D01*
X493117Y386421D01*
X493118Y386421D01*
X493160Y386630D01*
X493173Y386694D01*
X493186Y386759D01*
X493199Y386824D01*
X493212Y386888D01*
X493226Y386953D01*
X493268Y387161D01*
X493281Y387226D01*
X493294Y387291D01*
X493307Y387355D01*
X493320Y387420D01*
X493334Y387484D01*
X493363Y387628D01*
X493363Y387629D01*
X493376Y387693D01*
X493389Y387758D01*
X493402Y387822D01*
X493415Y387887D01*
X493428Y387951D01*
X493442Y388016D01*
X493471Y388160D01*
X493484Y388225D01*
X493497Y388289D01*
X493510Y388354D01*
X493523Y388418D01*
X493523Y388419D01*
X493536Y388483D01*
X493537Y388483D01*
X493550Y388548D01*
X493579Y388692D01*
X493592Y388756D01*
X493605Y388821D01*
X493618Y388886D01*
X493631Y388950D01*
X493645Y389015D01*
X493658Y389079D01*
X493687Y389223D01*
X493700Y389288D01*
X493713Y389353D01*
X493726Y389417D01*
X493739Y389482D01*
X493753Y389546D01*
X493795Y389755D01*
X493808Y389820D01*
X493821Y389884D01*
X493834Y389949D01*
X493847Y390013D01*
X493861Y390078D01*
X493903Y390287D01*
X493916Y390351D01*
X493929Y390416D01*
X493942Y390481D01*
X493955Y390545D01*
X493956Y390545D01*
X493969Y390610D01*
X493998Y390754D01*
X494011Y390818D01*
X494024Y390883D01*
X494037Y390948D01*
X494050Y391012D01*
X494064Y391077D01*
X494077Y391141D01*
X494106Y391285D01*
X494106Y391286D01*
X494119Y391350D01*
X494132Y391415D01*
X494145Y391479D01*
X494158Y391544D01*
X494172Y391608D01*
X494185Y391673D01*
X494214Y391817D01*
X494227Y391882D01*
X494240Y391946D01*
X494253Y392011D01*
X494266Y392075D01*
X494266Y392076D01*
X494280Y392140D01*
X494293Y392205D01*
X494322Y392349D01*
X494335Y392413D01*
X494348Y392478D01*
X494361Y392543D01*
X494374Y392607D01*
X494375Y392607D01*
X494388Y392672D01*
X494430Y392880D01*
X494443Y392945D01*
X494456Y393010D01*
X494469Y393074D01*
X494483Y393139D01*
X494496Y393203D01*
X494538Y393412D01*
X494551Y393477D01*
X494564Y393541D01*
X494577Y393606D01*
X494591Y393670D01*
X494604Y393735D01*
X494633Y393879D01*
X494646Y393944D01*
X494659Y394008D01*
X494672Y394073D01*
X494685Y394138D01*
X494699Y394202D01*
X494712Y394267D01*
X494741Y394411D01*
X494754Y394475D01*
X494767Y394540D01*
X494780Y394605D01*
X494793Y394669D01*
X494794Y394669D01*
X494807Y394734D01*
X494820Y394798D01*
X494849Y394942D01*
X494849Y394943D01*
X494862Y395007D01*
X494875Y395072D01*
X494888Y395136D01*
X494902Y395201D01*
X494915Y395265D01*
X494928Y395330D01*
X494957Y395474D01*
X494970Y395539D01*
X494983Y395603D01*
X494996Y395668D01*
X495010Y395732D01*
X495010Y395733D01*
X495023Y395797D01*
X495065Y396006D01*
X495078Y396070D01*
X495091Y396135D01*
X495104Y396200D01*
X495118Y396264D01*
X495131Y396329D01*
X495173Y396537D01*
X495186Y396602D01*
X495199Y396667D01*
X495212Y396731D01*
X495213Y396731D01*
X495226Y396796D01*
X495239Y396860D01*
X495281Y397069D01*
X495294Y397134D01*
X495307Y397198D01*
X495321Y397263D01*
X495334Y397327D01*
X495347Y397392D01*
X495376Y397536D01*
X495389Y397601D01*
X495402Y397665D01*
X495415Y397730D01*
X495429Y397795D01*
X495442Y397859D01*
X495455Y397924D01*
X495484Y398068D01*
X495497Y398132D01*
X495510Y398197D01*
X495523Y398262D01*
X495537Y398326D01*
X495550Y398391D01*
X495563Y398455D01*
X495592Y398599D01*
X495592Y398600D01*
X495605Y398664D01*
X495618Y398729D01*
X495631Y398793D01*
X495632Y398793D01*
X495645Y398858D01*
X495658Y398922D01*
X495671Y398987D01*
X495700Y399131D01*
X495713Y399196D01*
X495726Y399260D01*
X495740Y399325D01*
X495753Y399389D01*
X495753Y399390D01*
X495766Y399454D01*
X495808Y399663D01*
X495821Y399727D01*
X495834Y399792D01*
X495848Y399857D01*
X495861Y399921D01*
X495874Y399986D01*
X495916Y400194D01*
X495929Y400259D01*
X495942Y400324D01*
X495956Y400388D01*
X495969Y400453D01*
X495982Y400517D01*
X496011Y400661D01*
X496011Y400662D01*
X496024Y400726D01*
X496037Y400791D01*
X496050Y400855D01*
X496051Y400855D01*
X496064Y400920D01*
X496077Y400984D01*
X496090Y401049D01*
X496119Y401193D01*
X496132Y401258D01*
X496145Y401322D01*
X496159Y401387D01*
X496172Y401452D01*
X496185Y401516D01*
X496198Y401581D01*
X496227Y401725D01*
X496240Y401789D01*
X496253Y401854D01*
X496267Y401919D01*
X496280Y401983D01*
X496293Y402048D01*
X496306Y402112D01*
X496335Y402256D01*
X496335Y402257D01*
X496348Y402321D01*
X496361Y402386D01*
X496375Y402450D01*
X496388Y402515D01*
X496401Y402579D01*
X496443Y402788D01*
X496456Y402853D01*
X496469Y402917D01*
X496470Y402917D01*
X496483Y402982D01*
X496496Y403046D01*
X496496Y403047D01*
X496509Y403111D01*
X496551Y403320D01*
X496564Y403384D01*
X496578Y403449D01*
X496591Y403514D01*
X496604Y403578D01*
X496617Y403643D01*
X496646Y403787D01*
X496659Y403851D01*
X496672Y403916D01*
X496686Y403981D01*
X496699Y404045D01*
X496712Y404110D01*
X496725Y404174D01*
X496754Y404318D01*
X496754Y404319D01*
X496767Y404383D01*
X496780Y404448D01*
X496794Y404512D01*
X496807Y404577D01*
X496811Y404600D01*
X496810Y404601D01*
X496811Y404603D01*
X475188Y441595D01*
X475183Y441597D01*
X475182Y441597D01*
X399578Y413168D01*
X399576Y413166D01*
X399575Y413164D01*
X399575Y413163D01*
X399575Y413162D01*
X423196Y341289D01*
X423201Y341286D01*
X423202Y341286D01*
X423202Y341286D01*
G37*
%LPC*%
G36*
X428201Y360394D02*
X428201Y360394D01*
X425728Y361822D01*
X424300Y364295D01*
X424300Y412824D01*
X424300Y413981D01*
X424300Y415138D01*
X424300Y415139D01*
X424300Y415653D01*
X426210Y418397D01*
X429345Y419559D01*
X430760Y419193D01*
X483480Y405568D01*
X483481Y405568D01*
X484539Y405295D01*
X485721Y404989D01*
X485722Y404989D01*
X486731Y404728D01*
X488974Y400941D01*
X487891Y396676D01*
X486084Y395595D01*
X469686Y385784D01*
X469686Y385783D01*
X468817Y385263D01*
X468816Y385261D01*
X468814Y385260D01*
X468814Y385259D01*
X468814Y364295D01*
X467386Y361822D01*
X464913Y360394D01*
X428201Y360394D01*
G37*
%LPD*%
G36*
X463236Y365977D02*
X463236Y365977D01*
X463235Y365977D01*
X463236Y365977D01*
X463236Y384247D01*
X463236Y385401D01*
X463236Y386561D01*
X463236Y386562D01*
X463236Y386810D01*
X464623Y389255D01*
X465682Y389889D01*
X482146Y399739D01*
X482146Y399740D01*
X482616Y400021D01*
X482617Y400023D01*
X482618Y400023D01*
X482618Y400025D01*
X482618Y400027D01*
X482616Y400028D01*
X482615Y400030D01*
X430687Y413450D01*
X429884Y413658D01*
X429884Y413657D01*
X429884Y413658D01*
X429883Y413657D01*
X429879Y413655D01*
X429879Y413653D01*
X429878Y413653D01*
X429878Y365977D01*
X429883Y365972D01*
X429883Y365973D01*
X429883Y365972D01*
X463231Y365972D01*
X463236Y365977D01*
G37*
%LPC*%
G36*
X138911Y423804D02*
X138911Y423804D01*
X131118Y427032D01*
X125153Y432997D01*
X121925Y440790D01*
X121925Y449226D01*
X125153Y457019D01*
X131118Y462984D01*
X138911Y466212D01*
X147347Y466212D01*
X155140Y462984D01*
X161105Y457019D01*
X164333Y449226D01*
X164333Y440790D01*
X161105Y432997D01*
X155140Y427032D01*
X147347Y423804D01*
X138911Y423804D01*
G37*
%LPD*%
%LPC*%
G36*
X1204060Y43947D02*
X1204060Y43947D01*
X1196267Y47175D01*
X1190302Y53140D01*
X1187074Y60933D01*
X1187074Y69369D01*
X1190302Y77162D01*
X1196267Y83127D01*
X1204060Y86355D01*
X1212496Y86355D01*
X1220289Y83127D01*
X1226254Y77162D01*
X1229482Y69369D01*
X1229482Y60933D01*
X1226254Y53140D01*
X1220289Y47175D01*
X1212496Y43947D01*
X1204060Y43947D01*
G37*
%LPD*%
D10*
X1065883Y578626D02*
X1065742Y578626D01*
D11*
X989224Y576898D01*
X944316Y575874D02*
X910061Y575098D01*
X847125Y497134D01*
X793115Y512163D02*
X865011Y599087D01*
X776429Y343923D02*
X790787Y277036D01*
X867833Y260562D01*
D10*
X867869Y260562D01*
D11*
X683048Y542784D02*
X732966Y599334D01*
X665268Y308786D02*
X679203Y232974D01*
D12*
X590973Y543728D02*
X590973Y543736D01*
D11*
X590973Y543728D02*
X575994Y527459D01*
X623732Y579261D02*
X642232Y599343D01*
X642232Y599329D01*
X596658Y287050D02*
X604555Y222003D01*
X736847Y527826D02*
X800029Y599334D01*
X720090Y325120D02*
X734060Y248920D01*
X753110Y243840D01*
X514858Y410464D02*
X478790Y500126D01*
X514858Y410464D02*
X547116Y172974D01*
D10*
X1065742Y578626D02*
X1065883Y578626D01*
X867869Y260562D02*
X867833Y260562D01*
X604555Y222074D02*
X604555Y222003D01*
D11*
X224101Y103331D02*
X242695Y6378D01*
X369062Y22860D02*
X351790Y112776D01*
X369062Y22860D02*
X380238Y19558D01*
X451612Y85090D02*
X424434Y226314D01*
X59120Y246543D02*
X93608Y66712D01*
X289052Y440182D02*
X279908Y471932D01*
X289052Y440182D02*
X297688Y394208D01*
X383794Y438912D02*
X373380Y469900D01*
X383794Y438912D02*
X412496Y287782D01*
X896444Y483411D02*
X936308Y533647D01*
X1109274Y539609D01*
X1150655Y440020D01*
X1127725Y364067D01*
X1208148Y440625D02*
X1168402Y540438D01*
X1208148Y440625D02*
X1187228Y380524D01*
X1269492Y441960D02*
X1251204Y507492D01*
X1269492Y441960D02*
X1249172Y389636D01*
X1330706Y433832D02*
X1319022Y477774D01*
X1330706Y433832D02*
X1309370Y378714D01*
X1391920Y434086D02*
X1387856Y449326D01*
X1391920Y434086D02*
X1366520Y368554D01*
X1470434Y421913D02*
X1397210Y242116D01*
X1427577Y117336D02*
X1525899Y354475D01*
X888294Y344840D02*
X883461Y377754D01*
X888294Y344840D02*
X989998Y320871D01*
X1070518Y341898D01*
X841446Y311926D02*
X831144Y361209D01*
X841446Y311926D02*
X981534Y282857D01*
X1076325Y307658D01*
X1085438Y266848D02*
X973096Y238119D01*
X886214Y256662D01*
X970244Y196561D02*
X1094927Y224334D01*
X1104072Y183360D02*
X1015554Y163643D01*
X1075026Y120871D02*
X1116177Y129119D01*
M02*
