G04 EAGLE Gerber RS-274X export*
G75*
%MOMM*%
%FSLAX34Y34*%
%LPD*%
%IN*%
%IPPOS*%
%AMOC8*
5,1,8,0,0,1.08239X$1,22.5*%
G01*
%ADD10C,0.254000*%


D10*
X0Y175231D02*
X150249Y2617D01*
X150707Y2135D01*
X151205Y1695D01*
X151740Y1300D01*
X152307Y953D01*
X152902Y657D01*
X153521Y413D01*
X154158Y225D01*
X154810Y93D01*
X155470Y18D01*
X156135Y1D01*
X156590Y23D01*
X376060Y17155D01*
X380624Y19142D01*
X599438Y220292D01*
X603492Y222221D01*
X876042Y262107D01*
X876703Y262174D01*
X877368Y262184D01*
X878031Y262135D01*
X878687Y262029D01*
X879332Y261867D01*
X879959Y261648D01*
X880566Y261376D01*
X881146Y261052D01*
X881594Y260753D01*
X1195446Y35035D01*
X1196002Y34671D01*
X1196588Y34357D01*
X1197199Y34095D01*
X1197830Y33887D01*
X1198477Y33735D01*
X1199135Y33640D01*
X1199725Y33604D01*
X1389767Y29367D01*
X1396224Y32679D01*
X1548587Y255174D01*
X1549695Y261320D01*
X1514106Y404305D01*
X1509105Y409699D01*
X1372447Y454898D01*
X1371773Y455157D01*
X1220840Y521512D01*
X1220431Y521678D01*
X1046500Y586389D01*
X1045867Y586593D01*
X1045219Y586742D01*
X1045145Y586755D01*
X970836Y599646D01*
X970176Y599731D01*
X969533Y599758D01*
X585116Y599758D01*
X584452Y599729D01*
X583793Y599642D01*
X583144Y599498D01*
X582510Y599298D01*
X581896Y599044D01*
X581306Y598737D01*
X580745Y598380D01*
X580218Y597975D01*
X579827Y597623D01*
X447837Y470353D01*
X447339Y469913D01*
X446804Y469518D01*
X446237Y469171D01*
X445642Y468875D01*
X445023Y468631D01*
X444386Y468443D01*
X443734Y468311D01*
X443074Y468236D01*
X442409Y468219D01*
X442335Y468221D01*
X129470Y476962D01*
X125535Y475994D01*
X122652Y473145D01*
X0Y259970D01*
X0Y175231D01*
X622180Y476914D02*
X640447Y427747D01*
X640515Y427537D01*
X640564Y427321D01*
X662018Y310633D01*
X662036Y310544D01*
X662093Y310329D01*
X662169Y310121D01*
X662263Y309920D01*
X662373Y309728D01*
X662500Y309547D01*
X662643Y309377D01*
X662799Y309220D01*
X662969Y309078D01*
X663150Y308950D01*
X663342Y308839D01*
X663543Y308746D01*
X663751Y308670D01*
X663965Y308612D01*
X664184Y308574D01*
X664404Y308554D01*
X664626Y308554D01*
X664847Y308573D01*
X665065Y308612D01*
X665279Y308669D01*
X666348Y309006D01*
X668045Y309535D01*
X668174Y309579D01*
X668378Y309665D01*
X668574Y309769D01*
X668760Y309889D01*
X668935Y310025D01*
X669097Y310176D01*
X669246Y310341D01*
X669380Y310517D01*
X669497Y310705D01*
X669598Y310902D01*
X669682Y311108D01*
X669747Y311319D01*
X669793Y311536D01*
X669821Y311756D01*
X669829Y311977D01*
X669817Y312199D01*
X669787Y312418D01*
X648361Y429122D01*
X648312Y429334D01*
X648244Y429545D01*
X631350Y475186D01*
X631324Y475260D01*
X631263Y475473D01*
X631220Y475690D01*
X631197Y475910D01*
X631193Y476132D01*
X631208Y476353D01*
X631243Y476572D01*
X631296Y476787D01*
X631368Y476996D01*
X631458Y477199D01*
X631565Y477393D01*
X631689Y477577D01*
X631828Y477749D01*
X685718Y538771D01*
X685740Y538796D01*
X685877Y538970D01*
X685998Y539156D01*
X686103Y539351D01*
X686190Y539555D01*
X686260Y539765D01*
X686310Y539981D01*
X686342Y540200D01*
X686354Y540421D01*
X686347Y540643D01*
X686321Y540863D01*
X686276Y541080D01*
X686212Y541292D01*
X686130Y541498D01*
X686030Y541696D01*
X685913Y541884D01*
X685780Y542061D01*
X685633Y542227D01*
X685471Y542378D01*
X685297Y542515D01*
X685111Y542637D01*
X684916Y542741D01*
X684713Y542829D01*
X684502Y542898D01*
X684128Y543003D01*
X681319Y543780D01*
X681146Y543821D01*
X680927Y543856D01*
X680706Y543871D01*
X680484Y543867D01*
X680264Y543843D01*
X680046Y543801D01*
X679833Y543739D01*
X679627Y543660D01*
X679428Y543562D01*
X679238Y543448D01*
X679059Y543317D01*
X678892Y543172D01*
X678738Y543012D01*
X622657Y479479D01*
X622605Y479418D01*
X622471Y479241D01*
X622353Y479054D01*
X622252Y478856D01*
X622169Y478651D01*
X622103Y478439D01*
X622057Y478223D01*
X622029Y478003D01*
X622021Y477782D01*
X622032Y477560D01*
X622063Y477341D01*
X622112Y477125D01*
X622180Y476914D01*
X1262618Y268344D02*
X1263679Y257825D01*
X1266720Y248027D01*
X1277906Y231436D01*
X1294498Y220250D01*
X1304296Y217208D01*
X1314815Y216148D01*
X1325334Y217208D01*
X1335132Y220250D01*
X1351724Y231436D01*
X1362910Y248027D01*
X1365951Y257825D01*
X1367012Y268344D01*
X1365951Y278864D01*
X1362910Y288662D01*
X1351724Y305253D01*
X1335132Y316439D01*
X1325334Y319481D01*
X1314815Y320541D01*
X1304296Y319481D01*
X1294498Y316439D01*
X1277906Y305253D01*
X1266720Y288662D01*
X1263679Y278864D01*
X1262618Y268344D01*
X859903Y442669D02*
X859823Y442563D01*
X859703Y442377D01*
X859599Y442182D01*
X859512Y441978D01*
X859444Y441767D01*
X859394Y441551D01*
X859363Y441331D01*
X859352Y441110D01*
X859360Y440889D01*
X859387Y440669D01*
X859433Y440452D01*
X859498Y440240D01*
X859581Y440035D01*
X859682Y439837D01*
X859799Y439650D01*
X859933Y439473D01*
X860081Y439308D01*
X872882Y426296D01*
X872918Y426259D01*
X873063Y426091D01*
X873193Y425912D01*
X873306Y425721D01*
X873403Y425522D01*
X873482Y425315D01*
X873542Y425102D01*
X873584Y424884D01*
X880229Y379707D01*
X880259Y379541D01*
X880315Y379327D01*
X880390Y379118D01*
X880482Y378917D01*
X880592Y378724D01*
X880718Y378542D01*
X880860Y378371D01*
X881015Y378214D01*
X881184Y378070D01*
X881365Y377942D01*
X881556Y377830D01*
X881757Y377736D01*
X881965Y377659D01*
X882178Y377600D01*
X882396Y377560D01*
X882617Y377540D01*
X882838Y377539D01*
X883059Y377557D01*
X883278Y377594D01*
X883492Y377650D01*
X884541Y377974D01*
X886337Y378551D01*
X886360Y378558D01*
X886567Y378637D01*
X886766Y378734D01*
X886957Y378847D01*
X887136Y378977D01*
X887304Y379122D01*
X887458Y379281D01*
X887598Y379452D01*
X887723Y379636D01*
X887831Y379829D01*
X887921Y380031D01*
X887994Y380241D01*
X888048Y380455D01*
X888084Y380674D01*
X888100Y380895D01*
X888097Y381117D01*
X888074Y381337D01*
X881134Y428655D01*
X881125Y428713D01*
X881078Y428929D01*
X881013Y429141D01*
X880929Y429346D01*
X880828Y429544D01*
X880710Y429731D01*
X880576Y429908D01*
X880427Y430072D01*
X870743Y439872D01*
X870648Y439973D01*
X870509Y440145D01*
X870385Y440329D01*
X870277Y440522D01*
X870187Y440725D01*
X870115Y440934D01*
X870061Y441149D01*
X870026Y441368D01*
X870010Y441589D01*
X870014Y441810D01*
X870037Y442031D01*
X870079Y442248D01*
X870140Y442461D01*
X870219Y442668D01*
X870316Y442868D01*
X870430Y443058D01*
X870560Y443237D01*
X899336Y479464D01*
X899415Y479569D01*
X899536Y479755D01*
X899640Y479950D01*
X899726Y480154D01*
X899795Y480365D01*
X899845Y480581D01*
X899875Y480800D01*
X899887Y481021D01*
X899879Y481243D01*
X899852Y481463D01*
X899806Y481680D01*
X899741Y481891D01*
X899658Y482097D01*
X899558Y482294D01*
X899440Y482482D01*
X899307Y482659D01*
X899159Y482824D01*
X898997Y482975D01*
X898822Y483111D01*
X898636Y483232D01*
X898441Y483336D01*
X898237Y483423D01*
X898026Y483491D01*
X897523Y483631D01*
X894984Y484341D01*
X894891Y484365D01*
X894674Y484407D01*
X894453Y484430D01*
X894232Y484434D01*
X894011Y484418D01*
X893792Y484383D01*
X893577Y484329D01*
X893367Y484257D01*
X893165Y484167D01*
X892971Y484059D01*
X892788Y483935D01*
X892616Y483795D01*
X892456Y483641D01*
X892311Y483474D01*
X859903Y442669D01*
X427089Y365723D02*
X427099Y365502D01*
X427128Y365282D01*
X427176Y365066D01*
X427242Y364854D01*
X427327Y364650D01*
X427429Y364453D01*
X427548Y364266D01*
X427683Y364090D01*
X427833Y363927D01*
X427996Y363777D01*
X428172Y363642D01*
X428359Y363523D01*
X428556Y363421D01*
X428760Y363336D01*
X428972Y363270D01*
X429188Y363222D01*
X429408Y363193D01*
X429629Y363183D01*
X463485Y363183D01*
X463706Y363193D01*
X463926Y363222D01*
X464142Y363270D01*
X464354Y363336D01*
X464558Y363421D01*
X464755Y363523D01*
X464942Y363642D01*
X465118Y363777D01*
X465281Y363927D01*
X465431Y364090D01*
X465566Y364266D01*
X465685Y364453D01*
X465787Y364650D01*
X465872Y364854D01*
X465938Y365066D01*
X465986Y365282D01*
X466015Y365502D01*
X466025Y365723D01*
X466025Y385404D01*
X466032Y385586D01*
X466057Y385806D01*
X466102Y386023D01*
X466165Y386235D01*
X466247Y386441D01*
X466346Y386639D01*
X466462Y386828D01*
X466594Y387006D01*
X466741Y387171D01*
X466902Y387324D01*
X467076Y387461D01*
X467261Y387583D01*
X484571Y397940D01*
X484742Y398052D01*
X484917Y398188D01*
X485079Y398340D01*
X485227Y398504D01*
X485360Y398681D01*
X485478Y398869D01*
X485578Y399066D01*
X485661Y399272D01*
X485726Y399484D01*
X485772Y399700D01*
X485799Y399920D01*
X485807Y400142D01*
X485795Y400363D01*
X485764Y400582D01*
X485714Y400798D01*
X485646Y401009D01*
X485559Y401213D01*
X485455Y401408D01*
X485335Y401594D01*
X485198Y401769D01*
X485047Y401931D01*
X484883Y402079D01*
X484706Y402212D01*
X484518Y402330D01*
X484320Y402430D01*
X484115Y402513D01*
X483903Y402578D01*
X430265Y416440D01*
X430071Y416482D01*
X429851Y416511D01*
X429629Y416521D01*
X429408Y416511D01*
X429188Y416482D01*
X428972Y416434D01*
X428761Y416368D01*
X428556Y416283D01*
X428359Y416181D01*
X428172Y416062D01*
X427997Y415927D01*
X427833Y415777D01*
X427683Y415614D01*
X427549Y415438D01*
X427429Y415251D01*
X427327Y415054D01*
X427242Y414850D01*
X427176Y414638D01*
X427128Y414422D01*
X427099Y414202D01*
X427089Y413981D01*
X427089Y365723D01*
X141775Y219234D02*
X142938Y216427D01*
X145744Y215265D01*
X212006Y215265D01*
X212006Y149003D01*
X213168Y146197D01*
X215974Y145034D01*
X289824Y145034D01*
X292631Y146197D01*
X293793Y149003D01*
X293793Y215265D01*
X360055Y215265D01*
X362861Y216427D01*
X364023Y219234D01*
X364023Y293084D01*
X362861Y295890D01*
X360055Y297052D01*
X293793Y297052D01*
X293793Y363314D01*
X292631Y366120D01*
X289824Y367283D01*
X215974Y367283D01*
X213168Y366120D01*
X212006Y363314D01*
X212006Y297052D01*
X145744Y297052D01*
X142938Y295890D01*
X141775Y293084D01*
X141775Y219234D01*
X974484Y490435D02*
X975293Y483665D01*
X1006385Y444536D01*
X1005245Y442169D01*
X996643Y442169D01*
X996643Y377387D01*
X998568Y372778D01*
X1003106Y370910D01*
X1004484Y371059D01*
X1030935Y376788D01*
X1034623Y379075D01*
X1036075Y383161D01*
X1036075Y413575D01*
X1049111Y416138D01*
X1049111Y389107D01*
X1051030Y384508D01*
X1055567Y382638D01*
X1056780Y382755D01*
X1071504Y385542D01*
X1075315Y387804D01*
X1076751Y391994D01*
X1075904Y437091D01*
X1078371Y437091D01*
X1084076Y440522D01*
X1083724Y447171D01*
X1073744Y461937D01*
X1074202Y484778D01*
X1072349Y489463D01*
X1067570Y491416D01*
X1056498Y491189D01*
X1052025Y489239D01*
X1050169Y484726D01*
X1050169Y484409D01*
X1043151Y493494D01*
X1037625Y496102D01*
X1035155Y496020D01*
X1028646Y495804D01*
X1008894Y495149D01*
X989143Y494494D01*
X982634Y494278D01*
X980165Y494197D01*
X974484Y490435D01*
X1104721Y291853D02*
X1105781Y281334D01*
X1108823Y271536D01*
X1120009Y254945D01*
X1136600Y243758D01*
X1146398Y240717D01*
X1156918Y239657D01*
X1167437Y240717D01*
X1177235Y243758D01*
X1193826Y254945D01*
X1205012Y271536D01*
X1208054Y281334D01*
X1209114Y291853D01*
X1208054Y302373D01*
X1205012Y312170D01*
X1193826Y328762D01*
X1177235Y339948D01*
X1167437Y342989D01*
X1156918Y344050D01*
X1146398Y342989D01*
X1136600Y339948D01*
X1120009Y328762D01*
X1108823Y312170D01*
X1105781Y302373D01*
X1104721Y291853D01*
X743048Y454554D02*
X755268Y428292D01*
X755353Y428087D01*
X755420Y427876D01*
X755449Y427754D01*
X773079Y345663D01*
X773135Y345449D01*
X773209Y345240D01*
X773302Y345038D01*
X773411Y344846D01*
X773537Y344663D01*
X773678Y344493D01*
X773834Y344335D01*
X774002Y344191D01*
X774183Y344063D01*
X774374Y343951D01*
X774574Y343856D01*
X774782Y343779D01*
X774996Y343720D01*
X775214Y343680D01*
X775434Y343659D01*
X775656Y343658D01*
X775877Y343676D01*
X776095Y343712D01*
X776309Y343768D01*
X776318Y343771D01*
X777508Y344142D01*
X779139Y344651D01*
X779347Y344726D01*
X779549Y344819D01*
X779741Y344929D01*
X779923Y345056D01*
X780093Y345198D01*
X780250Y345354D01*
X780393Y345523D01*
X780521Y345705D01*
X780632Y345896D01*
X780726Y346097D01*
X780803Y346305D01*
X780861Y346519D01*
X780900Y346737D01*
X780920Y346957D01*
X780921Y347179D01*
X780902Y347400D01*
X780866Y347610D01*
X763174Y429875D01*
X763118Y430090D01*
X763043Y430298D01*
X762997Y430404D01*
X752424Y453358D01*
X752340Y453563D01*
X752275Y453775D01*
X752228Y453991D01*
X752200Y454211D01*
X752191Y454433D01*
X752202Y454654D01*
X752232Y454873D01*
X752281Y455090D01*
X752348Y455301D01*
X752434Y455505D01*
X752537Y455701D01*
X752657Y455887D01*
X752774Y456040D01*
X795923Y508191D01*
X796057Y508368D01*
X796175Y508555D01*
X796276Y508753D01*
X796359Y508958D01*
X796424Y509170D01*
X796471Y509386D01*
X796498Y509606D01*
X796506Y509828D01*
X796495Y510049D01*
X796465Y510269D01*
X796415Y510485D01*
X796347Y510696D01*
X796261Y510900D01*
X796157Y511096D01*
X796037Y511282D01*
X795901Y511457D01*
X795750Y511619D01*
X795586Y511768D01*
X795409Y511901D01*
X795221Y512019D01*
X795024Y512120D01*
X794819Y512204D01*
X794640Y512260D01*
X794194Y512382D01*
X791545Y513111D01*
X791329Y513160D01*
X791109Y513191D01*
X790888Y513202D01*
X790667Y513193D01*
X790447Y513166D01*
X790230Y513119D01*
X790018Y513054D01*
X789813Y512971D01*
X789616Y512869D01*
X789428Y512752D01*
X789251Y512618D01*
X789087Y512469D01*
X788936Y512307D01*
X788914Y512280D01*
X743394Y457244D01*
X743260Y457067D01*
X743143Y456880D01*
X743042Y456682D01*
X742958Y456477D01*
X742893Y456265D01*
X742847Y456049D01*
X742819Y455829D01*
X742811Y455608D01*
X742822Y455386D01*
X742853Y455167D01*
X742902Y454951D01*
X742970Y454740D01*
X743048Y454554D01*
X682924Y469790D02*
X698199Y428378D01*
X698264Y428176D01*
X698313Y427960D01*
X716765Y327933D01*
X716786Y327831D01*
X716844Y327617D01*
X716921Y327409D01*
X717016Y327209D01*
X717128Y327018D01*
X717256Y326837D01*
X717399Y326668D01*
X717557Y326512D01*
X717727Y326370D01*
X717909Y326244D01*
X718102Y326135D01*
X718303Y326042D01*
X718512Y325967D01*
X718726Y325911D01*
X718944Y325874D01*
X719165Y325855D01*
X719387Y325857D01*
X719607Y325877D01*
X719825Y325917D01*
X720039Y325975D01*
X721134Y326327D01*
X722830Y326856D01*
X722961Y326901D01*
X723165Y326987D01*
X723360Y327091D01*
X723546Y327211D01*
X723721Y327348D01*
X723883Y327499D01*
X724032Y327663D01*
X724165Y327840D01*
X724283Y328028D01*
X724383Y328225D01*
X724467Y328430D01*
X724532Y328642D01*
X724578Y328859D01*
X724605Y329079D01*
X724613Y329300D01*
X724602Y329522D01*
X724571Y329741D01*
X706145Y429760D01*
X706098Y429966D01*
X706031Y430177D01*
X692095Y468062D01*
X692071Y468131D01*
X692010Y468344D01*
X691967Y468561D01*
X691944Y468782D01*
X691940Y469003D01*
X691955Y469224D01*
X691989Y469443D01*
X692043Y469658D01*
X692115Y469868D01*
X692205Y470070D01*
X692312Y470264D01*
X692436Y470448D01*
X692575Y470620D01*
X739546Y523806D01*
X739572Y523835D01*
X739708Y524010D01*
X739829Y524196D01*
X739933Y524391D01*
X740020Y524595D01*
X740089Y524806D01*
X740139Y525022D01*
X740170Y525241D01*
X740182Y525462D01*
X740175Y525684D01*
X740148Y525904D01*
X740102Y526121D01*
X740038Y526333D01*
X739955Y526538D01*
X739855Y526736D01*
X739737Y526924D01*
X739604Y527101D01*
X739456Y527266D01*
X739294Y527417D01*
X739120Y527554D01*
X738934Y527675D01*
X738739Y527779D01*
X738535Y527866D01*
X738324Y527935D01*
X737926Y528045D01*
X735145Y528798D01*
X734986Y528836D01*
X734767Y528870D01*
X734546Y528885D01*
X734325Y528881D01*
X734104Y528858D01*
X733887Y528815D01*
X733674Y528754D01*
X733467Y528674D01*
X733268Y528577D01*
X733078Y528463D01*
X732899Y528332D01*
X732732Y528187D01*
X732578Y528027D01*
X683403Y472350D01*
X683354Y472293D01*
X683220Y472116D01*
X683102Y471929D01*
X683000Y471732D01*
X682916Y471527D01*
X682851Y471316D01*
X682804Y471099D01*
X682776Y470879D01*
X682767Y470658D01*
X682778Y470437D01*
X682808Y470217D01*
X682856Y470001D01*
X682924Y469790D01*
X802312Y443923D02*
X814128Y427518D01*
X814226Y427371D01*
X814335Y427178D01*
X814426Y426976D01*
X814499Y426767D01*
X814554Y426552D01*
X827807Y362969D01*
X827812Y362945D01*
X827869Y362731D01*
X827944Y362522D01*
X828037Y362321D01*
X828147Y362129D01*
X828274Y361947D01*
X828416Y361777D01*
X828572Y361620D01*
X828741Y361477D01*
X828922Y361349D01*
X829114Y361238D01*
X829314Y361143D01*
X829522Y361067D01*
X829736Y361009D01*
X829954Y360970D01*
X830175Y360950D01*
X830397Y360949D01*
X830617Y360968D01*
X830836Y361005D01*
X831050Y361062D01*
X832224Y361428D01*
X833892Y361964D01*
X834059Y362024D01*
X834261Y362115D01*
X834454Y362224D01*
X834637Y362349D01*
X834809Y362489D01*
X834967Y362644D01*
X835112Y362812D01*
X835241Y362992D01*
X835354Y363182D01*
X835450Y363382D01*
X835529Y363589D01*
X835589Y363802D01*
X835630Y364020D01*
X835652Y364241D01*
X835654Y364462D01*
X835638Y364683D01*
X835602Y364902D01*
X822043Y429820D01*
X822001Y429990D01*
X821932Y430201D01*
X821844Y430404D01*
X821740Y430600D01*
X821618Y430785D01*
X812365Y443641D01*
X812251Y443814D01*
X812145Y444008D01*
X812057Y444211D01*
X811986Y444421D01*
X811934Y444637D01*
X811901Y444856D01*
X811887Y445077D01*
X811893Y445298D01*
X811918Y445519D01*
X811962Y445736D01*
X812024Y445948D01*
X812105Y446154D01*
X812204Y446353D01*
X812319Y446542D01*
X812451Y446720D01*
X849972Y493180D01*
X850064Y493301D01*
X850184Y493487D01*
X850288Y493683D01*
X850375Y493886D01*
X850443Y494097D01*
X850493Y494313D01*
X850524Y494533D01*
X850536Y494754D01*
X850528Y494975D01*
X850501Y495195D01*
X850455Y495412D01*
X850390Y495624D01*
X850307Y495829D01*
X850206Y496027D01*
X850089Y496214D01*
X849955Y496391D01*
X849807Y496556D01*
X849645Y496707D01*
X849470Y496843D01*
X849284Y496964D01*
X849089Y497068D01*
X848885Y497155D01*
X848674Y497223D01*
X848205Y497354D01*
X848169Y497354D01*
X845588Y498076D01*
X845514Y498095D01*
X845297Y498139D01*
X845077Y498164D01*
X844856Y498169D01*
X844634Y498155D01*
X844415Y498122D01*
X844200Y498070D01*
X843990Y498000D01*
X843787Y497911D01*
X843593Y497805D01*
X843408Y497682D01*
X843235Y497544D01*
X843075Y497391D01*
X842928Y497225D01*
X802396Y447003D01*
X802273Y446837D01*
X802156Y446648D01*
X802056Y446450D01*
X801974Y446244D01*
X801911Y446032D01*
X801866Y445815D01*
X801840Y445595D01*
X801833Y445374D01*
X801846Y445152D01*
X801878Y444933D01*
X801928Y444717D01*
X801998Y444507D01*
X802085Y444303D01*
X802190Y444108D01*
X802312Y443923D01*
X544370Y495727D02*
X576346Y429649D01*
X576416Y429490D01*
X576490Y429281D01*
X576545Y429066D01*
X576581Y428847D01*
X593483Y289121D01*
X593487Y289088D01*
X593526Y288870D01*
X593584Y288656D01*
X593660Y288448D01*
X593755Y288247D01*
X593866Y288056D01*
X593994Y287874D01*
X594136Y287705D01*
X594293Y287549D01*
X594464Y287407D01*
X594645Y287280D01*
X594838Y287170D01*
X595039Y287076D01*
X595247Y287001D01*
X595461Y286944D01*
X595680Y286906D01*
X595901Y286888D01*
X596122Y286888D01*
X596343Y286908D01*
X596561Y286947D01*
X596775Y287005D01*
X597732Y287310D01*
X599608Y287907D01*
X599786Y287971D01*
X599988Y288062D01*
X600181Y288171D01*
X600363Y288296D01*
X600535Y288437D01*
X600693Y288592D01*
X600837Y288760D01*
X600966Y288941D01*
X601079Y289131D01*
X601175Y289331D01*
X601253Y289539D01*
X601312Y289752D01*
X601353Y289970D01*
X601375Y290190D01*
X601377Y290412D01*
X601360Y290633D01*
X584328Y431170D01*
X584301Y431341D01*
X584250Y431557D01*
X584181Y431767D01*
X584093Y431971D01*
X553929Y494316D01*
X553866Y494456D01*
X553791Y494664D01*
X553734Y494879D01*
X553696Y495097D01*
X553678Y495318D01*
X553678Y495539D01*
X553698Y495760D01*
X553737Y495978D01*
X553795Y496192D01*
X553871Y496400D01*
X553965Y496601D01*
X554077Y496792D01*
X554204Y496974D01*
X554347Y497143D01*
X575526Y520141D01*
X575592Y520216D01*
X575729Y520391D01*
X575849Y520577D01*
X575952Y520773D01*
X576039Y520977D01*
X576107Y521188D01*
X576156Y521404D01*
X576187Y521623D01*
X576198Y521845D01*
X576190Y522066D01*
X576162Y522286D01*
X576116Y522502D01*
X576051Y522714D01*
X575967Y522919D01*
X575866Y523117D01*
X575748Y523304D01*
X575615Y523481D01*
X575466Y523645D01*
X575304Y523796D01*
X575129Y523932D01*
X574943Y524053D01*
X574747Y524156D01*
X574543Y524243D01*
X574332Y524311D01*
X574116Y524360D01*
X574026Y524377D01*
X570744Y524973D01*
X570629Y524991D01*
X570408Y525011D01*
X570186Y525012D01*
X569966Y524993D01*
X569747Y524956D01*
X569533Y524899D01*
X569325Y524824D01*
X569123Y524731D01*
X568931Y524621D01*
X568749Y524494D01*
X568579Y524352D01*
X568422Y524196D01*
X544788Y498555D01*
X544687Y498438D01*
X544554Y498260D01*
X544438Y498072D01*
X544339Y497874D01*
X544257Y497668D01*
X544193Y497455D01*
X544149Y497238D01*
X544123Y497018D01*
X544116Y496797D01*
X544129Y496576D01*
X544161Y496356D01*
X544213Y496141D01*
X544282Y495930D01*
X544370Y495727D01*
X606806Y567241D02*
X606736Y566346D01*
X606595Y565458D01*
X606385Y564585D01*
X606108Y563731D01*
X605764Y562901D01*
X605356Y562101D01*
X604887Y561335D01*
X604359Y560608D01*
X603776Y559925D01*
X603141Y559290D01*
X602458Y558707D01*
X601731Y558179D01*
X600965Y557710D01*
X600165Y557302D01*
X599335Y556958D01*
X598481Y556681D01*
X597608Y556471D01*
X596721Y556330D01*
X595825Y556260D01*
X594927Y556260D01*
X594032Y556330D01*
X593144Y556471D01*
X592271Y556681D01*
X591417Y556958D01*
X590587Y557302D01*
X589787Y557710D01*
X589021Y558179D01*
X588294Y558707D01*
X587611Y559290D01*
X586976Y559925D01*
X586393Y560608D01*
X585865Y561335D01*
X585396Y562101D01*
X584988Y562901D01*
X584644Y563731D01*
X584367Y564585D01*
X584157Y565458D01*
X584016Y566346D01*
X583946Y567241D01*
X583946Y568139D01*
X584016Y569035D01*
X584157Y569922D01*
X584367Y570795D01*
X584644Y571649D01*
X584988Y572479D01*
X585396Y573279D01*
X585865Y574045D01*
X586393Y574772D01*
X586976Y575455D01*
X587611Y576090D01*
X588294Y576673D01*
X589021Y577201D01*
X589787Y577670D01*
X590587Y578078D01*
X591417Y578422D01*
X592271Y578699D01*
X593144Y578909D01*
X594032Y579050D01*
X594927Y579120D01*
X595825Y579120D01*
X596721Y579050D01*
X597608Y578909D01*
X598481Y578699D01*
X599335Y578422D01*
X600165Y578078D01*
X600965Y577670D01*
X601731Y577201D01*
X602458Y576673D01*
X603141Y576090D01*
X603776Y575455D01*
X604359Y574772D01*
X604887Y574045D01*
X605356Y573279D01*
X605764Y572479D01*
X606108Y571649D01*
X606385Y570795D01*
X606595Y569922D01*
X606736Y569035D01*
X606806Y568139D01*
X606806Y567241D01*
X979424Y567241D02*
X979354Y566346D01*
X979213Y565458D01*
X979003Y564585D01*
X978726Y563731D01*
X978382Y562901D01*
X977974Y562101D01*
X977505Y561335D01*
X976977Y560608D01*
X976394Y559925D01*
X975759Y559290D01*
X975076Y558707D01*
X974349Y558179D01*
X973583Y557710D01*
X972783Y557302D01*
X971953Y556958D01*
X971099Y556681D01*
X970226Y556471D01*
X969339Y556330D01*
X968443Y556260D01*
X967545Y556260D01*
X966650Y556330D01*
X965762Y556471D01*
X964889Y556681D01*
X964035Y556958D01*
X963205Y557302D01*
X962405Y557710D01*
X961639Y558179D01*
X960912Y558707D01*
X960229Y559290D01*
X959594Y559925D01*
X959011Y560608D01*
X958483Y561335D01*
X958014Y562101D01*
X957606Y562901D01*
X957262Y563731D01*
X956985Y564585D01*
X956775Y565458D01*
X956634Y566346D01*
X956564Y567241D01*
X956564Y568139D01*
X956634Y569035D01*
X956775Y569922D01*
X956985Y570795D01*
X957262Y571649D01*
X957606Y572479D01*
X958014Y573279D01*
X958483Y574045D01*
X959011Y574772D01*
X959594Y575455D01*
X960229Y576090D01*
X960912Y576673D01*
X961639Y577201D01*
X962405Y577670D01*
X963205Y578078D01*
X964035Y578422D01*
X964889Y578699D01*
X965762Y578909D01*
X966650Y579050D01*
X967545Y579120D01*
X968443Y579120D01*
X969339Y579050D01*
X970226Y578909D01*
X971099Y578699D01*
X971953Y578422D01*
X972783Y578078D01*
X973583Y577670D01*
X974349Y577201D01*
X975076Y576673D01*
X975759Y576090D01*
X976394Y575455D01*
X976977Y574772D01*
X977505Y574045D01*
X977974Y573279D01*
X978382Y572479D01*
X978726Y571649D01*
X979003Y570795D01*
X979213Y569922D01*
X979354Y569035D01*
X979424Y568139D01*
X979424Y567241D01*
X1498473Y383091D02*
X1498403Y382196D01*
X1498262Y381308D01*
X1498052Y380435D01*
X1497775Y379581D01*
X1497431Y378751D01*
X1497023Y377951D01*
X1496554Y377185D01*
X1496026Y376458D01*
X1495443Y375775D01*
X1494808Y375140D01*
X1494125Y374557D01*
X1493398Y374029D01*
X1492632Y373560D01*
X1491832Y373152D01*
X1491002Y372808D01*
X1490148Y372531D01*
X1489275Y372321D01*
X1488388Y372180D01*
X1487492Y372110D01*
X1486594Y372110D01*
X1485699Y372180D01*
X1484811Y372321D01*
X1483938Y372531D01*
X1483084Y372808D01*
X1482254Y373152D01*
X1481454Y373560D01*
X1480688Y374029D01*
X1479961Y374557D01*
X1479278Y375140D01*
X1478643Y375775D01*
X1478060Y376458D01*
X1477532Y377185D01*
X1477063Y377951D01*
X1476655Y378751D01*
X1476311Y379581D01*
X1476034Y380435D01*
X1475824Y381308D01*
X1475683Y382196D01*
X1475613Y383091D01*
X1475613Y383989D01*
X1475683Y384885D01*
X1475824Y385772D01*
X1476034Y386645D01*
X1476311Y387499D01*
X1476655Y388329D01*
X1477063Y389129D01*
X1477532Y389895D01*
X1478060Y390622D01*
X1478643Y391305D01*
X1479278Y391940D01*
X1479961Y392523D01*
X1480688Y393051D01*
X1481454Y393520D01*
X1482254Y393928D01*
X1483084Y394272D01*
X1483938Y394549D01*
X1484811Y394759D01*
X1485699Y394900D01*
X1486594Y394970D01*
X1487492Y394970D01*
X1488388Y394900D01*
X1489275Y394759D01*
X1490148Y394549D01*
X1491002Y394272D01*
X1491832Y393928D01*
X1492632Y393520D01*
X1493398Y393051D01*
X1494125Y392523D01*
X1494808Y391940D01*
X1495443Y391305D01*
X1496026Y390622D01*
X1496554Y389895D01*
X1497023Y389129D01*
X1497431Y388329D01*
X1497775Y387499D01*
X1498052Y386645D01*
X1498262Y385772D01*
X1498403Y384885D01*
X1498473Y383989D01*
X1498473Y383091D01*
X178181Y31936D02*
X178111Y31041D01*
X177970Y30153D01*
X177760Y29280D01*
X177483Y28426D01*
X177139Y27596D01*
X176731Y26796D01*
X176262Y26030D01*
X175734Y25303D01*
X175151Y24620D01*
X174516Y23985D01*
X173833Y23402D01*
X173106Y22874D01*
X172340Y22405D01*
X171540Y21997D01*
X170710Y21653D01*
X169856Y21376D01*
X168983Y21166D01*
X168096Y21025D01*
X167200Y20955D01*
X166302Y20955D01*
X165407Y21025D01*
X164519Y21166D01*
X163646Y21376D01*
X162792Y21653D01*
X161962Y21997D01*
X161162Y22405D01*
X160396Y22874D01*
X159669Y23402D01*
X158986Y23985D01*
X158351Y24620D01*
X157768Y25303D01*
X157240Y26030D01*
X156771Y26796D01*
X156363Y27596D01*
X156019Y28426D01*
X155742Y29280D01*
X155532Y30153D01*
X155391Y31041D01*
X155321Y31936D01*
X155321Y32834D01*
X155391Y33730D01*
X155532Y34617D01*
X155742Y35490D01*
X156019Y36344D01*
X156363Y37174D01*
X156771Y37974D01*
X157240Y38740D01*
X157768Y39467D01*
X158351Y40150D01*
X158986Y40785D01*
X159669Y41368D01*
X160396Y41896D01*
X161162Y42365D01*
X161962Y42773D01*
X162792Y43117D01*
X163646Y43394D01*
X164519Y43604D01*
X165407Y43745D01*
X166302Y43815D01*
X167200Y43815D01*
X168096Y43745D01*
X168983Y43604D01*
X169856Y43394D01*
X170710Y43117D01*
X171540Y42773D01*
X172340Y42365D01*
X173106Y41896D01*
X173833Y41368D01*
X174516Y40785D01*
X175151Y40150D01*
X175734Y39467D01*
X176262Y38740D01*
X176731Y37974D01*
X177139Y37174D01*
X177483Y36344D01*
X177760Y35490D01*
X177970Y34617D01*
X178111Y33730D01*
X178181Y32834D01*
X178181Y31936D01*
X154813Y444305D02*
X154743Y443410D01*
X154602Y442522D01*
X154392Y441649D01*
X154115Y440795D01*
X153771Y439965D01*
X153363Y439165D01*
X152894Y438399D01*
X152366Y437672D01*
X151783Y436989D01*
X151148Y436354D01*
X150465Y435771D01*
X149738Y435243D01*
X148972Y434774D01*
X148172Y434366D01*
X147342Y434022D01*
X146488Y433745D01*
X145615Y433535D01*
X144728Y433394D01*
X143832Y433324D01*
X142934Y433324D01*
X142039Y433394D01*
X141151Y433535D01*
X140278Y433745D01*
X139424Y434022D01*
X138594Y434366D01*
X137794Y434774D01*
X137028Y435243D01*
X136301Y435771D01*
X135618Y436354D01*
X134983Y436989D01*
X134400Y437672D01*
X133872Y438399D01*
X133403Y439165D01*
X132995Y439965D01*
X132651Y440795D01*
X132374Y441649D01*
X132164Y442522D01*
X132023Y443410D01*
X131953Y444305D01*
X131953Y445203D01*
X132023Y446099D01*
X132164Y446986D01*
X132374Y447859D01*
X132651Y448713D01*
X132995Y449543D01*
X133403Y450343D01*
X133872Y451109D01*
X134400Y451836D01*
X134983Y452519D01*
X135618Y453154D01*
X136301Y453737D01*
X137028Y454265D01*
X137794Y454734D01*
X138594Y455142D01*
X139424Y455486D01*
X140278Y455763D01*
X141151Y455973D01*
X142039Y456114D01*
X142934Y456184D01*
X143832Y456184D01*
X144728Y456114D01*
X145615Y455973D01*
X146488Y455763D01*
X147342Y455486D01*
X148172Y455142D01*
X148972Y454734D01*
X149738Y454265D01*
X150465Y453737D01*
X151148Y453154D01*
X151783Y452519D01*
X152366Y451836D01*
X152894Y451109D01*
X153363Y450343D01*
X153771Y449543D01*
X154115Y448713D01*
X154392Y447859D01*
X154602Y446986D01*
X154743Y446099D01*
X154813Y445203D01*
X154813Y444305D01*
X1219835Y64575D02*
X1219765Y63680D01*
X1219624Y62792D01*
X1219414Y61919D01*
X1219137Y61065D01*
X1218793Y60235D01*
X1218385Y59435D01*
X1217916Y58669D01*
X1217388Y57942D01*
X1216805Y57259D01*
X1216170Y56624D01*
X1215487Y56041D01*
X1214760Y55513D01*
X1213994Y55044D01*
X1213194Y54636D01*
X1212364Y54292D01*
X1211510Y54015D01*
X1210637Y53805D01*
X1209750Y53664D01*
X1208854Y53594D01*
X1207956Y53594D01*
X1207061Y53664D01*
X1206173Y53805D01*
X1205300Y54015D01*
X1204446Y54292D01*
X1203616Y54636D01*
X1202816Y55044D01*
X1202050Y55513D01*
X1201323Y56041D01*
X1200640Y56624D01*
X1200005Y57259D01*
X1199422Y57942D01*
X1198894Y58669D01*
X1198425Y59435D01*
X1198017Y60235D01*
X1197673Y61065D01*
X1197396Y61919D01*
X1197186Y62792D01*
X1197045Y63680D01*
X1196975Y64575D01*
X1196975Y65473D01*
X1197045Y66369D01*
X1197186Y67256D01*
X1197396Y68129D01*
X1197673Y68983D01*
X1198017Y69813D01*
X1198425Y70613D01*
X1198894Y71379D01*
X1199422Y72106D01*
X1200005Y72789D01*
X1200640Y73424D01*
X1201323Y74007D01*
X1202050Y74535D01*
X1202816Y75004D01*
X1203616Y75412D01*
X1204446Y75756D01*
X1205300Y76033D01*
X1206173Y76243D01*
X1207061Y76384D01*
X1207956Y76454D01*
X1208854Y76454D01*
X1209750Y76384D01*
X1210637Y76243D01*
X1211510Y76033D01*
X1212364Y75756D01*
X1213194Y75412D01*
X1213994Y75004D01*
X1214760Y74535D01*
X1215487Y74007D01*
X1216170Y73424D01*
X1216805Y72789D01*
X1217388Y72106D01*
X1217916Y71379D01*
X1218385Y70613D01*
X1218793Y69813D01*
X1219137Y68983D01*
X1219414Y68129D01*
X1219624Y67256D01*
X1219765Y66369D01*
X1219835Y65473D01*
X1219835Y64575D01*
M02*
