G04 EAGLE Gerber RS-274X export*
G75*
%MOMM*%
%FSLAX34Y34*%
%LPD*%
%INSoldermask Top*%
%IPPOS*%
%AMOC8*
5,1,8,0,0,1.08239X$1,22.5*%
G01*
%ADD10C,0.400000*%
%ADD11C,2.489200*%
%ADD12C,4.241800*%

G36*
X1392013Y29408D02*
X1392013Y29408D01*
X1392015Y29407D01*
X1394722Y31126D01*
X1394722Y31128D01*
X1394723Y31128D01*
X1395896Y32961D01*
X1435090Y90181D01*
X1435090Y90183D01*
X1435091Y90183D01*
X1435090Y90184D01*
X1435091Y90185D01*
X1424595Y133247D01*
X1397977Y242625D01*
X1367181Y369168D01*
X1367178Y369170D01*
X1367177Y369172D01*
X1249923Y390147D01*
X1232298Y393299D01*
X1232297Y393299D01*
X1232296Y393299D01*
X1187988Y381037D01*
X1068226Y347893D01*
X1068223Y347889D01*
X1068222Y347887D01*
X1077090Y308154D01*
X1086195Y267355D01*
X1116934Y129626D01*
X1126995Y84547D01*
X1126997Y84546D01*
X1126997Y84544D01*
X1195124Y35323D01*
X1196658Y34454D01*
X1196792Y34320D01*
X1196794Y34320D01*
X1196795Y34318D01*
X1199394Y33876D01*
X1199395Y33876D01*
X1389436Y29642D01*
X1392012Y29406D01*
X1392013Y29408D01*
G37*
G36*
X345978Y103326D02*
X345978Y103326D01*
X345980Y103326D01*
X444821Y257831D01*
X444821Y257837D01*
X211719Y474165D01*
X211437Y474412D01*
X211435Y474412D01*
X211434Y474413D01*
X211384Y474415D01*
X211383Y474415D01*
X211187Y474420D01*
X211186Y474420D01*
X210990Y474425D01*
X210989Y474425D01*
X210793Y474430D01*
X210792Y474430D01*
X210596Y474435D01*
X210595Y474435D01*
X210399Y474440D01*
X210398Y474440D01*
X210202Y474445D01*
X210201Y474445D01*
X210005Y474450D01*
X210004Y474450D01*
X209808Y474454D01*
X209808Y474455D01*
X209807Y474455D01*
X209611Y474459D01*
X209610Y474459D01*
X209414Y474464D01*
X209413Y474464D01*
X209217Y474469D01*
X209215Y474469D01*
X209020Y474474D01*
X209018Y474474D01*
X208822Y474479D01*
X208821Y474479D01*
X208625Y474484D01*
X208624Y474484D01*
X208428Y474489D01*
X208427Y474489D01*
X208231Y474494D01*
X208230Y474494D01*
X208034Y474499D01*
X208033Y474499D01*
X207837Y474504D01*
X207836Y474504D01*
X207640Y474509D01*
X207639Y474509D01*
X207443Y474514D01*
X207442Y474514D01*
X207246Y474519D01*
X207245Y474519D01*
X207049Y474524D01*
X207048Y474524D01*
X206852Y474529D01*
X206851Y474529D01*
X206655Y474534D01*
X206654Y474534D01*
X206458Y474539D01*
X206457Y474539D01*
X206261Y474544D01*
X206259Y474544D01*
X206064Y474549D01*
X206062Y474549D01*
X205867Y474554D01*
X205866Y474554D01*
X205865Y474554D01*
X205669Y474559D01*
X205668Y474559D01*
X205472Y474564D01*
X205471Y474564D01*
X205275Y474569D01*
X205274Y474569D01*
X205078Y474574D01*
X205077Y474574D01*
X204881Y474579D01*
X204880Y474579D01*
X204684Y474584D01*
X204683Y474584D01*
X204487Y474589D01*
X204486Y474589D01*
X204290Y474594D01*
X204289Y474594D01*
X204093Y474599D01*
X204092Y474599D01*
X203896Y474604D01*
X203895Y474604D01*
X203699Y474609D01*
X203698Y474609D01*
X203502Y474613D01*
X203502Y474614D01*
X203501Y474614D01*
X203305Y474618D01*
X203304Y474618D01*
X203108Y474623D01*
X203106Y474623D01*
X202911Y474628D01*
X202909Y474628D01*
X202714Y474633D01*
X202713Y474633D01*
X202712Y474633D01*
X202516Y474638D01*
X202515Y474638D01*
X202319Y474643D01*
X202318Y474643D01*
X202122Y474648D01*
X202121Y474648D01*
X201925Y474653D01*
X201924Y474653D01*
X201728Y474658D01*
X201727Y474658D01*
X201531Y474663D01*
X201530Y474663D01*
X201334Y474668D01*
X201333Y474668D01*
X201137Y474673D01*
X201136Y474673D01*
X200940Y474678D01*
X200939Y474678D01*
X200743Y474683D01*
X200742Y474683D01*
X200546Y474688D01*
X200545Y474688D01*
X200349Y474693D01*
X200348Y474693D01*
X200152Y474698D01*
X200151Y474698D01*
X199955Y474703D01*
X199953Y474703D01*
X199758Y474708D01*
X199756Y474708D01*
X199560Y474713D01*
X199559Y474713D01*
X199363Y474718D01*
X199362Y474718D01*
X199166Y474723D01*
X199165Y474723D01*
X198969Y474728D01*
X198968Y474728D01*
X198772Y474733D01*
X198771Y474733D01*
X198575Y474738D01*
X198574Y474738D01*
X198378Y474743D01*
X198377Y474743D01*
X198181Y474748D01*
X198180Y474748D01*
X197984Y474753D01*
X197983Y474753D01*
X197787Y474758D01*
X197786Y474758D01*
X197590Y474763D01*
X197589Y474763D01*
X197393Y474768D01*
X197392Y474768D01*
X197196Y474772D01*
X197196Y474773D01*
X197195Y474773D01*
X196999Y474777D01*
X196997Y474777D01*
X196802Y474782D01*
X196800Y474782D01*
X196605Y474787D01*
X196604Y474787D01*
X196603Y474787D01*
X196407Y474792D01*
X196406Y474792D01*
X196210Y474797D01*
X196209Y474797D01*
X196013Y474802D01*
X196012Y474802D01*
X195816Y474807D01*
X195815Y474807D01*
X195619Y474812D01*
X195618Y474812D01*
X195422Y474817D01*
X195421Y474817D01*
X195225Y474822D01*
X195224Y474822D01*
X195028Y474827D01*
X195027Y474827D01*
X194831Y474832D01*
X194830Y474832D01*
X194634Y474837D01*
X194633Y474837D01*
X194437Y474842D01*
X194436Y474842D01*
X194240Y474847D01*
X194239Y474847D01*
X194043Y474852D01*
X194042Y474852D01*
X193846Y474857D01*
X193844Y474857D01*
X193649Y474862D01*
X193647Y474862D01*
X193451Y474867D01*
X193450Y474867D01*
X193254Y474872D01*
X193253Y474872D01*
X193057Y474877D01*
X193056Y474877D01*
X192860Y474882D01*
X192859Y474882D01*
X192663Y474887D01*
X192662Y474887D01*
X192466Y474892D01*
X192465Y474892D01*
X192269Y474897D01*
X192268Y474897D01*
X192072Y474902D01*
X192071Y474902D01*
X191875Y474907D01*
X191874Y474907D01*
X191678Y474912D01*
X191677Y474912D01*
X191481Y474917D01*
X191480Y474917D01*
X191284Y474922D01*
X191283Y474922D01*
X191087Y474927D01*
X191086Y474927D01*
X190890Y474931D01*
X190890Y474932D01*
X190888Y474932D01*
X190693Y474936D01*
X190691Y474936D01*
X190496Y474941D01*
X190495Y474941D01*
X190494Y474941D01*
X190298Y474946D01*
X190297Y474946D01*
X190101Y474951D01*
X190100Y474951D01*
X189904Y474956D01*
X189903Y474956D01*
X189707Y474961D01*
X189706Y474961D01*
X189510Y474966D01*
X189509Y474966D01*
X189313Y474971D01*
X189312Y474971D01*
X189116Y474976D01*
X189115Y474976D01*
X188919Y474981D01*
X188918Y474981D01*
X188722Y474986D01*
X188721Y474986D01*
X188525Y474991D01*
X188524Y474991D01*
X188328Y474996D01*
X188327Y474996D01*
X188131Y475001D01*
X188130Y475001D01*
X187934Y475006D01*
X187933Y475006D01*
X187737Y475011D01*
X187735Y475011D01*
X187540Y475016D01*
X187538Y475016D01*
X187342Y475021D01*
X187341Y475021D01*
X187145Y475026D01*
X187144Y475026D01*
X186948Y475031D01*
X186947Y475031D01*
X186751Y475036D01*
X186750Y475036D01*
X186554Y475041D01*
X186553Y475041D01*
X186357Y475046D01*
X186356Y475046D01*
X186160Y475051D01*
X186159Y475051D01*
X185963Y475056D01*
X185962Y475056D01*
X185766Y475061D01*
X185765Y475061D01*
X185569Y475066D01*
X185568Y475066D01*
X185372Y475071D01*
X185371Y475071D01*
X185175Y475076D01*
X185174Y475076D01*
X184978Y475081D01*
X184977Y475081D01*
X184781Y475086D01*
X184779Y475086D01*
X184584Y475090D01*
X184584Y475091D01*
X184582Y475091D01*
X184387Y475095D01*
X184386Y475095D01*
X184385Y475095D01*
X184189Y475100D01*
X184188Y475100D01*
X183992Y475105D01*
X183991Y475105D01*
X183795Y475110D01*
X183794Y475110D01*
X183598Y475115D01*
X183597Y475115D01*
X183401Y475120D01*
X183400Y475120D01*
X183204Y475125D01*
X183203Y475125D01*
X183007Y475130D01*
X183006Y475130D01*
X182810Y475135D01*
X182809Y475135D01*
X182613Y475140D01*
X182612Y475140D01*
X182416Y475145D01*
X182415Y475145D01*
X182219Y475150D01*
X182218Y475150D01*
X182022Y475155D01*
X182021Y475155D01*
X181825Y475160D01*
X181824Y475160D01*
X181628Y475165D01*
X181626Y475165D01*
X181431Y475170D01*
X181429Y475170D01*
X181233Y475175D01*
X181232Y475175D01*
X181036Y475180D01*
X181035Y475180D01*
X180839Y475185D01*
X180838Y475185D01*
X180642Y475190D01*
X180641Y475190D01*
X180445Y475195D01*
X180444Y475195D01*
X180248Y475200D01*
X180247Y475200D01*
X180051Y475205D01*
X180050Y475205D01*
X179854Y475210D01*
X179853Y475210D01*
X179657Y475215D01*
X179656Y475215D01*
X179460Y475220D01*
X179459Y475220D01*
X179263Y475225D01*
X179262Y475225D01*
X179066Y475230D01*
X179065Y475230D01*
X178869Y475235D01*
X178868Y475235D01*
X178672Y475240D01*
X178671Y475240D01*
X178475Y475245D01*
X178473Y475245D01*
X178278Y475249D01*
X178278Y475250D01*
X178276Y475250D01*
X178080Y475254D01*
X178079Y475254D01*
X177883Y475259D01*
X177882Y475259D01*
X177686Y475264D01*
X177685Y475264D01*
X177489Y475269D01*
X177488Y475269D01*
X177292Y475274D01*
X177291Y475274D01*
X177095Y475279D01*
X177094Y475279D01*
X176898Y475284D01*
X176897Y475284D01*
X176701Y475289D01*
X176700Y475289D01*
X176504Y475294D01*
X176503Y475294D01*
X176307Y475299D01*
X176306Y475299D01*
X176110Y475304D01*
X176109Y475304D01*
X175913Y475309D01*
X175912Y475309D01*
X175716Y475314D01*
X175715Y475314D01*
X175519Y475319D01*
X175517Y475319D01*
X175322Y475324D01*
X175320Y475324D01*
X175125Y475329D01*
X175124Y475329D01*
X175123Y475329D01*
X174927Y475334D01*
X174926Y475334D01*
X174730Y475339D01*
X174729Y475339D01*
X174533Y475344D01*
X174532Y475344D01*
X174336Y475349D01*
X174335Y475349D01*
X174139Y475354D01*
X174138Y475354D01*
X173942Y475359D01*
X173941Y475359D01*
X173745Y475364D01*
X173744Y475364D01*
X173548Y475369D01*
X173547Y475369D01*
X173351Y475374D01*
X173350Y475374D01*
X173154Y475379D01*
X173153Y475379D01*
X172957Y475384D01*
X172956Y475384D01*
X172760Y475389D01*
X172759Y475389D01*
X172563Y475394D01*
X172562Y475394D01*
X172366Y475399D01*
X172364Y475399D01*
X172169Y475404D01*
X172167Y475404D01*
X171971Y475408D01*
X171971Y475409D01*
X171970Y475409D01*
X171774Y475413D01*
X171773Y475413D01*
X171577Y475418D01*
X171576Y475418D01*
X171380Y475423D01*
X171379Y475423D01*
X171183Y475428D01*
X171182Y475428D01*
X170986Y475433D01*
X170985Y475433D01*
X170789Y475438D01*
X170788Y475438D01*
X170592Y475443D01*
X170591Y475443D01*
X170395Y475448D01*
X170394Y475448D01*
X170198Y475453D01*
X170197Y475453D01*
X170001Y475458D01*
X170000Y475458D01*
X169804Y475463D01*
X169803Y475463D01*
X169607Y475468D01*
X169606Y475468D01*
X169410Y475473D01*
X169408Y475473D01*
X169213Y475478D01*
X169211Y475478D01*
X169016Y475483D01*
X169015Y475483D01*
X169014Y475483D01*
X168818Y475488D01*
X168817Y475488D01*
X168621Y475493D01*
X168620Y475493D01*
X168424Y475498D01*
X168423Y475498D01*
X168227Y475503D01*
X168226Y475503D01*
X168030Y475508D01*
X168029Y475508D01*
X167833Y475513D01*
X167832Y475513D01*
X167636Y475518D01*
X167635Y475518D01*
X167439Y475523D01*
X167438Y475523D01*
X167242Y475528D01*
X167241Y475528D01*
X167045Y475533D01*
X167044Y475533D01*
X166848Y475538D01*
X166847Y475538D01*
X166651Y475543D01*
X166650Y475543D01*
X166454Y475548D01*
X166453Y475548D01*
X166257Y475553D01*
X166255Y475553D01*
X166060Y475558D01*
X166058Y475558D01*
X165862Y475563D01*
X165861Y475563D01*
X165665Y475567D01*
X165665Y475568D01*
X165664Y475568D01*
X165468Y475572D01*
X165467Y475572D01*
X165271Y475577D01*
X165270Y475577D01*
X165074Y475582D01*
X165073Y475582D01*
X164877Y475587D01*
X164876Y475587D01*
X164680Y475592D01*
X164679Y475592D01*
X164483Y475597D01*
X164482Y475597D01*
X164286Y475602D01*
X164285Y475602D01*
X164089Y475607D01*
X164088Y475607D01*
X163892Y475612D01*
X163891Y475612D01*
X163695Y475617D01*
X163694Y475617D01*
X163498Y475622D01*
X163497Y475622D01*
X163301Y475627D01*
X163299Y475627D01*
X163104Y475632D01*
X163102Y475632D01*
X162907Y475637D01*
X162906Y475637D01*
X162905Y475637D01*
X162709Y475642D01*
X162708Y475642D01*
X162512Y475647D01*
X162511Y475647D01*
X162315Y475652D01*
X162314Y475652D01*
X162118Y475657D01*
X162117Y475657D01*
X161921Y475662D01*
X161920Y475662D01*
X161724Y475667D01*
X161723Y475667D01*
X161527Y475672D01*
X161526Y475672D01*
X161330Y475677D01*
X161329Y475677D01*
X161133Y475682D01*
X161132Y475682D01*
X160936Y475687D01*
X160935Y475687D01*
X160739Y475692D01*
X160738Y475692D01*
X160542Y475697D01*
X160541Y475697D01*
X160345Y475702D01*
X160344Y475702D01*
X160148Y475707D01*
X160146Y475707D01*
X159951Y475712D01*
X159949Y475712D01*
X159753Y475717D01*
X159752Y475717D01*
X159556Y475722D01*
X159555Y475722D01*
X159359Y475726D01*
X159359Y475727D01*
X159358Y475727D01*
X159162Y475731D01*
X159161Y475731D01*
X158965Y475736D01*
X158964Y475736D01*
X158768Y475741D01*
X158767Y475741D01*
X158571Y475746D01*
X158570Y475746D01*
X158374Y475751D01*
X158373Y475751D01*
X158177Y475756D01*
X158176Y475756D01*
X157980Y475761D01*
X157979Y475761D01*
X157783Y475766D01*
X157782Y475766D01*
X157586Y475771D01*
X157585Y475771D01*
X157389Y475776D01*
X157388Y475776D01*
X157192Y475781D01*
X157190Y475781D01*
X156995Y475786D01*
X156993Y475786D01*
X156798Y475791D01*
X156797Y475791D01*
X156796Y475791D01*
X156600Y475796D01*
X156599Y475796D01*
X156403Y475801D01*
X156402Y475801D01*
X156206Y475806D01*
X156205Y475806D01*
X156009Y475811D01*
X156008Y475811D01*
X155812Y475816D01*
X155811Y475816D01*
X155615Y475821D01*
X155614Y475821D01*
X155418Y475826D01*
X155417Y475826D01*
X155221Y475831D01*
X155220Y475831D01*
X155024Y475836D01*
X155023Y475836D01*
X154827Y475841D01*
X154826Y475841D01*
X154630Y475846D01*
X154629Y475846D01*
X154433Y475851D01*
X154432Y475851D01*
X154236Y475856D01*
X154235Y475856D01*
X154039Y475861D01*
X154037Y475861D01*
X153842Y475866D01*
X153840Y475866D01*
X153645Y475871D01*
X153644Y475871D01*
X153643Y475871D01*
X153447Y475876D01*
X153446Y475876D01*
X153250Y475881D01*
X153249Y475881D01*
X153053Y475885D01*
X153053Y475886D01*
X153052Y475886D01*
X152856Y475890D01*
X152855Y475890D01*
X152659Y475895D01*
X152658Y475895D01*
X152462Y475900D01*
X152461Y475900D01*
X152265Y475905D01*
X152264Y475905D01*
X152068Y475910D01*
X152067Y475910D01*
X151871Y475915D01*
X151870Y475915D01*
X151674Y475920D01*
X151673Y475920D01*
X151477Y475925D01*
X151476Y475925D01*
X151280Y475930D01*
X151279Y475930D01*
X151083Y475935D01*
X151082Y475935D01*
X150886Y475940D01*
X150884Y475940D01*
X150689Y475945D01*
X150687Y475945D01*
X150491Y475950D01*
X150490Y475950D01*
X150294Y475955D01*
X150293Y475955D01*
X150097Y475960D01*
X150096Y475960D01*
X149900Y475965D01*
X149899Y475965D01*
X149703Y475970D01*
X149702Y475970D01*
X149506Y475975D01*
X149505Y475975D01*
X149309Y475980D01*
X149308Y475980D01*
X149112Y475985D01*
X149111Y475985D01*
X148915Y475990D01*
X148914Y475990D01*
X148718Y475995D01*
X148717Y475995D01*
X148521Y476000D01*
X148520Y476000D01*
X148324Y476005D01*
X148323Y476005D01*
X148127Y476010D01*
X148126Y476010D01*
X147930Y476015D01*
X147928Y476015D01*
X147733Y476020D01*
X147731Y476020D01*
X147536Y476025D01*
X147535Y476025D01*
X147534Y476025D01*
X147338Y476030D01*
X147337Y476030D01*
X147141Y476035D01*
X147140Y476035D01*
X146944Y476040D01*
X146943Y476040D01*
X146747Y476044D01*
X146747Y476045D01*
X146746Y476045D01*
X146550Y476049D01*
X146549Y476049D01*
X146353Y476054D01*
X146352Y476054D01*
X146156Y476059D01*
X146155Y476059D01*
X145959Y476064D01*
X145958Y476064D01*
X145762Y476069D01*
X145761Y476069D01*
X145565Y476074D01*
X145564Y476074D01*
X145368Y476079D01*
X145367Y476079D01*
X145171Y476084D01*
X145170Y476084D01*
X144974Y476089D01*
X144973Y476089D01*
X144777Y476094D01*
X144775Y476094D01*
X144580Y476099D01*
X144578Y476099D01*
X144382Y476104D01*
X144381Y476104D01*
X144185Y476109D01*
X144184Y476109D01*
X143988Y476114D01*
X143987Y476114D01*
X143791Y476119D01*
X143790Y476119D01*
X143594Y476124D01*
X143593Y476124D01*
X143397Y476129D01*
X143396Y476129D01*
X143200Y476134D01*
X143199Y476134D01*
X143003Y476139D01*
X143002Y476139D01*
X142806Y476144D01*
X142805Y476144D01*
X142609Y476149D01*
X142608Y476149D01*
X142412Y476154D01*
X142411Y476154D01*
X142215Y476159D01*
X142214Y476159D01*
X142018Y476164D01*
X142017Y476164D01*
X141821Y476169D01*
X141819Y476169D01*
X141624Y476174D01*
X141622Y476174D01*
X141427Y476179D01*
X141426Y476179D01*
X141425Y476179D01*
X141229Y476184D01*
X141228Y476184D01*
X141032Y476189D01*
X141031Y476189D01*
X140835Y476194D01*
X140834Y476194D01*
X140638Y476199D01*
X140637Y476199D01*
X140441Y476203D01*
X140441Y476204D01*
X140440Y476204D01*
X140244Y476208D01*
X140243Y476208D01*
X140047Y476213D01*
X140046Y476213D01*
X139850Y476218D01*
X139849Y476218D01*
X139653Y476223D01*
X139652Y476223D01*
X139456Y476228D01*
X139455Y476228D01*
X139259Y476233D01*
X139258Y476233D01*
X139062Y476238D01*
X139061Y476238D01*
X138865Y476243D01*
X138864Y476243D01*
X138668Y476248D01*
X138666Y476248D01*
X138471Y476253D01*
X138469Y476253D01*
X138273Y476258D01*
X138272Y476258D01*
X138076Y476263D01*
X138075Y476263D01*
X137879Y476268D01*
X137878Y476268D01*
X137682Y476273D01*
X137681Y476273D01*
X137485Y476278D01*
X137484Y476278D01*
X137288Y476283D01*
X137287Y476283D01*
X137091Y476288D01*
X137090Y476288D01*
X136894Y476293D01*
X136893Y476293D01*
X136697Y476298D01*
X136696Y476298D01*
X136500Y476303D01*
X136499Y476303D01*
X136303Y476308D01*
X136302Y476308D01*
X136106Y476313D01*
X136105Y476313D01*
X135909Y476318D01*
X135908Y476318D01*
X135712Y476323D01*
X135710Y476323D01*
X135515Y476328D01*
X135513Y476328D01*
X135318Y476333D01*
X135317Y476333D01*
X135316Y476333D01*
X135120Y476338D01*
X135119Y476338D01*
X134923Y476343D01*
X134922Y476343D01*
X134726Y476348D01*
X134725Y476348D01*
X134529Y476353D01*
X134528Y476353D01*
X134332Y476358D01*
X134331Y476358D01*
X134135Y476362D01*
X134135Y476363D01*
X134134Y476363D01*
X133938Y476367D01*
X133937Y476367D01*
X133741Y476372D01*
X133740Y476372D01*
X133544Y476377D01*
X133543Y476377D01*
X133347Y476382D01*
X133346Y476382D01*
X133150Y476387D01*
X133149Y476387D01*
X132953Y476392D01*
X132952Y476392D01*
X132756Y476397D01*
X132755Y476397D01*
X132559Y476402D01*
X132557Y476402D01*
X132362Y476407D01*
X132360Y476407D01*
X132164Y476412D01*
X132163Y476412D01*
X131967Y476417D01*
X131966Y476417D01*
X131770Y476422D01*
X131769Y476422D01*
X131573Y476427D01*
X131572Y476427D01*
X131376Y476432D01*
X131375Y476432D01*
X131179Y476437D01*
X131178Y476437D01*
X130982Y476442D01*
X130981Y476442D01*
X130785Y476447D01*
X130784Y476447D01*
X130588Y476452D01*
X130587Y476452D01*
X130391Y476457D01*
X130390Y476457D01*
X130194Y476462D01*
X130193Y476462D01*
X129997Y476467D01*
X129996Y476467D01*
X129800Y476472D01*
X129799Y476472D01*
X129603Y476477D01*
X129602Y476477D01*
X129406Y476482D01*
X129404Y476482D01*
X129209Y476487D01*
X129207Y476487D01*
X129011Y476492D01*
X129010Y476492D01*
X128884Y476495D01*
X128883Y476495D01*
X125479Y476100D01*
X125478Y476099D01*
X125477Y476099D01*
X124063Y475454D01*
X124062Y475452D01*
X124061Y475452D01*
X122071Y472683D01*
X122071Y472682D01*
X18460Y291390D01*
X18461Y291386D01*
X18461Y291384D01*
X190137Y103325D01*
X190140Y103325D01*
X190141Y103324D01*
X345976Y103324D01*
X345978Y103326D01*
G37*
G36*
X1003159Y364290D02*
X1003159Y364290D01*
X1003160Y364289D01*
X1088994Y384080D01*
X1088996Y384083D01*
X1088998Y384084D01*
X1105598Y439466D01*
X1105597Y439468D01*
X1105598Y439470D01*
X1076126Y502936D01*
X1076123Y502938D01*
X1076121Y502939D01*
X1076059Y502937D01*
X1076058Y502937D01*
X1075918Y502932D01*
X1075778Y502927D01*
X1075777Y502927D01*
X1075638Y502922D01*
X1075637Y502922D01*
X1075498Y502917D01*
X1075497Y502917D01*
X1075357Y502912D01*
X1075217Y502907D01*
X1075216Y502907D01*
X1075077Y502902D01*
X1075076Y502902D01*
X1074936Y502897D01*
X1074796Y502892D01*
X1074795Y502892D01*
X1074656Y502887D01*
X1074655Y502887D01*
X1074516Y502882D01*
X1074515Y502882D01*
X1074375Y502877D01*
X1074235Y502872D01*
X1074234Y502872D01*
X1074095Y502867D01*
X1074094Y502867D01*
X1073955Y502862D01*
X1073954Y502862D01*
X1073814Y502857D01*
X1073674Y502852D01*
X1073673Y502852D01*
X1073534Y502847D01*
X1073533Y502847D01*
X1073394Y502842D01*
X1073393Y502842D01*
X1073253Y502837D01*
X1073113Y502833D01*
X1073112Y502833D01*
X1073112Y502832D01*
X1072973Y502828D01*
X1072972Y502828D01*
X1072832Y502823D01*
X1072692Y502818D01*
X1072691Y502818D01*
X1072552Y502813D01*
X1072551Y502813D01*
X1072412Y502808D01*
X1072411Y502808D01*
X1072271Y502803D01*
X1072131Y502798D01*
X1072130Y502798D01*
X1071991Y502793D01*
X1071990Y502793D01*
X1071851Y502788D01*
X1071850Y502788D01*
X1071710Y502783D01*
X1071570Y502778D01*
X1071569Y502778D01*
X1071430Y502773D01*
X1071429Y502773D01*
X1071290Y502768D01*
X1071289Y502768D01*
X1071149Y502763D01*
X1071009Y502758D01*
X1071008Y502758D01*
X1070869Y502753D01*
X1070868Y502753D01*
X1070729Y502748D01*
X1070728Y502748D01*
X1070588Y502743D01*
X1070448Y502738D01*
X1070447Y502738D01*
X1070308Y502733D01*
X1070307Y502733D01*
X1070167Y502728D01*
X1070027Y502723D01*
X1070026Y502723D01*
X1069887Y502718D01*
X1069886Y502718D01*
X1069747Y502713D01*
X1069746Y502713D01*
X1069606Y502708D01*
X1069466Y502703D01*
X1069465Y502703D01*
X1069326Y502698D01*
X1069325Y502698D01*
X1069186Y502693D01*
X1069185Y502693D01*
X1069045Y502688D01*
X1068905Y502683D01*
X1068904Y502683D01*
X1068765Y502678D01*
X1068764Y502678D01*
X1068625Y502674D01*
X1068624Y502674D01*
X1068624Y502673D01*
X1068484Y502669D01*
X1068344Y502664D01*
X1068343Y502664D01*
X1068204Y502659D01*
X1068203Y502659D01*
X1068064Y502654D01*
X1068063Y502654D01*
X1067923Y502649D01*
X1067783Y502644D01*
X1067782Y502644D01*
X1067643Y502639D01*
X1067642Y502639D01*
X1067502Y502634D01*
X1067362Y502629D01*
X1067361Y502629D01*
X1067222Y502624D01*
X1067221Y502624D01*
X1067082Y502619D01*
X1067081Y502619D01*
X1066941Y502614D01*
X1066801Y502609D01*
X1066800Y502609D01*
X1066661Y502604D01*
X1066660Y502604D01*
X1066521Y502599D01*
X1066520Y502599D01*
X1066380Y502594D01*
X1066240Y502589D01*
X1066239Y502589D01*
X1066100Y502584D01*
X1066099Y502584D01*
X1065960Y502579D01*
X1065959Y502579D01*
X1065819Y502574D01*
X1065679Y502569D01*
X1065678Y502569D01*
X1065539Y502564D01*
X1065538Y502564D01*
X1065399Y502559D01*
X1065398Y502559D01*
X1065258Y502554D01*
X1065257Y502554D01*
X1065118Y502549D01*
X1065117Y502549D01*
X1064978Y502544D01*
X1064977Y502544D01*
X1064837Y502539D01*
X1064697Y502534D01*
X1064696Y502534D01*
X1064557Y502529D01*
X1064556Y502529D01*
X1064417Y502524D01*
X1064416Y502524D01*
X1064276Y502519D01*
X1064136Y502515D01*
X1064135Y502515D01*
X1064135Y502514D01*
X1063996Y502510D01*
X1063995Y502510D01*
X1063856Y502505D01*
X1063855Y502505D01*
X1063715Y502500D01*
X1063575Y502495D01*
X1063574Y502495D01*
X1063435Y502490D01*
X1063434Y502490D01*
X1063295Y502485D01*
X1063294Y502485D01*
X1063154Y502480D01*
X1063014Y502475D01*
X1063013Y502475D01*
X1062874Y502470D01*
X1062873Y502470D01*
X1062733Y502465D01*
X1062593Y502460D01*
X1062592Y502460D01*
X1062453Y502455D01*
X1062452Y502455D01*
X1062313Y502450D01*
X1062312Y502450D01*
X1062172Y502445D01*
X1062032Y502440D01*
X1062031Y502440D01*
X1061892Y502435D01*
X1061891Y502435D01*
X1061752Y502430D01*
X1061751Y502430D01*
X1061611Y502425D01*
X1061471Y502420D01*
X1061470Y502420D01*
X1061331Y502415D01*
X1061330Y502415D01*
X1061191Y502410D01*
X1061190Y502410D01*
X1061050Y502405D01*
X1060910Y502400D01*
X1060909Y502400D01*
X1060770Y502395D01*
X1060769Y502395D01*
X1060630Y502390D01*
X1060629Y502390D01*
X1060489Y502385D01*
X1060349Y502380D01*
X1060348Y502380D01*
X1060209Y502375D01*
X1060208Y502375D01*
X1060068Y502370D01*
X1059928Y502365D01*
X1059927Y502365D01*
X1059788Y502360D01*
X1059787Y502360D01*
X1059648Y502356D01*
X1059647Y502356D01*
X1059647Y502355D01*
X1059507Y502351D01*
X1059367Y502346D01*
X1059366Y502346D01*
X1059227Y502341D01*
X1059226Y502341D01*
X1059087Y502336D01*
X1059086Y502336D01*
X1058946Y502331D01*
X1058806Y502326D01*
X1058805Y502326D01*
X1058666Y502321D01*
X1058665Y502321D01*
X1058526Y502316D01*
X1058525Y502316D01*
X1058385Y502311D01*
X1058245Y502306D01*
X1058244Y502306D01*
X1058105Y502301D01*
X1058104Y502301D01*
X1057965Y502296D01*
X1057964Y502296D01*
X1057824Y502291D01*
X1057823Y502291D01*
X1057684Y502286D01*
X1057683Y502286D01*
X1057544Y502281D01*
X1057543Y502281D01*
X1057403Y502276D01*
X1057263Y502271D01*
X1057262Y502271D01*
X1057123Y502266D01*
X1057122Y502266D01*
X1056983Y502261D01*
X1056982Y502261D01*
X1056842Y502256D01*
X1056702Y502251D01*
X1056701Y502251D01*
X1056562Y502246D01*
X1056561Y502246D01*
X1056422Y502241D01*
X1056421Y502241D01*
X1056281Y502236D01*
X1056141Y502231D01*
X1056140Y502231D01*
X1056001Y502226D01*
X1056000Y502226D01*
X1055861Y502221D01*
X1055860Y502221D01*
X1055720Y502216D01*
X1055580Y502211D01*
X1055579Y502211D01*
X1055440Y502206D01*
X1055439Y502206D01*
X1055299Y502201D01*
X1055159Y502197D01*
X1055158Y502196D01*
X1055019Y502192D01*
X1055018Y502192D01*
X1054879Y502187D01*
X1054878Y502187D01*
X1054738Y502182D01*
X1054598Y502177D01*
X1054597Y502177D01*
X1054458Y502172D01*
X1054457Y502172D01*
X1054318Y502167D01*
X1054317Y502167D01*
X1054177Y502162D01*
X1054037Y502157D01*
X1054036Y502157D01*
X1053897Y502152D01*
X1053896Y502152D01*
X1053757Y502147D01*
X1053756Y502147D01*
X1053616Y502142D01*
X1053476Y502137D01*
X1053475Y502137D01*
X1053336Y502132D01*
X1053335Y502132D01*
X1053196Y502127D01*
X1053195Y502127D01*
X1053055Y502122D01*
X1052915Y502117D01*
X1052914Y502117D01*
X1052775Y502112D01*
X1052774Y502112D01*
X1052634Y502107D01*
X1052494Y502102D01*
X1052493Y502102D01*
X1052354Y502097D01*
X1052353Y502097D01*
X1052214Y502092D01*
X1052213Y502092D01*
X1052073Y502087D01*
X1051933Y502082D01*
X1051932Y502082D01*
X1051793Y502077D01*
X1051792Y502077D01*
X1051653Y502072D01*
X1051652Y502072D01*
X1051512Y502067D01*
X1051372Y502062D01*
X1051371Y502062D01*
X1051232Y502057D01*
X1051231Y502057D01*
X1051092Y502052D01*
X1051091Y502052D01*
X1050951Y502047D01*
X1050811Y502042D01*
X1050810Y502042D01*
X1050671Y502038D01*
X1050670Y502038D01*
X1050670Y502037D01*
X1050531Y502033D01*
X1050530Y502033D01*
X1050390Y502028D01*
X1050250Y502023D01*
X1050249Y502023D01*
X1050110Y502018D01*
X1050109Y502018D01*
X1049969Y502013D01*
X1049829Y502008D01*
X1049828Y502008D01*
X1049689Y502003D01*
X1049688Y502003D01*
X1049549Y501998D01*
X1049548Y501998D01*
X1049408Y501993D01*
X1049268Y501988D01*
X1049267Y501988D01*
X1049128Y501983D01*
X1049127Y501983D01*
X1048988Y501978D01*
X1048987Y501978D01*
X1048847Y501973D01*
X1048707Y501968D01*
X1048706Y501968D01*
X1048567Y501963D01*
X1048566Y501963D01*
X1048427Y501958D01*
X1048426Y501958D01*
X1048286Y501953D01*
X1048146Y501948D01*
X1048145Y501948D01*
X1048006Y501943D01*
X1048005Y501943D01*
X1047865Y501938D01*
X1047725Y501933D01*
X1047724Y501933D01*
X1047585Y501928D01*
X1047584Y501928D01*
X1047445Y501923D01*
X1047444Y501923D01*
X1047304Y501918D01*
X1047164Y501913D01*
X1047163Y501913D01*
X1047024Y501908D01*
X1047023Y501908D01*
X1046884Y501903D01*
X1046883Y501903D01*
X1046743Y501898D01*
X1046603Y501893D01*
X1046602Y501893D01*
X1046463Y501888D01*
X1046462Y501888D01*
X1046323Y501883D01*
X1046322Y501883D01*
X1046182Y501879D01*
X1046182Y501878D01*
X1046042Y501874D01*
X1046041Y501874D01*
X1045902Y501869D01*
X1045901Y501869D01*
X1045762Y501864D01*
X1045761Y501864D01*
X1045621Y501859D01*
X1045481Y501854D01*
X1045480Y501854D01*
X1045341Y501849D01*
X1045340Y501849D01*
X1045200Y501844D01*
X1045060Y501839D01*
X1045059Y501839D01*
X1044920Y501834D01*
X1044919Y501834D01*
X1044780Y501829D01*
X1044779Y501829D01*
X1044639Y501824D01*
X1044499Y501819D01*
X1044498Y501819D01*
X1044359Y501814D01*
X1044358Y501814D01*
X1044219Y501809D01*
X1044218Y501809D01*
X1044078Y501804D01*
X1043938Y501799D01*
X1043937Y501799D01*
X1043798Y501794D01*
X1043797Y501794D01*
X1043658Y501789D01*
X1043657Y501789D01*
X1043517Y501784D01*
X1043377Y501779D01*
X1043376Y501779D01*
X1043237Y501774D01*
X1043236Y501774D01*
X1043097Y501769D01*
X1043096Y501769D01*
X1042956Y501764D01*
X1042816Y501759D01*
X1042815Y501759D01*
X1042676Y501754D01*
X1042675Y501754D01*
X1042535Y501749D01*
X1042395Y501744D01*
X1042394Y501744D01*
X1042255Y501739D01*
X1042254Y501739D01*
X1042115Y501734D01*
X1042114Y501734D01*
X1041974Y501729D01*
X1041834Y501724D01*
X1041833Y501724D01*
X1041694Y501720D01*
X1041693Y501720D01*
X1041693Y501719D01*
X1041554Y501715D01*
X1041553Y501715D01*
X1041413Y501710D01*
X1041273Y501705D01*
X1041272Y501705D01*
X1041133Y501700D01*
X1041132Y501700D01*
X1040993Y501695D01*
X1040992Y501695D01*
X1040852Y501690D01*
X1040712Y501685D01*
X1040711Y501685D01*
X1040572Y501680D01*
X1040571Y501680D01*
X1040431Y501675D01*
X1040291Y501670D01*
X1040290Y501670D01*
X1040151Y501665D01*
X1040150Y501665D01*
X1040011Y501660D01*
X1040010Y501660D01*
X1039870Y501655D01*
X1039730Y501650D01*
X1039729Y501650D01*
X1039590Y501645D01*
X1039589Y501645D01*
X1039450Y501640D01*
X1039449Y501640D01*
X1039309Y501635D01*
X1039169Y501630D01*
X1039168Y501630D01*
X1039029Y501625D01*
X1039028Y501625D01*
X1038889Y501620D01*
X1038888Y501620D01*
X1038748Y501615D01*
X1038608Y501610D01*
X1038607Y501610D01*
X1038468Y501605D01*
X1038467Y501605D01*
X1038328Y501600D01*
X1038327Y501600D01*
X1038187Y501595D01*
X1038047Y501590D01*
X1038046Y501590D01*
X1037907Y501585D01*
X1037906Y501585D01*
X1037766Y501580D01*
X1037626Y501575D01*
X1037625Y501575D01*
X1037486Y501570D01*
X1037485Y501570D01*
X1037346Y501565D01*
X1037345Y501565D01*
X1037205Y501561D01*
X1037205Y501560D01*
X1037065Y501556D01*
X1037064Y501556D01*
X1036925Y501551D01*
X1036924Y501551D01*
X1036785Y501546D01*
X1036784Y501546D01*
X1036644Y501541D01*
X1036504Y501536D01*
X1036503Y501536D01*
X1036364Y501531D01*
X1036363Y501531D01*
X1036224Y501526D01*
X1036223Y501526D01*
X1036083Y501521D01*
X1035943Y501516D01*
X1035942Y501516D01*
X1035803Y501511D01*
X1035802Y501511D01*
X1035663Y501506D01*
X1035662Y501506D01*
X1035522Y501501D01*
X1035382Y501496D01*
X1035381Y501496D01*
X1035242Y501491D01*
X1035241Y501491D01*
X1035101Y501486D01*
X1034961Y501481D01*
X1034960Y501481D01*
X1034821Y501476D01*
X1034820Y501476D01*
X1034681Y501471D01*
X1034680Y501471D01*
X1034540Y501466D01*
X1034400Y501461D01*
X1034399Y501461D01*
X1034260Y501456D01*
X1034259Y501456D01*
X1034120Y501451D01*
X1034119Y501451D01*
X1033979Y501446D01*
X1033839Y501441D01*
X1033838Y501441D01*
X1033699Y501436D01*
X1033698Y501436D01*
X1033559Y501431D01*
X1033558Y501431D01*
X1033418Y501426D01*
X1033278Y501421D01*
X1033277Y501421D01*
X1033138Y501416D01*
X1033137Y501416D01*
X1032998Y501411D01*
X1032997Y501411D01*
X1032857Y501406D01*
X1032856Y501406D01*
X1032717Y501402D01*
X1032716Y501402D01*
X1032716Y501401D01*
X1032577Y501397D01*
X1032576Y501397D01*
X1032436Y501392D01*
X1032296Y501387D01*
X1032295Y501387D01*
X1032156Y501382D01*
X1032155Y501382D01*
X1032016Y501377D01*
X1032015Y501377D01*
X1031875Y501372D01*
X1031735Y501367D01*
X1031734Y501367D01*
X1031595Y501362D01*
X1031594Y501362D01*
X1031455Y501357D01*
X1031454Y501357D01*
X1031314Y501352D01*
X1031174Y501347D01*
X1031173Y501347D01*
X1031034Y501342D01*
X1031033Y501342D01*
X1030894Y501337D01*
X1030893Y501337D01*
X1030753Y501332D01*
X1030613Y501327D01*
X1030612Y501327D01*
X1030473Y501322D01*
X1030472Y501322D01*
X1030332Y501317D01*
X1030192Y501312D01*
X1030191Y501312D01*
X1030052Y501307D01*
X1030051Y501307D01*
X1029912Y501302D01*
X1029911Y501302D01*
X1029771Y501297D01*
X1029631Y501292D01*
X1029630Y501292D01*
X1029491Y501287D01*
X1029490Y501287D01*
X1029351Y501282D01*
X1029350Y501282D01*
X1029210Y501277D01*
X1029070Y501272D01*
X1029069Y501272D01*
X1028930Y501267D01*
X1028929Y501267D01*
X1028790Y501262D01*
X1028789Y501262D01*
X1028649Y501257D01*
X1028509Y501252D01*
X1028508Y501252D01*
X1028369Y501247D01*
X1028368Y501247D01*
X1028229Y501243D01*
X1028228Y501243D01*
X1028228Y501242D01*
X1028088Y501238D01*
X1027948Y501233D01*
X1027947Y501233D01*
X1027808Y501228D01*
X1027807Y501228D01*
X1027667Y501223D01*
X1027527Y501218D01*
X1027526Y501218D01*
X1027387Y501213D01*
X1027386Y501213D01*
X1027247Y501208D01*
X1027246Y501208D01*
X1027106Y501203D01*
X1026966Y501198D01*
X1026965Y501198D01*
X1026826Y501193D01*
X1026825Y501193D01*
X1026686Y501188D01*
X1026685Y501188D01*
X1026545Y501183D01*
X1026405Y501178D01*
X1026404Y501178D01*
X1026265Y501173D01*
X1026264Y501173D01*
X1026125Y501168D01*
X1026124Y501168D01*
X1025984Y501163D01*
X1025844Y501158D01*
X1025843Y501158D01*
X1025704Y501153D01*
X1025703Y501153D01*
X1025564Y501148D01*
X1025563Y501148D01*
X1025423Y501143D01*
X1025283Y501138D01*
X1025282Y501138D01*
X1025143Y501133D01*
X1025142Y501133D01*
X1025002Y501128D01*
X1024862Y501123D01*
X1024861Y501123D01*
X1024722Y501118D01*
X1024721Y501118D01*
X1024582Y501113D01*
X1024581Y501113D01*
X1024441Y501108D01*
X1024301Y501103D01*
X1024300Y501103D01*
X1024161Y501098D01*
X1024160Y501098D01*
X1024021Y501093D01*
X1024020Y501093D01*
X1023880Y501088D01*
X1023740Y501084D01*
X1023739Y501084D01*
X1023739Y501083D01*
X1023600Y501079D01*
X1023599Y501079D01*
X1023460Y501074D01*
X1023459Y501074D01*
X1023319Y501069D01*
X1023179Y501064D01*
X1023178Y501064D01*
X1023039Y501059D01*
X1023038Y501059D01*
X1022898Y501054D01*
X1022758Y501049D01*
X1022757Y501049D01*
X1022618Y501044D01*
X1022617Y501044D01*
X1022478Y501039D01*
X1022477Y501039D01*
X1022337Y501034D01*
X1022197Y501029D01*
X1022196Y501029D01*
X1022057Y501024D01*
X1022056Y501024D01*
X1021917Y501019D01*
X1021916Y501019D01*
X1021776Y501014D01*
X1021636Y501009D01*
X1021635Y501009D01*
X1021496Y501004D01*
X1021495Y501004D01*
X1021356Y500999D01*
X1021355Y500999D01*
X1021215Y500994D01*
X1021075Y500989D01*
X1021074Y500989D01*
X1020935Y500984D01*
X1020934Y500984D01*
X1020795Y500979D01*
X1020794Y500979D01*
X1020654Y500974D01*
X1020514Y500969D01*
X1020513Y500969D01*
X1020374Y500964D01*
X1020373Y500964D01*
X1020233Y500959D01*
X1020093Y500954D01*
X1020092Y500954D01*
X1019953Y500949D01*
X1019952Y500949D01*
X1019813Y500944D01*
X1019812Y500944D01*
X1019672Y500939D01*
X1019532Y500934D01*
X1019531Y500934D01*
X1019392Y500929D01*
X1019391Y500929D01*
X1019252Y500925D01*
X1019251Y500925D01*
X1019251Y500924D01*
X1019111Y500920D01*
X1018971Y500915D01*
X1018970Y500915D01*
X1018831Y500910D01*
X1018830Y500910D01*
X1018691Y500905D01*
X1018690Y500905D01*
X1018550Y500900D01*
X1018410Y500895D01*
X1018409Y500895D01*
X1018270Y500890D01*
X1018269Y500890D01*
X1018130Y500885D01*
X1018129Y500885D01*
X1017989Y500880D01*
X1017849Y500875D01*
X1017848Y500875D01*
X1017709Y500870D01*
X1017708Y500870D01*
X1017568Y500865D01*
X1017428Y500860D01*
X1017427Y500860D01*
X1017288Y500855D01*
X1017287Y500855D01*
X1017148Y500850D01*
X1017147Y500850D01*
X1017007Y500845D01*
X1016867Y500840D01*
X1016866Y500840D01*
X1016727Y500835D01*
X1016726Y500835D01*
X1016587Y500830D01*
X1016586Y500830D01*
X1016446Y500825D01*
X1016306Y500820D01*
X1016305Y500820D01*
X1016166Y500815D01*
X1016165Y500815D01*
X1016026Y500810D01*
X1016025Y500810D01*
X1015885Y500805D01*
X1015745Y500800D01*
X1015744Y500800D01*
X1015605Y500795D01*
X1015604Y500795D01*
X1015464Y500790D01*
X1015324Y500785D01*
X1015323Y500785D01*
X1015184Y500780D01*
X1015183Y500780D01*
X1015044Y500775D01*
X1015043Y500775D01*
X1014903Y500770D01*
X1014763Y500766D01*
X1014762Y500766D01*
X1014762Y500765D01*
X1014623Y500761D01*
X1014622Y500761D01*
X1014483Y500756D01*
X1014482Y500756D01*
X1014342Y500751D01*
X1014202Y500746D01*
X1014201Y500746D01*
X1014062Y500741D01*
X1014061Y500741D01*
X1013922Y500736D01*
X1013921Y500736D01*
X1013781Y500731D01*
X1013641Y500726D01*
X1013640Y500726D01*
X1013501Y500721D01*
X1013500Y500721D01*
X1013361Y500716D01*
X1013360Y500716D01*
X1013220Y500711D01*
X1013080Y500706D01*
X1013079Y500706D01*
X1012940Y500701D01*
X1012939Y500701D01*
X1012799Y500696D01*
X1012659Y500691D01*
X1012658Y500691D01*
X1012519Y500686D01*
X1012518Y500686D01*
X1012379Y500681D01*
X1012378Y500681D01*
X1012238Y500676D01*
X1012098Y500671D01*
X1012097Y500671D01*
X1011958Y500666D01*
X1011957Y500666D01*
X1011818Y500661D01*
X1011817Y500661D01*
X1011677Y500656D01*
X1011537Y500651D01*
X1011536Y500651D01*
X1011397Y500646D01*
X1011396Y500646D01*
X1011257Y500641D01*
X1011256Y500641D01*
X1011116Y500636D01*
X1010976Y500631D01*
X1010975Y500631D01*
X1010836Y500626D01*
X1010835Y500626D01*
X1010696Y500621D01*
X1010695Y500621D01*
X1010555Y500616D01*
X1010415Y500611D01*
X1010414Y500611D01*
X1010275Y500607D01*
X1010274Y500607D01*
X1010274Y500606D01*
X1010134Y500602D01*
X1009994Y500597D01*
X1009993Y500597D01*
X1009854Y500592D01*
X1009853Y500592D01*
X1009714Y500587D01*
X1009713Y500587D01*
X1009573Y500582D01*
X1009433Y500577D01*
X1009432Y500577D01*
X1009293Y500572D01*
X1009292Y500572D01*
X1009153Y500567D01*
X1009152Y500567D01*
X1009012Y500562D01*
X1008872Y500557D01*
X1008871Y500557D01*
X1008732Y500552D01*
X1008731Y500552D01*
X1008592Y500547D01*
X1008591Y500547D01*
X1008451Y500542D01*
X1008311Y500537D01*
X1008310Y500537D01*
X1008171Y500532D01*
X1008170Y500532D01*
X1008030Y500527D01*
X1007890Y500522D01*
X1007889Y500522D01*
X1007750Y500517D01*
X1007749Y500517D01*
X1007610Y500512D01*
X1007609Y500512D01*
X1007469Y500507D01*
X1007329Y500502D01*
X1007328Y500502D01*
X1007189Y500497D01*
X1007188Y500497D01*
X1007049Y500492D01*
X1007048Y500492D01*
X1006908Y500487D01*
X1006768Y500482D01*
X1006767Y500482D01*
X1006628Y500477D01*
X1006627Y500477D01*
X1006488Y500472D01*
X1006487Y500472D01*
X1006347Y500467D01*
X1006207Y500462D01*
X1006206Y500462D01*
X1006067Y500457D01*
X1006066Y500457D01*
X1005927Y500452D01*
X1005926Y500452D01*
X1005786Y500448D01*
X1005786Y500447D01*
X1005646Y500443D01*
X1005645Y500443D01*
X1005506Y500438D01*
X1005505Y500438D01*
X1005365Y500433D01*
X1005225Y500428D01*
X1005224Y500428D01*
X1005085Y500423D01*
X1005084Y500423D01*
X1004945Y500418D01*
X1004944Y500418D01*
X1004804Y500413D01*
X1004664Y500408D01*
X1004663Y500408D01*
X1004524Y500403D01*
X1004523Y500403D01*
X1004384Y500398D01*
X1004383Y500398D01*
X1004243Y500393D01*
X1004103Y500388D01*
X1004102Y500388D01*
X1003963Y500383D01*
X1003962Y500383D01*
X1003823Y500378D01*
X1003822Y500378D01*
X1003682Y500373D01*
X1003542Y500368D01*
X1003541Y500368D01*
X1003402Y500363D01*
X1003401Y500363D01*
X1003262Y500358D01*
X1003261Y500358D01*
X1003121Y500353D01*
X1002981Y500348D01*
X1002980Y500348D01*
X1002841Y500343D01*
X1002840Y500343D01*
X1002700Y500338D01*
X1002560Y500333D01*
X1002559Y500333D01*
X1002420Y500328D01*
X1002419Y500328D01*
X1002280Y500323D01*
X1002279Y500323D01*
X1002139Y500318D01*
X1001999Y500313D01*
X1001998Y500313D01*
X1001859Y500308D01*
X1001858Y500308D01*
X1001719Y500303D01*
X1001718Y500303D01*
X1001578Y500298D01*
X1001438Y500293D01*
X1001437Y500293D01*
X1001298Y500289D01*
X1001297Y500289D01*
X1001297Y500288D01*
X1001158Y500284D01*
X1001157Y500284D01*
X1001017Y500279D01*
X1000877Y500274D01*
X1000876Y500274D01*
X1000737Y500269D01*
X1000736Y500269D01*
X1000597Y500264D01*
X1000596Y500264D01*
X1000456Y500259D01*
X1000455Y500259D01*
X1000316Y500254D01*
X1000315Y500254D01*
X1000176Y500249D01*
X1000175Y500249D01*
X1000035Y500244D01*
X999895Y500239D01*
X999894Y500239D01*
X999755Y500234D01*
X999754Y500234D01*
X999615Y500229D01*
X999614Y500229D01*
X999474Y500224D01*
X999334Y500219D01*
X999333Y500219D01*
X999194Y500214D01*
X999193Y500214D01*
X999054Y500209D01*
X999053Y500209D01*
X998913Y500204D01*
X998773Y500199D01*
X998772Y500199D01*
X998633Y500194D01*
X998632Y500194D01*
X998493Y500189D01*
X998492Y500189D01*
X998352Y500184D01*
X998212Y500179D01*
X998211Y500179D01*
X998072Y500174D01*
X998071Y500174D01*
X997931Y500169D01*
X997791Y500164D01*
X997790Y500164D01*
X997651Y500159D01*
X997650Y500159D01*
X997511Y500154D01*
X997510Y500154D01*
X997370Y500149D01*
X997230Y500144D01*
X997229Y500144D01*
X997090Y500139D01*
X997089Y500139D01*
X996950Y500134D01*
X996949Y500134D01*
X996809Y500130D01*
X996809Y500129D01*
X996669Y500125D01*
X996668Y500125D01*
X996529Y500120D01*
X996528Y500120D01*
X996389Y500115D01*
X996388Y500115D01*
X996248Y500110D01*
X996108Y500105D01*
X996107Y500105D01*
X995968Y500100D01*
X995967Y500100D01*
X995828Y500095D01*
X995827Y500095D01*
X995687Y500090D01*
X995547Y500085D01*
X995546Y500085D01*
X995407Y500080D01*
X995406Y500080D01*
X995266Y500075D01*
X995126Y500070D01*
X995125Y500070D01*
X994986Y500065D01*
X994985Y500065D01*
X994846Y500060D01*
X994845Y500060D01*
X994705Y500055D01*
X994565Y500050D01*
X994564Y500050D01*
X994425Y500045D01*
X994424Y500045D01*
X994285Y500040D01*
X994284Y500040D01*
X994144Y500035D01*
X994004Y500030D01*
X994003Y500030D01*
X993864Y500025D01*
X993863Y500025D01*
X993724Y500020D01*
X993723Y500020D01*
X993583Y500015D01*
X993443Y500010D01*
X993442Y500010D01*
X993303Y500005D01*
X993302Y500005D01*
X993163Y500000D01*
X993162Y500000D01*
X993022Y499995D01*
X992882Y499990D01*
X992881Y499990D01*
X992742Y499985D01*
X992741Y499985D01*
X992601Y499980D01*
X992461Y499975D01*
X992460Y499975D01*
X992321Y499971D01*
X992320Y499971D01*
X992320Y499970D01*
X992181Y499966D01*
X992180Y499966D01*
X992040Y499961D01*
X991900Y499956D01*
X991899Y499956D01*
X991760Y499951D01*
X991759Y499951D01*
X991620Y499946D01*
X991619Y499946D01*
X991479Y499941D01*
X991339Y499936D01*
X991338Y499936D01*
X991199Y499931D01*
X991198Y499931D01*
X991059Y499926D01*
X991058Y499926D01*
X990918Y499921D01*
X990778Y499916D01*
X990777Y499916D01*
X990638Y499911D01*
X990637Y499911D01*
X990497Y499906D01*
X990357Y499901D01*
X990356Y499901D01*
X990217Y499896D01*
X990216Y499896D01*
X990077Y499891D01*
X990076Y499891D01*
X989936Y499886D01*
X989796Y499881D01*
X989795Y499881D01*
X989656Y499876D01*
X989655Y499876D01*
X989516Y499871D01*
X989515Y499871D01*
X989375Y499866D01*
X989235Y499861D01*
X989234Y499861D01*
X989095Y499856D01*
X989094Y499856D01*
X988955Y499851D01*
X988954Y499851D01*
X988814Y499846D01*
X988674Y499841D01*
X988673Y499841D01*
X988534Y499836D01*
X988533Y499836D01*
X988394Y499831D01*
X988393Y499831D01*
X988253Y499826D01*
X988113Y499821D01*
X988112Y499821D01*
X987973Y499816D01*
X987972Y499816D01*
X987832Y499812D01*
X987832Y499811D01*
X987692Y499807D01*
X987691Y499807D01*
X987552Y499802D01*
X987551Y499802D01*
X987412Y499797D01*
X987411Y499797D01*
X987271Y499792D01*
X987131Y499787D01*
X987130Y499787D01*
X986991Y499782D01*
X986990Y499782D01*
X986851Y499777D01*
X986850Y499777D01*
X986710Y499772D01*
X986570Y499767D01*
X986569Y499767D01*
X986430Y499762D01*
X986429Y499762D01*
X986290Y499757D01*
X986289Y499757D01*
X986149Y499752D01*
X986009Y499747D01*
X986008Y499747D01*
X985869Y499742D01*
X985868Y499742D01*
X985729Y499737D01*
X985728Y499737D01*
X985588Y499732D01*
X985448Y499727D01*
X985447Y499727D01*
X985308Y499722D01*
X985307Y499722D01*
X985167Y499717D01*
X985027Y499712D01*
X985026Y499712D01*
X984887Y499707D01*
X984886Y499707D01*
X984747Y499702D01*
X984746Y499702D01*
X984606Y499697D01*
X984466Y499692D01*
X984465Y499692D01*
X984326Y499687D01*
X984325Y499687D01*
X984186Y499682D01*
X984185Y499682D01*
X984045Y499677D01*
X983905Y499672D01*
X983904Y499672D01*
X983765Y499667D01*
X983764Y499667D01*
X983625Y499662D01*
X983624Y499662D01*
X983484Y499657D01*
X983344Y499653D01*
X983343Y499653D01*
X983343Y499652D01*
X983204Y499648D01*
X983203Y499648D01*
X983063Y499643D01*
X982923Y499638D01*
X982922Y499638D01*
X982783Y499633D01*
X982782Y499633D01*
X982643Y499628D01*
X982642Y499628D01*
X982502Y499623D01*
X982362Y499618D01*
X982361Y499618D01*
X982222Y499613D01*
X982221Y499613D01*
X982082Y499608D01*
X982081Y499608D01*
X981941Y499603D01*
X981801Y499598D01*
X981800Y499598D01*
X981661Y499593D01*
X981660Y499593D01*
X981521Y499588D01*
X981520Y499588D01*
X981380Y499583D01*
X981240Y499578D01*
X981239Y499578D01*
X981100Y499573D01*
X981099Y499573D01*
X980960Y499568D01*
X980959Y499568D01*
X980819Y499563D01*
X980679Y499558D01*
X980678Y499558D01*
X980539Y499553D01*
X980538Y499553D01*
X980398Y499548D01*
X980258Y499543D01*
X980257Y499543D01*
X980118Y499538D01*
X980117Y499538D01*
X979978Y499533D01*
X979977Y499533D01*
X979837Y499528D01*
X979697Y499523D01*
X979696Y499523D01*
X979557Y499518D01*
X979556Y499518D01*
X979417Y499513D01*
X979416Y499513D01*
X979276Y499508D01*
X979136Y499503D01*
X979135Y499503D01*
X978996Y499498D01*
X978995Y499498D01*
X978856Y499494D01*
X978855Y499494D01*
X978855Y499493D01*
X978715Y499489D01*
X978575Y499484D01*
X978574Y499484D01*
X978435Y499479D01*
X978434Y499479D01*
X978295Y499474D01*
X978294Y499474D01*
X978154Y499469D01*
X978014Y499464D01*
X978013Y499464D01*
X977874Y499459D01*
X977873Y499459D01*
X977733Y499454D01*
X977593Y499449D01*
X977592Y499449D01*
X977453Y499444D01*
X977452Y499444D01*
X977313Y499439D01*
X977312Y499439D01*
X977172Y499434D01*
X977032Y499429D01*
X977031Y499429D01*
X976892Y499424D01*
X976891Y499424D01*
X976752Y499419D01*
X976751Y499419D01*
X976611Y499414D01*
X976471Y499409D01*
X976470Y499409D01*
X976331Y499404D01*
X976330Y499404D01*
X976191Y499399D01*
X976190Y499399D01*
X976050Y499394D01*
X975910Y499389D01*
X975909Y499389D01*
X975770Y499384D01*
X975769Y499384D01*
X975630Y499379D01*
X975629Y499379D01*
X975489Y499374D01*
X975488Y499374D01*
X975349Y499369D01*
X975348Y499369D01*
X975209Y499364D01*
X975208Y499364D01*
X975068Y499359D01*
X974928Y499354D01*
X974927Y499354D01*
X974788Y499349D01*
X974787Y499349D01*
X974648Y499344D01*
X974647Y499344D01*
X974507Y499339D01*
X974367Y499335D01*
X974366Y499335D01*
X974366Y499334D01*
X974227Y499330D01*
X974226Y499330D01*
X974087Y499325D01*
X974086Y499325D01*
X973946Y499320D01*
X973806Y499315D01*
X973805Y499315D01*
X973666Y499310D01*
X973665Y499310D01*
X973526Y499305D01*
X973525Y499305D01*
X973385Y499300D01*
X973245Y499295D01*
X973244Y499295D01*
X973105Y499290D01*
X973104Y499290D01*
X972964Y499285D01*
X972824Y499280D01*
X972823Y499280D01*
X972684Y499275D01*
X972683Y499275D01*
X972544Y499270D01*
X972543Y499270D01*
X972403Y499265D01*
X972263Y499260D01*
X972262Y499260D01*
X972123Y499255D01*
X972122Y499255D01*
X971983Y499250D01*
X971982Y499250D01*
X971842Y499245D01*
X971702Y499240D01*
X971701Y499240D01*
X971562Y499235D01*
X971561Y499235D01*
X971422Y499230D01*
X971421Y499230D01*
X971281Y499225D01*
X971141Y499220D01*
X971140Y499220D01*
X971001Y499215D01*
X971000Y499215D01*
X970861Y499210D01*
X970860Y499210D01*
X970720Y499205D01*
X970580Y499200D01*
X970579Y499200D01*
X970440Y499195D01*
X970439Y499195D01*
X970299Y499190D01*
X970159Y499185D01*
X970158Y499185D01*
X970019Y499180D01*
X970018Y499180D01*
X969879Y499176D01*
X969878Y499176D01*
X969878Y499175D01*
X969738Y499171D01*
X969598Y499166D01*
X969597Y499166D01*
X969458Y499161D01*
X969457Y499161D01*
X969318Y499156D01*
X969317Y499156D01*
X969177Y499151D01*
X969037Y499146D01*
X969036Y499146D01*
X968978Y499144D01*
X968976Y499142D01*
X968974Y499142D01*
X924865Y439325D01*
X924866Y439324D01*
X924864Y439323D01*
X924866Y439322D01*
X924866Y439319D01*
X924868Y439319D01*
X924869Y439318D01*
X938931Y439449D01*
X939131Y378798D01*
X939134Y378795D01*
X939135Y378794D01*
X1003158Y364289D01*
X1003159Y364290D01*
G37*
G36*
X423202Y341286D02*
X423202Y341286D01*
X486009Y351455D01*
X486012Y351458D01*
X486013Y351459D01*
X486024Y351511D01*
X486053Y351655D01*
X486066Y351719D01*
X486079Y351784D01*
X486092Y351848D01*
X486092Y351849D01*
X486106Y351913D01*
X486119Y351978D01*
X486132Y352042D01*
X486161Y352186D01*
X486174Y352251D01*
X486187Y352316D01*
X486200Y352380D01*
X486214Y352445D01*
X486227Y352509D01*
X486240Y352574D01*
X486269Y352718D01*
X486282Y352783D01*
X486295Y352847D01*
X486308Y352912D01*
X486309Y352912D01*
X486322Y352976D01*
X486335Y353041D01*
X486348Y353106D01*
X486377Y353250D01*
X486390Y353314D01*
X486403Y353379D01*
X486417Y353443D01*
X486430Y353508D01*
X486443Y353573D01*
X486485Y353781D01*
X486498Y353846D01*
X486511Y353911D01*
X486525Y353975D01*
X486538Y354040D01*
X486551Y354104D01*
X486593Y354313D01*
X486606Y354378D01*
X486619Y354442D01*
X486633Y354507D01*
X486646Y354571D01*
X486659Y354636D01*
X486688Y354780D01*
X486701Y354845D01*
X486714Y354909D01*
X486727Y354974D01*
X486728Y354974D01*
X486741Y355038D01*
X486754Y355103D01*
X486767Y355168D01*
X486796Y355312D01*
X486809Y355376D01*
X486822Y355441D01*
X486836Y355505D01*
X486836Y355506D01*
X486849Y355570D01*
X486862Y355635D01*
X486875Y355699D01*
X486904Y355843D01*
X486917Y355908D01*
X486930Y355973D01*
X486944Y356037D01*
X486957Y356102D01*
X486970Y356166D01*
X486983Y356231D01*
X487012Y356375D01*
X487025Y356440D01*
X487038Y356504D01*
X487052Y356569D01*
X487065Y356633D01*
X487078Y356698D01*
X487120Y356907D01*
X487133Y356971D01*
X487146Y357036D01*
X487147Y357036D01*
X487160Y357100D01*
X487173Y357165D01*
X487186Y357230D01*
X487228Y357438D01*
X487241Y357503D01*
X487255Y357568D01*
X487268Y357632D01*
X487281Y357697D01*
X487294Y357761D01*
X487323Y357905D01*
X487336Y357970D01*
X487349Y358035D01*
X487363Y358099D01*
X487376Y358164D01*
X487389Y358228D01*
X487402Y358293D01*
X487431Y358437D01*
X487444Y358502D01*
X487457Y358566D01*
X487471Y358631D01*
X487484Y358695D01*
X487497Y358760D01*
X487510Y358825D01*
X487539Y358969D01*
X487552Y359033D01*
X487565Y359098D01*
X487566Y359098D01*
X487579Y359162D01*
X487579Y359163D01*
X487592Y359227D01*
X487605Y359292D01*
X487618Y359356D01*
X487647Y359500D01*
X487660Y359565D01*
X487674Y359630D01*
X487687Y359694D01*
X487700Y359759D01*
X487713Y359823D01*
X487755Y360032D01*
X487768Y360097D01*
X487782Y360161D01*
X487795Y360226D01*
X487808Y360290D01*
X487821Y360355D01*
X487863Y360564D01*
X487876Y360628D01*
X487890Y360693D01*
X487903Y360757D01*
X487916Y360822D01*
X487929Y360887D01*
X487971Y361095D01*
X487984Y361160D01*
X487985Y361160D01*
X487998Y361225D01*
X488011Y361289D01*
X488024Y361354D01*
X488037Y361418D01*
X488066Y361562D01*
X488079Y361627D01*
X488093Y361692D01*
X488106Y361756D01*
X488119Y361821D01*
X488132Y361885D01*
X488145Y361950D01*
X488174Y362094D01*
X488187Y362159D01*
X488201Y362223D01*
X488214Y362288D01*
X488227Y362352D01*
X488240Y362417D01*
X488253Y362482D01*
X488282Y362626D01*
X488295Y362690D01*
X488309Y362755D01*
X488322Y362819D01*
X488322Y362820D01*
X488335Y362884D01*
X488348Y362949D01*
X488390Y363157D01*
X488403Y363222D01*
X488404Y363222D01*
X488417Y363287D01*
X488430Y363351D01*
X488443Y363416D01*
X488456Y363480D01*
X488498Y363689D01*
X488512Y363754D01*
X488525Y363818D01*
X488538Y363883D01*
X488551Y363947D01*
X488564Y364012D01*
X488606Y364221D01*
X488620Y364285D01*
X488633Y364350D01*
X488646Y364414D01*
X488659Y364479D01*
X488672Y364544D01*
X488701Y364688D01*
X488714Y364752D01*
X488728Y364817D01*
X488741Y364882D01*
X488754Y364946D01*
X488767Y365011D01*
X488780Y365075D01*
X488809Y365219D01*
X488822Y365284D01*
X488823Y365284D01*
X488836Y365349D01*
X488849Y365413D01*
X488862Y365478D01*
X488875Y365542D01*
X488888Y365607D01*
X488917Y365751D01*
X488931Y365816D01*
X488944Y365880D01*
X488957Y365945D01*
X488970Y366009D01*
X488983Y366074D01*
X488996Y366139D01*
X489025Y366283D01*
X489039Y366347D01*
X489052Y366412D01*
X489065Y366476D01*
X489065Y366477D01*
X489078Y366541D01*
X489091Y366606D01*
X489133Y366814D01*
X489147Y366879D01*
X489160Y366944D01*
X489173Y367008D01*
X489186Y367073D01*
X489199Y367137D01*
X489241Y367346D01*
X489242Y367346D01*
X489255Y367411D01*
X489268Y367475D01*
X489281Y367540D01*
X489294Y367604D01*
X489307Y367669D01*
X489336Y367813D01*
X489350Y367878D01*
X489363Y367942D01*
X489376Y368007D01*
X489389Y368071D01*
X489402Y368136D01*
X489415Y368201D01*
X489444Y368345D01*
X489458Y368409D01*
X489471Y368474D01*
X489484Y368539D01*
X489497Y368603D01*
X489510Y368668D01*
X489523Y368732D01*
X489552Y368876D01*
X489566Y368941D01*
X489579Y369006D01*
X489592Y369070D01*
X489605Y369135D01*
X489618Y369199D01*
X489631Y369264D01*
X489660Y369408D01*
X489661Y369408D01*
X489674Y369473D01*
X489687Y369537D01*
X489700Y369602D01*
X489713Y369666D01*
X489726Y369731D01*
X489769Y369940D01*
X489782Y370004D01*
X489795Y370069D01*
X489808Y370133D01*
X489808Y370134D01*
X489821Y370198D01*
X489834Y370263D01*
X489877Y370471D01*
X489890Y370536D01*
X489903Y370601D01*
X489916Y370665D01*
X489929Y370730D01*
X489942Y370794D01*
X489971Y370938D01*
X489985Y371003D01*
X489998Y371068D01*
X490011Y371132D01*
X490024Y371197D01*
X490037Y371261D01*
X490050Y371326D01*
X490079Y371470D01*
X490080Y371470D01*
X490093Y371535D01*
X490106Y371599D01*
X490119Y371664D01*
X490132Y371728D01*
X490145Y371793D01*
X490158Y371858D01*
X490188Y372002D01*
X490201Y372066D01*
X490214Y372131D01*
X490227Y372196D01*
X490240Y372260D01*
X490253Y372325D01*
X490266Y372389D01*
X490296Y372533D01*
X490309Y372598D01*
X490322Y372663D01*
X490335Y372727D01*
X490348Y372792D01*
X490361Y372856D01*
X490404Y373065D01*
X490417Y373130D01*
X490430Y373194D01*
X490443Y373259D01*
X490456Y373323D01*
X490469Y373388D01*
X490512Y373597D01*
X490525Y373661D01*
X490538Y373726D01*
X490551Y373790D01*
X490551Y373791D01*
X490564Y373855D01*
X490577Y373920D01*
X490620Y374128D01*
X490633Y374193D01*
X490646Y374258D01*
X490659Y374322D01*
X490672Y374387D01*
X490685Y374451D01*
X490715Y374595D01*
X490728Y374660D01*
X490741Y374725D01*
X490754Y374789D01*
X490767Y374854D01*
X490780Y374918D01*
X490793Y374983D01*
X490823Y375127D01*
X490836Y375192D01*
X490849Y375256D01*
X490862Y375321D01*
X490875Y375385D01*
X490888Y375450D01*
X490901Y375515D01*
X490931Y375659D01*
X490944Y375723D01*
X490957Y375788D01*
X490970Y375853D01*
X490983Y375917D01*
X490996Y375982D01*
X491009Y376046D01*
X491039Y376190D01*
X491052Y376255D01*
X491065Y376320D01*
X491078Y376384D01*
X491091Y376449D01*
X491104Y376513D01*
X491147Y376722D01*
X491160Y376787D01*
X491173Y376851D01*
X491186Y376916D01*
X491199Y376980D01*
X491212Y377045D01*
X491255Y377254D01*
X491268Y377318D01*
X491281Y377383D01*
X491294Y377447D01*
X491294Y377448D01*
X491307Y377512D01*
X491320Y377577D01*
X491350Y377721D01*
X491363Y377785D01*
X491376Y377850D01*
X491389Y377915D01*
X491402Y377979D01*
X491415Y378044D01*
X491428Y378108D01*
X491458Y378252D01*
X491471Y378317D01*
X491484Y378382D01*
X491497Y378446D01*
X491510Y378511D01*
X491523Y378575D01*
X491536Y378640D01*
X491566Y378784D01*
X491579Y378849D01*
X491592Y378913D01*
X491605Y378978D01*
X491618Y379042D01*
X491631Y379107D01*
X491644Y379172D01*
X491674Y379316D01*
X491687Y379380D01*
X491700Y379445D01*
X491713Y379510D01*
X491726Y379574D01*
X491739Y379639D01*
X491782Y379847D01*
X491795Y379912D01*
X491808Y379977D01*
X491821Y380041D01*
X491834Y380106D01*
X491847Y380170D01*
X491890Y380379D01*
X491903Y380444D01*
X491916Y380508D01*
X491929Y380573D01*
X491942Y380637D01*
X491955Y380702D01*
X491985Y380846D01*
X491998Y380911D01*
X492011Y380975D01*
X492024Y381040D01*
X492037Y381104D01*
X492037Y381105D01*
X492050Y381169D01*
X492063Y381234D01*
X492093Y381378D01*
X492106Y381442D01*
X492119Y381507D01*
X492132Y381572D01*
X492145Y381636D01*
X492158Y381701D01*
X492171Y381765D01*
X492201Y381909D01*
X492214Y381974D01*
X492227Y382039D01*
X492240Y382103D01*
X492253Y382168D01*
X492266Y382232D01*
X492279Y382297D01*
X492280Y382297D01*
X492309Y382441D01*
X492322Y382506D01*
X492335Y382570D01*
X492348Y382635D01*
X492361Y382699D01*
X492374Y382764D01*
X492417Y382973D01*
X492430Y383037D01*
X492443Y383102D01*
X492456Y383167D01*
X492469Y383231D01*
X492482Y383296D01*
X492525Y383504D01*
X492538Y383569D01*
X492551Y383634D01*
X492564Y383698D01*
X492577Y383763D01*
X492590Y383827D01*
X492620Y383971D01*
X492620Y383972D01*
X492633Y384036D01*
X492646Y384101D01*
X492659Y384165D01*
X492672Y384230D01*
X492685Y384294D01*
X492698Y384359D01*
X492699Y384359D01*
X492728Y384503D01*
X492741Y384568D01*
X492754Y384632D01*
X492767Y384697D01*
X492780Y384761D01*
X492780Y384762D01*
X492793Y384826D01*
X492807Y384891D01*
X492836Y385035D01*
X492849Y385099D01*
X492862Y385164D01*
X492875Y385229D01*
X492888Y385293D01*
X492901Y385358D01*
X492915Y385422D01*
X492944Y385566D01*
X492957Y385631D01*
X492970Y385696D01*
X492983Y385760D01*
X492996Y385825D01*
X493009Y385889D01*
X493052Y386098D01*
X493065Y386163D01*
X493078Y386227D01*
X493091Y386292D01*
X493104Y386356D01*
X493117Y386421D01*
X493118Y386421D01*
X493160Y386630D01*
X493173Y386694D01*
X493186Y386759D01*
X493199Y386824D01*
X493212Y386888D01*
X493226Y386953D01*
X493268Y387161D01*
X493281Y387226D01*
X493294Y387291D01*
X493307Y387355D01*
X493320Y387420D01*
X493334Y387484D01*
X493363Y387628D01*
X493363Y387629D01*
X493376Y387693D01*
X493389Y387758D01*
X493402Y387822D01*
X493415Y387887D01*
X493428Y387951D01*
X493442Y388016D01*
X493471Y388160D01*
X493484Y388225D01*
X493497Y388289D01*
X493510Y388354D01*
X493523Y388418D01*
X493523Y388419D01*
X493536Y388483D01*
X493537Y388483D01*
X493550Y388548D01*
X493579Y388692D01*
X493592Y388756D01*
X493605Y388821D01*
X493618Y388886D01*
X493631Y388950D01*
X493645Y389015D01*
X493658Y389079D01*
X493687Y389223D01*
X493700Y389288D01*
X493713Y389353D01*
X493726Y389417D01*
X493739Y389482D01*
X493753Y389546D01*
X493795Y389755D01*
X493808Y389820D01*
X493821Y389884D01*
X493834Y389949D01*
X493847Y390013D01*
X493861Y390078D01*
X493903Y390287D01*
X493916Y390351D01*
X493929Y390416D01*
X493942Y390481D01*
X493955Y390545D01*
X493956Y390545D01*
X493969Y390610D01*
X493998Y390754D01*
X494011Y390818D01*
X494024Y390883D01*
X494037Y390948D01*
X494050Y391012D01*
X494064Y391077D01*
X494077Y391141D01*
X494106Y391285D01*
X494106Y391286D01*
X494119Y391350D01*
X494132Y391415D01*
X494145Y391479D01*
X494158Y391544D01*
X494172Y391608D01*
X494185Y391673D01*
X494214Y391817D01*
X494227Y391882D01*
X494240Y391946D01*
X494253Y392011D01*
X494266Y392075D01*
X494266Y392076D01*
X494280Y392140D01*
X494293Y392205D01*
X494322Y392349D01*
X494335Y392413D01*
X494348Y392478D01*
X494361Y392543D01*
X494374Y392607D01*
X494375Y392607D01*
X494388Y392672D01*
X494430Y392880D01*
X494443Y392945D01*
X494456Y393010D01*
X494469Y393074D01*
X494483Y393139D01*
X494496Y393203D01*
X494538Y393412D01*
X494551Y393477D01*
X494564Y393541D01*
X494577Y393606D01*
X494591Y393670D01*
X494604Y393735D01*
X494633Y393879D01*
X494646Y393944D01*
X494659Y394008D01*
X494672Y394073D01*
X494685Y394138D01*
X494699Y394202D01*
X494712Y394267D01*
X494741Y394411D01*
X494754Y394475D01*
X494767Y394540D01*
X494780Y394605D01*
X494793Y394669D01*
X494794Y394669D01*
X494807Y394734D01*
X494820Y394798D01*
X494849Y394942D01*
X494849Y394943D01*
X494862Y395007D01*
X494875Y395072D01*
X494888Y395136D01*
X494902Y395201D01*
X494915Y395265D01*
X494928Y395330D01*
X494957Y395474D01*
X494970Y395539D01*
X494983Y395603D01*
X494996Y395668D01*
X495010Y395732D01*
X495010Y395733D01*
X495023Y395797D01*
X495065Y396006D01*
X495078Y396070D01*
X495091Y396135D01*
X495104Y396200D01*
X495118Y396264D01*
X495131Y396329D01*
X495173Y396537D01*
X495186Y396602D01*
X495199Y396667D01*
X495212Y396731D01*
X495213Y396731D01*
X495226Y396796D01*
X495239Y396860D01*
X495281Y397069D01*
X495294Y397134D01*
X495307Y397198D01*
X495321Y397263D01*
X495334Y397327D01*
X495347Y397392D01*
X495376Y397536D01*
X495389Y397601D01*
X495402Y397665D01*
X495415Y397730D01*
X495429Y397795D01*
X495442Y397859D01*
X495455Y397924D01*
X495484Y398068D01*
X495497Y398132D01*
X495510Y398197D01*
X495523Y398262D01*
X495537Y398326D01*
X495550Y398391D01*
X495563Y398455D01*
X495592Y398599D01*
X495592Y398600D01*
X495605Y398664D01*
X495618Y398729D01*
X495631Y398793D01*
X495632Y398793D01*
X495645Y398858D01*
X495658Y398922D01*
X495671Y398987D01*
X495700Y399131D01*
X495713Y399196D01*
X495726Y399260D01*
X495740Y399325D01*
X495753Y399389D01*
X495753Y399390D01*
X495766Y399454D01*
X495808Y399663D01*
X495821Y399727D01*
X495834Y399792D01*
X495848Y399857D01*
X495861Y399921D01*
X495874Y399986D01*
X495916Y400194D01*
X495929Y400259D01*
X495942Y400324D01*
X495956Y400388D01*
X495969Y400453D01*
X495982Y400517D01*
X496011Y400661D01*
X496011Y400662D01*
X496024Y400726D01*
X496037Y400791D01*
X496050Y400855D01*
X496051Y400855D01*
X496064Y400920D01*
X496077Y400984D01*
X496090Y401049D01*
X496119Y401193D01*
X496132Y401258D01*
X496145Y401322D01*
X496159Y401387D01*
X496172Y401452D01*
X496185Y401516D01*
X496198Y401581D01*
X496227Y401725D01*
X496240Y401789D01*
X496253Y401854D01*
X496267Y401919D01*
X496280Y401983D01*
X496293Y402048D01*
X496306Y402112D01*
X496335Y402256D01*
X496335Y402257D01*
X496348Y402321D01*
X496361Y402386D01*
X496375Y402450D01*
X496388Y402515D01*
X496401Y402579D01*
X496443Y402788D01*
X496456Y402853D01*
X496469Y402917D01*
X496470Y402917D01*
X496483Y402982D01*
X496496Y403046D01*
X496496Y403047D01*
X496509Y403111D01*
X496551Y403320D01*
X496564Y403384D01*
X496578Y403449D01*
X496591Y403514D01*
X496604Y403578D01*
X496617Y403643D01*
X496646Y403787D01*
X496659Y403851D01*
X496672Y403916D01*
X496686Y403981D01*
X496699Y404045D01*
X496712Y404110D01*
X496725Y404174D01*
X496754Y404318D01*
X496754Y404319D01*
X496767Y404383D01*
X496780Y404448D01*
X496794Y404512D01*
X496807Y404577D01*
X496811Y404600D01*
X496810Y404601D01*
X496811Y404603D01*
X475188Y441595D01*
X475183Y441597D01*
X475182Y441597D01*
X399578Y413168D01*
X399576Y413166D01*
X399575Y413164D01*
X399575Y413163D01*
X399575Y413162D01*
X423196Y341289D01*
X423201Y341286D01*
X423202Y341286D01*
X423202Y341286D01*
G37*
D10*
X59120Y246543D02*
X93608Y66712D01*
X224101Y103331D02*
X242695Y6378D01*
X369062Y22860D02*
X351790Y112776D01*
X369062Y22860D02*
X380238Y19558D01*
X451612Y85090D02*
X424434Y226314D01*
X297688Y394208D02*
X289052Y440182D01*
X279908Y471932D01*
X373380Y469900D02*
X383794Y438912D01*
X412496Y287782D01*
X514858Y410464D02*
X478790Y500126D01*
X514858Y410464D02*
X547116Y172974D01*
X604555Y222003D02*
X596658Y287050D01*
X665268Y308786D02*
X679203Y232974D01*
X623732Y579388D02*
X642232Y599334D01*
X683048Y542784D02*
X732966Y599334D01*
X800029Y599334D02*
X736847Y527826D01*
X793115Y512163D02*
X865011Y599087D01*
X910061Y575098D02*
X847125Y497134D01*
X910061Y575098D02*
X944316Y575874D01*
X989224Y576898D02*
X1065742Y578626D01*
X936308Y533647D02*
X896444Y483411D01*
X936308Y533647D02*
X1109274Y539609D01*
X1150655Y440020D01*
X1208148Y440625D02*
X1168402Y540438D01*
X1251204Y507492D02*
X1269492Y441960D01*
X1319022Y477774D02*
X1330706Y433832D01*
X1387856Y449326D02*
X1391920Y434086D01*
X1366520Y368554D01*
X1309370Y378714D02*
X1330706Y433832D01*
X1269492Y441960D02*
X1249172Y389636D01*
X1187228Y380524D02*
X1208148Y440625D01*
X1150655Y440020D02*
X1127725Y364067D01*
X1397210Y242116D02*
X1470434Y421913D01*
X1525899Y354475D02*
X1427577Y117336D01*
X753110Y243840D02*
X734060Y248920D01*
X790787Y277036D02*
X867833Y260562D01*
X790787Y277036D02*
X776429Y343923D01*
X720090Y325120D02*
X734060Y248920D01*
X841446Y311926D02*
X981534Y282857D01*
X841446Y311926D02*
X831144Y361209D01*
X883461Y377754D02*
X888294Y344840D01*
X989930Y320887D01*
X1072042Y342406D01*
X1076325Y307658D02*
X981534Y282857D01*
X973096Y238119D02*
X886214Y256662D01*
X973096Y238119D02*
X1085438Y266848D01*
X1094927Y224334D02*
X970244Y196561D01*
X1015554Y163643D02*
X1104072Y183360D01*
X1116177Y129119D02*
X1075026Y120871D01*
D11*
X595376Y567690D03*
X967994Y567690D03*
X1487043Y383540D03*
X166751Y32385D03*
X143383Y444754D03*
X1208405Y65024D03*
D12*
X143129Y445008D03*
X1208278Y65151D03*
D10*
X590973Y543728D02*
X575994Y527459D01*
M02*
