<svg id="COPPER_FILLS" xmlns="http://www.w3.org/2000/svg" viewBox="0 0 401.85 127.2"><defs><style>.cls-1{stroke:#000;stroke-linecap:round;stroke-linejoin:round;stroke-width:0.31px;}</style></defs><title>controller1_panel_FILLSBIG</title><path class="cls-1" d="M67.93,73.86l-23.4-.59a2.22,2.22,0,0,0-1.93,1.08L13.23,125.74,62,179.12h44.18l28-43.8L68,73.93" transform="translate(-13.07 -73.12)"/><path class="cls-1" d="M414.72,183l-11.11,16.22a2.14,2.14,0,0,1-1.83.94L347.91,199a2.43,2.43,0,0,1-1.21-.41l-19.32-13.95-2.85-12.78-8.71-39-2.58-11.57-2.52-11.26,33.95-9.39,12.56-3.48,5,.89,33.24,6,8.73,35.87,7.54,31,3,12.43" transform="translate(-13.07 -73.12)"/></svg>