<svg id="COPPER_TRACES" xmlns="http://www.w3.org/2000/svg" viewBox="0 0 416.09 168.39"><defs><style>.cls-1{fill:none;stroke:#000;stroke-linecap:round;stroke-linejoin:round;stroke-width:0.31px;}</style></defs><title>controller1_panel_traces_only</title><polyline class="cls-1" points="237.51 33.01 248.81 18.77 297.84 17.08 309.57 45.31 303.07 66.84"/><polyline class="cls-1" points="233.83 62.96 235.2 72.29 264.01 79.08 285.99 73.34"/><polyline class="cls-1" points="285.54 6.02 285.5 6.02 263.81 6.51 251.08 6.8 241.37 7.02 223.53 29.12"/><polyline class="cls-1" points="219 67.65 221.92 81.62 261.63 89.86 288.5 82.83"/><polyline class="cls-1" points="314.6 16.85 325.86 45.14 319.93 62.18"/><line class="cls-1" x1="228.6" y1="0.22" x2="208.22" y2="24.86"/><polyline class="cls-1" points="203.49 72.55 207.56 91.51 229.4 96.18 229.41 96.18"/><polyline class="cls-1" points="291.08 94.4 259.23 102.55 234.61 97.29"/><polyline class="cls-1" points="338.06 26.17 343.24 44.75 337.49 59.6"/><line class="cls-1" x1="191.17" y1="0.15" x2="177.02" y2="16.18"/><line class="cls-1" x1="175.93" y1="104" x2="171.98" y2="82.51"/><line class="cls-1" x1="296.36" y1="118.07" x2="271.27" y2="123.66"/><polyline class="cls-1" points="376.82 42.71 377.97 47.02 370.75 65.55"/><polyline class="cls-1" points="119.08 28.27 129.47 53.93 138.54 121.17"/><line class="cls-1" x1="415.93" y1="69.56" x2="388.06" y2="136.78"/><polyline class="cls-1" points="67.83 58.37 65.33 45.37 62.7 36.26"/><polyline class="cls-1" points="91.21 164.5 88.02 163.64 83.11 138.07"/><polyline class="cls-1" points="165.45 0.15 158.55 7.64 156.05 10.35 150.92 15.91 145.81 21.46"/><polyline class="cls-1" points="152.53 88.66 154.77 107.1 154.77 107.11"/><line class="cls-1" x1="299.79" y1="133.44" x2="288.13" y2="135.78"/><line class="cls-1" x1="400.21" y1="50.45" x2="379.46" y2="101.41"/><line class="cls-1" x1="210.18" y1="0.15" x2="192.27" y2="20.42"/><polyline class="cls-1" points="187.51 77.6 191.55 99.53 197.11 100.9"/><line class="cls-1" x1="293.77" y1="106.45" x2="258.43" y2="114.33"/><polyline class="cls-1" points="357.32 34.64 360.64 47.09 354.58 62.65"/><line class="cls-1" x1="52.19" y1="168.24" x2="46.92" y2="140.75"/><line class="cls-1" x1="9.93" y1="151.13" x2="0.15" y2="100.16"/><polyline class="cls-1" points="100.39 88.58 92.16 45.65 89.2 36.83"/><line class="cls-1" x1="111.42" y1="146.1" x2="103.71" y2="105.88"/></svg>