<svg id="COPPER_FILLS" xmlns="http://www.w3.org/2000/svg" viewBox="0 0 401.85 134.4"><defs><style>.cls-1{stroke:#000;stroke-linecap:round;stroke-linejoin:round;stroke-width:0.31px;}</style></defs><title>controller1_panel_fills_only</title><polygon class="cls-1" points="136.11 27.09 133.05 42.16 115.24 45.04 108.55 24.66 129.98 16.61 136.11 27.09"/><polygon class="cls-1" points="278.2 39.45 260.05 35.34 260 18.15 256.01 18.19 268.51 1.23 298.88 0.15 307.24 18.14 302.53 33.84 278.2 39.45"/><path class="cls-1" d="M67.93,73.86l-23.4-.59a2.22,2.22,0,0,0-1.93,1.08L13.23,125.74,62,179.12h44.18l28-43.8L68,73.93" transform="translate(-13.07 -65.91)"/><path class="cls-1" d="M414.72,183l-11.11,16.22a2.14,2.14,0,0,1-1.83.94L347.91,199a2.43,2.43,0,0,1-1.21-.41l-19.32-13.95-2.85-12.78-8.71-39-2.58-11.57-2.52-11.26,33.95-9.39,12.56-3.48,5,.89,33.24,6,8.73,35.87,7.54,31,3,12.43" transform="translate(-13.07 -65.91)"/></svg>