  0
SECTION
  2
HEADER
  9
$ACADVER
  1
AC1024
  9
$ACADMAINTVER
 70
     6
  9
$DWGCODEPAGE
  3
UNDEFINED
  9
$INSBASE
 10
0.0
 20
0.0
 30
0.0
  9
$EXTMIN
 10
1.000000000000000E+20
 20
1.000000000000000E+20
 30
1.000000000000000E+20
  9
$EXTMAX
 10
-1.000000000000000E+20
 20
-1.000000000000000E+20
 30
-1.000000000000000E+20
  9
$LIMMIN
 10
0.0
 20
0.0
  9
$LIMMAX
 10
12.0
 20
9.0
  9
$ORTHOMODE
 70
     0
  9
$REGENMODE
 70
     1
  9
$FILLMODE
 70
     1
  9
$QTEXTMODE
 70
     0
  9
$MIRRTEXT
 70
     1
  9
$LTSCALE
 40
1.0
  9
$ATTMODE
 70
     1
  9
$TEXTSIZE
 40
0.2
  9
$TRACEWID
 40
0.05
  9
$TEXTSTYLE
  7
Standard
  9
$CLAYER
  8
0
  9
$CELTYPE
  6
ByLayer
  9
$CECOLOR
 62
   256
  9
$CELTSCALE
 40
1.0
  9
$DISPSILH
 70
     0
  9
$DIMSCALE
 40
1.0
  9
$DIMASZ
 40
0.18
  9
$DIMEXO
 40
0.0625
  9
$DIMDLI
 40
0.38
  9
$DIMRND
 40
0.0
  9
$DIMDLE
 40
0.0
  9
$DIMEXE
 40
0.18
  9
$DIMTP
 40
0.0
  9
$DIMTM
 40
0.0
  9
$DIMTXT
 40
0.18
  9
$DIMCEN
 40
0.09
  9
$DIMTSZ
 40
0.0
  9
$DIMTOL
 70
     0
  9
$DIMLIM
 70
     0
  9
$DIMTIH
 70
     1
  9
$DIMTOH
 70
     1
  9
$DIMSE1
 70
     0
  9
$DIMSE2
 70
     0
  9
$DIMTAD
 70
     0
  9
$DIMZIN
 70
     0
  9
$DIMBLK
  1

  9
$DIMASO
 70
     1
  9
$DIMSHO
 70
     1
  9
$DIMPOST
  1

  9
$DIMAPOST
  1

  9
$DIMALT
 70
     0
  9
$DIMALTD
 70
     2
  9
$DIMALTF
 40
25.4
  9
$DIMLFAC
 40
1.0
  9
$DIMTOFL
 70
     0
  9
$DIMTVP
 40
0.0
  9
$DIMTIX
 70
     0
  9
$DIMSOXD
 70
     0
  9
$DIMSAH
 70
     0
  9
$DIMBLK1
  1

  9
$DIMBLK2
  1

  9
$DIMSTYLE
  2
Standard
  9
$DIMCLRD
 70
     0
  9
$DIMCLRE
 70
     0
  9
$DIMCLRT
 70
     0
  9
$DIMTFAC
 40
1.0
  9
$DIMGAP
 40
0.09
  9
$DIMJUST
 70
     0
  9
$DIMSD1
 70
     0
  9
$DIMSD2
 70
     0
  9
$DIMTOLJ
 70
     1
  9
$DIMTZIN
 70
     0
  9
$DIMALTZ
 70
     0
  9
$DIMALTTZ
 70
     0
  9
$DIMUPT
 70
     0
  9
$DIMDEC
 70
     4
  9
$DIMTDEC
 70
     4
  9
$DIMALTU
 70
     2
  9
$DIMALTTD
 70
     2
  9
$DIMTXSTY
  7
Standard
  9
$DIMAUNIT
 70
     0
  9
$DIMADEC
 70
     0
  9
$DIMALTRND
 40
0.0
  9
$DIMAZIN
 70
     0
  9
$DIMDSEP
 70
    46
  9
$DIMATFIT
 70
     3
  9
$DIMFRAC
 70
     0
  9
$DIMLDRBLK
  1

  9
$DIMLUNIT
 70
     2
  9
$DIMLWD
 70
    -2
  9
$DIMLWE
 70
    -2
  9
$DIMTMOVE
 70
     0
  9
$DIMFXL
 40
1.0
  9
$DIMFXLON
 70
     0
  9
$DIMJOGANG
 40
0.7853981633974483
  9
$DIMTFILL
 70
     0
  9
$DIMTFILLCLR
 70
     0
  9
$DIMARCSYM
 70
     0
  9
$DIMLTYPE
  6

  9
$DIMLTEX1
  6

  9
$DIMLTEX2
  6

  9
$DIMTXTDIRECTION
 70
     0
  9
$LUNITS
 70
     2
  9
$LUPREC
 70
     4
  9
$SKETCHINC
 40
0.1
  9
$FILLETRAD
 40
0.5
  9
$AUNITS
 70
     0
  9
$AUPREC
 70
     0
  9
$MENU
  1
.
  9
$ELEVATION
 40
0.0
  9
$PELEVATION
 40
0.0
  9
$THICKNESS
 40
0.0
  9
$LIMCHECK
 70
     0
  9
$CHAMFERA
 40
0.5
  9
$CHAMFERB
 40
0.5
  9
$CHAMFERC
 40
1.0
  9
$CHAMFERD
 40
0.0
  9
$SKPOLY
 70
     0
  9
$TDCREATE
 40
2458550.065208322
  9
$TDUCREATE
 40
2458550.398541667
  9
$TDUPDATE
 40
2458550.065208322
  9
$TDUUPDATE
 40
2458550.398541667
  9
$TDINDWG
 40
0.0000000116
  9
$TDUSRTIMER
 40
0.0000000116
  9
$USRTIMER
 70
     1
  9
$ANGBASE
 50
0.0
  9
$ANGDIR
 70
     0
  9
$PDMODE
 70
     0
  9
$PDSIZE
 40
0.0
  9
$PLINEWID
 40
0.0
  9
$SPLFRAME
 70
     0
  9
$SPLINETYPE
 70
     6
  9
$SPLINESEGS
 70
     8
  9
$HANDSEED
  5
186
  9
$SURFTAB1
 70
     6
  9
$SURFTAB2
 70
     6
  9
$SURFTYPE
 70
     6
  9
$SURFU
 70
     6
  9
$SURFV
 70
     6
  9
$UCSBASE
  2

  9
$UCSNAME
  2

  9
$UCSORG
 10
0.0
 20
0.0
 30
0.0
  9
$UCSXDIR
 10
1.0
 20
0.0
 30
0.0
  9
$UCSYDIR
 10
0.0
 20
1.0
 30
0.0
  9
$UCSORTHOREF
  2

  9
$UCSORTHOVIEW
 70
     0
  9
$UCSORGTOP
 10
0.0
 20
0.0
 30
0.0
  9
$UCSORGBOTTOM
 10
0.0
 20
0.0
 30
0.0
  9
$UCSORGLEFT
 10
0.0
 20
0.0
 30
0.0
  9
$UCSORGRIGHT
 10
0.0
 20
0.0
 30
0.0
  9
$UCSORGFRONT
 10
0.0
 20
0.0
 30
0.0
  9
$UCSORGBACK
 10
0.0
 20
0.0
 30
0.0
  9
$PUCSBASE
  2

  9
$PUCSNAME
  2

  9
$PUCSORG
 10
0.0
 20
0.0
 30
0.0
  9
$PUCSXDIR
 10
1.0
 20
0.0
 30
0.0
  9
$PUCSYDIR
 10
0.0
 20
1.0
 30
0.0
  9
$PUCSORTHOREF
  2

  9
$PUCSORTHOVIEW
 70
     0
  9
$PUCSORGTOP
 10
0.0
 20
0.0
 30
0.0
  9
$PUCSORGBOTTOM
 10
0.0
 20
0.0
 30
0.0
  9
$PUCSORGLEFT
 10
0.0
 20
0.0
 30
0.0
  9
$PUCSORGRIGHT
 10
0.0
 20
0.0
 30
0.0
  9
$PUCSORGFRONT
 10
0.0
 20
0.0
 30
0.0
  9
$PUCSORGBACK
 10
0.0
 20
0.0
 30
0.0
  9
$USERI1
 70
     0
  9
$USERI2
 70
     0
  9
$USERI3
 70
     0
  9
$USERI4
 70
     0
  9
$USERI5
 70
     0
  9
$USERR1
 40
0.0
  9
$USERR2
 40
0.0
  9
$USERR3
 40
0.0
  9
$USERR4
 40
0.0
  9
$USERR5
 40
0.0
  9
$WORLDVIEW
 70
     1
  9
$SHADEDGE
 70
     3
  9
$SHADEDIF
 70
    70
  9
$TILEMODE
 70
     1
  9
$MAXACTVP
 70
    64
  9
$PINSBASE
 10
0.0
 20
0.0
 30
0.0
  9
$PLIMCHECK
 70
     0
  9
$PEXTMIN
 10
1.000000000000000E+20
 20
1.000000000000000E+20
 30
1.000000000000000E+20
  9
$PEXTMAX
 10
-1.000000000000000E+20
 20
-1.000000000000000E+20
 30
-1.000000000000000E+20
  9
$PLIMMIN
 10
0.0
 20
0.0
  9
$PLIMMAX
 10
12.0
 20
9.0
  9
$UNITMODE
 70
     0
  9
$VISRETAIN
 70
     1
  9
$PLINEGEN
 70
     0
  9
$PSLTSCALE
 70
     1
  9
$TREEDEPTH
 70
  3020
  9
$CMLSTYLE
  2
Standard
  9
$CMLJUST
 70
     0
  9
$CMLSCALE
 40
1.0
  9
$PROXYGRAPHICS
 70
     1
  9
$MEASUREMENT
 70
     0
  9
$CELWEIGHT
370
    -1
  9
$ENDCAPS
280
     0
  9
$JOINSTYLE
280
     0
  9
$LWDISPLAY
290
     1
  9
$INSUNITS
 70
     1
  9
$HYPERLINKBASE
  1

  9
$STYLESHEET
  1

  9
$XEDIT
290
     1
  9
$CEPSNTYPE
380
     0
  9
$PSTYLEMODE
290
     1
  9
$FINGERPRINTGUID
  2
{74099C48-0AF2-70D2-75CA-9A0B0E99CF1A}
  9
$VERSIONGUID
  2
{FAEB1C32-E019-11D5-929B-00C0DF256EC4}
  9
$EXTNAMES
290
     1
  9
$PSVPSCALE
 40
0.0
  9
$OLESTARTUP
290
     0
  9
$SORTENTS
280
   127
  9
$INDEXCTL
280
     0
  9
$HIDETEXT
280
     1
  9
$XCLIPFRAME
280
     2
  9
$HALOGAP
280
     0
  9
$OBSCOLOR
 70
   257
  9
$OBSLTYPE
280
     0
  9
$INTERSECTIONDISPLAY
280
     0
  9
$INTERSECTIONCOLOR
 70
   257
  9
$DIMASSOC
280
     2
  9
$PROJECTNAME
  1

  9
$CAMERADISPLAY
290
     0
  9
$LENSLENGTH
 40
50.0
  9
$CAMERAHEIGHT
 40
0.0
  9
$STEPSPERSEC
 40
2.0
  9
$STEPSIZE
 40
6.0
  9
$3DDWFPREC
 40
2.0
  9
$PSOLWIDTH
 40
0.25
  9
$PSOLHEIGHT
 40
4.0
  9
$LOFTANG1
 40
1.570796326794897
  9
$LOFTANG2
 40
1.570796326794897
  9
$LOFTMAG1
 40
0.0
  9
$LOFTMAG2
 40
0.0
  9
$LOFTPARAM
 70
     7
  9
$LOFTNORMALS
280
     1
  9
$LATITUDE
 40
37.795
  9
$LONGITUDE
 40
-122.394
  9
$NORTHDIRECTION
 40
0.0
  9
$TIMEZONE
 70
 -8000
  9
$LIGHTGLYPHDISPLAY
280
     1
  9
$TILEMODELIGHTSYNCH
280
     1
  9
$CMATERIAL
347
3C
  9
$SOLIDHIST
280
     1
  9
$SHOWHIST
280
     1
  9
$DWFFRAME
280
     2
  9
$DGNFRAME
280
     2
  9
$REALWORLDSCALE
290
     1
  9
$INTERFERECOLOR
 62
   256
  9
$CSHADOW
280
     0
  9
$SHADOWPLANELOCATION
 40
0.0
  0
ENDSEC
  0
SECTION
  2
CLASSES
  0
CLASS
  1
ACDBDICTIONARYWDFLT
  2
AcDbDictionaryWithDefault
  3
ObjectDBX Classes
 90
        0
 91
        4
280
     0
281
     0
  0
CLASS
  1
VISUALSTYLE
  2
AcDbVisualStyle
  3
ObjectDBX Classes
 90
     4095
 91
        4
280
     0
281
     0
  0
CLASS
  1
MATERIAL
  2
AcDbMaterial
  3
ObjectDBX Classes
 90
     1153
 91
        4
280
     0
281
     0
  0
CLASS
  1
SUN
  2
AcDbSun
  3
SCENEOE
 90
     1024
 91
        4
280
     0
281
     0
  0
ENDSEC
  0
SECTION
  2
TABLES
  0
TABLE
  2
VPORT
  5
8
330
0
100
AcDbSymbolTable
 70
     1
  0
VPORT
  5
29
330
8
100
AcDbSymbolTableRecord
100
AcDbViewportTableRecord
  2
*Active
 70
     0
 10
0.0
 20
0.0
 11
1.0
 21
1.0
 12
0.0
 22
0.0
 13
0.0
 23
0.0
 14
0.5
 24
0.5
 15
0.5
 25
0.5
 16
0.0
 26
0.0
 36
1.0
 17
4.214598266625639
 27
2.885428484103095
 37
0.0
 40
2.898340309918265
 41
2.144396793294416
 42
50.0
 43
0.0
 44
0.0
 50
0.0
 51
0.0
 71
     0
 72
   100
 73
     1
 74
     3
 75
     0
 76
     0
 77
     0
 78
     0
281
     0
 65
     1
110
0.0
120
0.0
130
0.0
111
1.0
121
0.0
131
0.0
112
0.0
122
1.0
132
0.0
 79
     0
146
0.0
 60
     3
 61
     5
292
     1
282
     1
141
0.0
142
0.0
 63
   250
361
3F
  0
ENDTAB
  0
TABLE
  2
LTYPE
  5
5
330
0
100
AcDbSymbolTable
 70
     1
  0
LTYPE
  5
14
330
5
100
AcDbSymbolTableRecord
100
AcDbLinetypeTableRecord
  2
ByBlock
 70
     0
  3

 72
    65
 73
     0
 40
0.0
  0
LTYPE
  5
15
330
5
100
AcDbSymbolTableRecord
100
AcDbLinetypeTableRecord
  2
ByLayer
 70
     0
  3

 72
    65
 73
     0
 40
0.0
  0
LTYPE
  5
16
330
5
100
AcDbSymbolTableRecord
100
AcDbLinetypeTableRecord
  2
Continuous
 70
     0
  3
Solid line
 72
    65
 73
     0
 40
0.0
  0
ENDTAB
  0
TABLE
  2
LAYER
  5
2
330
0
100
AcDbSymbolTable
 70
     5
  0
LAYER
  5
10
330
2
100
AcDbSymbolTableRecord
100
AcDbLayerTableRecord
  2
0
 70
     0
 62
     7
  6
Continuous
370
    -3
390
F
347
3E
  0
LAYER
  5
40
330
2
100
AcDbSymbolTableRecord
100
AcDbLayerTableRecord
  2
SCREWS
 70
     0
 62
     7
  6
Continuous
370
    -3
390
F
347
3E
  0
LAYER
  5
5F
330
2
100
AcDbSymbolTableRecord
100
AcDbLayerTableRecord
  2
COPPER
 70
     0
 62
     7
  6
Continuous
370
    -3
390
F
347
3E
  0
LAYER
  5
117
330
2
100
AcDbSymbolTableRecord
100
AcDbLayerTableRecord
  2
CUTOUTS
 70
     0
 62
     7
  6
Continuous
370
    -3
390
F
347
3E
  0
LAYER
  5
182
330
2
100
AcDbSymbolTableRecord
100
AcDbLayerTableRecord
  2
OUTLINES
 70
     0
 62
     7
  6
Continuous
370
    -3
390
F
347
3E
  0
ENDTAB
  0
TABLE
  2
STYLE
  5
3
330
0
100
AcDbSymbolTable
 70
     1
  0
STYLE
  5
11
330
3
100
AcDbSymbolTableRecord
100
AcDbTextStyleTableRecord
  2
Standard
 70
     0
 40
0.0
 41
1.0
 50
0.0
 71
     0
 42
0.2
  3
txt
  4

  0
ENDTAB
  0
TABLE
  2
VIEW
  5
6
330
0
100
AcDbSymbolTable
 70
     0
  0
ENDTAB
  0
TABLE
  2
UCS
  5
7
330
0
100
AcDbSymbolTable
 70
     0
  0
ENDTAB
  0
TABLE
  2
APPID
  5
9
330
0
100
AcDbSymbolTable
 70
     1
  0
APPID
  5
12
330
9
100
AcDbSymbolTableRecord
100
AcDbRegAppTableRecord
  2
ACAD
 70
     0
  0
ENDTAB
  0
TABLE
  2
DIMSTYLE
  5
A
330
0
100
AcDbSymbolTable
 70
     1
100
AcDbDimStyleTable
  0
DIMSTYLE
105
27
330
A
100
AcDbSymbolTableRecord
100
AcDbDimStyleTableRecord
  2
Standard
 70
     0
178
     0
340
11
  0
ENDTAB
  0
TABLE
  2
BLOCK_RECORD
  5
1
330
0
100
AcDbSymbolTable
 70
    10
  0
BLOCK_RECORD
  5
1F
330
1
100
AcDbSymbolTableRecord
100
AcDbBlockTableRecord
  2
*Model_Space
340
22
 70
     0
280
     1
281
     0
  0
BLOCK_RECORD
  5
1B
330
1
100
AcDbSymbolTableRecord
100
AcDbBlockTableRecord
  2
*Paper_Space
340
1E
 70
     0
280
     1
281
     0
  0
BLOCK_RECORD
  5
23
330
1
100
AcDbSymbolTableRecord
100
AcDbBlockTableRecord
  2
*Paper_Space0
340
26
 70
     0
280
     1
281
     0
  0
BLOCK_RECORD
  5
41
330
1
100
AcDbSymbolTableRecord
100
AcDbBlockTableRecord
  2
block 2
340
0
102
{BLKREFS
331
42
102
}
 70
     0
280
     1
281
     0
  0
BLOCK_RECORD
  5
46
330
1
100
AcDbSymbolTableRecord
100
AcDbBlockTableRecord
  2
block 3
340
0
102
{BLKREFS
331
47
102
}
 70
     0
280
     1
281
     0
  0
BLOCK_RECORD
  5
4B
330
1
100
AcDbSymbolTableRecord
100
AcDbBlockTableRecord
  2
block 4
340
0
102
{BLKREFS
331
4C
102
}
 70
     0
280
     1
281
     0
  0
BLOCK_RECORD
  5
50
330
1
100
AcDbSymbolTableRecord
100
AcDbBlockTableRecord
  2
block 5
340
0
102
{BLKREFS
331
51
102
}
 70
     0
280
     1
281
     0
  0
BLOCK_RECORD
  5
55
330
1
100
AcDbSymbolTableRecord
100
AcDbBlockTableRecord
  2
block 6
340
0
102
{BLKREFS
331
56
102
}
 70
     0
280
     1
281
     0
  0
BLOCK_RECORD
  5
5A
330
1
100
AcDbSymbolTableRecord
100
AcDbBlockTableRecord
  2
block 7
340
0
102
{BLKREFS
331
5B
102
}
 70
     0
280
     1
281
     0
  0
BLOCK_RECORD
  5
118
330
1
100
AcDbSymbolTableRecord
100
AcDbBlockTableRecord
  2
block 8
340
0
102
{BLKREFS
331
119
102
}
 70
     0
280
     1
281
     0
  0
BLOCK_RECORD
  5
11D
330
1
100
AcDbSymbolTableRecord
100
AcDbBlockTableRecord
  2
block 9
340
0
102
{BLKREFS
331
11E
102
}
 70
     0
280
     1
281
     0
  0
BLOCK_RECORD
  5
122
330
1
100
AcDbSymbolTableRecord
100
AcDbBlockTableRecord
  2
block 10
340
0
102
{BLKREFS
331
123
102
}
 70
     0
280
     1
281
     0
  0
ENDTAB
  0
ENDSEC
  0
SECTION
  2
BLOCKS
  0
BLOCK
  5
20
330
1F
100
AcDbEntity
  8
0
100
AcDbBlockBegin
  2
*Model_Space
 70
     0
 10
0.0
 20
0.0
 30
0.0
  3
*Model_Space
  1

  0
ENDBLK
  5
21
330
1F
100
AcDbEntity
  8
0
100
AcDbBlockEnd
  0
BLOCK
  5
1C
330
1B
100
AcDbEntity
 67
     1
  8
0
100
AcDbBlockBegin
  2
*Paper_Space
 70
     0
 10
0.0
 20
0.0
 30
0.0
  3
*Paper_Space
  1

  0
ENDBLK
  5
1D
330
1B
100
AcDbEntity
 67
     1
  8
0
100
AcDbBlockEnd
  0
BLOCK
  5
24
330
23
100
AcDbEntity
  8
0
100
AcDbBlockBegin
  2
*Paper_Space0
 70
     0
 10
0.0
 20
0.0
 30
0.0
  3
*Paper_Space0
  1

  0
ENDBLK
  5
25
330
23
100
AcDbEntity
  8
0
100
AcDbBlockEnd
  0
BLOCK
  5
43
330
41
100
AcDbEntity
  8
0
100
AcDbBlockBegin
  2
block 2
 70
     0
 10
0.0
 20
0.0
 30
0.0
  3
block 2
  1

  0
SPLINE
  5
45
330
41
100
AcDbEntity
  8
SCREWS
 62
     7
420
 16777215
370
     9
100
AcDbSpline
210
0.0
220
0.0
230
1.0
 70
    11
 71
     3
 72
    20
 73
    16
 74
     0
 42
0.0000000001
 43
0.0000000001
 12
1.0
 22
0.0
 32
0.0
 13
1.0
 23
0.0
 33
0.0
 40
0.0
 40
0.0
 40
0.0
 40
0.0
 40
1.0
 40
1.0
 40
1.0
 40
2.0
 40
2.0
 40
2.0
 40
3.0
 40
3.0
 40
3.0
 40
4.0
 40
4.0
 40
4.0
 40
5.0
 40
5.0
 40
5.0
 40
5.0
 10
1.833969502047567
 20
1.566835677766095
 30
0.0
 10
1.833969502047567
 20
1.588098640634573
 30
0.0
 10
1.851206539179076
 20
1.605335677766081
 30
0.0
 10
1.872469502047567
 20
1.605335677766081
 30
0.0
 10
1.893732464916057
 20
1.605335677766081
 30
0.0
 10
1.910969502047566
 20
1.588098640634573
 30
0.0
 10
1.910969502047566
 20
1.566835677766095
 30
0.0
 10
1.910969502047566
 20
1.545572714897617
 30
0.0
 10
1.893732464916057
 20
1.528335677766108
 30
0.0
 10
1.872469502047567
 20
1.528335677766108
 30
0.0
 10
1.851206539179076
 20
1.528335677766108
 30
0.0
 10
1.833969502047567
 20
1.545572714897617
 30
0.0
 10
1.833969502047567
 20
1.566835677766095
 30
0.0
 10
1.833969502047567
 20
1.566835677766095
 30
0.0
 10
1.833969502047567
 20
1.566835677766095
 30
0.0
 10
1.833969502047567
 20
1.566835677766095
 30
0.0
  0
ENDBLK
  5
44
330
41
100
AcDbEntity
  8
0
100
AcDbBlockEnd
  0
BLOCK
  5
48
330
46
100
AcDbEntity
  8
0
100
AcDbBlockBegin
  2
block 3
 70
     0
 10
0.0
 20
0.0
 30
0.0
  3
block 3
  1

  0
SPLINE
  5
4A
330
46
100
AcDbEntity
  8
SCREWS
 62
     7
420
 16777215
370
     9
100
AcDbSpline
210
0.0
220
0.0
230
1.0
 70
    11
 71
     3
 72
    20
 73
    16
 74
     0
 42
0.0000000001
 43
0.0000000001
 12
1.0
 22
0.0
 32
0.0
 13
1.0
 23
0.0
 33
0.0
 40
0.0
 40
0.0
 40
0.0
 40
0.0
 40
1.0
 40
1.0
 40
1.0
 40
2.0
 40
2.0
 40
2.0
 40
3.0
 40
3.0
 40
3.0
 40
4.0
 40
4.0
 40
4.0
 40
5.0
 40
5.0
 40
5.0
 40
5.0
 10
5.9350660676605
 20
1.69501265928587
 30
0.0
 10
5.9350660676605
 20
1.716275622154348
 30
0.0
 10
5.952303104792009
 20
1.733512659285882
 30
0.0
 10
5.973566067660512
 20
1.733512659285882
 30
0.0
 10
5.99482903052899
 20
1.733512659285882
 30
0.0
 10
6.012066067660523
 20
1.716275622154348
 30
0.0
 10
6.012066067660523
 20
1.69501265928587
 30
0.0
 10
6.012066067660523
 20
1.673749696417392
 30
0.0
 10
5.99482903052899
 20
1.656512659285858
 30
0.0
 10
5.973566067660512
 20
1.656512659285858
 30
0.0
 10
5.952303104792009
 20
1.656512659285858
 30
0.0
 10
5.9350660676605
 20
1.673749696417392
 30
0.0
 10
5.9350660676605
 20
1.69501265928587
 30
0.0
 10
5.9350660676605
 20
1.69501265928587
 30
0.0
 10
5.9350660676605
 20
1.69501265928587
 30
0.0
 10
5.9350660676605
 20
1.69501265928587
 30
0.0
  0
ENDBLK
  5
49
330
46
100
AcDbEntity
  8
0
100
AcDbBlockEnd
  0
BLOCK
  5
4D
330
4B
100
AcDbEntity
  8
0
100
AcDbBlockBegin
  2
block 4
 70
     0
 10
0.0
 20
0.0
 30
0.0
  3
block 4
  1

  0
SPLINE
  5
4F
330
4B
100
AcDbEntity
  8
SCREWS
 62
     7
420
 16777215
370
     9
100
AcDbSpline
210
0.0
220
0.0
230
1.0
 70
    11
 71
     3
 72
    20
 73
    16
 74
     0
 42
0.0000000001
 43
0.0000000001
 12
1.0
 22
0.0
 32
0.0
 13
1.0
 23
0.0
 33
0.0
 40
0.0
 40
0.0
 40
0.0
 40
0.0
 40
1.0
 40
1.0
 40
1.0
 40
2.0
 40
2.0
 40
2.0
 40
3.0
 40
3.0
 40
3.0
 40
4.0
 40
4.0
 40
4.0
 40
5.0
 40
5.0
 40
5.0
 40
5.0
 10
7.031896473850237
 20
2.949146900590525
 30
0.0
 10
7.031896473850237
 20
2.970409863459003
 30
0.0
 10
7.049133510981745
 20
2.987646900590537
 30
0.0
 10
7.070396473850248
 20
2.987646900590537
 30
0.0
 10
7.091659436718727
 20
2.987646900590537
 30
0.0
 10
7.10889647385026
 20
2.970409863459003
 30
0.0
 10
7.10889647385026
 20
2.949146900590525
 30
0.0
 10
7.10889647385026
 20
2.927883937722047
 30
0.0
 10
7.091659436718727
 20
2.910646900590513
 30
0.0
 10
7.070396473850248
 20
2.910646900590513
 30
0.0
 10
7.049133510981745
 20
2.910646900590513
 30
0.0
 10
7.031896473850237
 20
2.927883937722047
 30
0.0
 10
7.031896473850237
 20
2.949146900590525
 30
0.0
 10
7.031896473850237
 20
2.949146900590525
 30
0.0
 10
7.031896473850237
 20
2.949146900590525
 30
0.0
 10
7.031896473850237
 20
2.949146900590525
 30
0.0
  0
ENDBLK
  5
4E
330
4B
100
AcDbEntity
  8
0
100
AcDbBlockEnd
  0
BLOCK
  5
52
330
50
100
AcDbEntity
  8
0
100
AcDbBlockBegin
  2
block 5
 70
     0
 10
0.0
 20
0.0
 30
0.0
  3
block 5
  1

  0
SPLINE
  5
54
330
50
100
AcDbEntity
  8
SCREWS
 62
     7
420
 16777215
370
     9
100
AcDbSpline
210
0.0
220
0.0
230
1.0
 70
    11
 71
     3
 72
    20
 73
    16
 74
     0
 42
0.0000000001
 43
0.0000000001
 12
1.0
 22
0.0
 32
0.0
 13
1.0
 23
0.0
 33
0.0
 40
0.0
 40
0.0
 40
0.0
 40
0.0
 40
1.0
 40
1.0
 40
1.0
 40
2.0
 40
2.0
 40
2.0
 40
3.0
 40
3.0
 40
3.0
 40
4.0
 40
4.0
 40
4.0
 40
5.0
 40
5.0
 40
5.0
 40
5.0
 10
4.988397604655725
 20
3.674640028620236
 30
0.0
 10
4.988397604655725
 20
3.69590299148874
 30
0.0
 10
5.005634641787259
 20
3.713140028620223
 30
0.0
 10
5.026897604655738
 20
3.713140028620223
 30
0.0
 10
5.048160567524215
 20
3.713140028620223
 30
0.0
 10
5.065397604655749
 20
3.69590299148874
 30
0.0
 10
5.065397604655749
 20
3.674640028620236
 30
0.0
 10
5.065397604655749
 20
3.653377065751733
 30
0.0
 10
5.048160567524215
 20
3.636140028620225
 30
0.0
 10
5.026897604655738
 20
3.636140028620225
 30
0.0
 10
5.005634641787259
 20
3.636140028620225
 30
0.0
 10
4.988397604655725
 20
3.653377065751733
 30
0.0
 10
4.988397604655725
 20
3.674640028620236
 30
0.0
 10
4.988397604655725
 20
3.674640028620236
 30
0.0
 10
4.988397604655725
 20
3.674640028620236
 30
0.0
 10
4.988397604655725
 20
3.674640028620236
 30
0.0
  0
ENDBLK
  5
53
330
50
100
AcDbEntity
  8
0
100
AcDbBlockEnd
  0
BLOCK
  5
57
330
55
100
AcDbEntity
  8
0
100
AcDbBlockBegin
  2
block 6
 70
     0
 10
0.0
 20
0.0
 30
0.0
  3
block 6
  1

  0
SPLINE
  5
59
330
55
100
AcDbEntity
  8
SCREWS
 62
     7
420
 16777215
370
     9
100
AcDbSpline
210
0.0
220
0.0
230
1.0
 70
    11
 71
     3
 72
    20
 73
    16
 74
     0
 42
0.0000000001
 43
0.0000000001
 12
1.0
 22
0.0
 32
0.0
 13
1.0
 23
0.0
 33
0.0
 40
0.0
 40
0.0
 40
0.0
 40
0.0
 40
1.0
 40
1.0
 40
1.0
 40
2.0
 40
2.0
 40
2.0
 40
3.0
 40
3.0
 40
3.0
 40
4.0
 40
4.0
 40
4.0
 40
5.0
 40
5.0
 40
5.0
 40
5.0
 10
3.521476010116304
 20
3.674640028620236
 30
0.0
 10
3.521476010116304
 20
3.695902991488714
 30
0.0
 10
3.538713047247799
 20
3.713140028620223
 30
0.0
 10
3.559976010116303
 20
3.713140028620223
 30
0.0
 10
3.581238972984794
 20
3.713140028620223
 30
0.0
 10
3.598476010116302
 20
3.695902991488714
 30
0.0
 10
3.598476010116302
 20
3.674640028620236
 30
0.0
 10
3.598476010116302
 20
3.653377065751758
 30
0.0
 10
3.581238972984794
 20
3.63614002862025
 30
0.0
 10
3.559976010116303
 20
3.63614002862025
 30
0.0
 10
3.538713047247799
 20
3.63614002862025
 30
0.0
 10
3.521476010116304
 20
3.653377065751758
 30
0.0
 10
3.521476010116304
 20
3.674640028620236
 30
0.0
 10
3.521476010116304
 20
3.674640028620236
 30
0.0
 10
3.521476010116304
 20
3.674640028620236
 30
0.0
 10
3.521476010116304
 20
3.674640028620236
 30
0.0
  0
ENDBLK
  5
58
330
55
100
AcDbEntity
  8
0
100
AcDbBlockEnd
  0
BLOCK
  5
5C
330
5A
100
AcDbEntity
  8
0
100
AcDbBlockBegin
  2
block 7
 70
     0
 10
0.0
 20
0.0
 30
0.0
  3
block 7
  1

  0
SPLINE
  5
5E
330
5A
100
AcDbEntity
  8
SCREWS
 62
     7
420
 16777215
370
     9
100
AcDbSpline
210
0.0
220
0.0
230
1.0
 70
    11
 71
     3
 72
    20
 73
    16
 74
     0
 42
0.0000000001
 43
0.0000000001
 12
1.0
 22
0.0
 32
0.0
 13
1.0
 23
0.0
 33
0.0
 40
0.0
 40
0.0
 40
0.0
 40
0.0
 40
1.0
 40
1.0
 40
1.0
 40
2.0
 40
2.0
 40
2.0
 40
3.0
 40
3.0
 40
3.0
 40
4.0
 40
4.0
 40
4.0
 40
5.0
 40
5.0
 40
5.0
 40
5.0
 10
1.742479679867162
 20
3.189659502957006
 30
0.0
 10
1.742479679867162
 20
3.210922465825484
 30
0.0
 10
1.759716716998671
 20
3.228159502957017
 30
0.0
 10
1.780979679867162
 20
3.228159502957017
 30
0.0
 10
1.80224264273564
 20
3.228159502957017
 30
0.0
 10
1.819479679867161
 20
3.210922465825484
 30
0.0
 10
1.819479679867161
 20
3.189659502957006
 30
0.0
 10
1.819479679867161
 20
3.168396540088502
 30
0.0
 10
1.80224264273564
 20
3.151159502956994
 30
0.0
 10
1.780979679867162
 20
3.151159502956994
 30
0.0
 10
1.759716716998671
 20
3.151159502956994
 30
0.0
 10
1.742479679867162
 20
3.168396540088502
 30
0.0
 10
1.742479679867162
 20
3.189659502957006
 30
0.0
 10
1.742479679867162
 20
3.189659502957006
 30
0.0
 10
1.742479679867162
 20
3.189659502957006
 30
0.0
 10
1.742479679867162
 20
3.189659502957006
 30
0.0
  0
ENDBLK
  5
5D
330
5A
100
AcDbEntity
  8
0
100
AcDbBlockEnd
  0
BLOCK
  5
11A
330
118
100
AcDbEntity
  8
0
100
AcDbBlockBegin
  2
block 8
 70
     0
 10
0.0
 20
0.0
 30
0.0
  3
block 8
  1

  0
SPLINE
  5
11C
330
118
100
AcDbEntity
  8
CUTOUTS
 62
     7
420
 16777215
370
     9
100
AcDbSpline
210
0.0
220
0.0
230
1.0
 70
    11
 71
     3
 72
    20
 73
    16
 74
     0
 42
0.0000000001
 43
0.0000000001
 12
1.0
 22
0.0
 32
0.0
 13
1.0
 23
0.0
 33
0.0
 40
0.0
 40
0.0
 40
0.0
 40
0.0
 40
1.0
 40
1.0
 40
1.0
 40
2.0
 40
2.0
 40
2.0
 40
3.0
 40
3.0
 40
3.0
 40
4.0
 40
4.0
 40
4.0
 40
5.0
 40
5.0
 40
5.0
 40
5.0
 10
5.565045880717181
 20
2.588165113560763
 30
0.0
 10
5.565045880717181
 20
2.701658792657276
 30
0.0
 10
5.657050686109465
 20
2.793663598049534
 30
0.0
 10
5.770544365205953
 20
2.793663598049534
 30
0.0
 10
5.884038044302441
 20
2.793663598049534
 30
0.0
 10
5.976042849694724
 20
2.701658792657276
 30
0.0
 10
5.976042849694724
 20
2.588165113560763
 30
0.0
 10
5.976042849694724
 20
2.474671434464299
 30
0.0
 10
5.884038044302441
 20
2.382666629071991
 30
0.0
 10
5.770544365205953
 20
2.382666629071991
 30
0.0
 10
5.657050686109465
 20
2.382666629071991
 30
0.0
 10
5.565045880717181
 20
2.474671434464299
 30
0.0
 10
5.565045880717181
 20
2.588165113560763
 30
0.0
 10
5.565045880717181
 20
2.588165113560763
 30
0.0
 10
5.565045880717181
 20
2.588165113560763
 30
0.0
 10
5.565045880717181
 20
2.588165113560763
 30
0.0
  0
ENDBLK
  5
11B
330
118
100
AcDbEntity
  8
0
100
AcDbBlockEnd
  0
BLOCK
  5
11F
330
11D
100
AcDbEntity
  8
0
100
AcDbBlockBegin
  2
block 9
 70
     0
 10
0.0
 20
0.0
 30
0.0
  3
block 9
  1

  0
SPLINE
  5
121
330
11D
100
AcDbEntity
  8
CUTOUTS
 62
     7
420
 16777215
370
     9
100
AcDbSpline
210
0.0
220
0.0
230
1.0
 70
    11
 71
     3
 72
    20
 73
    16
 74
     0
 42
0.0000000001
 43
0.0000000001
 12
1.0
 22
0.0
 32
0.0
 13
1.0
 23
0.0
 33
0.0
 40
0.0
 40
0.0
 40
0.0
 40
0.0
 40
1.0
 40
1.0
 40
1.0
 40
2.0
 40
2.0
 40
2.0
 40
3.0
 40
3.0
 40
3.0
 40
4.0
 40
4.0
 40
4.0
 40
5.0
 40
5.0
 40
5.0
 40
5.0
 10
6.186689004720417
 20
2.495611074228741
 30
0.0
 10
6.186689004720417
 20
2.60910475332523
 30
0.0
 10
6.2786938101127
 20
2.701109558717538
 30
0.0
 10
6.392187489209189
 20
2.701109558717538
 30
0.0
 10
6.505681168305677
 20
2.701109558717538
 30
0.0
 10
6.59768597369796
 20
2.60910475332523
 30
0.0
 10
6.59768597369796
 20
2.495611074228741
 30
0.0
 10
6.59768597369796
 20
2.382117395132278
 30
0.0
 10
6.505681168305677
 20
2.290112589739995
 30
0.0
 10
6.392187489209189
 20
2.290112589739995
 30
0.0
 10
6.2786938101127
 20
2.290112589739995
 30
0.0
 10
6.186689004720417
 20
2.382117395132278
 30
0.0
 10
6.186689004720417
 20
2.495611074228741
 30
0.0
 10
6.186689004720417
 20
2.495611074228741
 30
0.0
 10
6.186689004720417
 20
2.495611074228741
 30
0.0
 10
6.186689004720417
 20
2.495611074228741
 30
0.0
  0
ENDBLK
  5
120
330
11D
100
AcDbEntity
  8
0
100
AcDbBlockEnd
  0
BLOCK
  5
124
330
122
100
AcDbEntity
  8
0
100
AcDbBlockBegin
  2
block 10
 70
     0
 10
0.0
 20
0.0
 30
0.0
  3
block 10
  1

  0
SPLINE
  5
126
330
122
100
AcDbEntity
  8
CUTOUTS
 62
     7
420
 16777215
370
     9
100
AcDbSpline
210
0.0
220
0.0
230
1.0
 70
    11
 71
     3
 72
    65
 73
    61
 74
     0
 42
0.0000000001
 43
0.0000000001
 12
1.0
 22
0.0
 32
0.0
 13
1.0
 23
0.0
 33
0.0
 40
0.0
 40
0.0
 40
0.0
 40
0.0
 40
1.0
 40
1.0
 40
1.0
 40
2.0
 40
2.0
 40
2.0
 40
3.0
 40
3.0
 40
3.0
 40
4.0
 40
4.0
 40
4.0
 40
5.0
 40
5.0
 40
5.0
 40
6.0
 40
6.0
 40
6.0
 40
7.0
 40
7.0
 40
7.0
 40
8.0
 40
8.0
 40
8.0
 40
9.0
 40
9.0
 40
9.0
 40
10.0
 40
10.0
 40
10.0
 40
11.0
 40
11.0
 40
11.0
 40
12.0
 40
12.0
 40
12.0
 40
13.0
 40
13.0
 40
13.0
 40
14.0
 40
14.0
 40
14.0
 40
15.0
 40
15.0
 40
15.0
 40
16.0
 40
16.0
 40
16.0
 40
17.0
 40
17.0
 40
17.0
 40
18.0
 40
18.0
 40
18.0
 40
19.0
 40
19.0
 40
19.0
 40
20.0
 40
20.0
 40
20.0
 40
20.0
 10
2.648913662923355
 20
2.302261325545411
 30
0.0
 10
2.648913662923355
 20
2.293631939969348
 30
0.0
 10
2.641918163729921
 20
2.286636440775914
 30
0.0
 10
2.633288778153832
 20
2.286636440775914
 30
0.0
 10
2.633288778153832
 20
2.286636440775914
 30
0.0
 10
2.372415702041887
 20
2.286636440775914
 30
0.0
 10
2.372415702041887
 20
2.286636440775914
 30
0.0
 10
2.372415702041887
 20
2.286636440775914
 30
0.0
 10
2.372415702041887
 20
2.025763364663943
 30
0.0
 10
2.372415702041887
 20
2.025763364663943
 30
0.0
 10
2.372415702041887
 20
2.017133979087854
 30
0.0
 10
2.365420202848428
 20
2.010138479894421
 30
0.0
 10
2.356790817272364
 20
2.010138479894421
 30
0.0
 10
2.356790817272364
 20
2.010138479894421
 30
0.0
 10
2.066042961481066
 20
2.010138479894421
 30
0.0
 10
2.066042961481066
 20
2.010138479894421
 30
0.0
 10
2.057413575905002
 20
2.010138479894421
 30
0.0
 10
2.050418076711543
 20
2.017133979087854
 30
0.0
 10
2.050418076711543
 20
2.025763364663943
 30
0.0
 10
2.050418076711543
 20
2.025763364663943
 30
0.0
 10
2.050418076711543
 20
2.286636440775914
 30
0.0
 10
2.050418076711543
 20
2.286636440775914
 30
0.0
 10
2.050418076711543
 20
2.286636440775914
 30
0.0
 10
1.789545000599598
 20
2.286636440775914
 30
0.0
 10
1.789545000599598
 20
2.286636440775914
 30
0.0
 10
1.780915615023509
 20
2.286636440775914
 30
0.0
 10
1.773920115830075
 20
2.293631939969348
 30
0.0
 10
1.773920115830075
 20
2.302261325545411
 30
0.0
 10
1.773920115830075
 20
2.302261325545411
 30
0.0
 10
1.773920115830075
 20
2.593009181336735
 30
0.0
 10
1.773920115830075
 20
2.593009181336735
 30
0.0
 10
1.773920115830075
 20
2.601638566912798
 30
0.0
 10
1.780915615023509
 20
2.608634066106232
 30
0.0
 10
1.789545000599598
 20
2.608634066106232
 30
0.0
 10
1.789545000599598
 20
2.608634066106232
 30
0.0
 10
2.050418076711543
 20
2.608634066106232
 30
0.0
 10
2.050418076711543
 20
2.608634066106232
 30
0.0
 10
2.050418076711543
 20
2.608634066106232
 30
0.0
 10
2.050418076711543
 20
2.869507142218203
 30
0.0
 10
2.050418076711543
 20
2.869507142218203
 30
0.0
 10
2.050418076711543
 20
2.878136527794292
 30
0.0
 10
2.057413575905002
 20
2.885132026987725
 30
0.0
 10
2.066042961481066
 20
2.885132026987725
 30
0.0
 10
2.066042961481066
 20
2.885132026987725
 30
0.0
 10
2.356790817272364
 20
2.885132026987725
 30
0.0
 10
2.356790817272364
 20
2.885132026987725
 30
0.0
 10
2.365420202848428
 20
2.885132026987725
 30
0.0
 10
2.372415702041887
 20
2.878136527794292
 30
0.0
 10
2.372415702041887
 20
2.869507142218203
 30
0.0
 10
2.372415702041887
 20
2.869507142218203
 30
0.0
 10
2.372415702041887
 20
2.608634066106232
 30
0.0
 10
2.372415702041887
 20
2.608634066106232
 30
0.0
 10
2.372415702041887
 20
2.608634066106232
 30
0.0
 10
2.633288778153832
 20
2.608634066106232
 30
0.0
 10
2.633288778153832
 20
2.608634066106232
 30
0.0
 10
2.641918163729921
 20
2.608634066106232
 30
0.0
 10
2.648913662923355
 20
2.601638566912798
 30
0.0
 10
2.648913662923355
 20
2.593009181336735
 30
0.0
 10
2.648913662923355
 20
2.593009181336735
 30
0.0
 10
2.648913662923355
 20
2.302261325545411
 30
0.0
 10
2.648913662923355
 20
2.302261325545411
 30
0.0
  0
ENDBLK
  5
125
330
122
100
AcDbEntity
  8
0
100
AcDbBlockEnd
  0
ENDSEC
  0
SECTION
  2
ENTITIES
  0
INSERT
  5
42
330
1F
100
AcDbEntity
  8
SCREWS
100
AcDbBlockReference
  2
block 2
 10
0.0
 20
0.0
 30
0.0
  0
INSERT
  5
47
330
1F
100
AcDbEntity
  8
SCREWS
100
AcDbBlockReference
  2
block 3
 10
0.0
 20
0.0
 30
0.0
  0
INSERT
  5
4C
330
1F
100
AcDbEntity
  8
SCREWS
100
AcDbBlockReference
  2
block 4
 10
0.0
 20
0.0
 30
0.0
  0
INSERT
  5
51
330
1F
100
AcDbEntity
  8
SCREWS
100
AcDbBlockReference
  2
block 5
 10
0.0
 20
0.0
 30
0.0
  0
INSERT
  5
56
330
1F
100
AcDbEntity
  8
SCREWS
100
AcDbBlockReference
  2
block 6
 10
0.0
 20
0.0
 30
0.0
  0
INSERT
  5
5B
330
1F
100
AcDbEntity
  8
SCREWS
100
AcDbBlockReference
  2
block 7
 10
0.0
 20
0.0
 30
0.0
  0
POLYLINE
  5
60
330
1F
100
AcDbEntity
  8
COPPER
 62
     7
420
 16777215
370
     9
100
AcDb2dPolyline
 66
     1
 10
0.0
 20
0.0
 30
0.0
  0
VERTEX
  5
61
330
60
100
AcDbEntity
  8
COPPER
 62
     7
420
 16777215
370
     9
100
AcDbVertex
100
AcDb2dVertex
 10
5.152444173019072
 20
2.871227574873551
 30
0.0
  0
VERTEX
  5
62
330
60
100
AcDbEntity
  8
COPPER
 62
     7
420
 16777215
370
     9
100
AcDbVertex
100
AcDb2dVertex
 10
4.900385167473612
 20
2.928332236205279
 30
0.0
  0
VERTEX
  5
63
330
60
100
AcDbEntity
  8
COPPER
 62
     7
420
 16777215
370
     9
100
AcDbVertex
100
AcDb2dVertex
 10
4.899598458711958
 20
3.167133594158965
 30
0.0
  0
VERTEX
  5
64
330
60
100
AcDbEntity
  8
COPPER
 62
     7
420
 16777215
370
     9
100
AcDbVertex
100
AcDb2dVertex
 10
4.844217937986362
 20
3.166616019198904
 30
0.0
  0
VERTEX
  5
65
330
60
100
AcDbEntity
  8
COPPER
 62
     7
420
 16777215
370
     9
100
AcDbVertex
100
AcDb2dVertex
 10
5.017874683405479
 20
3.402112626022699
 30
0.0
  0
VERTEX
  5
66
330
60
100
AcDbEntity
  8
COPPER
 62
     7
420
 16777215
370
     9
100
AcDbVertex
100
AcDb2dVertex
 10
5.43969827584811
 20
3.417055530541802
 30
0.0
  0
VERTEX
  5
67
330
60
100
AcDbEntity
  8
COPPER
 62
     7
420
 16777215
370
     9
100
AcDbVertex
100
AcDb2dVertex
 10
5.555729531436251
 20
3.167187255365838
 30
0.0
  0
VERTEX
  5
68
330
60
100
AcDbEntity
  8
COPPER
 62
     7
420
 16777215
370
     9
100
AcDbVertex
100
AcDb2dVertex
 10
5.490373489714178
 20
2.949146900590525
 30
0.0
  0
VERTEX
  5
69
330
60
100
AcDbEntity
  8
COPPER
 62
     7
420
 16777215
370
     9
100
AcDbVertex
100
AcDb2dVertex
 10
5.152444173019072
 20
2.871227574873551
 30
0.0
  0
SEQEND
  5
6A
330
60
100
AcDbEntity
  8
COPPER
 62
     7
420
 16777215
370
     9
  0
POLYLINE
  5
6B
330
1F
100
AcDbEntity
  8
COPPER
 62
     7
420
 16777215
370
     9
100
AcDb2dPolyline
 66
     1
 10
0.0
 20
0.0
 30
0.0
  0
VERTEX
  5
6C
330
6B
100
AcDbEntity
  8
COPPER
 62
     7
420
 16777215
370
     9
100
AcDbVertex
100
AcDb2dVertex
 10
3.178930850339611
 20
3.0429156037464
 30
0.0
  0
VERTEX
  5
6D
330
6B
100
AcDbEntity
  8
COPPER
 62
     7
420
 16777215
370
     9
100
AcDbVertex
100
AcDb2dVertex
 10
3.136418737050159
 20
2.833700362271379
 30
0.0
  0
VERTEX
  5
6E
330
6B
100
AcDbEntity
  8
COPPER
 62
     7
420
 16777215
370
     9
100
AcDbVertex
100
AcDb2dVertex
 10
2.889145844057894
 20
2.793663598049534
 30
0.0
  0
VERTEX
  5
6F
330
6B
100
AcDbEntity
  8
COPPER
 62
     7
420
 16777215
370
     9
100
AcDbVertex
100
AcDb2dVertex
 10
2.796147184139474
 20
3.076628606965187
 30
0.0
  0
VERTEX
  5
70
330
6B
100
AcDbEntity
  8
COPPER
 62
     7
420
 16777215
370
     9
100
AcDbVertex
100
AcDb2dVertex
 10
3.093802543748274
 20
3.188552997977872
 30
0.0
  0
VERTEX
  5
71
330
6B
100
AcDbEntity
  8
COPPER
 62
     7
420
 16777215
370
     9
100
AcDbVertex
100
AcDb2dVertex
 10
3.178930850339611
 20
3.0429156037464
 30
0.0
  0
SEQEND
  5
72
330
6B
100
AcDbEntity
  8
COPPER
 62
     7
420
 16777215
370
     9
  0
POLYLINE
  5
73
330
1F
100
AcDbEntity
  8
COPPER
 62
     7
420
 16777215
370
     9
100
AcDb2dPolyline
 66
     1
 10
0.0
 20
0.0
 30
0.0
  0
VERTEX
  5
74
330
73
100
AcDbEntity
  8
COPPER
 62
     7
420
 16777215
370
     9
100
AcDbVertex
100
AcDb2dVertex
 10
5.654007504224359
 20
1.770865873020436
 30
0.0
  0
VERTEX
  5
75
330
73
100
AcDbEntity
  8
COPPER
 62
     7
420
 16777215
370
     9
100
AcDbVertex
100
AcDb2dVertex
 10
5.614397489103567
 20
1.948344182693088
 30
0.0
  0
VERTEX
  5
76
330
73
100
AcDbEntity
  8
COPPER
 62
     7
420
 16777215
370
     9
100
AcDbVertex
100
AcDb2dVertex
 10
5.493379179610226
 20
2.490583940562829
 30
0.0
  0
VERTEX
  5
77
330
73
100
AcDbEntity
  8
COPPER
 62
     7
420
 16777215
370
     9
100
AcDbVertex
100
AcDb2dVertex
 10
5.457530439064663
 20
2.651209324232039
 30
0.0
  0
VERTEX
  5
78
330
73
100
AcDbEntity
  8
COPPER
 62
     7
420
 16777215
370
     9
100
AcDbVertex
100
AcDb2dVertex
 10
5.422618302166383
 20
2.807638121970942
 30
0.0
  0
VERTEX
  5
79
330
73
100
AcDbEntity
  8
COPPER
 62
     7
420
 16777215
370
     9
100
AcDbVertex
100
AcDb2dVertex
 10
5.894124086273854
 20
2.938126553603928
 30
0.0
  0
VERTEX
  5
7A
330
73
100
AcDbEntity
  8
COPPER
 62
     7
420
 16777215
370
     9
100
AcDbVertex
100
AcDb2dVertex
 10
6.068565367059212
 20
2.986402884264054
 30
0.0
  0
VERTEX
  5
7B
330
73
100
AcDbEntity
  8
COPPER
 62
     7
420
 16777215
370
     9
100
AcDbVertex
100
AcDb2dVertex
 10
6.137953873160035
 20
2.973990496384785
 30
0.0
  0
VERTEX
  5
7C
330
73
100
AcDbEntity
  8
COPPER
 62
     7
420
 16777215
370
     9
100
AcDbVertex
100
AcDb2dVertex
 10
6.599583761325347
 20
2.891412998315597
 30
0.0
  0
VERTEX
  5
7D
330
73
100
AcDbEntity
  8
COPPER
 62
     7
420
 16777215
370
     9
100
AcDbVertex
100
AcDb2dVertex
 10
6.720827537374943
 20
2.393211084416761
 30
0.0
  0
VERTEX
  5
7E
330
73
100
AcDbEntity
  8
COPPER
 62
     7
420
 16777215
370
     9
100
AcDbVertex
100
AcDb2dVertex
 10
6.825624329979822
 20
1.962591349966639
 30
0.0
  0
VERTEX
  5
7F
330
73
100
AcDbEntity
  8
COPPER
 62
     7
420
 16777215
370
     9
100
AcDbVertex
100
AcDb2dVertex
 10
6.867623721157643
 20
1.79001195868457
 30
0.0
  0
SEQEND
  5
80
330
73
100
AcDbEntity
  8
COPPER
 62
     7
420
 16777215
370
     9
  0
POLYLINE
  5
81
330
1F
100
AcDbEntity
  8
COPPER
 62
     7
420
 16777215
370
     9
100
AcDb2dPolyline
 66
     1
 10
0.0
 20
0.0
 30
0.0
  0
VERTEX
  5
82
330
81
100
AcDbEntity
  8
COPPER
 62
     7
420
 16777215
370
     9
100
AcDbVertex
100
AcDb2dVertex
 10
1.290692296651766
 20
2.588165113560763
 30
0.0
  0
VERTEX
  5
83
330
81
100
AcDbEntity
  8
COPPER
 62
     7
420
 16777215
370
     9
100
AcDbVertex
100
AcDb2dVertex
 10
1.967468801446279
 20
1.846815432220031
 30
0.0
  0
VERTEX
  5
84
330
81
100
AcDbEntity
  8
COPPER
 62
     7
420
 16777215
370
     9
100
AcDbVertex
100
AcDb2dVertex
 10
2.581131771479199
 20
1.846815432220031
 30
0.0
  0
VERTEX
  5
85
330
81
100
AcDbEntity
  8
COPPER
 62
     7
420
 16777215
370
     9
100
AcDbVertex
100
AcDb2dVertex
 10
2.970337595982578
 20
2.455117050159869
 30
0.0
  0
VERTEX
  5
86
330
81
100
AcDbEntity
  8
COPPER
 62
     7
420
 16777215
370
     9
100
AcDbVertex
100
AcDb2dVertex
 10
2.050418076711543
 20
3.308686416652967
 30
0.0
  0
SEQEND
  5
87
330
81
100
AcDbEntity
  8
COPPER
 62
     7
420
 16777215
370
     9
  0
POLYLINE
  5
88
330
1F
100
AcDbEntity
  8
COPPER
 62
     7
420
 16777215
370
     9
100
AcDb2dPolyline
 66
     1
 10
0.0
 20
0.0
 30
0.0
  0
VERTEX
  5
89
330
88
100
AcDbEntity
  8
COPPER
 62
     7
420
 16777215
370
     9
100
AcDbVertex
100
AcDb2dVertex
 10
4.749305555555566
 20
3.343194444444432
 30
0.0
  0
VERTEX
  5
8A
330
88
100
AcDbEntity
  8
COPPER
 62
     7
420
 16777215
370
     9
100
AcDbVertex
100
AcDb2dVertex
 10
4.90625
 20
3.540972222222232
 30
0.0
  0
VERTEX
  5
8B
330
88
100
AcDbEntity
  8
COPPER
 62
     7
420
 16777215
370
     9
100
AcDbVertex
100
AcDb2dVertex
 10
5.587222222222231
 20
3.564444444444436
 30
0.0
  0
VERTEX
  5
8C
330
88
100
AcDbEntity
  8
COPPER
 62
     7
420
 16777215
370
     9
100
AcDbVertex
100
AcDb2dVertex
 10
5.750138888888892
 20
3.172361111111109
 30
0.0
  0
VERTEX
  5
8D
330
88
100
AcDbEntity
  8
COPPER
 62
     7
420
 16777215
370
     9
100
AcDbVertex
100
AcDb2dVertex
 10
5.659861111111113
 20
2.873333333333322
 30
0.0
  0
SEQEND
  5
8E
330
88
100
AcDbEntity
  8
COPPER
 62
     7
420
 16777215
370
     9
  0
POLYLINE
  5
8F
330
1F
100
AcDbEntity
  8
COPPER
 62
     7
420
 16777215
370
     9
100
AcDb2dPolyline
 66
     1
 10
0.0
 20
0.0
 30
0.0
  0
VERTEX
  5
90
330
8F
100
AcDbEntity
  8
COPPER
 62
     7
420
 16777215
370
     9
100
AcDbVertex
100
AcDb2dVertex
 10
4.69819444444445
 20
2.927222222222225
 30
0.0
  0
VERTEX
  5
91
330
8F
100
AcDbEntity
  8
COPPER
 62
     7
420
 16777215
370
     9
100
AcDbVertex
100
AcDb2dVertex
 10
4.717222222222214
 20
2.797638888888893
 30
0.0
  0
VERTEX
  5
92
330
8F
100
AcDbEntity
  8
COPPER
 62
     7
420
 16777215
370
     9
100
AcDbVertex
100
AcDb2dVertex
 10
5.117361111111121
 20
2.703333333333325
 30
0.0
  0
VERTEX
  5
93
330
8F
100
AcDbEntity
  8
COPPER
 62
     7
420
 16777215
370
     9
100
AcDbVertex
100
AcDb2dVertex
 10
5.422638888888892
 20
2.783055555555544
 30
0.0
  0
SEQEND
  5
94
330
8F
100
AcDbEntity
  8
COPPER
 62
     7
420
 16777215
370
     9
  0
POLYLINE
  5
95
330
1F
100
AcDbEntity
  8
COPPER
 62
     7
420
 16777215
370
     9
100
AcDb2dPolyline
 66
     1
 10
0.0
 20
0.0
 30
0.0
  0
VERTEX
  5
96
330
95
100
AcDbEntity
  8
COPPER
 62
     7
420
 16777215
370
     9
100
AcDbVertex
100
AcDb2dVertex
 10
5.416388888888883
 20
3.718055555555566
 30
0.0
  0
VERTEX
  5
97
330
95
100
AcDbEntity
  8
COPPER
 62
     7
420
 16777215
370
     9
100
AcDbVertex
100
AcDb2dVertex
 10
5.41583333333334
 20
3.718055555555566
 30
0.0
  0
VERTEX
  5
98
330
95
100
AcDbEntity
  8
COPPER
 62
     7
420
 16777215
370
     9
100
AcDbVertex
100
AcDb2dVertex
 10
5.114583333333333
 20
3.711249999999988
 30
0.0
  0
VERTEX
  5
99
330
95
100
AcDbEntity
  8
COPPER
 62
     7
420
 16777215
370
     9
100
AcDbVertex
100
AcDb2dVertex
 10
4.937777777777783
 20
3.707222222222223
 30
0.0
  0
VERTEX
  5
9A
330
95
100
AcDbEntity
  8
COPPER
 62
     7
420
 16777215
370
     9
100
AcDbVertex
100
AcDb2dVertex
 10
4.802916666666659
 20
3.704166666666676
 30
0.0
  0
VERTEX
  5
9B
330
95
100
AcDbEntity
  8
COPPER
 62
     7
420
 16777215
370
     9
100
AcDbVertex
100
AcDb2dVertex
 10
4.555138888888879
 20
3.397222222222227
 30
0.0
  0
SEQEND
  5
9C
330
95
100
AcDbEntity
  8
COPPER
 62
     7
420
 16777215
370
     9
  0
POLYLINE
  5
9D
330
1F
100
AcDbEntity
  8
COPPER
 62
     7
420
 16777215
370
     9
100
AcDb2dPolyline
 66
     1
 10
0.0
 20
0.0
 30
0.0
  0
VERTEX
  5
9E
330
9D
100
AcDbEntity
  8
COPPER
 62
     7
420
 16777215
370
     9
100
AcDbVertex
100
AcDb2dVertex
 10
4.492222222222229
 20
2.862083333333329
 30
0.0
  0
VERTEX
  5
9F
330
9D
100
AcDbEntity
  8
COPPER
 62
     7
420
 16777215
370
     9
100
AcDbVertex
100
AcDb2dVertex
 10
4.532777777777786
 20
2.668055555555561
 30
0.0
  0
VERTEX
  5
A0
330
9D
100
AcDbEntity
  8
COPPER
 62
     7
420
 16777215
370
     9
100
AcDbVertex
100
AcDb2dVertex
 10
5.084305555555551
 20
2.553611111111119
 30
0.0
  0
VERTEX
  5
A1
330
9D
100
AcDbEntity
  8
COPPER
 62
     7
420
 16777215
370
     9
100
AcDbVertex
100
AcDb2dVertex
 10
5.457500000000007
 20
2.651249999999992
 30
0.0
  0
SEQEND
  5
A2
330
9D
100
AcDbEntity
  8
COPPER
 62
     7
420
 16777215
370
     9
  0
POLYLINE
  5
A3
330
1F
100
AcDbEntity
  8
COPPER
 62
     7
420
 16777215
370
     9
100
AcDb2dPolyline
 66
     1
 10
0.0
 20
0.0
 30
0.0
  0
VERTEX
  5
A4
330
A3
100
AcDbEntity
  8
COPPER
 62
     7
420
 16777215
370
     9
100
AcDbVertex
100
AcDb2dVertex
 10
5.820006618543756
 20
3.567708238306245
 30
0.0
  0
VERTEX
  5
A5
330
A3
100
AcDbEntity
  8
COPPER
 62
     7
420
 16777215
370
     9
100
AcDbVertex
100
AcDb2dVertex
 10
5.976488547406714
 20
3.174742183065215
 30
0.0
  0
VERTEX
  5
A6
330
A3
100
AcDbEntity
  8
COPPER
 62
     7
420
 16777215
370
     9
100
AcDbVertex
100
AcDb2dVertex
 10
5.894124089787359
 20
2.938126548685381
 30
0.0
  0
SEQEND
  5
A7
330
A3
100
AcDbEntity
  8
COPPER
 62
     7
420
 16777215
370
     9
  0
POLYLINE
  5
A8
330
1F
100
AcDbEntity
  8
COPPER
 62
     7
420
 16777215
370
     9
100
AcDb2dPolyline
 66
     1
 10
0.0
 20
0.0
 30
0.0
  0
VERTEX
  5
A9
330
A8
100
AcDbEntity
  8
COPPER
 62
     7
420
 16777215
370
     9
100
AcDbVertex
100
AcDb2dVertex
 10
4.625555555555567
 20
3.798611111111111
 30
0.0
  0
VERTEX
  5
AA
330
A8
100
AcDbEntity
  8
COPPER
 62
     7
420
 16777215
370
     9
100
AcDbVertex
100
AcDb2dVertex
 10
4.342499999999998
 20
3.456388888888897
 30
0.0
  0
SEQEND
  5
AB
330
A8
100
AcDbEntity
  8
COPPER
 62
     7
420
 16777215
370
     9
  0
POLYLINE
  5
AC
330
1F
100
AcDbEntity
  8
COPPER
 62
     7
420
 16777215
370
     9
100
AcDb2dPolyline
 66
     1
 10
0.0
 20
0.0
 30
0.0
  0
VERTEX
  5
AD
330
AC
100
AcDbEntity
  8
COPPER
 62
     7
420
 16777215
370
     9
100
AcDbVertex
100
AcDb2dVertex
 10
4.276805555555559
 20
2.794027777777778
 30
0.0
  0
VERTEX
  5
AE
330
AC
100
AcDbEntity
  8
COPPER
 62
     7
420
 16777215
370
     9
100
AcDbVertex
100
AcDb2dVertex
 10
4.333333333333333
 20
2.530694444444432
 30
0.0
  0
VERTEX
  5
AF
330
AC
100
AcDbEntity
  8
COPPER
 62
     7
420
 16777215
370
     9
100
AcDbVertex
100
AcDb2dVertex
 10
4.636666666666668
 20
2.46583333333332
 30
0.0
  0
VERTEX
  5
B0
330
AC
100
AcDbEntity
  8
COPPER
 62
     7
420
 16777215
370
     9
100
AcDbVertex
100
AcDb2dVertex
 10
4.636805555555561
 20
2.46583333333332
 30
0.0
  0
SEQEND
  5
B1
330
AC
100
AcDbEntity
  8
COPPER
 62
     7
420
 16777215
370
     9
  0
POLYLINE
  5
B2
330
1F
100
AcDbEntity
  8
COPPER
 62
     7
420
 16777215
370
     9
100
AcDb2dPolyline
 66
     1
 10
0.0
 20
0.0
 30
0.0
  0
VERTEX
  5
B3
330
B2
100
AcDbEntity
  8
COPPER
 62
     7
420
 16777215
370
     9
100
AcDbVertex
100
AcDb2dVertex
 10
5.493379164310454
 20
2.49058400898654
 30
0.0
  0
VERTEX
  5
B4
330
B2
100
AcDbEntity
  8
COPPER
 62
     7
420
 16777215
370
     9
100
AcDbVertex
100
AcDb2dVertex
 10
5.051085036928271
 20
2.377477524361464
 30
0.0
  0
VERTEX
  5
B5
330
B2
100
AcDbEntity
  8
COPPER
 62
     7
420
 16777215
370
     9
100
AcDbVertex
100
AcDb2dVertex
 10
4.709030191309441
 20
2.45047958984949
 30
0.0
  0
SEQEND
  5
B6
330
B2
100
AcDbEntity
  8
COPPER
 62
     7
420
 16777215
370
     9
  0
POLYLINE
  5
B7
330
1F
100
AcDbEntity
  8
COPPER
 62
     7
420
 16777215
370
     9
100
AcDb2dPolyline
 66
     1
 10
0.0
 20
0.0
 30
0.0
  0
VERTEX
  5
B8
330
B7
100
AcDbEntity
  8
COPPER
 62
     7
420
 16777215
370
     9
100
AcDbVertex
100
AcDb2dVertex
 10
6.145814834606957
 20
3.438236392230768
 30
0.0
  0
VERTEX
  5
B9
330
B7
100
AcDbEntity
  8
COPPER
 62
     7
420
 16777215
370
     9
100
AcDbVertex
100
AcDb2dVertex
 10
6.217760476249219
 20
3.180228439395781
 30
0.0
  0
VERTEX
  5
BA
330
B7
100
AcDbEntity
  8
COPPER
 62
     7
420
 16777215
370
     9
100
AcDbVertex
100
AcDb2dVertex
 10
6.137953873160035
 20
2.973990496384785
 30
0.0
  0
SEQEND
  5
BB
330
B7
100
AcDbEntity
  8
COPPER
 62
     7
420
 16777215
370
     9
  0
POLYLINE
  5
BC
330
1F
100
AcDbEntity
  8
COPPER
 62
     7
420
 16777215
370
     9
100
AcDb2dPolyline
 66
     1
 10
0.0
 20
0.0
 30
0.0
  0
VERTEX
  5
BD
330
BC
100
AcDbEntity
  8
COPPER
 62
     7
420
 16777215
370
     9
100
AcDbVertex
100
AcDb2dVertex
 10
4.105694444444453
 20
3.799583333333329
 30
0.0
  0
VERTEX
  5
BE
330
BC
100
AcDbEntity
  8
COPPER
 62
     7
420
 16777215
370
     9
100
AcDbVertex
100
AcDb2dVertex
 10
3.909166666666667
 20
3.576944444444431
 30
0.0
  0
SEQEND
  5
BF
330
BC
100
AcDbEntity
  8
COPPER
 62
     7
420
 16777215
370
     9
  0
POLYLINE
  5
C0
330
1F
100
AcDbEntity
  8
COPPER
 62
     7
420
 16777215
370
     9
100
AcDb2dPolyline
 66
     1
 10
0.0
 20
0.0
 30
0.0
  0
VERTEX
  5
C1
330
C0
100
AcDbEntity
  8
COPPER
 62
     7
420
 16777215
370
     9
100
AcDbVertex
100
AcDb2dVertex
 10
3.894027777777776
 20
2.357222222222213
 30
0.0
  0
VERTEX
  5
C2
330
C0
100
AcDbEntity
  8
COPPER
 62
     7
420
 16777215
370
     9
100
AcDbVertex
100
AcDb2dVertex
 10
3.839166666666667
 20
2.655694444444432
 30
0.0
  0
SEQEND
  5
C3
330
C0
100
AcDbEntity
  8
COPPER
 62
     7
420
 16777215
370
     9
  0
POLYLINE
  5
C4
330
1F
100
AcDbEntity
  8
COPPER
 62
     7
420
 16777215
370
     9
100
AcDb2dPolyline
 66
     1
 10
0.0
 20
0.0
 30
0.0
  0
VERTEX
  5
C5
330
C4
100
AcDbEntity
  8
COPPER
 62
     7
420
 16777215
370
     9
100
AcDbVertex
100
AcDb2dVertex
 10
5.566738081229105
 20
2.161888964528442
 30
0.0
  0
VERTEX
  5
C6
330
C4
100
AcDbEntity
  8
COPPER
 62
     7
420
 16777215
370
     9
100
AcDbVertex
100
AcDb2dVertex
 10
5.218242365713953
 20
2.084261719302857
 30
0.0
  0
SEQEND
  5
C7
330
C4
100
AcDbEntity
  8
COPPER
 62
     7
420
 16777215
370
     9
  0
POLYLINE
  5
C8
330
1F
100
AcDbEntity
  8
COPPER
 62
     7
420
 16777215
370
     9
100
AcDb2dPolyline
 66
     1
 10
0.0
 20
0.0
 30
0.0
  0
VERTEX
  5
C9
330
C8
100
AcDbEntity
  8
COPPER
 62
     7
420
 16777215
370
     9
100
AcDbVertex
100
AcDb2dVertex
 10
6.684252602537576
 20
3.208518318331521
 30
0.0
  0
VERTEX
  5
CA
330
C8
100
AcDbEntity
  8
COPPER
 62
     7
420
 16777215
370
     9
100
AcDbVertex
100
AcDb2dVertex
 10
6.700207212444815
 20
3.148744999840649
 30
0.0
  0
VERTEX
  5
CB
330
C8
100
AcDbEntity
  8
COPPER
 62
     7
420
 16777215
370
     9
100
AcDbVertex
100
AcDb2dVertex
 10
6.599853044154643
 20
2.891308030039075
 30
0.0
  0
SEQEND
  5
CC
330
C8
100
AcDbEntity
  8
COPPER
 62
     7
420
 16777215
370
     9
  0
POLYLINE
  5
CD
330
1F
100
AcDbEntity
  8
COPPER
 62
     7
420
 16777215
370
     9
100
AcDb2dPolyline
 66
     1
 10
0.0
 20
0.0
 30
0.0
  0
VERTEX
  5
CE
330
CD
100
AcDbEntity
  8
COPPER
 62
     7
420
 16777215
370
     9
100
AcDbVertex
100
AcDb2dVertex
 10
3.104520157120608
 20
3.409114964051367
 30
0.0
  0
VERTEX
  5
CF
330
CD
100
AcDbEntity
  8
COPPER
 62
     7
420
 16777215
370
     9
100
AcDbVertex
100
AcDb2dVertex
 10
3.248803469946678
 20
3.052736631794081
 30
0.0
  0
VERTEX
  5
D0
330
CD
100
AcDbEntity
  8
COPPER
 62
     7
420
 16777215
370
     9
100
AcDbVertex
100
AcDb2dVertex
 10
3.374806944874611
 20
2.118878080636604
 30
0.0
  0
SEQEND
  5
D1
330
CD
100
AcDbEntity
  8
COPPER
 62
     7
420
 16777215
370
     9
  0
POLYLINE
  5
D2
330
1F
100
AcDbEntity
  8
COPPER
 62
     7
420
 16777215
370
     9
100
AcDb2dPolyline
 66
     1
 10
0.0
 20
0.0
 30
0.0
  0
VERTEX
  5
D3
330
D2
100
AcDbEntity
  8
COPPER
 62
     7
420
 16777215
370
     9
100
AcDbVertex
100
AcDb2dVertex
 10
7.227478069618124
 20
2.835569600343863
 30
0.0
  0
VERTEX
  5
D4
330
D2
100
AcDbEntity
  8
COPPER
 62
     7
420
 16777215
370
     9
100
AcDbVertex
100
AcDb2dVertex
 10
6.840381467182548
 20
1.901952905358586
 30
0.0
  0
SEQEND
  5
D5
330
D2
100
AcDbEntity
  8
COPPER
 62
     7
420
 16777215
370
     9
  0
POLYLINE
  5
D6
330
1F
100
AcDbEntity
  8
COPPER
 62
     7
420
 16777215
370
     9
100
AcDb2dPolyline
 66
     1
 10
0.0
 20
0.0
 30
0.0
  0
VERTEX
  5
D7
330
D6
100
AcDbEntity
  8
COPPER
 62
     7
420
 16777215
370
     9
100
AcDbVertex
100
AcDb2dVertex
 10
2.392628805053189
 20
2.991098015886059
 30
0.0
  0
VERTEX
  5
D8
330
D6
100
AcDbEntity
  8
COPPER
 62
     7
420
 16777215
370
     9
100
AcDbVertex
100
AcDb2dVertex
 10
2.358010916631125
 20
3.17160286802818
 30
0.0
  0
VERTEX
  5
D9
330
D6
100
AcDbEntity
  8
COPPER
 62
     7
420
 16777215
370
     9
100
AcDbVertex
100
AcDb2dVertex
 10
2.321415176151504
 20
3.29806157208423
 30
0.0
  0
SEQEND
  5
DA
330
D6
100
AcDbEntity
  8
COPPER
 62
     7
420
 16777215
370
     9
  0
POLYLINE
  5
DB
330
1F
100
AcDbEntity
  8
COPPER
 62
     7
420
 16777215
370
     9
100
AcDb2dPolyline
 66
     1
 10
0.0
 20
0.0
 30
0.0
  0
VERTEX
  5
DC
330
DB
100
AcDbEntity
  8
COPPER
 62
     7
420
 16777215
370
     9
100
AcDbVertex
100
AcDb2dVertex
 10
2.717423836826305
 20
1.516996836378793
 30
0.0
  0
VERTEX
  5
DD
330
DB
100
AcDbEntity
  8
COPPER
 62
     7
420
 16777215
370
     9
100
AcDbVertex
100
AcDb2dVertex
 10
2.673047811757745
 20
1.528935138534305
 30
0.0
  0
VERTEX
  5
DE
330
DB
100
AcDbEntity
  8
COPPER
 62
     7
420
 16777215
370
     9
100
AcDbVertex
100
AcDb2dVertex
 10
2.604945510681596
 20
1.884034665010757
 30
0.0
  0
SEQEND
  5
DF
330
DB
100
AcDbEntity
  8
COPPER
 62
     7
420
 16777215
370
     9
  0
POLYLINE
  5
E0
330
1F
100
AcDbEntity
  8
COPPER
 62
     7
420
 16777215
370
     9
100
AcDb2dPolyline
 66
     1
 10
0.0
 20
0.0
 30
0.0
  0
VERTEX
  5
E1
330
E0
100
AcDbEntity
  8
COPPER
 62
     7
420
 16777215
370
     9
100
AcDbVertex
100
AcDb2dVertex
 10
3.748472222222226
 20
3.799583333333329
 30
0.0
  0
VERTEX
  5
E2
330
E0
100
AcDbEntity
  8
COPPER
 62
     7
420
 16777215
370
     9
100
AcDbVertex
100
AcDb2dVertex
 10
3.652638888888886
 20
3.695555555555554
 30
0.0
  0
VERTEX
  5
E3
330
E0
100
AcDbEntity
  8
COPPER
 62
     7
420
 16777215
370
     9
100
AcDbVertex
100
AcDb2dVertex
 10
3.617916666666663
 20
3.657916666666652
 30
0.0
  0
VERTEX
  5
E4
330
E0
100
AcDbEntity
  8
COPPER
 62
     7
420
 16777215
370
     9
100
AcDbVertex
100
AcDb2dVertex
 10
3.546666666666674
 20
3.580694444444437
 30
0.0
  0
VERTEX
  5
E5
330
E0
100
AcDbEntity
  8
COPPER
 62
     7
420
 16777215
370
     9
100
AcDbVertex
100
AcDb2dVertex
 10
3.475694444444444
 20
3.503611111111114
 30
0.0
  0
SEQEND
  5
E6
330
E0
100
AcDbEntity
  8
COPPER
 62
     7
420
 16777215
370
     9
  0
POLYLINE
  5
E7
330
1F
100
AcDbEntity
  8
COPPER
 62
     7
420
 16777215
370
     9
100
AcDb2dPolyline
 66
     1
 10
0.0
 20
0.0
 30
0.0
  0
VERTEX
  5
E8
330
E7
100
AcDbEntity
  8
COPPER
 62
     7
420
 16777215
370
     9
100
AcDbVertex
100
AcDb2dVertex
 10
3.569027777777781
 20
2.570277777777771
 30
0.0
  0
VERTEX
  5
E9
330
E7
100
AcDbEntity
  8
COPPER
 62
     7
420
 16777215
370
     9
100
AcDbVertex
100
AcDb2dVertex
 10
3.600138888888889
 20
2.314166666666652
 30
0.0
  0
VERTEX
  5
EA
330
E7
100
AcDbEntity
  8
COPPER
 62
     7
420
 16777215
370
     9
100
AcDbVertex
100
AcDb2dVertex
 10
3.600138888888889
 20
2.314027777777786
 30
0.0
  0
SEQEND
  5
EB
330
E7
100
AcDbEntity
  8
COPPER
 62
     7
420
 16777215
370
     9
  0
POLYLINE
  5
EC
330
1F
100
AcDbEntity
  8
COPPER
 62
     7
420
 16777215
370
     9
100
AcDb2dPolyline
 66
     1
 10
0.0
 20
0.0
 30
0.0
  0
VERTEX
  5
ED
330
EC
100
AcDbEntity
  8
COPPER
 62
     7
420
 16777215
370
     9
100
AcDbVertex
100
AcDb2dVertex
 10
5.614397495782037
 20
1.948344130445725
 30
0.0
  0
VERTEX
  5
EE
330
EC
100
AcDbEntity
  8
COPPER
 62
     7
420
 16777215
370
     9
100
AcDbVertex
100
AcDb2dVertex
 10
5.452385596843921
 20
1.915869372433488
 30
0.0
  0
SEQEND
  5
EF
330
EC
100
AcDbEntity
  8
COPPER
 62
     7
420
 16777215
370
     9
  0
POLYLINE
  5
F0
330
1F
100
AcDbEntity
  8
COPPER
 62
     7
420
 16777215
370
     9
100
AcDb2dPolyline
 66
     1
 10
0.0
 20
0.0
 30
0.0
  0
VERTEX
  5
F1
330
F0
100
AcDbEntity
  8
COPPER
 62
     7
420
 16777215
370
     9
100
AcDbVertex
100
AcDb2dVertex
 10
7.009109987244048
 20
3.10107519150693
 30
0.0
  0
VERTEX
  5
F2
330
F0
100
AcDbEntity
  8
COPPER
 62
     7
420
 16777215
370
     9
100
AcDbVertex
100
AcDb2dVertex
 10
6.720827537374943
 20
2.393211084416761
 30
0.0
  0
SEQEND
  5
F3
330
F0
100
AcDbEntity
  8
COPPER
 62
     7
420
 16777215
370
     9
  0
POLYLINE
  5
F4
330
1F
100
AcDbEntity
  8
COPPER
 62
     7
420
 16777215
370
     9
100
AcDb2dPolyline
 66
     1
 10
0.0
 20
0.0
 30
0.0
  0
VERTEX
  5
F5
330
F4
100
AcDbEntity
  8
COPPER
 62
     7
420
 16777215
370
     9
100
AcDbVertex
100
AcDb2dVertex
 10
4.369722222222233
 20
3.799583333333329
 30
0.0
  0
VERTEX
  5
F6
330
F4
100
AcDbEntity
  8
COPPER
 62
     7
420
 16777215
370
     9
100
AcDbVertex
100
AcDb2dVertex
 10
4.120972222222223
 20
3.518055555555545
 30
0.0
  0
SEQEND
  5
F7
330
F4
100
AcDbEntity
  8
COPPER
 62
     7
420
 16777215
370
     9
  0
POLYLINE
  5
F8
330
1F
100
AcDbEntity
  8
COPPER
 62
     7
420
 16777215
370
     9
100
AcDb2dPolyline
 66
     1
 10
0.0
 20
0.0
 30
0.0
  0
VERTEX
  5
F9
330
F8
100
AcDbEntity
  8
COPPER
 62
     7
420
 16777215
370
     9
100
AcDbVertex
100
AcDb2dVertex
 10
4.054861111111109
 20
2.723888888888875
 30
0.0
  0
VERTEX
  5
FA
330
F8
100
AcDbEntity
  8
COPPER
 62
     7
420
 16777215
370
     9
100
AcDbVertex
100
AcDb2dVertex
 10
4.110972222222219
 20
2.419305555555562
 30
0.0
  0
VERTEX
  5
FB
330
F8
100
AcDbEntity
  8
COPPER
 62
     7
420
 16777215
370
     9
100
AcDbVertex
100
AcDb2dVertex
 10
4.188194444444447
 20
2.400277777777774
 30
0.0
  0
SEQEND
  5
FC
330
F8
100
AcDbEntity
  8
COPPER
 62
     7
420
 16777215
370
     9
  0
POLYLINE
  5
FD
330
1F
100
AcDbEntity
  8
COPPER
 62
     7
420
 16777215
370
     9
100
AcDb2dPolyline
 66
     1
 10
0.0
 20
0.0
 30
0.0
  0
VERTEX
  5
FE
330
FD
100
AcDbEntity
  8
COPPER
 62
     7
420
 16777215
370
     9
100
AcDbVertex
100
AcDb2dVertex
 10
5.530735331522843
 20
2.323204403710835
 30
0.0
  0
VERTEX
  5
FF
330
FD
100
AcDbEntity
  8
COPPER
 62
     7
420
 16777215
370
     9
100
AcDbVertex
100
AcDb2dVertex
 10
5.03985757311615
 20
2.213861630095127
 30
0.0
  0
SEQEND
  5
100
330
FD
100
AcDbEntity
  8
COPPER
 62
     7
420
 16777215
370
     9
  0
POLYLINE
  5
101
330
1F
100
AcDbEntity
  8
COPPER
 62
     7
420
 16777215
370
     9
100
AcDb2dPolyline
 66
     1
 10
0.0
 20
0.0
 30
0.0
  0
VERTEX
  5
102
330
101
100
AcDbEntity
  8
COPPER
 62
     7
420
 16777215
370
     9
100
AcDbVertex
100
AcDb2dVertex
 10
6.413436964943811
 20
3.320580324284189
 30
0.0
  0
VERTEX
  5
103
330
101
100
AcDbEntity
  8
COPPER
 62
     7
420
 16777215
370
     9
100
AcDbVertex
100
AcDb2dVertex
 10
6.459568448765973
 20
3.147750534587633
 30
0.0
  0
VERTEX
  5
104
330
101
100
AcDbEntity
  8
COPPER
 62
     7
420
 16777215
370
     9
100
AcDbVertex
100
AcDb2dVertex
 10
6.37528375493202
 20
2.931536334909045
 30
0.0
  0
SEQEND
  5
105
330
101
100
AcDbEntity
  8
COPPER
 62
     7
420
 16777215
370
     9
  0
POLYLINE
  5
106
330
1F
100
AcDbEntity
  8
COPPER
 62
     7
420
 16777215
370
     9
100
AcDb2dPolyline
 66
     1
 10
0.0
 20
0.0
 30
0.0
  0
VERTEX
  5
107
330
106
100
AcDbEntity
  8
COPPER
 62
     7
420
 16777215
370
     9
100
AcDbVertex
100
AcDb2dVertex
 10
2.175490921865958
 20
1.465109717624222
 30
0.0
  0
VERTEX
  5
108
330
106
100
AcDbEntity
  8
COPPER
 62
     7
420
 16777215
370
     9
100
AcDbVertex
100
AcDb2dVertex
 10
2.102285969587052
 20
1.846815432220031
 30
0.0
  0
SEQEND
  5
109
330
106
100
AcDbEntity
  8
COPPER
 62
     7
420
 16777215
370
     9
  0
POLYLINE
  5
10A
330
1F
100
AcDbEntity
  8
COPPER
 62
     7
420
 16777215
370
     9
100
AcDb2dPolyline
 66
     1
 10
0.0
 20
0.0
 30
0.0
  0
VERTEX
  5
10B
330
10A
100
AcDbEntity
  8
COPPER
 62
     7
420
 16777215
370
     9
100
AcDbVertex
100
AcDb2dVertex
 10
1.588536632316694
 20
1.702645447771627
 30
0.0
  0
VERTEX
  5
10C
330
10A
100
AcDbEntity
  8
COPPER
 62
     7
420
 16777215
370
     9
100
AcDbVertex
100
AcDb2dVertex
 10
1.452754837012662
 20
2.410639724007979
 30
0.0
  0
SEQEND
  5
10D
330
10A
100
AcDbEntity
  8
COPPER
 62
     7
420
 16777215
370
     9
  0
POLYLINE
  5
10E
330
1F
100
AcDbEntity
  8
COPPER
 62
     7
420
 16777215
370
     9
100
AcDb2dPolyline
 66
     1
 10
0.0
 20
0.0
 30
0.0
  0
VERTEX
  5
10F
330
10E
100
AcDbEntity
  8
COPPER
 62
     7
420
 16777215
370
     9
100
AcDbVertex
100
AcDb2dVertex
 10
2.844946103708101
 20
2.571464545483195
 30
0.0
  0
VERTEX
  5
110
330
10E
100
AcDbEntity
  8
COPPER
 62
     7
420
 16777215
370
     9
100
AcDbVertex
100
AcDb2dVertex
 10
2.730584914814067
 20
3.167767510020945
 30
0.0
  0
VERTEX
  5
111
330
10E
100
AcDbEntity
  8
COPPER
 62
     7
420
 16777215
370
     9
100
AcDbVertex
100
AcDb2dVertex
 10
2.689529223679655
 20
3.290174087026899
 30
0.0
  0
SEQEND
  5
112
330
10E
100
AcDbEntity
  8
COPPER
 62
     7
420
 16777215
370
     9
  0
POLYLINE
  5
113
330
1F
100
AcDbEntity
  8
COPPER
 62
     7
420
 16777215
370
     9
100
AcDb2dPolyline
 66
     1
 10
0.0
 20
0.0
 30
0.0
  0
VERTEX
  5
114
330
113
100
AcDbEntity
  8
COPPER
 62
     7
420
 16777215
370
     9
100
AcDbVertex
100
AcDb2dVertex
 10
2.998149995304352
 20
1.772627670656549
 30
0.0
  0
VERTEX
  5
115
330
113
100
AcDbEntity
  8
COPPER
 62
     7
420
 16777215
370
     9
100
AcDbVertex
100
AcDb2dVertex
 10
2.891031290483145
 20
2.33116682069557
 30
0.0
  0
SEQEND
  5
116
330
113
100
AcDbEntity
  8
COPPER
 62
     7
420
 16777215
370
     9
  0
INSERT
  5
119
330
1F
100
AcDbEntity
  8
CUTOUTS
100
AcDbBlockReference
  2
block 8
 10
0.0
 20
0.0
 30
0.0
  0
INSERT
  5
11E
330
1F
100
AcDbEntity
  8
CUTOUTS
100
AcDbBlockReference
  2
block 9
 10
0.0
 20
0.0
 30
0.0
  0
INSERT
  5
123
330
1F
100
AcDbEntity
  8
CUTOUTS
100
AcDbBlockReference
  2
block 10
 10
0.0
 20
0.0
 30
0.0
  0
POLYLINE
  5
127
330
1F
100
AcDbEntity
  8
CUTOUTS
 62
     7
420
 16777215
370
     5
100
AcDb2dPolyline
 66
     1
 10
0.0
 20
0.0
 30
0.0
  0
VERTEX
  5
128
330
127
100
AcDbEntity
  8
CUTOUTS
 62
     7
420
 16777215
370
     5
100
AcDbVertex
100
AcDb2dVertex
 10
4.684305826822916
 20
3.129999796549479
 30
0.0
  0
VERTEX
  5
129
330
127
100
AcDbEntity
  8
CUTOUTS
 62
     7
420
 16777215
370
     5
100
AcDbVertex
100
AcDb2dVertex
 10
4.713333129882812
 20
2.932083129882812
 30
0.0
  0
VERTEX
  5
12A
330
127
100
AcDbEntity
  8
CUTOUTS
 62
     7
420
 16777215
370
     5
100
AcDbVertex
100
AcDb2dVertex
 10
4.698194715711805
 20
2.927222357855903
 30
0.0
  0
VERTEX
  5
12B
330
127
100
AcDbEntity
  8
CUTOUTS
 62
     7
420
 16777215
370
     5
100
AcDbVertex
100
AcDb2dVertex
 10
4.682916429307725
 20
2.922499762641059
 30
0.0
  0
VERTEX
  5
12C
330
127
100
AcDbEntity
  8
CUTOUTS
 62
     7
420
 16777215
370
     5
100
AcDbVertex
100
AcDb2dVertex
 10
4.654583401150173
 20
3.115138583713108
 30
0.0
  0
VERTEX
  5
12D
330
127
100
AcDbEntity
  8
CUTOUTS
 62
     7
420
 16777215
370
     5
100
AcDbVertex
100
AcDb2dVertex
 10
4.595694647894965
 20
3.174999660915798
 30
0.0
  0
VERTEX
  5
12E
330
127
100
AcDbEntity
  8
CUTOUTS
 62
     7
420
 16777215
370
     5
100
AcDbVertex
100
AcDb2dVertex
 10
4.732916937934028
 20
3.347777472601996
 30
0.0
  0
VERTEX
  5
12F
330
127
100
AcDbEntity
  8
CUTOUTS
 62
     7
420
 16777215
370
     5
100
AcDbVertex
100
AcDb2dVertex
 10
4.749305725097656
 20
3.343194749620225
 30
0.0
  0
VERTEX
  5
130
330
127
100
AcDbEntity
  8
CUTOUTS
 62
     7
420
 16777215
370
     5
100
AcDbVertex
100
AcDb2dVertex
 10
4.765833536783854
 20
3.338611178927951
 30
0.0
  0
VERTEX
  5
131
330
127
100
AcDbEntity
  8
CUTOUTS
 62
     7
420
 16777215
370
     5
100
AcDbVertex
100
AcDb2dVertex
 10
4.637638515896267
 20
3.177222357855903
 30
0.0
  0
VERTEX
  5
132
330
127
100
AcDbEntity
  8
CUTOUTS
 62
     7
420
 16777215
370
     5
100
AcDbVertex
100
AcDb2dVertex
 10
4.684305826822916
 20
3.129999796549479
 30
0.0
  0
SEQEND
  5
133
330
127
100
AcDbEntity
  8
CUTOUTS
 62
     7
420
 16777215
370
     5
  0
POLYLINE
  5
134
330
1F
100
AcDbEntity
  8
CUTOUTS
 62
     7
420
 16777215
370
     5
100
AcDb2dPolyline
 66
     1
 10
0.0
 20
0.0
 30
0.0
  0
VERTEX
  5
135
330
134
100
AcDbEntity
  8
CUTOUTS
 62
     7
420
 16777215
370
     5
100
AcDbVertex
100
AcDb2dVertex
 10
4.452361212836371
 20
3.130277845594618
 30
0.0
  0
VERTEX
  5
136
330
134
100
AcDbEntity
  8
CUTOUTS
 62
     7
420
 16777215
370
     5
100
AcDbVertex
100
AcDb2dVertex
 10
4.507361518012153
 20
2.866944207085503
 30
0.0
  0
VERTEX
  5
137
330
134
100
AcDbEntity
  8
CUTOUTS
 62
     7
420
 16777215
370
     5
100
AcDbVertex
100
AcDb2dVertex
 10
4.492222256130642
 20
2.862083435058594
 30
0.0
  0
VERTEX
  5
138
330
134
100
AcDbEntity
  8
CUTOUTS
 62
     7
420
 16777215
370
     5
100
AcDbVertex
100
AcDb2dVertex
 10
4.477082994249131
 20
2.85736083984375
 30
0.0
  0
VERTEX
  5
139
330
134
100
AcDbEntity
  8
CUTOUTS
 62
     7
420
 16777215
370
     5
100
AcDbVertex
100
AcDb2dVertex
 10
4.422222561306423
 20
3.120555453830295
 30
0.0
  0
VERTEX
  5
13A
330
134
100
AcDbEntity
  8
CUTOUTS
 62
     7
420
 16777215
370
     5
100
AcDbVertex
100
AcDb2dVertex
 10
4.370000203450521
 20
3.193055894639757
 30
0.0
  0
VERTEX
  5
13B
330
134
100
AcDbEntity
  8
CUTOUTS
 62
     7
420
 16777215
370
     5
100
AcDbVertex
100
AcDb2dVertex
 10
4.538472493489583
 20
3.401805453830295
 30
0.0
  0
VERTEX
  5
13C
330
134
100
AcDbEntity
  8
CUTOUTS
 62
     7
420
 16777215
370
     5
100
AcDbVertex
100
AcDb2dVertex
 10
4.538611518012153
 20
3.401805453830295
 30
0.0
  0
VERTEX
  5
13D
330
134
100
AcDbEntity
  8
CUTOUTS
 62
     7
420
 16777215
370
     5
100
AcDbVertex
100
AcDb2dVertex
 10
4.555000305175781
 20
3.397221883138021
 30
0.0
  0
VERTEX
  5
13E
330
134
100
AcDbEntity
  8
CUTOUTS
 62
     7
420
 16777215
370
     5
100
AcDbVertex
100
AcDb2dVertex
 10
4.555138481987847
 20
3.397221883138021
 30
0.0
  0
VERTEX
  5
13F
330
134
100
AcDbEntity
  8
CUTOUTS
 62
     7
420
 16777215
370
     5
100
AcDbVertex
100
AcDb2dVertex
 10
4.571666293674045
 20
3.39263916015625
 30
0.0
  0
VERTEX
  5
140
330
134
100
AcDbEntity
  8
CUTOUTS
 62
     7
420
 16777215
370
     5
100
AcDbVertex
100
AcDb2dVertex
 10
4.409583197699653
 20
3.191944546169704
 30
0.0
  0
VERTEX
  5
141
330
134
100
AcDbEntity
  8
CUTOUTS
 62
     7
420
 16777215
370
     5
100
AcDbVertex
100
AcDb2dVertex
 10
4.451666937934028
 20
3.133472018771701
 30
0.0
  0
VERTEX
  5
142
330
134
100
AcDbEntity
  8
CUTOUTS
 62
     7
420
 16777215
370
     5
100
AcDbVertex
100
AcDb2dVertex
 10
4.452361212836371
 20
3.130277845594618
 30
0.0
  0
SEQEND
  5
143
330
134
100
AcDbEntity
  8
CUTOUTS
 62
     7
420
 16777215
370
     5
  0
POLYLINE
  5
144
330
1F
100
AcDbEntity
  8
CUTOUTS
 62
     7
420
 16777215
370
     5
100
AcDb2dPolyline
 66
     1
 10
0.0
 20
0.0
 30
0.0
  0
VERTEX
  5
145
330
144
100
AcDbEntity
  8
CUTOUTS
 62
     7
420
 16777215
370
     5
100
AcDbVertex
100
AcDb2dVertex
 10
4.2201385498047
 20
3.132638719346788
 30
0.0
  0
VERTEX
  5
146
330
144
100
AcDbEntity
  8
CUTOUTS
 62
     7
420
 16777215
370
     5
100
AcDbVertex
100
AcDb2dVertex
 10
4.291944715711805
 20
2.79875013563368
 30
0.0
  0
VERTEX
  5
147
330
144
100
AcDbEntity
  8
CUTOUTS
 62
     7
420
 16777215
370
     5
100
AcDbVertex
100
AcDb2dVertex
 10
4.276805453830295
 20
2.794027540418837
 30
0.0
  0
VERTEX
  5
148
330
144
100
AcDbEntity
  8
CUTOUTS
 62
     7
420
 16777215
370
     5
100
AcDbVertex
100
AcDb2dVertex
 10
4.261667039659288
 20
2.789305792914496
 30
0.0
  0
VERTEX
  5
149
330
144
100
AcDbEntity
  8
CUTOUTS
 62
     7
420
 16777215
370
     5
100
AcDbVertex
100
AcDb2dVertex
 10
4.189721849229601
 20
3.124305725097656
 30
0.0
  0
VERTEX
  5
14A
330
144
100
AcDbEntity
  8
CUTOUTS
 62
     7
420
 16777215
370
     5
100
AcDbVertex
100
AcDb2dVertex
 10
4.13847181532118
 20
3.234444512261284
 30
0.0
  0
VERTEX
  5
14B
330
144
100
AcDbEntity
  8
CUTOUTS
 62
     7
420
 16777215
370
     5
100
AcDbVertex
100
AcDb2dVertex
 10
4.325833638509114
 20
3.460972256130642
 30
0.0
  0
VERTEX
  5
14C
330
144
100
AcDbEntity
  8
CUTOUTS
 62
     7
420
 16777215
370
     5
100
AcDbVertex
100
AcDb2dVertex
 10
4.342499627007379
 20
3.456388685438368
 30
0.0
  0
VERTEX
  5
14D
330
144
100
AcDbEntity
  8
CUTOUTS
 62
     7
420
 16777215
370
     5
100
AcDbVertex
100
AcDb2dVertex
 10
4.359166463216146
 20
3.451805962456597
 30
0.0
  0
VERTEX
  5
14E
330
144
100
AcDbEntity
  8
CUTOUTS
 62
     7
420
 16777215
370
     5
100
AcDbVertex
100
AcDb2dVertex
 10
4.17541673448352
 20
3.229721917046441
 30
0.0
  0
VERTEX
  5
14F
330
144
100
AcDbEntity
  8
CUTOUTS
 62
     7
420
 16777215
370
     5
100
AcDbVertex
100
AcDb2dVertex
 10
4.2201385498047
 20
3.132638719346788
 30
0.0
  0
SEQEND
  5
150
330
144
100
AcDbEntity
  8
CUTOUTS
 62
     7
420
 16777215
370
     5
  0
POLYLINE
  5
151
330
1F
100
AcDbEntity
  8
CUTOUTS
 62
     7
420
 16777215
370
     5
100
AcDb2dPolyline
 66
     1
 10
0.0
 20
0.0
 30
0.0
  0
VERTEX
  5
152
330
151
100
AcDbEntity
  8
CUTOUTS
 62
     7
420
 16777215
370
     5
100
AcDbVertex
100
AcDb2dVertex
 10
3.995694478352864
 20
3.131944444444444
 30
0.0
  0
VERTEX
  5
153
330
151
100
AcDbEntity
  8
CUTOUTS
 62
     7
420
 16777215
370
     5
100
AcDbVertex
100
AcDb2dVertex
 10
4.069999694824219
 20
2.728611416286892
 30
0.0
  0
VERTEX
  5
154
330
151
100
AcDbEntity
  8
CUTOUTS
 62
     7
420
 16777215
370
     5
100
AcDbVertex
100
AcDb2dVertex
 10
4.054861280653212
 20
2.723888821072049
 30
0.0
  0
VERTEX
  5
155
330
151
100
AcDbEntity
  8
CUTOUTS
 62
     7
420
 16777215
370
     5
100
AcDbVertex
100
AcDb2dVertex
 10
4.039722018771714
 20
2.719028049045139
 30
0.0
  0
VERTEX
  5
156
330
151
100
AcDbEntity
  8
CUTOUTS
 62
     7
420
 16777215
370
     5
100
AcDbVertex
100
AcDb2dVertex
 10
3.964860704210069
 20
3.12486097547743
 30
0.0
  0
VERTEX
  5
157
330
151
100
AcDbEntity
  8
CUTOUTS
 62
     7
420
 16777215
370
     5
100
AcDbVertex
100
AcDb2dVertex
 10
3.902360704210069
 20
3.294305589463975
 30
0.0
  0
VERTEX
  5
158
330
151
100
AcDbEntity
  8
CUTOUTS
 62
     7
420
 16777215
370
     5
100
AcDbVertex
100
AcDb2dVertex
 10
4.104027642144097
 20
3.522638956705729
 30
0.0
  0
VERTEX
  5
159
330
151
100
AcDbEntity
  8
CUTOUTS
 62
     7
420
 16777215
370
     5
100
AcDbVertex
100
AcDb2dVertex
 10
4.120972527398004
 20
3.518055386013454
 30
0.0
  0
VERTEX
  5
15A
330
151
100
AcDbEntity
  8
CUTOUTS
 62
     7
420
 16777215
370
     5
100
AcDbVertex
100
AcDb2dVertex
 10
4.137916564941406
 20
3.513333638509114
 30
0.0
  0
VERTEX
  5
15B
330
151
100
AcDbEntity
  8
CUTOUTS
 62
     7
420
 16777215
370
     5
100
AcDbVertex
100
AcDb2dVertex
 10
3.938472323947483
 20
3.2875001695421
 30
0.0
  0
VERTEX
  5
15C
330
151
100
AcDbEntity
  8
CUTOUTS
 62
     7
420
 16777215
370
     5
100
AcDbVertex
100
AcDb2dVertex
 10
3.995694478352864
 20
3.131944444444444
 30
0.0
  0
SEQEND
  5
15D
330
151
100
AcDbEntity
  8
CUTOUTS
 62
     7
420
 16777215
370
     5
  0
POLYLINE
  5
15E
330
1F
100
AcDbEntity
  8
CUTOUTS
 62
     7
420
 16777215
370
     5
100
AcDb2dPolyline
 66
     1
 10
0.0
 20
0.0
 30
0.0
  0
VERTEX
  5
15F
330
15E
100
AcDbEntity
  8
CUTOUTS
 62
     7
420
 16777215
370
     5
100
AcDbVertex
100
AcDb2dVertex
 10
3.768194410536024
 20
3.129444546169704
 30
0.0
  0
VERTEX
  5
160
330
15E
100
AcDbEntity
  8
CUTOUTS
 62
     7
420
 16777215
370
     5
100
AcDbVertex
100
AcDb2dVertex
 10
3.854305691189236
 20
2.660416497124566
 30
0.0
  0
VERTEX
  5
161
330
15E
100
AcDbEntity
  8
CUTOUTS
 62
     7
420
 16777215
370
     5
100
AcDbVertex
100
AcDb2dVertex
 10
3.839166429307725
 20
2.655694749620225
 30
0.0
  0
VERTEX
  5
162
330
15E
100
AcDbEntity
  8
CUTOUTS
 62
     7
420
 16777215
370
     5
100
AcDbVertex
100
AcDb2dVertex
 10
3.824167039659288
 20
2.650972154405382
 30
0.0
  0
VERTEX
  5
163
330
15E
100
AcDbEntity
  8
CUTOUTS
 62
     7
420
 16777215
370
     5
100
AcDbVertex
100
AcDb2dVertex
 10
3.737499660915811
 20
3.122361077202691
 30
0.0
  0
VERTEX
  5
164
330
15E
100
AcDbEntity
  8
CUTOUTS
 62
     7
420
 16777215
370
     5
100
AcDbVertex
100
AcDb2dVertex
 10
3.663194444444444
 20
3.322361416286892
 30
0.0
  0
VERTEX
  5
165
330
15E
100
AcDbEntity
  8
CUTOUTS
 62
     7
420
 16777215
370
     5
100
AcDbVertex
100
AcDb2dVertex
 10
3.892083062065972
 20
3.581666734483507
 30
0.0
  0
VERTEX
  5
166
330
15E
100
AcDbEntity
  8
CUTOUTS
 62
     7
420
 16777215
370
     5
100
AcDbVertex
100
AcDb2dVertex
 10
3.909166971842448
 20
3.576944139268663
 30
0.0
  0
VERTEX
  5
167
330
15E
100
AcDbEntity
  8
CUTOUTS
 62
     7
420
 16777215
370
     5
100
AcDbVertex
100
AcDb2dVertex
 10
3.925971984863281
 20
3.572222391764323
 30
0.0
  0
VERTEX
  5
168
330
15E
100
AcDbEntity
  8
CUTOUTS
 62
     7
420
 16777215
370
     5
100
AcDbVertex
100
AcDb2dVertex
 10
3.699305216471366
 20
3.315555148654514
 30
0.0
  0
VERTEX
  5
169
330
15E
100
AcDbEntity
  8
CUTOUTS
 62
     7
420
 16777215
370
     5
100
AcDbVertex
100
AcDb2dVertex
 10
3.768194410536024
 20
3.129444546169704
 30
0.0
  0
SEQEND
  5
16A
330
15E
100
AcDbEntity
  8
CUTOUTS
 62
     7
420
 16777215
370
     5
  0
POLYLINE
  5
16B
330
1F
100
AcDbEntity
  8
CUTOUTS
 62
     7
420
 16777215
370
     5
100
AcDb2dPolyline
 66
     1
 10
0.0
 20
0.0
 30
0.0
  0
VERTEX
  5
16C
330
16B
100
AcDbEntity
  8
CUTOUTS
 62
     7
420
 16777215
370
     5
100
AcDbVertex
100
AcDb2dVertex
 10
3.584305657280816
 20
2.575138515896267
 30
0.0
  0
VERTEX
  5
16D
330
16B
100
AcDbEntity
  8
CUTOUTS
 62
     7
420
 16777215
370
     5
100
AcDbVertex
100
AcDb2dVertex
 10
3.569027370876736
 20
2.570277743869358
 30
0.0
  0
VERTEX
  5
16E
330
16B
100
AcDbEntity
  8
CUTOUTS
 62
     7
420
 16777215
370
     5
100
AcDbVertex
100
AcDb2dVertex
 10
3.553749932183172
 20
2.565416971842448
 30
0.0
  0
VERTEX
  5
16F
330
16B
100
AcDbEntity
  8
CUTOUTS
 62
     7
420
 16777215
370
     5
100
AcDbVertex
100
AcDb2dVertex
 10
3.485555860731337
 20
3.129166497124566
 30
0.0
  0
VERTEX
  5
170
330
16B
100
AcDbEntity
  8
CUTOUTS
 62
     7
420
 16777215
370
     5
100
AcDbVertex
100
AcDb2dVertex
 10
3.355972290039075
 20
3.396944681803385
 30
0.0
  0
VERTEX
  5
171
330
16B
100
AcDbEntity
  8
CUTOUTS
 62
     7
420
 16777215
370
     5
100
AcDbVertex
100
AcDb2dVertex
 10
3.45736100938585
 20
3.506944444444444
 30
0.0
  0
VERTEX
  5
172
330
16B
100
AcDbEntity
  8
CUTOUTS
 62
     7
420
 16777215
370
     5
100
AcDbVertex
100
AcDb2dVertex
 10
3.475694444444444
 20
3.503611246744792
 30
0.0
  0
VERTEX
  5
173
330
16B
100
AcDbEntity
  8
CUTOUTS
 62
     7
420
 16777215
370
     5
100
AcDbVertex
100
AcDb2dVertex
 10
3.493888854980469
 20
3.500278049045139
 30
0.0
  0
VERTEX
  5
174
330
16B
100
AcDbEntity
  8
CUTOUTS
 62
     7
420
 16777215
370
     5
100
AcDbVertex
100
AcDb2dVertex
 10
3.393611484103733
 20
3.391388787163628
 30
0.0
  0
VERTEX
  5
175
330
16B
100
AcDbEntity
  8
CUTOUTS
 62
     7
420
 16777215
370
     5
100
AcDbVertex
100
AcDb2dVertex
 10
3.516110738118489
 20
3.138194613986545
 30
0.0
  0
VERTEX
  5
176
330
16B
100
AcDbEntity
  8
CUTOUTS
 62
     7
420
 16777215
370
     5
100
AcDbVertex
100
AcDb2dVertex
 10
3.516388787163628
 20
3.135555691189236
 30
0.0
  0
VERTEX
  5
177
330
16B
100
AcDbEntity
  8
CUTOUTS
 62
     7
420
 16777215
370
     5
100
AcDbVertex
100
AcDb2dVertex
 10
3.584305657280816
 20
2.575138515896267
 30
0.0
  0
SEQEND
  5
178
330
16B
100
AcDbEntity
  8
CUTOUTS
 62
     7
420
 16777215
370
     5
  0
SPLINE
  5
179
330
1F
100
AcDbEntity
  8
CUTOUTS
 62
     7
420
 16777215
370
     9
100
AcDbSpline
210
0.0
220
0.0
230
1.0
 70
    11
 71
     3
 72
   107
 73
   103
 74
     0
 42
0.0000000001
 43
0.0000000001
 12
1.0
 22
0.0
 32
0.0
 13
1.0
 23
0.0
 33
0.0
 40
0.0
 40
0.0
 40
0.0
 40
0.0
 40
1.0
 40
1.0
 40
1.0
 40
2.0
 40
2.0
 40
2.0
 40
3.0
 40
3.0
 40
3.0
 40
4.0
 40
4.0
 40
4.0
 40
5.0
 40
5.0
 40
5.0
 40
6.0
 40
6.0
 40
6.0
 40
7.0
 40
7.0
 40
7.0
 40
8.0
 40
8.0
 40
8.0
 40
9.0
 40
9.0
 40
9.0
 40
10.0
 40
10.0
 40
10.0
 40
11.0
 40
11.0
 40
11.0
 40
12.0
 40
12.0
 40
12.0
 40
13.0
 40
13.0
 40
13.0
 40
14.0
 40
14.0
 40
14.0
 40
15.0
 40
15.0
 40
15.0
 40
16.0
 40
16.0
 40
16.0
 40
17.0
 40
17.0
 40
17.0
 40
18.0
 40
18.0
 40
18.0
 40
19.0
 40
19.0
 40
19.0
 40
20.0
 40
20.0
 40
20.0
 40
21.0
 40
21.0
 40
21.0
 40
22.0
 40
22.0
 40
22.0
 40
23.0
 40
23.0
 40
23.0
 40
24.0
 40
24.0
 40
24.0
 40
25.0
 40
25.0
 40
25.0
 40
26.0
 40
26.0
 40
26.0
 40
27.0
 40
27.0
 40
27.0
 40
28.0
 40
28.0
 40
28.0
 40
29.0
 40
29.0
 40
29.0
 40
30.0
 40
30.0
 40
30.0
 40
31.0
 40
31.0
 40
31.0
 40
32.0
 40
32.0
 40
32.0
 40
33.0
 40
33.0
 40
33.0
 40
34.0
 40
34.0
 40
34.0
 40
34.0
 10
5.164984809027778
 20
2.8994140625
 30
0.0
 10
5.158270941840278
 20
2.8994140625
 30
0.0
 10
5.151936848958333
 20
2.902031792534722
 30
0.0
 10
5.147121853298611
 20
2.906765407986111
 30
0.0
 10
5.142225477430555
 20
2.911593967013889
 30
0.0
 10
5.139539930555555
 20
2.918036566840278
 30
0.0
 10
5.139539930555555
 20
2.924913194444444
 30
0.0
 10
5.139539930555555
 20
2.924913194444444
 30
0.0
 10
5.139539930555555
 20
3.179958767361111
 30
0.0
 10
5.139539930555555
 20
3.179958767361111
 30
0.0
 10
5.139539930555555
 20
3.179958767361111
 30
0.0
 10
5.173407660590278
 20
3.179958767361111
 30
0.0
 10
5.173407660590278
 20
3.179958767361111
 30
0.0
 10
5.176662868923611
 20
3.179958767361111
 30
0.0
 10
5.1781005859375
 20
3.182237413194444
 30
0.0
 10
5.178575303819444
 20
3.183213975694444
 30
0.0
 10
5.179050021701388
 20
3.184190538194444
 30
0.0
 10
5.179918077256944
 20
3.186726888020833
 30
0.0
 10
5.177897135416666
 20
3.189276801215278
 30
0.0
 10
5.177897135416666
 20
3.189276801215278
 30
0.0
 10
5.055487738715278
 20
3.343329535590278
 30
0.0
 10
5.055487738715278
 20
3.343329535590278
 30
0.0
 10
5.0494384765625
 20
3.3509521484375
 30
0.0
 10
5.0482177734375
 20
3.361151801215278
 30
0.0
 10
5.052300347222222
 20
3.369981553819444
 30
0.0
 10
5.056382921006944
 20
3.378797743055555
 30
0.0
 10
5.064954969618055
 20
3.384467230902778
 30
0.0
 10
5.074666341145833
 20
3.384792751736111
 30
0.0
 10
5.074666341145833
 20
3.384792751736111
 30
0.0
 10
5.300876193576388
 20
3.392293294270833
 30
0.0
 10
5.300889756944444
 20
3.392293294270833
 30
0.0
 10
5.309882269965278
 20
3.392293294270833
 30
0.0
 10
5.317681206597222
 20
3.388454861111111
 30
0.0
 10
5.322645399305555
 20
3.382025824652778
 30
0.0
 10
5.322645399305555
 20
3.382025824652778
 30
0.0
 10
5.350273980034722
 20
3.346259223090278
 30
0.0
 10
5.350273980034722
 20
3.346259223090278
 30
0.0
 10
5.350273980034722
 20
3.346259223090278
 30
0.0
 10
5.350273980034722
 20
3.347507052951389
 30
0.0
 10
5.350273980034722
 20
3.347507052951389
 30
0.0
 10
5.350273980034722
 20
3.361246744791667
 30
0.0
 10
5.3614501953125
 20
3.372667100694444
 30
0.0
 10
5.375189887152778
 20
3.372951931423611
 30
0.0
 10
5.375189887152778
 20
3.372951931423611
 30
0.0
 10
5.418768988715278
 20
3.373847113715278
 30
0.0
 10
5.418782552083333
 20
3.373847113715278
 30
0.0
 10
5.426255967881944
 20
3.373847113715278
 30
0.0
 10
5.4327392578125
 20
3.371120876736111
 30
0.0
 10
5.437594943576388
 20
3.366156684027778
 30
0.0
 10
5.442450629340278
 20
3.3612060546875
 30
0.0
 10
5.445041232638888
 20
3.354654947916667
 30
0.0
 10
5.444892035590278
 20
3.347710503472222
 30
0.0
 10
5.444892035590278
 20
3.347710503472222
 30
0.0
 10
5.443088107638888
 20
3.257785373263889
 30
0.0
 10
5.443088107638888
 20
3.257785373263889
 30
0.0
 10
5.443088107638888
 20
3.257785373263889
 30
0.0
 10
5.482381184895833
 20
3.199652777777778
 30
0.0
 10
5.482381184895833
 20
3.199652777777778
 30
0.0
 10
5.487657335069444
 20
3.191840277777778
 30
0.0
 10
5.488199869791666
 20
3.181803385416667
 30
0.0
 10
5.4837646484375
 20
3.173475477430555
 30
0.0
 10
5.479342990451388
 20
3.165134006076389
 30
0.0
 10
5.470730251736111
 20
3.159966362847222
 30
0.0
 10
5.4613037109375
 20
3.159966362847222
 30
0.0
 10
5.4613037109375
 20
3.159966362847222
 30
0.0
 10
5.451592339409722
 20
3.159966362847222
 30
0.0
 10
5.451592339409722
 20
3.159966362847222
 30
0.0
 10
5.451592339409722
 20
3.159966362847222
 30
0.0
 10
5.454928927951388
 20
2.982421875
 30
0.0
 10
5.454928927951388
 20
2.982421875
 30
0.0
 10
5.455173068576388
 20
2.969997829861111
 30
0.0
 10
5.446492513020833
 20
2.959323459201389
 30
0.0
 10
5.434271918402778
 20
2.957017686631944
 30
0.0
 10
5.434271918402778
 20
2.957017686631944
 30
0.0
 10
5.376302083333333
 20
2.946044921875
 30
0.0
 10
5.376302083333333
 20
2.946044921875
 30
0.0
 10
5.374701605902778
 20
2.945732964409722
 30
0.0
 10
5.373101128472222
 20
2.945583767361111
 30
0.0
 10
5.371527777777778
 20
2.945583767361111
 30
0.0
 10
5.364813910590278
 20
2.945583767361111
 30
0.0
 10
5.358466254340278
 20
2.948201497395833
 30
0.0
 10
5.353664822048611
 20
2.952948676215278
 30
0.0
 10
5.348795572916666
 20
2.957763671875
 30
0.0
 10
5.346110026041666
 20
2.964192708333333
 30
0.0
 10
5.346110026041666
 20
2.971055772569444
 30
0.0
 10
5.346110026041666
 20
2.971055772569444
 30
0.0
 10
5.346110026041666
 20
3.077473958333333
 30
0.0
 10
5.346110026041666
 20
3.077473958333333
 30
0.0
 10
5.346110026041666
 20
3.077473958333333
 30
0.0
 10
5.294786241319444
 20
3.0673828125
 30
0.0
 10
5.294786241319444
 20
3.0673828125
 30
0.0
 10
5.294786241319444
 20
3.0673828125
 30
0.0
 10
5.294786241319444
 20
2.947645399305555
 30
0.0
 10
5.294786241319444
 20
2.947645399305555
 30
0.0
 10
5.294786241319444
 20
2.935655381944444
 30
0.0
 10
5.286282009548611
 20
2.925103081597222
 30
0.0
 10
5.274549696180555
 20
2.922553168402778
 30
0.0
 10
5.274549696180555
 20
2.922553168402778
 30
0.0
 10
5.17041015625
 20
2.899997287326389
 30
0.0
 10
5.17041015625
 20
2.899997287326389
 30
0.0
 10
5.168619791666666
 20
2.899617513020833
 30
0.0
 10
5.166802300347222
 20
2.8994140625
 30
0.0
 10
5.164984809027778
 20
2.8994140625
 30
0.0
  0
POLYLINE
  5
17A
330
1F
100
AcDbEntity
  8
CUTOUTS
 62
     7
420
 16777215
370
     9
100
AcDb2dPolyline
 66
     1
 10
0.0
 20
0.0
 30
0.0
  0
VERTEX
  5
17B
330
17A
100
AcDbEntity
  8
CUTOUTS
 62
     7
420
 16777215
370
     9
100
AcDbVertex
100
AcDb2dVertex
 10
3.050496419270833
 20
2.868991427951389
 30
0.0
  0
VERTEX
  5
17C
330
17A
100
AcDbEntity
  8
CUTOUTS
 62
     7
420
 16777215
370
     9
100
AcDbVertex
100
AcDb2dVertex
 10
2.897203233506944
 20
2.868991427951389
 30
0.0
  0
VERTEX
  5
17D
330
17A
100
AcDbEntity
  8
CUTOUTS
 62
     7
420
 16777215
370
     9
100
AcDbVertex
100
AcDb2dVertex
 10
2.897203233506944
 20
3.081895616319444
 30
0.0
  0
VERTEX
  5
17E
330
17A
100
AcDbEntity
  8
CUTOUTS
 62
     7
420
 16777215
370
     9
100
AcDbVertex
100
AcDb2dVertex
 10
3.144036187065972
 20
3.018107096354167
 30
0.0
  0
VERTEX
  5
17F
330
17A
100
AcDbEntity
  8
CUTOUTS
 62
     7
420
 16777215
370
     9
100
AcDbVertex
100
AcDb2dVertex
 10
3.050496419270833
 20
2.962144639756944
 30
0.0
  0
VERTEX
  5
180
330
17A
100
AcDbEntity
  8
CUTOUTS
 62
     7
420
 16777215
370
     9
100
AcDbVertex
100
AcDb2dVertex
 10
3.050496419270833
 20
2.868991427951389
 30
0.0
  0
SEQEND
  5
181
330
17A
100
AcDbEntity
  8
CUTOUTS
 62
     7
420
 16777215
370
     9
  0
SPLINE
  5
183
330
1F
100
AcDbEntity
  8
OUTLINES
 62
     7
420
 16777215
370
     9
100
AcDbSpline
210
0.0
220
0.0
230
1.0
 70
     8
 71
     3
 72
   152
 73
   148
 74
     0
 42
0.0000000001
 43
0.0000000001
 12
1.0
 22
0.0
 32
0.0
 13
1.0
 23
0.0
 33
0.0
 40
0.0
 40
0.0
 40
0.0
 40
0.0
 40
1.0
 40
1.0
 40
1.0
 40
2.0
 40
2.0
 40
2.0
 40
3.0
 40
3.0
 40
3.0
 40
4.0
 40
4.0
 40
4.0
 40
5.0
 40
5.0
 40
5.0
 40
6.0
 40
6.0
 40
6.0
 40
7.0
 40
7.0
 40
7.0
 40
8.0
 40
8.0
 40
8.0
 40
9.0
 40
9.0
 40
9.0
 40
10.0
 40
10.0
 40
10.0
 40
11.0
 40
11.0
 40
11.0
 40
12.0
 40
12.0
 40
12.0
 40
13.0
 40
13.0
 40
13.0
 40
14.0
 40
14.0
 40
14.0
 40
15.0
 40
15.0
 40
15.0
 40
16.0
 40
16.0
 40
16.0
 40
17.0
 40
17.0
 40
17.0
 40
18.0
 40
18.0
 40
18.0
 40
19.0
 40
19.0
 40
19.0
 40
20.0
 40
20.0
 40
20.0
 40
21.0
 40
21.0
 40
21.0
 40
22.0
 40
22.0
 40
22.0
 40
23.0
 40
23.0
 40
23.0
 40
24.0
 40
24.0
 40
24.0
 40
25.0
 40
25.0
 40
25.0
 40
26.0
 40
26.0
 40
26.0
 40
27.0
 40
27.0
 40
27.0
 40
28.0
 40
28.0
 40
28.0
 40
29.0
 40
29.0
 40
29.0
 40
30.0
 40
30.0
 40
30.0
 40
31.0
 40
31.0
 40
31.0
 40
32.0
 40
32.0
 40
32.0
 40
33.0
 40
33.0
 40
33.0
 40
34.0
 40
34.0
 40
34.0
 40
35.0
 40
35.0
 40
35.0
 40
36.0
 40
36.0
 40
36.0
 40
37.0
 40
37.0
 40
37.0
 40
38.0
 40
38.0
 40
38.0
 40
39.0
 40
39.0
 40
39.0
 40
40.0
 40
40.0
 40
40.0
 40
41.0
 40
41.0
 40
41.0
 40
42.0
 40
42.0
 40
42.0
 40
43.0
 40
43.0
 40
43.0
 40
44.0
 40
44.0
 40
44.0
 40
45.0
 40
45.0
 40
45.0
 40
46.0
 40
46.0
 40
46.0
 40
47.0
 40
47.0
 40
47.0
 40
48.0
 40
48.0
 40
48.0
 40
49.0
 40
49.0
 40
49.0
 40
49.0
 10
6.621338751863327
 20
3.229326462620924
 30
0.0
 10
6.621338751863327
 20
3.229326462620924
 30
0.0
 10
7.159357531979796
 20
3.051382391123727
 30
0.0
 10
7.159357531979796
 20
3.051382391123727
 30
0.0
 10
7.169129831916861
 20
3.048150305331344
 30
0.0
 10
7.176562876210659
 20
3.04013396096338
 30
0.0
 10
7.179048893907495
 20
3.030145770976257
 30
0.0
 10
7.179048893907495
 20
3.030145770976257
 30
0.0
 10
7.319159935768235
 20
2.467215061643805
 30
0.0
 10
7.319159935768235
 20
2.467215061643805
 30
0.0
 10
7.321230188931066
 20
2.458897308166165
 30
0.0
 10
7.319643623921946
 20
2.450091245673522
 30
0.0
 10
7.314800602183039
 20
2.443019038639325
 30
0.0
 10
7.314800602183039
 20
2.443019038639325
 30
0.0
 10
6.714948420710293
 20
1.567062033596762
 30
0.0
 10
6.714948420710293
 20
1.567062033596762
 30
0.0
 10
6.709221894560667
 20
1.558699628054961
 30
0.0
 10
6.699660172570652
 20
1.553794049533255
 30
0.0
 10
6.68952745858433
 20
1.554019960967985
 30
0.0
 10
6.68952745858433
 20
1.554019960967985
 30
0.0
 10
5.941338289534087
 20
1.570701044359794
 30
0.0
 10
5.941338289534087
 20
1.570701044359794
 30
0.0
 10
5.93528221317221
 20
1.570836066120036
 30
0.0
 10
5.929408877804286
 20
1.572801275245032
 30
0.0
 10
5.924491042153502
 20
1.576338107848237
 30
0.0
 10
5.924491042153502
 20
1.576338107848237
 30
0.0
 10
4.688861748704211
 20
2.464984444394203
 30
0.0
 10
4.688861748704211
 20
2.464984444394203
 30
0.0
 10
4.682542332509077
 20
2.46952927651268
 30
0.0
 10
4.674703820376735
 20
2.471439918151494
 30
0.0
 10
4.66700186391659
 20
2.470312803298561
 30
0.0
 10
4.66700186391659
 20
2.470312803298561
 30
0.0
 10
3.593980274909073
 20
2.313285359689517
 30
0.0
 10
3.593980274909073
 20
2.313285359689517
 30
0.0
 10
3.588018343274017
 20
2.312412882478283
 30
0.0
 10
3.582457290433442
 20
2.309765332836125
 30
0.0
 10
3.578021378635235
 20
2.305687523177893
 30
0.0
 10
3.578021378635235
 20
2.305687523177893
 30
0.0
 10
2.716554243792214
 20
1.51376446810304
 30
0.0
 10
2.716554243792214
 20
1.51376446810304
 30
0.0
 10
2.711609462011893
 20
1.509218861387025
 30
0.0
 10
2.705282292462647
 20
1.506464128169985
 30
0.0
 10
2.698586010399493
 20
1.505941429849321
 30
0.0
 10
2.698586010399493
 20
1.505941429849321
 30
0.0
 10
1.834535398553321
 20
1.438495295918377
 30
0.0
 10
1.834535398553321
 20
1.438495295918377
 30
0.0
 10
1.825066998286704
 20
1.437756211621389
 30
0.0
 10
1.815807846094458
 20
1.441544160709378
 30
0.0
 10
1.809572503300665
 20
1.448707773636367
 30
0.0
 10
1.809572503300665
 20
1.448707773636367
 30
0.0
 10
1.116520095501882
 20
2.2449230907323
 30
0.0
 10
1.116520095501882
 20
2.2449230907323
 30
0.0
 10
1.108119698456524
 20
2.254573911827896
 30
0.0
 10
1.106764608585991
 20
2.268490426501608
 30
0.0
 10
1.113145403514649
 20
2.279580533511863
 30
0.0
 10
1.113145403514649
 20
2.279580533511863
 30
0.0
 10
1.700924308242065
 20
3.301167018532901
 30
0.0
 10
1.700924308242065
 20
3.301167018532901
 30
0.0
 10
1.706426966052908
 20
3.310730891670245
 30
0.0
 10
1.716735485637148
 20
3.31650220795119
 30
0.0
 10
1.727765080314435
 20
3.316194063289307
 30
0.0
 10
1.727765080314435
 20
3.316194063289307
 30
0.0
 10
2.959506982991267
 20
3.281781625044964
 30
0.0
 10
2.959506982991267
 20
3.281781625044964
 30
0.0
 10
2.967561450092894
 20
3.281556599443067
 30
0.0
 10
2.975367847498824
 20
3.284581105088137
 30
0.0
 10
2.981168175511155
 20
3.290174071381645
 30
0.0
 10
2.981168175511155
 20
3.290174071381645
 30
0.0
 10
3.500811831739914
 20
3.791234987286821
 30
0.0
 10
3.500811831739914
 20
3.791234987286821
 30
0.0
 10
3.506403256658144
 20
3.796626464724391
 30
0.0
 10
3.513867865871791
 20
3.799639106776441
 30
0.0
 10
3.521635237472019
 20
3.799639106776441
 30
0.0
 10
3.521635237472019
 20
3.799639106776441
 30
0.0
 10
3.521666666666672
 20
3.799583333333329
 30
0.0
 10
3.521666666666672
 20
3.799583333333329
 30
0.0
 10
3.521666666666672
 20
3.799583333333329
 30
0.0
 10
3.727083333333338
 20
3.799583333333329
 30
0.0
 10
3.727083333333338
 20
3.799583333333329
 30
0.0
 10
3.727083333333338
 20
3.799583333333329
 30
0.0
 10
3.748472222222226
 20
3.799583333333329
 30
0.0
 10
3.748472222222226
 20
3.799583333333329
 30
0.0
 10
3.748472222222226
 20
3.799583333333329
 30
0.0
 10
3.748611111111131
 20
3.799583333333329
 30
0.0
 10
3.748611111111131
 20
3.799583333333329
 30
0.0
 10
3.748611111111131
 20
3.799583333333329
 30
0.0
 10
4.084583333333335
 20
3.799583333333329
 30
0.0
 10
4.084583333333335
 20
3.799583333333329
 30
0.0
 10
4.084583333333335
 20
3.799583333333329
 30
0.0
 10
4.105694444444453
 20
3.799583333333329
 30
0.0
 10
4.105694444444453
 20
3.799583333333329
 30
0.0
 10
4.105694444444453
 20
3.799583333333329
 30
0.0
 10
4.105833333333331
 20
3.799583333333329
 30
0.0
 10
4.105833333333331
 20
3.799583333333329
 30
0.0
 10
4.105833333333331
 20
3.799583333333329
 30
0.0
 10
4.348611111111116
 20
3.799583333333329
 30
0.0
 10
4.348611111111116
 20
3.799583333333329
 30
0.0
 10
4.348611111111116
 20
3.799583333333329
 30
0.0
 10
4.369722222222233
 20
3.799583333333329
 30
0.0
 10
4.369722222222233
 20
3.799583333333329
 30
0.0
 10
4.369722222222233
 20
3.799583333333329
 30
0.0
 10
4.369861111111125
 20
3.799583333333329
 30
0.0
 10
4.369861111111125
 20
3.799583333333329
 30
0.0
 10
4.369861111111125
 20
3.799583333333329
 30
0.0
 10
4.605972222222236
 20
3.799583333333329
 30
0.0
 10
4.605972222222236
 20
3.799583333333329
 30
0.0
 10
4.605972222222236
 20
3.799583333333329
 30
0.0
 10
4.624305555555566
 20
3.799583333333329
 30
0.0
 10
4.624305555555566
 20
3.799583333333329
 30
0.0
 10
4.624305555555566
 20
3.799583333333329
 30
0.0
 10
5.035138888888897
 20
3.799583333333329
 30
0.0
 10
5.035138888888897
 20
3.799583333333329
 30
0.0
 10
5.035138888888897
 20
3.799583333333329
 30
0.0
 10
5.04020456971946
 20
3.79919761843232
 30
0.0
 10
5.04020456971946
 20
3.79919761843232
 30
0.0
 10
5.04020456971946
 20
3.79919761843232
 30
0.0
 10
5.332760494332787
 20
3.74844487795119
 30
0.0
 10
5.332760494332787
 20
3.74844487795119
 30
0.0
 10
5.334578730436785
 20
3.748129449489827
 30
0.0
 10
5.336363983755442
 20
3.747646925277094
 30
0.0
 10
5.338093551943327
 20
3.747003441378562
 30
0.0
 10
5.338093551943327
 20
3.747003441378562
 30
0.0
 10
5.338055555555557
 20
3.746944444444453
 30
0.0
 10
5.338055555555557
 20
3.746944444444453
 30
0.0
 10
5.338055555555557
 20
3.746944444444453
 30
0.0
 10
5.375833333333326
 20
3.732916666666672
 30
0.0
 10
5.375833333333326
 20
3.732916666666672
 30
0.0
 10
5.375833333333326
 20
3.732916666666672
 30
0.0
 10
5.375972222222217
 20
3.732916666666672
 30
0.0
 10
5.375972222222217
 20
3.732916666666672
 30
0.0
 10
5.375972222222217
 20
3.732916666666672
 30
0.0
 10
5.415694444444449
 20
3.718055555555566
 30
0.0
 10
5.415694444444449
 20
3.718055555555566
 30
0.0
 10
5.415694444444449
 20
3.718055555555566
 30
0.0
 10
5.41583333333334
 20
3.718055555555566
 30
0.0
 10
5.41583333333334
 20
3.718055555555566
 30
0.0
 10
5.41583333333334
 20
3.718055555555566
 30
0.0
 10
5.416527777777774
 20
3.717777777777782
 30
0.0
 10
5.416527777777774
 20
3.717777777777782
 30
0.0
 10
5.416527777777774
 20
3.717777777777782
 30
0.0
 10
6.022916666666661
 20
3.492222222222229
 30
0.0
 10
6.022916666666661
 20
3.492222222222229
 30
0.0
 10
6.022916666666661
 20
3.492222222222229
 30
0.0
 10
6.024467838969864
 20
3.49158479861684
 30
0.0
 10
6.024467838969864
 20
3.49158479861684
 30
0.0
 10
6.024467838969864
 20
3.49158479861684
 30
0.0
 10
6.618685324331838
 20
3.230345896702778
 30
0.0
 10
6.618685324331838
 20
3.230345896702778
 30
0.0
  0
ENDSEC
  0
SECTION
  2
OBJECTS
  0
DICTIONARY
  5
C
330
0
100
AcDbDictionary
281
     1
  3
ACAD_GROUP
350
D
  3
ACAD_LAYOUT
350
1A
  3
ACAD_MATERIAL
350
3B
  3
ACAD_MLEADERSTYLE
350
185
  3
ACAD_MLINESTYLE
350
17
  3
ACAD_PLOTSETTINGS
350
19
  3
ACAD_PLOTSTYLENAME
350
E
  3
ACAD_TABLESTYLE
350
184
  3
ACAD_VISUALSTYLE
350
2A
  0
SUN
  5
3F
330
29
100
AcDbSun
 90
        1
290
     0
 63
     7
421
 16777215
 40
1.0
291
     1
 91
  2455826
 92
 54000000
292
     0
 70
     2
 71
   256
280
     1
  0
DICTIONARY
  5
D
102
{ACAD_REACTORS
330
C
102
}
330
C
100
AcDbDictionary
281
     1
  0
DICTIONARY
  5
1A
102
{ACAD_REACTORS
330
C
102
}
330
C
100
AcDbDictionary
281
     1
  3
Layout1
350
1E
  3
Layout2
350
26
  3
Model
350
22
  0
DICTIONARY
  5
3B
102
{ACAD_REACTORS
330
C
102
}
330
C
100
AcDbDictionary
281
     1
  3
ByBlock
350
3D
  3
ByLayer
350
3C
  3
Global
350
3E
  0
DICTIONARY
  5
185
102
{ACAD_REACTORS
330
C
102
}
330
C
100
AcDbDictionary
281
     1
  0
DICTIONARY
  5
17
102
{ACAD_REACTORS
330
C
102
}
330
C
100
AcDbDictionary
281
     1
  3
Standard
350
18
  0
DICTIONARY
  5
19
102
{ACAD_REACTORS
330
C
102
}
330
C
100
AcDbDictionary
281
     1
  0
ACDBDICTIONARYWDFLT
  5
E
102
{ACAD_REACTORS
330
C
102
}
330
C
100
AcDbDictionary
281
     1
  3
Normal
350
F
100
AcDbDictionaryWithDefault
340
F
  0
DICTIONARY
  5
184
102
{ACAD_REACTORS
330
C
102
}
330
C
100
AcDbDictionary
281
     1
  0
DICTIONARY
  5
2A
102
{ACAD_REACTORS
330
C
102
}
330
C
100
AcDbDictionary
281
     1
  3
2dWireframe
350
2F
  3
3D Hidden
350
31
  3
3dWireframe
350
30
  3
Basic
350
32
  3
Brighten
350
36
  3
ColorChange
350
3A
  3
Conceptual
350
34
  3
Dim
350
35
  3
Facepattern
350
39
  3
Flat
350
2B
  3
FlatWithEdges
350
2C
  3
Gouraud
350
2D
  3
GouraudWithEdges
350
2E
  3
Linepattern
350
38
  3
Realistic
350
33
  3
Thicken
350
37
  0
LAYOUT
  5
1E
102
{ACAD_REACTORS
330
1A
102
}
330
1A
100
AcDbPlotSettings
  1

  2
none_device
  4

  6

 40
0.0
 41
0.0
 42
0.0
 43
0.0
 44
0.0
 45
0.0
 46
0.0
 47
0.0
 48
0.0
 49
0.0
140
0.0
141
0.0
142
1.0
143
1.0
 70
   688
 72
     0
 73
     0
 74
     5
  7

 75
    16
 76
     0
 77
     2
 78
   300
147
1.0
148
0.0
149
0.0
100
AcDbLayout
  1
Layout1
 70
     1
 71
     1
 10
0.0
 20
0.0
 11
12.0
 21
9.0
 12
0.0
 22
0.0
 32
0.0
 14
1.000000000000000E+20
 24
1.000000000000000E+20
 34
1.000000000000000E+20
 15
-1.000000000000000E+20
 25
-1.000000000000000E+20
 35
-1.000000000000000E+20
146
0.0
 13
0.0
 23
0.0
 33
0.0
 16
1.0
 26
0.0
 36
0.0
 17
0.0
 27
1.0
 37
0.0
 76
     0
330
1B
  0
LAYOUT
  5
26
102
{ACAD_REACTORS
330
1A
102
}
330
1A
100
AcDbPlotSettings
  1

  2
none_device
  4

  6

 40
0.0
 41
0.0
 42
0.0
 43
0.0
 44
0.0
 45
0.0
 46
0.0
 47
0.0
 48
0.0
 49
0.0
140
0.0
141
0.0
142
1.0
143
1.0
 70
   688
 72
     0
 73
     0
 74
     5
  7

 75
    16
 76
     0
 77
     2
 78
   300
147
1.0
148
0.0
149
0.0
100
AcDbLayout
  1
Layout2
 70
     1
 71
     2
 10
0.0
 20
0.0
 11
0.0
 21
0.0
 12
0.0
 22
0.0
 32
0.0
 14
0.0
 24
0.0
 34
0.0
 15
0.0
 25
0.0
 35
0.0
146
0.0
 13
0.0
 23
0.0
 33
0.0
 16
1.0
 26
0.0
 36
0.0
 17
0.0
 27
1.0
 37
0.0
 76
     0
330
23
  0
LAYOUT
  5
22
102
{ACAD_REACTORS
330
1A
102
}
330
1A
100
AcDbPlotSettings
  1

  2
none_device
  4

  6

 40
0.0
 41
0.0
 42
0.0
 43
0.0
 44
0.0
 45
0.0
 46
0.0
 47
0.0
 48
0.0
 49
0.0
140
0.0
141
0.0
142
1.0
143
1.0
 70
  1712
 72
     0
 73
     0
 74
     0
  7

 75
     0
 76
     0
 77
     2
 78
   300
147
1.0
148
0.0
149
0.0
100
AcDbLayout
  1
Model
 70
     1
 71
     0
 10
0.0
 20
0.0
 11
12.0
 21
9.0
 12
0.0
 22
0.0
 32
0.0
 14
1.000000000000000E+20
 24
1.000000000000000E+20
 34
1.000000000000000E+20
 15
-1.000000000000000E+20
 25
-1.000000000000000E+20
 35
-1.000000000000000E+20
146
0.0
 13
0.0
 23
0.0
 33
0.0
 16
1.0
 26
0.0
 36
0.0
 17
0.0
 27
1.0
 37
0.0
 76
     0
330
1F
331
29
  0
MATERIAL
  5
3D
102
{ACAD_REACTORS
330
3B
102
}
330
3B
100
AcDbMaterial
  1
ByBlock
 72
     1
 94
      127
  0
MATERIAL
  5
3C
102
{ACAD_REACTORS
330
3B
102
}
330
3B
100
AcDbMaterial
  1
ByLayer
 72
     1
 94
      127
  0
MATERIAL
  5
3E
102
{ACAD_REACTORS
330
3B
102
}
330
3B
100
AcDbMaterial
  1
Global
 72
     1
 94
      127
  0
MLINESTYLE
  5
18
102
{ACAD_REACTORS
330
17
102
}
330
17
100
AcDbMlineStyle
  2
Standard
 70
     0
  3

 62
   256
 51
90.0
 52
90.0
 71
     2
 49
0.5
 62
   256
  6
BYLAYER
 49
-0.5
 62
   256
  6
BYLAYER
  0
ACDBPLACEHOLDER
  5
F
102
{ACAD_REACTORS
330
E
102
}
330
E
  0
VISUALSTYLE
  5
2F
102
{ACAD_REACTORS
330
2A
102
}
330
2A
100
AcDbVisualStyle
  2
2dWireframe
 70
     4
177
     2
291
     0
 71
     0
176
     1
 72
     2
176
     1
 73
     0
176
     1
 90
        0
176
     1
 40
-0.6
176
     1
 41
-30.0
176
     1
 62
     5
 63
     7
421
 16777215
176
     1
 74
     1
176
     1
 91
        4
176
     1
 64
     7
176
     1
 65
   257
176
     1
 75
     1
176
     1
175
     1
176
     1
 42
1.0
176
     1
 92
        0
176
     1
 66
   257
176
     1
 43
1.0
176
     1
 76
     1
176
     1
 77
     6
176
     1
 78
     2
176
     1
 67
     7
176
     1
 79
     5
176
     1
170
     0
176
     1
171
     0
176
     1
290
     0
176
     1
 93
        1
176
     1
 44
0.0
176
     1
173
     0
176
     1
  0
VISUALSTYLE
  5
31
102
{ACAD_REACTORS
330
2A
102
}
330
2A
100
AcDbVisualStyle
  2
3D Hidden
 70
     6
177
     2
291
     0
 71
     1
176
     1
 72
     2
176
     1
 73
     2
176
     1
 90
        0
176
     1
 40
-0.6
176
     1
 41
-30.0
176
     1
 62
     5
 63
     7
421
 16777215
176
     1
 74
     2
176
     1
 91
        2
176
     1
 64
     7
176
     1
 65
   257
176
     1
 75
     2
176
     1
175
     1
176
     1
 42
40.0
176
     1
 92
        0
176
     1
 66
   257
176
     1
 43
1.0
176
     1
 76
     1
176
     1
 77
     6
176
     1
 78
     2
176
     1
 67
     7
176
     1
 79
     3
176
     1
170
     0
176
     1
171
     0
176
     1
290
     0
176
     1
 93
        1
176
     1
 44
0.0
176
     1
173
     0
176
     1
  0
VISUALSTYLE
  5
30
102
{ACAD_REACTORS
330
2A
102
}
330
2A
100
AcDbVisualStyle
  2
3dWireframe
 70
     5
177
     2
291
     0
 71
     0
176
     1
 72
     2
176
     1
 73
     0
176
     1
 90
        0
176
     1
 40
-0.6
176
     1
 41
-30.0
176
     1
 62
     5
 63
     7
421
 16777215
176
     1
 74
     1
176
     1
 91
        4
176
     1
 64
     7
176
     1
 65
   257
176
     1
 75
     1
176
     1
175
     1
176
     1
 42
1.0
176
     1
 92
        0
176
     1
 66
   257
176
     1
 43
1.0
176
     1
 76
     1
176
     1
 77
     6
176
     1
 78
     2
176
     1
 67
     7
176
     1
 79
     5
176
     1
170
     0
176
     1
171
     0
176
     1
290
     0
176
     1
 93
        1
176
     1
 44
0.0
176
     1
173
     0
176
     1
  0
VISUALSTYLE
  5
32
102
{ACAD_REACTORS
330
2A
102
}
330
2A
100
AcDbVisualStyle
  2
Basic
 70
     7
177
     2
291
     1
 71
     1
176
     1
 72
     0
176
     1
 73
     1
176
     1
 90
        0
176
     1
 40
-0.6
176
     1
 41
-30.0
176
     1
 62
     5
 63
     7
421
 16777215
176
     1
 74
     0
176
     1
 91
        4
176
     1
 64
     7
176
     1
 65
   257
176
     1
 75
     1
176
     1
175
     1
176
     1
 42
1.0
176
     1
 92
        8
176
     1
 66
     7
176
     1
 43
1.0
176
     1
 76
     1
176
     1
 77
     6
176
     1
 78
     2
176
     1
 67
     7
176
     1
 79
     5
176
     1
170
     0
176
     1
171
     0
176
     1
290
     0
176
     1
 93
        1
176
     1
 44
0.0
176
     1
173
     0
176
     1
  0
VISUALSTYLE
  5
36
102
{ACAD_REACTORS
330
2A
102
}
330
2A
100
AcDbVisualStyle
  2
Brighten
 70
    12
177
     2
291
     1
 71
     2
176
     1
 72
     2
176
     1
 73
     0
176
     1
 90
        0
176
     1
 40
-0.6
176
     1
 41
-30.0
176
     1
 62
     5
 63
     7
421
 16777215
176
     1
 74
     1
176
     1
 91
        4
176
     1
 64
     7
176
     1
 65
   257
176
     1
 75
     1
176
     1
175
     1
176
     1
 42
1.0
176
     1
 92
        8
176
     1
 66
     7
176
     1
 43
1.0
176
     1
 76
     1
176
     1
 77
     6
176
     1
 78
     2
176
     1
 67
     7
176
     1
 79
     5
176
     1
170
     0
176
     1
171
     0
176
     1
290
     0
176
     1
 93
        1
176
     1
 44
50.0
176
     1
173
     0
176
     1
  0
VISUALSTYLE
  5
3A
102
{ACAD_REACTORS
330
2A
102
}
330
2A
100
AcDbVisualStyle
  2
ColorChange
 70
    16
177
     2
291
     1
 71
     2
176
     1
 72
     2
176
     1
 73
     3
176
     1
 90
        0
176
     1
 40
-0.6
176
     1
 41
-30.0
176
     1
 62
     5
 63
     8
421
  8421504
176
     1
 74
     1
176
     1
 91
        4
176
     1
 64
     7
176
     1
 65
   257
176
     1
 75
     1
176
     1
175
     1
176
     1
 42
1.0
176
     1
 92
        8
176
     1
 66
     8
424
  8421504
176
     1
 43
1.0
176
     1
 76
     1
176
     1
 77
     6
176
     1
 78
     2
176
     1
 67
     7
176
     1
 79
     5
176
     1
170
     0
176
     1
171
     0
176
     1
290
     0
176
     1
 93
        1
176
     1
 44
0.0
176
     1
173
     0
176
     1
  0
VISUALSTYLE
  5
34
102
{ACAD_REACTORS
330
2A
102
}
330
2A
100
AcDbVisualStyle
  2
Conceptual
 70
     9
177
     2
291
     0
 71
     3
176
     1
 72
     2
176
     1
 73
     0
176
     1
 90
        0
176
     1
 40
-0.6
176
     1
 41
-30.0
176
     1
 62
     5
 63
     7
421
 16777215
176
     1
 74
     2
176
     1
 91
        2
176
     1
 64
     7
176
     1
 65
   257
176
     1
 75
     1
176
     1
175
     1
176
     1
 42
40.0
176
     1
 92
        8
176
     1
 66
     7
176
     1
 43
1.0
176
     1
 76
     1
176
     1
 77
     6
176
     1
 78
     2
176
     1
 67
     7
176
     1
 79
     3
176
     1
170
     0
176
     1
171
     0
176
     1
290
     0
176
     1
 93
        1
176
     1
 44
0.0
176
     1
173
     0
176
     1
  0
VISUALSTYLE
  5
35
102
{ACAD_REACTORS
330
2A
102
}
330
2A
100
AcDbVisualStyle
  2
Dim
 70
    11
177
     2
291
     1
 71
     2
176
     1
 72
     2
176
     1
 73
     0
176
     1
 90
        0
176
     1
 40
-0.6
176
     1
 41
-30.0
176
     1
 62
     5
 63
     7
421
 16777215
176
     1
 74
     1
176
     1
 91
        4
176
     1
 64
     7
176
     1
 65
   257
176
     1
 75
     1
176
     1
175
     1
176
     1
 42
1.0
176
     1
 92
        8
176
     1
 66
     7
176
     1
 43
1.0
176
     1
 76
     1
176
     1
 77
     6
176
     1
 78
     2
176
     1
 67
     7
176
     1
 79
     5
176
     1
170
     0
176
     1
171
     0
176
     1
290
     0
176
     1
 93
        1
176
     1
 44
-50.0
176
     1
173
     0
176
     1
  0
VISUALSTYLE
  5
39
102
{ACAD_REACTORS
330
2A
102
}
330
2A
100
AcDbVisualStyle
  2
Facepattern
 70
    15
177
     2
291
     1
 71
     2
176
     1
 72
     2
176
     1
 73
     0
176
     1
 90
        0
176
     1
 40
-0.6
176
     1
 41
-30.0
176
     1
 62
     5
 63
     7
421
 16777215
176
     1
 74
     1
176
     1
 91
        4
176
     1
 64
     7
176
     1
 65
   257
176
     1
 75
     1
176
     1
175
     1
176
     1
 42
1.0
176
     1
 92
        8
176
     1
 66
     7
176
     1
 43
1.0
176
     1
 76
     1
176
     1
 77
     6
176
     1
 78
     2
176
     1
 67
     7
176
     1
 79
     5
176
     1
170
     0
176
     1
171
     0
176
     1
290
     0
176
     1
 93
        1
176
     1
 44
0.0
176
     1
173
     0
176
     1
  0
VISUALSTYLE
  5
2B
102
{ACAD_REACTORS
330
2A
102
}
330
2A
100
AcDbVisualStyle
  2
Flat
 70
     0
177
     2
291
     1
 71
     2
176
     1
 72
     1
176
     1
 73
     1
176
     1
 90
        2
176
     1
 40
-0.6
176
     1
 41
30.0
176
     1
 62
     5
 63
     7
421
 16777215
176
     1
 74
     0
176
     1
 91
        4
176
     1
 64
     7
176
     1
 65
   257
176
     1
 75
     1
176
     1
175
     1
176
     1
 42
1.0
176
     1
 92
        8
176
     1
 66
     7
176
     1
 43
1.0
176
     1
 76
     1
176
     1
 77
     6
176
     1
 78
     2
176
     1
 67
     7
176
     1
 79
     5
176
     1
170
     0
176
     1
171
     0
176
     1
290
     0
176
     1
 93
       13
176
     1
 44
0.0
176
     1
173
     0
176
     1
  0
VISUALSTYLE
  5
2C
102
{ACAD_REACTORS
330
2A
102
}
330
2A
100
AcDbVisualStyle
  2
FlatWithEdges
 70
     1
177
     2
291
     1
 71
     2
176
     1
 72
     1
176
     1
 73
     1
176
     1
 90
        2
176
     1
 40
-0.6
176
     1
 41
30.0
176
     1
 62
     5
 63
     7
421
 16777215
176
     1
 74
     1
176
     1
 91
        4
176
     1
 64
     7
176
     1
 65
   257
176
     1
 75
     1
176
     1
175
     1
176
     1
 42
1.0
176
     1
 92
        0
176
     1
 66
   257
176
     1
 43
1.0
176
     1
 76
     1
176
     1
 77
     6
176
     1
 78
     2
176
     1
 67
     7
176
     1
 79
     5
176
     1
170
     0
176
     1
171
     0
176
     1
290
     0
176
     1
 93
       13
176
     1
 44
0.0
176
     1
173
     0
176
     1
  0
VISUALSTYLE
  5
2D
102
{ACAD_REACTORS
330
2A
102
}
330
2A
100
AcDbVisualStyle
  2
Gouraud
 70
     2
177
     2
291
     1
 71
     2
176
     1
 72
     2
176
     1
 73
     1
176
     1
 90
        2
176
     1
 40
-0.6
176
     1
 41
30.0
176
     1
 62
     5
 63
     7
421
 16777215
176
     1
 74
     0
176
     1
 91
        4
176
     1
 64
     7
176
     1
 65
   257
176
     1
 75
     1
176
     1
175
     1
176
     1
 42
1.0
176
     1
 92
        0
176
     1
 66
     7
176
     1
 43
1.0
176
     1
 76
     1
176
     1
 77
     6
176
     1
 78
     2
176
     1
 67
     7
176
     1
 79
     5
176
     1
170
     0
176
     1
171
     0
176
     1
290
     0
176
     1
 93
       13
176
     1
 44
0.0
176
     1
173
     0
176
     1
  0
VISUALSTYLE
  5
2E
102
{ACAD_REACTORS
330
2A
102
}
330
2A
100
AcDbVisualStyle
  2
GouraudWithEdges
 70
     3
177
     2
291
     1
 71
     2
176
     1
 72
     2
176
     1
 73
     1
176
     1
 90
        2
176
     1
 40
-0.6
176
     1
 41
30.0
176
     1
 62
     5
 63
     7
421
 16777215
176
     1
 74
     1
176
     1
 91
        4
176
     1
 64
     7
176
     1
 65
   257
176
     1
 75
     1
176
     1
175
     1
176
     1
 42
1.0
176
     1
 92
        0
176
     1
 66
   257
176
     1
 43
1.0
176
     1
 76
     1
176
     1
 77
     6
176
     1
 78
     2
176
     1
 67
     7
176
     1
 79
     5
176
     1
170
     0
176
     1
171
     0
176
     1
290
     0
176
     1
 93
       13
176
     1
 44
0.0
176
     1
173
     0
176
     1
  0
VISUALSTYLE
  5
38
102
{ACAD_REACTORS
330
2A
102
}
330
2A
100
AcDbVisualStyle
  2
Linepattern
 70
    14
177
     2
291
     1
 71
     2
176
     1
 72
     2
176
     1
 73
     0
176
     1
 90
        0
176
     1
 40
-0.6
176
     1
 41
-30.0
176
     1
 62
     5
 63
     7
421
 16777215
176
     1
 74
     1
176
     1
 91
        4
176
     1
 64
     7
176
     1
 65
   257
176
     1
 75
     7
176
     1
175
     7
176
     1
 42
1.0
176
     1
 92
        8
176
     1
 66
     7
176
     1
 43
1.0
176
     1
 76
     1
176
     1
 77
     6
176
     1
 78
     2
176
     1
 67
     7
176
     1
 79
     5
176
     1
170
     0
176
     1
171
     0
176
     1
290
     0
176
     1
 93
        1
176
     1
 44
0.0
176
     1
173
     0
176
     1
  0
VISUALSTYLE
  5
33
102
{ACAD_REACTORS
330
2A
102
}
330
2A
100
AcDbVisualStyle
  2
Realistic
 70
     8
177
     2
291
     0
 71
     2
176
     1
 72
     2
176
     1
 73
     0
176
     1
 90
        0
176
     1
 40
-0.6
176
     1
 41
-30.0
176
     1
 62
     5
 63
     7
421
 16777215
176
     1
 74
     1
176
     1
 91
        0
176
     1
 64
     7
176
     1
 65
   257
176
     1
 75
     1
176
     1
175
     1
176
     1
 42
1.0
176
     1
 92
        8
176
     1
 66
     8
424
  7895160
176
     1
 43
1.0
176
     1
 76
     1
176
     1
 77
     6
176
     1
 78
     2
176
     1
 67
     7
176
     1
 79
     5
176
     1
170
     0
176
     1
171
     0
176
     1
290
     0
176
     1
 93
       13
176
     1
 44
0.0
176
     1
173
     0
176
     1
  0
VISUALSTYLE
  5
37
102
{ACAD_REACTORS
330
2A
102
}
330
2A
100
AcDbVisualStyle
  2
Thicken
 70
    13
177
     2
291
     1
 71
     2
176
     1
 72
     2
176
     1
 73
     0
176
     1
 90
        0
176
     1
 40
-0.6
176
     1
 41
-30.0
176
     1
 62
     5
 63
     7
421
 16777215
176
     1
 74
     1
176
     1
 91
        4
176
     1
 64
     7
176
     1
 65
   257
176
     1
 75
     1
176
     1
175
     1
176
     1
 42
1.0
176
     1
 92
       12
176
     1
 66
     7
176
     1
 43
1.0
176
     1
 76
     1
176
     1
 77
     6
176
     1
 78
     2
176
     1
 67
     7
176
     1
 79
     5
176
     1
170
     0
176
     1
171
     0
176
     1
290
     0
176
     1
 93
        1
176
     1
 44
0.0
176
     1
173
     0
176
     1
  0
ENDSEC
  0
EOF
