  0
SECTION
  2
HEADER
  9
$ACADVER
  1
AC1015
  9
$ACADMAINTVER
 70
     6
  9
$DWGCODEPAGE
  3
UNDEFINED
  9
$INSBASE
 10
0.0
 20
0.0
 30
0.0
  9
$EXTMIN
 10
1.000000000000000E+20
 20
1.000000000000000E+20
 30
1.000000000000000E+20
  9
$EXTMAX
 10
-1.000000000000000E+20
 20
-1.000000000000000E+20
 30
-1.000000000000000E+20
  9
$LIMMIN
 10
0.0
 20
0.0
  9
$LIMMAX
 10
12.0
 20
9.0
  9
$ORTHOMODE
 70
     0
  9
$REGENMODE
 70
     1
  9
$FILLMODE
 70
     1
  9
$QTEXTMODE
 70
     0
  9
$MIRRTEXT
 70
     1
  9
$LTSCALE
 40
1.0
  9
$ATTMODE
 70
     1
  9
$TEXTSIZE
 40
0.2
  9
$TRACEWID
 40
0.05
  9
$TEXTSTYLE
  7
Standard
  9
$CLAYER
  8
0
  9
$CELTYPE
  6
ByLayer
  9
$CECOLOR
 62
   256
  9
$CELTSCALE
 40
1.0
  9
$DISPSILH
 70
     0
  9
$DIMSCALE
 40
1.0
  9
$DIMASZ
 40
0.18
  9
$DIMEXO
 40
0.0625
  9
$DIMDLI
 40
0.38
  9
$DIMRND
 40
0.0
  9
$DIMDLE
 40
0.0
  9
$DIMEXE
 40
0.18
  9
$DIMTP
 40
0.0
  9
$DIMTM
 40
0.0
  9
$DIMTXT
 40
0.18
  9
$DIMCEN
 40
0.09
  9
$DIMTSZ
 40
0.0
  9
$DIMTOL
 70
     0
  9
$DIMLIM
 70
     0
  9
$DIMTIH
 70
     1
  9
$DIMTOH
 70
     1
  9
$DIMSE1
 70
     0
  9
$DIMSE2
 70
     0
  9
$DIMTAD
 70
     0
  9
$DIMZIN
 70
     0
  9
$DIMBLK
  1

  9
$DIMASO
 70
     1
  9
$DIMSHO
 70
     1
  9
$DIMPOST
  1

  9
$DIMAPOST
  1

  9
$DIMALT
 70
     0
  9
$DIMALTD
 70
     2
  9
$DIMALTF
 40
25.4
  9
$DIMLFAC
 40
1.0
  9
$DIMTOFL
 70
     0
  9
$DIMTVP
 40
0.0
  9
$DIMTIX
 70
     0
  9
$DIMSOXD
 70
     0
  9
$DIMSAH
 70
     0
  9
$DIMBLK1
  1

  9
$DIMBLK2
  1

  9
$DIMSTYLE
  2
Standard
  9
$DIMCLRD
 70
     0
  9
$DIMCLRE
 70
     0
  9
$DIMCLRT
 70
     0
  9
$DIMTFAC
 40
1.0
  9
$DIMGAP
 40
0.09
  9
$DIMJUST
 70
     0
  9
$DIMSD1
 70
     0
  9
$DIMSD2
 70
     0
  9
$DIMTOLJ
 70
     1
  9
$DIMTZIN
 70
     0
  9
$DIMALTZ
 70
     0
  9
$DIMALTTZ
 70
     0
  9
$DIMUPT
 70
     0
  9
$DIMDEC
 70
     4
  9
$DIMTDEC
 70
     4
  9
$DIMALTU
 70
     2
  9
$DIMALTTD
 70
     2
  9
$DIMTXSTY
  7
Standard
  9
$DIMAUNIT
 70
     0
  9
$DIMADEC
 70
     0
  9
$DIMALTRND
 40
0.0
  9
$DIMAZIN
 70
     0
  9
$DIMDSEP
 70
    46
  9
$DIMATFIT
 70
     3
  9
$DIMFRAC
 70
     0
  9
$DIMLDRBLK
  1

  9
$DIMLUNIT
 70
     2
  9
$DIMLWD
 70
    -2
  9
$DIMLWE
 70
    -2
  9
$DIMTMOVE
 70
     0
  9
$LUNITS
 70
     2
  9
$LUPREC
 70
     4
  9
$SKETCHINC
 40
0.1
  9
$FILLETRAD
 40
0.5
  9
$AUNITS
 70
     0
  9
$AUPREC
 70
     0
  9
$MENU
  1
.
  9
$ELEVATION
 40
0.0
  9
$PELEVATION
 40
0.0
  9
$THICKNESS
 40
0.0
  9
$LIMCHECK
 70
     0
  9
$CHAMFERA
 40
0.5
  9
$CHAMFERB
 40
0.5
  9
$CHAMFERC
 40
1.0
  9
$CHAMFERD
 40
0.0
  9
$SKPOLY
 70
     0
  9
$TDCREATE
 40
2458552.85866897
  9
$TDUCREATE
 40
2458553.192002315
  9
$TDUPDATE
 40
2458552.85866897
  9
$TDUUPDATE
 40
2458553.192002315
  9
$TDINDWG
 40
0.0000000116
  9
$TDUSRTIMER
 40
0.0000000116
  9
$USRTIMER
 70
     1
  9
$ANGBASE
 50
0.0
  9
$ANGDIR
 70
     0
  9
$PDMODE
 70
     0
  9
$PDSIZE
 40
0.0
  9
$PLINEWID
 40
0.0
  9
$SPLFRAME
 70
     0
  9
$SPLINETYPE
 70
     6
  9
$SPLINESEGS
 70
     8
  9
$HANDSEED
  5
FB
  9
$SURFTAB1
 70
     6
  9
$SURFTAB2
 70
     6
  9
$SURFTYPE
 70
     6
  9
$SURFU
 70
     6
  9
$SURFV
 70
     6
  9
$UCSBASE
  2

  9
$UCSNAME
  2

  9
$UCSORG
 10
0.0
 20
0.0
 30
0.0
  9
$UCSXDIR
 10
1.0
 20
0.0
 30
0.0
  9
$UCSYDIR
 10
0.0
 20
1.0
 30
0.0
  9
$UCSORTHOREF
  2

  9
$UCSORTHOVIEW
 70
     0
  9
$UCSORGTOP
 10
0.0
 20
0.0
 30
0.0
  9
$UCSORGBOTTOM
 10
0.0
 20
0.0
 30
0.0
  9
$UCSORGLEFT
 10
0.0
 20
0.0
 30
0.0
  9
$UCSORGRIGHT
 10
0.0
 20
0.0
 30
0.0
  9
$UCSORGFRONT
 10
0.0
 20
0.0
 30
0.0
  9
$UCSORGBACK
 10
0.0
 20
0.0
 30
0.0
  9
$PUCSBASE
  2

  9
$PUCSNAME
  2

  9
$PUCSORG
 10
0.0
 20
0.0
 30
0.0
  9
$PUCSXDIR
 10
1.0
 20
0.0
 30
0.0
  9
$PUCSYDIR
 10
0.0
 20
1.0
 30
0.0
  9
$PUCSORTHOREF
  2

  9
$PUCSORTHOVIEW
 70
     0
  9
$PUCSORGTOP
 10
0.0
 20
0.0
 30
0.0
  9
$PUCSORGBOTTOM
 10
0.0
 20
0.0
 30
0.0
  9
$PUCSORGLEFT
 10
0.0
 20
0.0
 30
0.0
  9
$PUCSORGRIGHT
 10
0.0
 20
0.0
 30
0.0
  9
$PUCSORGFRONT
 10
0.0
 20
0.0
 30
0.0
  9
$PUCSORGBACK
 10
0.0
 20
0.0
 30
0.0
  9
$USERI1
 70
     0
  9
$USERI2
 70
     0
  9
$USERI3
 70
     0
  9
$USERI4
 70
     0
  9
$USERI5
 70
     0
  9
$USERR1
 40
0.0
  9
$USERR2
 40
0.0
  9
$USERR3
 40
0.0
  9
$USERR4
 40
0.0
  9
$USERR5
 40
0.0
  9
$WORLDVIEW
 70
     1
  9
$SHADEDGE
 70
     3
  9
$SHADEDIF
 70
    70
  9
$TILEMODE
 70
     1
  9
$MAXACTVP
 70
    64
  9
$PINSBASE
 10
0.0
 20
0.0
 30
0.0
  9
$PLIMCHECK
 70
     0
  9
$PEXTMIN
 10
1.000000000000000E+20
 20
1.000000000000000E+20
 30
1.000000000000000E+20
  9
$PEXTMAX
 10
-1.000000000000000E+20
 20
-1.000000000000000E+20
 30
-1.000000000000000E+20
  9
$PLIMMIN
 10
0.0
 20
0.0
  9
$PLIMMAX
 10
12.0
 20
9.0
  9
$UNITMODE
 70
     0
  9
$VISRETAIN
 70
     1
  9
$PLINEGEN
 70
     0
  9
$PSLTSCALE
 70
     1
  9
$TREEDEPTH
 70
  3020
  9
$CMLSTYLE
  2
Standard
  9
$CMLJUST
 70
     0
  9
$CMLSCALE
 40
1.0
  9
$PROXYGRAPHICS
 70
     1
  9
$MEASUREMENT
 70
     0
  9
$CELWEIGHT
370
    -1
  9
$ENDCAPS
280
     0
  9
$JOINSTYLE
280
     0
  9
$LWDISPLAY
290
     1
  9
$INSUNITS
 70
     1
  9
$HYPERLINKBASE
  1

  9
$STYLESHEET
  1

  9
$XEDIT
290
     1
  9
$CEPSNTYPE
380
     0
  9
$PSTYLEMODE
290
     1
  9
$FINGERPRINTGUID
  2
{ACE1B46D-3001-400D-2412-14D204BC376D}
  9
$VERSIONGUID
  2
{FAEB1C32-E019-11D5-929B-00C0DF256EC4}
  9
$EXTNAMES
290
     1
  9
$PSVPSCALE
 40
0.0
  9
$OLESTARTUP
290
     0
  0
ENDSEC
  0
SECTION
  2
CLASSES
  0
CLASS
  1
ACDBDICTIONARYWDFLT
  2
AcDbDictionaryWithDefault
  3
ObjectDBX Classes
 90
        0
280
     0
281
     0
  0
CLASS
  1
VISUALSTYLE
  2
AcDbVisualStyle
  3
ObjectDBX Classes
 90
     4095
280
     0
281
     0
  0
CLASS
  1
MATERIAL
  2
AcDbMaterial
  3
ObjectDBX Classes
 90
     1153
280
     0
281
     0
  0
CLASS
  1
SUN
  2
AcDbSun
  3
SCENEOE
 90
     1024
280
     0
281
     0
  0
CLASS
  1
DICTIONARYVAR
  2
AcDbDictionaryVar
  3
ObjectDBX Classes
 90
        0
280
     0
281
     0
  0
CLASS
  1
ACDBPLACEHOLDER
  2
AcDbPlaceHolder
  3
ObjectDBX Classes
 90
        0
280
     0
281
     0
  0
CLASS
  1
LAYOUT
  2
AcDbLayout
  3
ObjectDBX Classes
 90
        0
280
     0
281
     0
  0
ENDSEC
  0
SECTION
  2
TABLES
  0
TABLE
  2
VPORT
  5
8
330
0
100
AcDbSymbolTable
 70
     1
  0
VPORT
  5
29
330
8
100
AcDbSymbolTableRecord
100
AcDbViewportTableRecord
  2
*Active
 70
     0
 10
0.0
 20
0.0
 11
1.0
 21
1.0
 12
0.0
 22
0.0
 13
0.0
 23
0.0
 14
0.5
 24
0.5
 15
0.5
 25
0.5
 16
0.0
 26
0.0
 36
1.0
 17
4.214598266625639
 27
2.885428484103095
 37
0.0
 40
2.898340309918265
 41
2.144396793294416
 42
50.0
 43
0.0
 44
0.0
 50
0.0
 51
0.0
 71
     0
 72
   100
 73
     1
 74
     3
 75
     0
 76
     0
 77
     0
 78
     0
281
     0
 65
     1
110
0.0
120
0.0
130
0.0
111
1.0
121
0.0
131
0.0
112
0.0
122
1.0
132
0.0
 79
     0
146
0.0
  0
ENDTAB
  0
TABLE
  2
LTYPE
  5
5
330
0
100
AcDbSymbolTable
 70
     1
  0
LTYPE
  5
14
330
5
100
AcDbSymbolTableRecord
100
AcDbLinetypeTableRecord
  2
ByBlock
 70
     0
  3

 72
    65
 73
     0
 40
0.0
  0
LTYPE
  5
15
330
5
100
AcDbSymbolTableRecord
100
AcDbLinetypeTableRecord
  2
ByLayer
 70
     0
  3

 72
    65
 73
     0
 40
0.0
  0
LTYPE
  5
16
330
5
100
AcDbSymbolTableRecord
100
AcDbLinetypeTableRecord
  2
Continuous
 70
     0
  3
Solid line
 72
    65
 73
     0
 40
0.0
  0
ENDTAB
  0
TABLE
  2
LAYER
  5
2
330
0
100
AcDbSymbolTable
 70
     4
  0
LAYER
  5
10
330
2
100
AcDbSymbolTableRecord
100
AcDbLayerTableRecord
  2
0
 70
     0
 62
     7
  6
Continuous
370
    -3
390
F
  0
LAYER
  5
40
330
2
100
AcDbSymbolTableRecord
100
AcDbLayerTableRecord
  2
SCREWS
 70
     0
 62
     7
  6
Continuous
370
    -3
390
F
  0
LAYER
  5
5F
330
2
100
AcDbSymbolTableRecord
100
AcDbLayerTableRecord
  2
CUTOUTS
 70
     0
 62
     7
  6
Continuous
370
    -3
390
F
  0
LAYER
  5
CA
330
2
100
AcDbSymbolTableRecord
100
AcDbLayerTableRecord
  2
OUTLINES
 70
     0
 62
     7
  6
Continuous
370
    -3
390
F
  0
ENDTAB
  0
TABLE
  2
STYLE
  5
3
330
0
100
AcDbSymbolTable
 70
     1
  0
STYLE
  5
11
330
3
100
AcDbSymbolTableRecord
100
AcDbTextStyleTableRecord
  2
Standard
 70
     0
 40
0.0
 41
1.0
 50
0.0
 71
     0
 42
0.2
  3
txt
  4

  0
ENDTAB
  0
TABLE
  2
VIEW
  5
6
330
0
100
AcDbSymbolTable
 70
     0
  0
ENDTAB
  0
TABLE
  2
UCS
  5
7
330
0
100
AcDbSymbolTable
 70
     0
  0
ENDTAB
  0
TABLE
  2
APPID
  5
9
330
0
100
AcDbSymbolTable
 70
     1
  0
APPID
  5
12
330
9
100
AcDbSymbolTableRecord
100
AcDbRegAppTableRecord
  2
ACAD
 70
     0
  0
ENDTAB
  0
TABLE
  2
DIMSTYLE
  5
A
330
0
100
AcDbSymbolTable
 70
     1
100
AcDbDimStyleTable
  0
DIMSTYLE
105
27
330
A
100
AcDbSymbolTableRecord
100
AcDbDimStyleTableRecord
  2
Standard
 70
     0
178
     0
340
11
  0
ENDTAB
  0
TABLE
  2
BLOCK_RECORD
  5
1
330
0
100
AcDbSymbolTable
 70
    11
  0
BLOCK_RECORD
  5
1F
330
1
100
AcDbSymbolTableRecord
100
AcDbBlockTableRecord
  2
*Model_Space
340
22
  0
BLOCK_RECORD
  5
1B
330
1
100
AcDbSymbolTableRecord
100
AcDbBlockTableRecord
  2
*Paper_Space
340
1E
  0
BLOCK_RECORD
  5
23
330
1
100
AcDbSymbolTableRecord
100
AcDbBlockTableRecord
  2
*Paper_Space0
340
26
  0
BLOCK_RECORD
  5
41
330
1
100
AcDbSymbolTableRecord
100
AcDbBlockTableRecord
  2
block 2
340
0
102
{BLKREFS
331
42
102
}
  0
BLOCK_RECORD
  5
46
330
1
100
AcDbSymbolTableRecord
100
AcDbBlockTableRecord
  2
block 3
340
0
102
{BLKREFS
331
47
102
}
  0
BLOCK_RECORD
  5
4B
330
1
100
AcDbSymbolTableRecord
100
AcDbBlockTableRecord
  2
block 4
340
0
102
{BLKREFS
331
4C
102
}
  0
BLOCK_RECORD
  5
50
330
1
100
AcDbSymbolTableRecord
100
AcDbBlockTableRecord
  2
block 5
340
0
102
{BLKREFS
331
51
102
}
  0
BLOCK_RECORD
  5
55
330
1
100
AcDbSymbolTableRecord
100
AcDbBlockTableRecord
  2
block 6
340
0
102
{BLKREFS
331
56
102
}
  0
BLOCK_RECORD
  5
5A
330
1
100
AcDbSymbolTableRecord
100
AcDbBlockTableRecord
  2
block 7
340
0
102
{BLKREFS
331
5B
102
}
  0
BLOCK_RECORD
  5
60
330
1
100
AcDbSymbolTableRecord
100
AcDbBlockTableRecord
  2
block 8
340
0
102
{BLKREFS
331
61
102
}
  0
BLOCK_RECORD
  5
65
330
1
100
AcDbSymbolTableRecord
100
AcDbBlockTableRecord
  2
block 9
340
0
102
{BLKREFS
331
66
102
}
  0
BLOCK_RECORD
  5
6A
330
1
100
AcDbSymbolTableRecord
100
AcDbBlockTableRecord
  2
block 10
340
0
102
{BLKREFS
331
6B
102
}
  0
BLOCK_RECORD
  5
CB
330
1
100
AcDbSymbolTableRecord
100
AcDbBlockTableRecord
  2
block 11
340
0
102
{BLKREFS
331
CC
102
}
  0
ENDTAB
  0
ENDSEC
  0
SECTION
  2
BLOCKS
  0
BLOCK
  5
20
330
1F
100
AcDbEntity
  8
0
100
AcDbBlockBegin
  2
*Model_Space
 70
     0
 10
0.0
 20
0.0
 30
0.0
  3
*Model_Space
  1

  0
ENDBLK
  5
21
330
1F
100
AcDbEntity
  8
0
100
AcDbBlockEnd
  0
BLOCK
  5
1C
330
1B
100
AcDbEntity
 67
     1
  8
0
100
AcDbBlockBegin
  2
*Paper_Space
 70
     0
 10
0.0
 20
0.0
 30
0.0
  3
*Paper_Space
  1

  0
ENDBLK
  5
1D
330
1B
100
AcDbEntity
 67
     1
  8
0
100
AcDbBlockEnd
  0
BLOCK
  5
24
330
23
100
AcDbEntity
  8
0
100
AcDbBlockBegin
  2
*Paper_Space0
 70
     0
 10
0.0
 20
0.0
 30
0.0
  3
*Paper_Space0
  1

  0
ENDBLK
  5
25
330
23
100
AcDbEntity
  8
0
100
AcDbBlockEnd
  0
BLOCK
  5
43
330
41
100
AcDbEntity
  8
0
100
AcDbBlockBegin
  2
block 2
 70
     0
 10
0.0
 20
0.0
 30
0.0
  3
block 2
  1

  0
SPLINE
  5
45
330
41
100
AcDbEntity
  8
SCREWS
 62
     7
370
     9
100
AcDbSpline
210
0.0
220
0.0
230
1.0
 70
    11
 71
     3
 72
    20
 73
    16
 74
     0
 42
0.0000000001
 43
0.0000000001
 12
1.0
 22
0.0
 32
0.0
 13
1.0
 23
0.0
 33
0.0
 40
0.0
 40
0.0
 40
0.0
 40
0.0
 40
1.0
 40
1.0
 40
1.0
 40
2.0
 40
2.0
 40
2.0
 40
3.0
 40
3.0
 40
3.0
 40
4.0
 40
4.0
 40
4.0
 40
5.0
 40
5.0
 40
5.0
 40
5.0
 10
1.828469502047571
 20
1.566835677766095
 30
0.0
 10
1.828469502047571
 20
1.591136206758645
 30
0.0
 10
1.848168973055004
 20
1.61083567776609
 30
0.0
 10
1.872469502047567
 20
1.61083567776609
 30
0.0
 10
1.896770031040129
 20
1.61083567776609
 30
0.0
 10
1.916469502047549
 20
1.591136206758645
 30
0.0
 10
1.916469502047549
 20
1.566835677766095
 30
0.0
 10
1.916469502047549
 20
1.542535148773545
 30
0.0
 10
1.896770031040129
 20
1.522835677766099
 30
0.0
 10
1.872469502047567
 20
1.522835677766099
 30
0.0
 10
1.848168973055004
 20
1.522835677766099
 30
0.0
 10
1.828469502047571
 20
1.542535148773545
 30
0.0
 10
1.828469502047571
 20
1.566835677766095
 30
0.0
 10
1.828469502047571
 20
1.566835677766095
 30
0.0
 10
1.828469502047571
 20
1.566835677766095
 30
0.0
 10
1.828469502047571
 20
1.566835677766095
 30
0.0
  0
ENDBLK
  5
44
330
41
100
AcDbEntity
  8
0
100
AcDbBlockEnd
  0
BLOCK
  5
48
330
46
100
AcDbEntity
  8
0
100
AcDbBlockBegin
  2
block 3
 70
     0
 10
0.0
 20
0.0
 30
0.0
  3
block 3
  1

  0
SPLINE
  5
4A
330
46
100
AcDbEntity
  8
SCREWS
 62
     7
370
     9
100
AcDbSpline
210
0.0
220
0.0
230
1.0
 70
    11
 71
     3
 72
    20
 73
    16
 74
     0
 42
0.0000000001
 43
0.0000000001
 12
1.0
 22
0.0
 32
0.0
 13
1.0
 23
0.0
 33
0.0
 40
0.0
 40
0.0
 40
0.0
 40
0.0
 40
1.0
 40
1.0
 40
1.0
 40
2.0
 40
2.0
 40
2.0
 40
3.0
 40
3.0
 40
3.0
 40
4.0
 40
4.0
 40
4.0
 40
5.0
 40
5.0
 40
5.0
 40
5.0
 10
5.929566067660517
 20
1.69501265928587
 30
0.0
 10
5.929566067660517
 20
1.71931318827842
 30
0.0
 10
5.949265538667937
 20
1.739012659285865
 30
0.0
 10
5.973566067660512
 20
1.739012659285865
 30
0.0
 10
5.997866596653062
 20
1.739012659285865
 30
0.0
 10
6.017566067660507
 20
1.71931318827842
 30
0.0
 10
6.017566067660507
 20
1.69501265928587
 30
0.0
 10
6.017566067660507
 20
1.67071213029332
 30
0.0
 10
5.997866596653062
 20
1.651012659285874
 30
0.0
 10
5.973566067660512
 20
1.651012659285874
 30
0.0
 10
5.949265538667937
 20
1.651012659285874
 30
0.0
 10
5.929566067660517
 20
1.67071213029332
 30
0.0
 10
5.929566067660517
 20
1.69501265928587
 30
0.0
 10
5.929566067660517
 20
1.69501265928587
 30
0.0
 10
5.929566067660517
 20
1.69501265928587
 30
0.0
 10
5.929566067660517
 20
1.69501265928587
 30
0.0
  0
ENDBLK
  5
49
330
46
100
AcDbEntity
  8
0
100
AcDbBlockEnd
  0
BLOCK
  5
4D
330
4B
100
AcDbEntity
  8
0
100
AcDbBlockBegin
  2
block 4
 70
     0
 10
0.0
 20
0.0
 30
0.0
  3
block 4
  1

  0
SPLINE
  5
4F
330
4B
100
AcDbEntity
  8
SCREWS
 62
     7
370
     9
100
AcDbSpline
210
0.0
220
0.0
230
1.0
 70
    11
 71
     3
 72
    20
 73
    16
 74
     0
 42
0.0000000001
 43
0.0000000001
 12
1.0
 22
0.0
 32
0.0
 13
1.0
 23
0.0
 33
0.0
 40
0.0
 40
0.0
 40
0.0
 40
0.0
 40
1.0
 40
1.0
 40
1.0
 40
2.0
 40
2.0
 40
2.0
 40
3.0
 40
3.0
 40
3.0
 40
4.0
 40
4.0
 40
4.0
 40
5.0
 40
5.0
 40
5.0
 40
5.0
 10
7.026396473850253
 20
2.949146900590525
 30
0.0
 10
7.026396473850253
 20
2.973447429583075
 30
0.0
 10
7.046095944857673
 20
2.99314690059052
 30
0.0
 10
7.070396473850248
 20
2.99314690059052
 30
0.0
 10
7.094697002842799
 20
2.99314690059052
 30
0.0
 10
7.114396473850244
 20
2.973447429583075
 30
0.0
 10
7.114396473850244
 20
2.949146900590525
 30
0.0
 10
7.114396473850244
 20
2.924846371597975
 30
0.0
 10
7.094697002842799
 20
2.905146900590529
 30
0.0
 10
7.070396473850248
 20
2.905146900590529
 30
0.0
 10
7.046095944857673
 20
2.905146900590529
 30
0.0
 10
7.026396473850253
 20
2.924846371597975
 30
0.0
 10
7.026396473850253
 20
2.949146900590525
 30
0.0
 10
7.026396473850253
 20
2.949146900590525
 30
0.0
 10
7.026396473850253
 20
2.949146900590525
 30
0.0
 10
7.026396473850253
 20
2.949146900590525
 30
0.0
  0
ENDBLK
  5
4E
330
4B
100
AcDbEntity
  8
0
100
AcDbBlockEnd
  0
BLOCK
  5
52
330
50
100
AcDbEntity
  8
0
100
AcDbBlockBegin
  2
block 5
 70
     0
 10
0.0
 20
0.0
 30
0.0
  3
block 5
  1

  0
SPLINE
  5
54
330
50
100
AcDbEntity
  8
SCREWS
 62
     7
370
     9
100
AcDbSpline
210
0.0
220
0.0
230
1.0
 70
    11
 71
     3
 72
    20
 73
    16
 74
     0
 42
0.0000000001
 43
0.0000000001
 12
1.0
 22
0.0
 32
0.0
 13
1.0
 23
0.0
 33
0.0
 40
0.0
 40
0.0
 40
0.0
 40
0.0
 40
1.0
 40
1.0
 40
1.0
 40
2.0
 40
2.0
 40
2.0
 40
3.0
 40
3.0
 40
3.0
 40
4.0
 40
4.0
 40
4.0
 40
5.0
 40
5.0
 40
5.0
 40
5.0
 10
4.982897604655742
 20
3.674640028620236
 30
0.0
 10
4.982897604655742
 20
3.698940557612811
 30
0.0
 10
5.002597075663187
 20
3.718640028620206
 30
0.0
 10
5.026897604655738
 20
3.718640028620206
 30
0.0
 10
5.051198133648287
 20
3.718640028620206
 30
0.0
 10
5.070897604655733
 20
3.698940557612811
 30
0.0
 10
5.070897604655733
 20
3.674640028620236
 30
0.0
 10
5.070897604655733
 20
3.650339499627661
 30
0.0
 10
5.051198133648287
 20
3.630640028620241
 30
0.0
 10
5.026897604655738
 20
3.630640028620241
 30
0.0
 10
5.002597075663187
 20
3.630640028620241
 30
0.0
 10
4.982897604655742
 20
3.650339499627661
 30
0.0
 10
4.982897604655742
 20
3.674640028620236
 30
0.0
 10
4.982897604655742
 20
3.674640028620236
 30
0.0
 10
4.982897604655742
 20
3.674640028620236
 30
0.0
 10
4.982897604655742
 20
3.674640028620236
 30
0.0
  0
ENDBLK
  5
53
330
50
100
AcDbEntity
  8
0
100
AcDbBlockEnd
  0
BLOCK
  5
57
330
55
100
AcDbEntity
  8
0
100
AcDbBlockBegin
  2
block 6
 70
     0
 10
0.0
 20
0.0
 30
0.0
  3
block 6
  1

  0
SPLINE
  5
59
330
55
100
AcDbEntity
  8
SCREWS
 62
     7
370
     9
100
AcDbSpline
210
0.0
220
0.0
230
1.0
 70
    11
 71
     3
 72
    20
 73
    16
 74
     0
 42
0.0000000001
 43
0.0000000001
 12
1.0
 22
0.0
 32
0.0
 13
1.0
 23
0.0
 33
0.0
 40
0.0
 40
0.0
 40
0.0
 40
0.0
 40
1.0
 40
1.0
 40
1.0
 40
2.0
 40
2.0
 40
2.0
 40
3.0
 40
3.0
 40
3.0
 40
4.0
 40
4.0
 40
4.0
 40
5.0
 40
5.0
 40
5.0
 40
5.0
 10
3.515976010116308
 20
3.674640028620236
 30
0.0
 10
3.515976010116308
 20
3.698940557612787
 30
0.0
 10
3.535675481123727
 20
3.718640028620232
 30
0.0
 10
3.559976010116303
 20
3.718640028620232
 30
0.0
 10
3.584276539108866
 20
3.718640028620232
 30
0.0
 10
3.603976010116285
 20
3.698940557612787
 30
0.0
 10
3.603976010116285
 20
3.674640028620236
 30
0.0
 10
3.603976010116285
 20
3.650339499627686
 30
0.0
 10
3.584276539108866
 20
3.630640028620241
 30
0.0
 10
3.559976010116303
 20
3.630640028620241
 30
0.0
 10
3.535675481123727
 20
3.630640028620241
 30
0.0
 10
3.515976010116308
 20
3.650339499627686
 30
0.0
 10
3.515976010116308
 20
3.674640028620236
 30
0.0
 10
3.515976010116308
 20
3.674640028620236
 30
0.0
 10
3.515976010116308
 20
3.674640028620236
 30
0.0
 10
3.515976010116308
 20
3.674640028620236
 30
0.0
  0
ENDBLK
  5
58
330
55
100
AcDbEntity
  8
0
100
AcDbBlockEnd
  0
BLOCK
  5
5C
330
5A
100
AcDbEntity
  8
0
100
AcDbBlockBegin
  2
block 7
 70
     0
 10
0.0
 20
0.0
 30
0.0
  3
block 7
  1

  0
SPLINE
  5
5E
330
5A
100
AcDbEntity
  8
SCREWS
 62
     7
370
     9
100
AcDbSpline
210
0.0
220
0.0
230
1.0
 70
    11
 71
     3
 72
    20
 73
    16
 74
     0
 42
0.0000000001
 43
0.0000000001
 12
1.0
 22
0.0
 32
0.0
 13
1.0
 23
0.0
 33
0.0
 40
0.0
 40
0.0
 40
0.0
 40
0.0
 40
1.0
 40
1.0
 40
1.0
 40
2.0
 40
2.0
 40
2.0
 40
3.0
 40
3.0
 40
3.0
 40
4.0
 40
4.0
 40
4.0
 40
5.0
 40
5.0
 40
5.0
 40
5.0
 10
1.736979679867166
 20
3.189659502957006
 30
0.0
 10
1.736979679867166
 20
3.213960031949556
 30
0.0
 10
1.756679150874599
 20
3.233659502957026
 30
0.0
 10
1.780979679867162
 20
3.233659502957026
 30
0.0
 10
1.805280208859712
 20
3.233659502957026
 30
0.0
 10
1.824979679867157
 20
3.213960031949556
 30
0.0
 10
1.824979679867157
 20
3.189659502957006
 30
0.0
 10
1.824979679867157
 20
3.16535897396443
 30
0.0
 10
1.805280208859712
 20
3.145659502956985
 30
0.0
 10
1.780979679867162
 20
3.145659502956985
 30
0.0
 10
1.756679150874599
 20
3.145659502956985
 30
0.0
 10
1.736979679867166
 20
3.16535897396443
 30
0.0
 10
1.736979679867166
 20
3.189659502957006
 30
0.0
 10
1.736979679867166
 20
3.189659502957006
 30
0.0
 10
1.736979679867166
 20
3.189659502957006
 30
0.0
 10
1.736979679867166
 20
3.189659502957006
 30
0.0
  0
ENDBLK
  5
5D
330
5A
100
AcDbEntity
  8
0
100
AcDbBlockEnd
  0
BLOCK
  5
62
330
60
100
AcDbEntity
  8
0
100
AcDbBlockBegin
  2
block 8
 70
     0
 10
0.0
 20
0.0
 30
0.0
  3
block 8
  1

  0
SPLINE
  5
64
330
60
100
AcDbEntity
  8
CUTOUTS
 62
     7
370
     9
100
AcDbSpline
210
0.0
220
0.0
230
1.0
 70
    11
 71
     3
 72
    20
 73
    16
 74
     0
 42
0.0000000001
 43
0.0000000001
 12
1.0
 22
0.0
 32
0.0
 13
1.0
 23
0.0
 33
0.0
 40
0.0
 40
0.0
 40
0.0
 40
0.0
 40
1.0
 40
1.0
 40
1.0
 40
2.0
 40
2.0
 40
2.0
 40
3.0
 40
3.0
 40
3.0
 40
4.0
 40
4.0
 40
4.0
 40
5.0
 40
5.0
 40
5.0
 40
5.0
 10
5.565045880717181
 20
2.588165113560763
 30
0.0
 10
5.565045880717181
 20
2.701658792657276
 30
0.0
 10
5.657050686109465
 20
2.793663598049534
 30
0.0
 10
5.770544365205953
 20
2.793663598049534
 30
0.0
 10
5.884038044302441
 20
2.793663598049534
 30
0.0
 10
5.976042849694724
 20
2.701658792657276
 30
0.0
 10
5.976042849694724
 20
2.588165113560763
 30
0.0
 10
5.976042849694724
 20
2.474671434464299
 30
0.0
 10
5.884038044302441
 20
2.382666629071991
 30
0.0
 10
5.770544365205953
 20
2.382666629071991
 30
0.0
 10
5.657050686109465
 20
2.382666629071991
 30
0.0
 10
5.565045880717181
 20
2.474671434464299
 30
0.0
 10
5.565045880717181
 20
2.588165113560763
 30
0.0
 10
5.565045880717181
 20
2.588165113560763
 30
0.0
 10
5.565045880717181
 20
2.588165113560763
 30
0.0
 10
5.565045880717181
 20
2.588165113560763
 30
0.0
  0
ENDBLK
  5
63
330
60
100
AcDbEntity
  8
0
100
AcDbBlockEnd
  0
BLOCK
  5
67
330
65
100
AcDbEntity
  8
0
100
AcDbBlockBegin
  2
block 9
 70
     0
 10
0.0
 20
0.0
 30
0.0
  3
block 9
  1

  0
SPLINE
  5
69
330
65
100
AcDbEntity
  8
CUTOUTS
 62
     7
370
     9
100
AcDbSpline
210
0.0
220
0.0
230
1.0
 70
    11
 71
     3
 72
    20
 73
    16
 74
     0
 42
0.0000000001
 43
0.0000000001
 12
1.0
 22
0.0
 32
0.0
 13
1.0
 23
0.0
 33
0.0
 40
0.0
 40
0.0
 40
0.0
 40
0.0
 40
1.0
 40
1.0
 40
1.0
 40
2.0
 40
2.0
 40
2.0
 40
3.0
 40
3.0
 40
3.0
 40
4.0
 40
4.0
 40
4.0
 40
5.0
 40
5.0
 40
5.0
 40
5.0
 10
6.186689004720417
 20
2.495611074228741
 30
0.0
 10
6.186689004720417
 20
2.60910475332523
 30
0.0
 10
6.2786938101127
 20
2.701109558717538
 30
0.0
 10
6.392187489209189
 20
2.701109558717538
 30
0.0
 10
6.505681168305677
 20
2.701109558717538
 30
0.0
 10
6.59768597369796
 20
2.60910475332523
 30
0.0
 10
6.59768597369796
 20
2.495611074228741
 30
0.0
 10
6.59768597369796
 20
2.382117395132278
 30
0.0
 10
6.505681168305677
 20
2.290112589739995
 30
0.0
 10
6.392187489209189
 20
2.290112589739995
 30
0.0
 10
6.2786938101127
 20
2.290112589739995
 30
0.0
 10
6.186689004720417
 20
2.382117395132278
 30
0.0
 10
6.186689004720417
 20
2.495611074228741
 30
0.0
 10
6.186689004720417
 20
2.495611074228741
 30
0.0
 10
6.186689004720417
 20
2.495611074228741
 30
0.0
 10
6.186689004720417
 20
2.495611074228741
 30
0.0
  0
ENDBLK
  5
68
330
65
100
AcDbEntity
  8
0
100
AcDbBlockEnd
  0
BLOCK
  5
6C
330
6A
100
AcDbEntity
  8
0
100
AcDbBlockBegin
  2
block 10
 70
     0
 10
0.0
 20
0.0
 30
0.0
  3
block 10
  1

  0
SPLINE
  5
6E
330
6A
100
AcDbEntity
  8
CUTOUTS
 62
     7
370
     9
100
AcDbSpline
210
0.0
220
0.0
230
1.0
 70
    11
 71
     3
 72
    65
 73
    61
 74
     0
 42
0.0000000001
 43
0.0000000001
 12
1.0
 22
0.0
 32
0.0
 13
1.0
 23
0.0
 33
0.0
 40
0.0
 40
0.0
 40
0.0
 40
0.0
 40
1.0
 40
1.0
 40
1.0
 40
2.0
 40
2.0
 40
2.0
 40
3.0
 40
3.0
 40
3.0
 40
4.0
 40
4.0
 40
4.0
 40
5.0
 40
5.0
 40
5.0
 40
6.0
 40
6.0
 40
6.0
 40
7.0
 40
7.0
 40
7.0
 40
8.0
 40
8.0
 40
8.0
 40
9.0
 40
9.0
 40
9.0
 40
10.0
 40
10.0
 40
10.0
 40
11.0
 40
11.0
 40
11.0
 40
12.0
 40
12.0
 40
12.0
 40
13.0
 40
13.0
 40
13.0
 40
14.0
 40
14.0
 40
14.0
 40
15.0
 40
15.0
 40
15.0
 40
16.0
 40
16.0
 40
16.0
 40
17.0
 40
17.0
 40
17.0
 40
18.0
 40
18.0
 40
18.0
 40
19.0
 40
19.0
 40
19.0
 40
20.0
 40
20.0
 40
20.0
 40
20.0
 10
2.648913662923355
 20
2.302261325545411
 30
0.0
 10
2.648913662923355
 20
2.293631939969348
 30
0.0
 10
2.641918163729921
 20
2.286636440775914
 30
0.0
 10
2.633288778153832
 20
2.286636440775914
 30
0.0
 10
2.633288778153832
 20
2.286636440775914
 30
0.0
 10
2.372415702041887
 20
2.286636440775914
 30
0.0
 10
2.372415702041887
 20
2.286636440775914
 30
0.0
 10
2.372415702041887
 20
2.286636440775914
 30
0.0
 10
2.372415702041887
 20
2.025763364663943
 30
0.0
 10
2.372415702041887
 20
2.025763364663943
 30
0.0
 10
2.372415702041887
 20
2.017133979087854
 30
0.0
 10
2.365420202848428
 20
2.010138479894421
 30
0.0
 10
2.356790817272364
 20
2.010138479894421
 30
0.0
 10
2.356790817272364
 20
2.010138479894421
 30
0.0
 10
2.066042961481066
 20
2.010138479894421
 30
0.0
 10
2.066042961481066
 20
2.010138479894421
 30
0.0
 10
2.057413575905002
 20
2.010138479894421
 30
0.0
 10
2.050418076711543
 20
2.017133979087854
 30
0.0
 10
2.050418076711543
 20
2.025763364663943
 30
0.0
 10
2.050418076711543
 20
2.025763364663943
 30
0.0
 10
2.050418076711543
 20
2.286636440775914
 30
0.0
 10
2.050418076711543
 20
2.286636440775914
 30
0.0
 10
2.050418076711543
 20
2.286636440775914
 30
0.0
 10
1.789545000599598
 20
2.286636440775914
 30
0.0
 10
1.789545000599598
 20
2.286636440775914
 30
0.0
 10
1.780915615023509
 20
2.286636440775914
 30
0.0
 10
1.773920115830075
 20
2.293631939969348
 30
0.0
 10
1.773920115830075
 20
2.302261325545411
 30
0.0
 10
1.773920115830075
 20
2.302261325545411
 30
0.0
 10
1.773920115830075
 20
2.593009181336735
 30
0.0
 10
1.773920115830075
 20
2.593009181336735
 30
0.0
 10
1.773920115830075
 20
2.601638566912798
 30
0.0
 10
1.780915615023509
 20
2.608634066106232
 30
0.0
 10
1.789545000599598
 20
2.608634066106232
 30
0.0
 10
1.789545000599598
 20
2.608634066106232
 30
0.0
 10
2.050418076711543
 20
2.608634066106232
 30
0.0
 10
2.050418076711543
 20
2.608634066106232
 30
0.0
 10
2.050418076711543
 20
2.608634066106232
 30
0.0
 10
2.050418076711543
 20
2.869507142218203
 30
0.0
 10
2.050418076711543
 20
2.869507142218203
 30
0.0
 10
2.050418076711543
 20
2.878136527794292
 30
0.0
 10
2.057413575905002
 20
2.885132026987725
 30
0.0
 10
2.066042961481066
 20
2.885132026987725
 30
0.0
 10
2.066042961481066
 20
2.885132026987725
 30
0.0
 10
2.356790817272364
 20
2.885132026987725
 30
0.0
 10
2.356790817272364
 20
2.885132026987725
 30
0.0
 10
2.365420202848428
 20
2.885132026987725
 30
0.0
 10
2.372415702041887
 20
2.878136527794292
 30
0.0
 10
2.372415702041887
 20
2.869507142218203
 30
0.0
 10
2.372415702041887
 20
2.869507142218203
 30
0.0
 10
2.372415702041887
 20
2.608634066106232
 30
0.0
 10
2.372415702041887
 20
2.608634066106232
 30
0.0
 10
2.372415702041887
 20
2.608634066106232
 30
0.0
 10
2.633288778153832
 20
2.608634066106232
 30
0.0
 10
2.633288778153832
 20
2.608634066106232
 30
0.0
 10
2.641918163729921
 20
2.608634066106232
 30
0.0
 10
2.648913662923355
 20
2.601638566912798
 30
0.0
 10
2.648913662923355
 20
2.593009181336735
 30
0.0
 10
2.648913662923355
 20
2.593009181336735
 30
0.0
 10
2.648913662923355
 20
2.302261325545411
 30
0.0
 10
2.648913662923355
 20
2.302261325545411
 30
0.0
  0
ENDBLK
  5
6D
330
6A
100
AcDbEntity
  8
0
100
AcDbBlockEnd
  0
BLOCK
  5
CD
330
CB
100
AcDbEntity
  8
0
100
AcDbBlockBegin
  2
block 11
 70
     0
 10
0.0
 20
0.0
 30
0.0
  3
block 11
  1

  0
SPLINE
  5
CF
330
CB
100
AcDbEntity
  8
OUTLINES
 62
     7
370
    25
100
AcDbSpline
210
0.0
220
0.0
230
1.0
 70
    11
 71
     3
 72
   101
 73
    97
 74
     0
 42
0.0000000001
 43
0.0000000001
 12
1.0
 22
0.0
 32
0.0
 13
1.0
 23
0.0
 33
0.0
 40
0.0
 40
0.0
 40
0.0
 40
0.0
 40
1.0
 40
1.0
 40
1.0
 40
2.0
 40
2.0
 40
2.0
 40
3.0
 40
3.0
 40
3.0
 40
4.0
 40
4.0
 40
4.0
 40
5.0
 40
5.0
 40
5.0
 40
6.0
 40
6.0
 40
6.0
 40
7.0
 40
7.0
 40
7.0
 40
8.0
 40
8.0
 40
8.0
 40
9.0
 40
9.0
 40
9.0
 40
10.0
 40
10.0
 40
10.0
 40
11.0
 40
11.0
 40
11.0
 40
12.0
 40
12.0
 40
12.0
 40
13.0
 40
13.0
 40
13.0
 40
14.0
 40
14.0
 40
14.0
 40
15.0
 40
15.0
 40
15.0
 40
16.0
 40
16.0
 40
16.0
 40
17.0
 40
17.0
 40
17.0
 40
18.0
 40
18.0
 40
18.0
 40
19.0
 40
19.0
 40
19.0
 40
20.0
 40
20.0
 40
20.0
 40
21.0
 40
21.0
 40
21.0
 40
22.0
 40
22.0
 40
22.0
 40
23.0
 40
23.0
 40
23.0
 40
24.0
 40
24.0
 40
24.0
 40
25.0
 40
25.0
 40
25.0
 40
26.0
 40
26.0
 40
26.0
 40
27.0
 40
27.0
 40
27.0
 40
28.0
 40
28.0
 40
28.0
 40
29.0
 40
29.0
 40
29.0
 40
30.0
 40
30.0
 40
30.0
 40
31.0
 40
31.0
 40
31.0
 40
32.0
 40
32.0
 40
32.0
 40
32.0
 10
2.978886788843309
 20
3.290920114606479
 30
0.0
 10
2.9730863845917
 20
3.285327141787497
 30
0.0
 10
2.965279929615109
 20
3.282302613837272
 30
0.0
 10
2.957225403113347
 20
3.282527641098694
 30
0.0
 10
2.957225403113347
 20
3.282527641098694
 30
0.0
 10
1.725474416580318
 20
3.316940333128059
 30
0.0
 10
1.725474416580318
 20
3.316940333128059
 30
0.0
 10
1.714444740561918
 20
3.317248480062441
 30
0.0
 10
1.704136144954355
 20
3.311477121219165
 30
0.0
 10
1.698633446562452
 20
3.301913177550103
 30
0.0
 10
1.698633446562452
 20
3.301913177550103
 30
0.0
 10
1.215750430880323
 20
2.462640438028049
 30
0.0
 10
1.215750430880323
 20
2.462640438028049
 30
0.0
 10
1.215750430880323
 20
2.462640438028049
 30
0.0
 10
1.215750430880323
 20
2.129023580028059
 30
0.0
 10
1.215750430880323
 20
2.129023580028059
 30
0.0
 10
1.215750430880323
 20
2.129023580028059
 30
0.0
 10
1.807282442880314
 20
1.449440271128045
 30
0.0
 10
1.807282442880314
 20
1.449440271128045
 30
0.0
 10
1.81351783165855
 20
1.442276605370832
 30
0.0
 10
1.822777052135216
 20
1.438488628347462
 30
0.0
 10
1.832245522229464
 20
1.439227718095051
 30
0.0
 10
1.832245522229464
 20
1.439227718095051
 30
0.0
 10
2.696302506280315
 20
1.506674349428042
 30
0.0
 10
2.696302506280315
 20
1.506674349428042
 30
0.0
 10
2.696302506280315
 20
1.506674349428042
 30
0.0
 10
2.714270872180325
 20
1.514497445328061
 30
0.0
 10
2.714270872180325
 20
1.514497445328061
 30
0.0
 10
2.714270872180325
 20
1.514497445328061
 30
0.0
 10
3.575744360180301
 20
2.306426340728042
 30
0.0
 10
3.575744360180301
 20
2.306426340728042
 30
0.0
 10
3.575744360180301
 20
2.306426340728042
 30
0.0
 10
3.59170337418032
 20
2.314024233328054
 30
0.0
 10
3.59170337418032
 20
2.314024233328054
 30
0.0
 10
3.59170337418032
 20
2.314024233328054
 30
0.0
 10
4.664732876480305
 20
2.471052834928059
 30
0.0
 10
4.664732876480305
 20
2.471052834928059
 30
0.0
 10
4.672434889740871
 20
2.472179958093218
 30
0.0
 10
4.680273459680721
 20
2.47026930236383
 30
0.0
 10
4.686592922480309
 20
2.465724436728048
 30
0.0
 10
4.686592922480309
 20
2.465724436728048
 30
0.0
 10
5.922231328454548
 20
1.577071546588741
 30
0.0
 10
5.922231328454548
 20
1.577071546588741
 30
0.0
 10
5.927149200373429
 20
1.573534687902111
 30
0.0
 10
5.933022579056064
 20
1.571569464284089
 30
0.0
 10
5.93907870008032
 20
1.571434441528052
 30
0.0
 10
5.93907870008032
 20
1.571434441528052
 30
0.0
 10
6.687273386879724
 20
1.554753235116525
 30
0.0
 10
6.687273386879724
 20
1.554753235116525
 30
0.0
 10
6.697406175592808
 20
1.554527322015752
 30
0.0
 10
6.706967968098701
 20
1.55943293671511
 30
0.0
 10
6.71269453648031
 20
1.567795403928054
 30
0.0
 10
6.71269453648031
 20
1.567795403928054
 30
0.0
 10
7.312551141780331
 20
2.443758869028064
 30
0.0
 10
7.312551141780331
 20
2.443758869028064
 30
0.0
 10
7.312551141780331
 20
2.443758869028064
 30
0.0
 10
7.31691050748034
 20
2.46795507042806
 30
0.0
 10
7.31691050748034
 20
2.46795507042806
 30
0.0
 10
7.31691050748034
 20
2.46795507042806
 30
0.0
 10
7.176798432280293
 20
3.030889931328071
 30
0.0
 10
7.176798432280293
 20
3.030889931328071
 30
0.0
 10
7.174312396297232
 20
3.040878194912719
 30
0.0
 10
7.166879297186192
 20
3.048894598399682
 30
0.0
 10
7.157106925236576
 20
3.052126707978232
 30
0.0
 10
7.157106925236576
 20
3.052126707978232
 30
0.0
 10
6.619084177280329
 20
3.230072091828055
 30
0.0
 10
6.619084177280329
 20
3.230072091828055
 30
0.0
 10
6.619084177280329
 20
3.230072091828055
 30
0.0
 10
6.616430730180304
 20
3.231091533428071
 30
0.0
 10
6.616430730180304
 20
3.231091533428071
 30
0.0
 10
6.616430730180304
 20
3.231091533428071
 30
0.0
 10
6.022208862580328
 20
3.492332361928043
 30
0.0
 10
6.022208862580328
 20
3.492332361928043
 30
0.0
 10
6.021677685495155
 20
3.492565886106781
 30
0.0
 10
6.021139845075216
 20
3.492783950510961
 30
0.0
 10
6.020596020177309
 20
3.492986279952422
 30
0.0
 10
6.020596020177309
 20
3.492986279952422
 30
0.0
 10
5.33582951368031
 20
3.747752888328048
 30
0.0
 10
5.33582951368031
 20
3.747752888328048
 30
0.0
 10
5.334099932734185
 20
3.748396376996526
 30
0.0
 10
5.332314666249633
 20
3.748878904767783
 30
0.0
 10
5.330496416736499
 20
3.749194335555381
 30
0.0
 10
5.330496416736499
 20
3.749194335555381
 30
0.0
 10
5.037938334580328
 20
3.799947450328065
 30
0.0
 10
5.037938334580328
 20
3.799947450328065
 30
0.0
 10
5.036244862776053
 20
3.80024123463929
 30
0.0
 10
5.034529276260981
 20
3.800388941928051
 30
0.0
 10
5.032810510480304
 20
3.800388941928051
 30
0.0
 10
5.032810510480304
 20
3.800388941928051
 30
0.0
 10
3.51935780318033
 20
3.800388941928051
 30
0.0
 10
3.51935780318033
 20
3.800388941928051
 30
0.0
 10
3.511590374297232
 20
3.800388941928051
 30
0.0
 10
3.504125710033526
 20
3.797376277658385
 30
0.0
 10
3.49853424388031
 20
3.791984760428047
 30
0.0
 10
3.49853424388031
 20
3.791984760428047
 30
0.0
 10
2.978886788843309
 20
3.290920114606479
 30
0.0
 10
2.978886788843309
 20
3.290920114606479
 30
0.0
  0
ENDBLK
  5
CE
330
CB
100
AcDbEntity
  8
0
100
AcDbBlockEnd
  0
ENDSEC
  0
SECTION
  2
ENTITIES
  0
INSERT
  5
42
330
1F
100
AcDbEntity
  8
SCREWS
100
AcDbBlockReference
  2
block 2
 10
0.0
 20
0.0
 30
0.0
  0
INSERT
  5
47
330
1F
100
AcDbEntity
  8
SCREWS
100
AcDbBlockReference
  2
block 3
 10
0.0
 20
0.0
 30
0.0
  0
INSERT
  5
4C
330
1F
100
AcDbEntity
  8
SCREWS
100
AcDbBlockReference
  2
block 4
 10
0.0
 20
0.0
 30
0.0
  0
INSERT
  5
51
330
1F
100
AcDbEntity
  8
SCREWS
100
AcDbBlockReference
  2
block 5
 10
0.0
 20
0.0
 30
0.0
  0
INSERT
  5
56
330
1F
100
AcDbEntity
  8
SCREWS
100
AcDbBlockReference
  2
block 6
 10
0.0
 20
0.0
 30
0.0
  0
INSERT
  5
5B
330
1F
100
AcDbEntity
  8
SCREWS
100
AcDbBlockReference
  2
block 7
 10
0.0
 20
0.0
 30
0.0
  0
INSERT
  5
61
330
1F
100
AcDbEntity
  8
CUTOUTS
100
AcDbBlockReference
  2
block 8
 10
0.0
 20
0.0
 30
0.0
  0
INSERT
  5
66
330
1F
100
AcDbEntity
  8
CUTOUTS
100
AcDbBlockReference
  2
block 9
 10
0.0
 20
0.0
 30
0.0
  0
INSERT
  5
6B
330
1F
100
AcDbEntity
  8
CUTOUTS
100
AcDbBlockReference
  2
block 10
 10
0.0
 20
0.0
 30
0.0
  0
POLYLINE
  5
6F
330
1F
100
AcDbEntity
  8
CUTOUTS
 62
     7
370
     9
100
AcDb2dPolyline
 66
     1
 10
0.0
 20
0.0
 30
0.0
  0
VERTEX
  5
70
330
6F
100
AcDbEntity
  8
CUTOUTS
 62
     7
370
     9
100
AcDbVertex
100
AcDb2dVertex
 10
4.684305826822916
 20
3.129999796549479
 30
0.0
  0
VERTEX
  5
71
330
6F
100
AcDbEntity
  8
CUTOUTS
 62
     7
370
     9
100
AcDbVertex
100
AcDb2dVertex
 10
4.713333129882812
 20
2.932083129882812
 30
0.0
  0
VERTEX
  5
72
330
6F
100
AcDbEntity
  8
CUTOUTS
 62
     7
370
     9
100
AcDbVertex
100
AcDb2dVertex
 10
4.698194715711805
 20
2.927222357855903
 30
0.0
  0
VERTEX
  5
73
330
6F
100
AcDbEntity
  8
CUTOUTS
 62
     7
370
     9
100
AcDbVertex
100
AcDb2dVertex
 10
4.682916429307725
 20
2.922499762641059
 30
0.0
  0
VERTEX
  5
74
330
6F
100
AcDbEntity
  8
CUTOUTS
 62
     7
370
     9
100
AcDbVertex
100
AcDb2dVertex
 10
4.654583401150173
 20
3.115138583713108
 30
0.0
  0
VERTEX
  5
75
330
6F
100
AcDbEntity
  8
CUTOUTS
 62
     7
370
     9
100
AcDbVertex
100
AcDb2dVertex
 10
4.595694647894965
 20
3.174999660915798
 30
0.0
  0
VERTEX
  5
76
330
6F
100
AcDbEntity
  8
CUTOUTS
 62
     7
370
     9
100
AcDbVertex
100
AcDb2dVertex
 10
4.732916937934028
 20
3.347777472601996
 30
0.0
  0
VERTEX
  5
77
330
6F
100
AcDbEntity
  8
CUTOUTS
 62
     7
370
     9
100
AcDbVertex
100
AcDb2dVertex
 10
4.749305725097656
 20
3.343194749620225
 30
0.0
  0
VERTEX
  5
78
330
6F
100
AcDbEntity
  8
CUTOUTS
 62
     7
370
     9
100
AcDbVertex
100
AcDb2dVertex
 10
4.765833536783854
 20
3.338611178927951
 30
0.0
  0
VERTEX
  5
79
330
6F
100
AcDbEntity
  8
CUTOUTS
 62
     7
370
     9
100
AcDbVertex
100
AcDb2dVertex
 10
4.637638515896267
 20
3.177222357855903
 30
0.0
  0
VERTEX
  5
7A
330
6F
100
AcDbEntity
  8
CUTOUTS
 62
     7
370
     9
100
AcDbVertex
100
AcDb2dVertex
 10
4.684305826822916
 20
3.129999796549479
 30
0.0
  0
SEQEND
  5
7B
330
6F
100
AcDbEntity
  8
CUTOUTS
 62
     7
370
     9
  0
POLYLINE
  5
7C
330
1F
100
AcDbEntity
  8
CUTOUTS
 62
     7
370
     9
100
AcDb2dPolyline
 66
     1
 10
0.0
 20
0.0
 30
0.0
  0
VERTEX
  5
7D
330
7C
100
AcDbEntity
  8
CUTOUTS
 62
     7
370
     9
100
AcDbVertex
100
AcDb2dVertex
 10
4.452361212836371
 20
3.130277845594618
 30
0.0
  0
VERTEX
  5
7E
330
7C
100
AcDbEntity
  8
CUTOUTS
 62
     7
370
     9
100
AcDbVertex
100
AcDb2dVertex
 10
4.507361518012153
 20
2.866944207085503
 30
0.0
  0
VERTEX
  5
7F
330
7C
100
AcDbEntity
  8
CUTOUTS
 62
     7
370
     9
100
AcDbVertex
100
AcDb2dVertex
 10
4.492222256130642
 20
2.862083435058594
 30
0.0
  0
VERTEX
  5
80
330
7C
100
AcDbEntity
  8
CUTOUTS
 62
     7
370
     9
100
AcDbVertex
100
AcDb2dVertex
 10
4.477082994249131
 20
2.85736083984375
 30
0.0
  0
VERTEX
  5
81
330
7C
100
AcDbEntity
  8
CUTOUTS
 62
     7
370
     9
100
AcDbVertex
100
AcDb2dVertex
 10
4.422222561306423
 20
3.120555453830295
 30
0.0
  0
VERTEX
  5
82
330
7C
100
AcDbEntity
  8
CUTOUTS
 62
     7
370
     9
100
AcDbVertex
100
AcDb2dVertex
 10
4.370000203450521
 20
3.193055894639757
 30
0.0
  0
VERTEX
  5
83
330
7C
100
AcDbEntity
  8
CUTOUTS
 62
     7
370
     9
100
AcDbVertex
100
AcDb2dVertex
 10
4.538472493489583
 20
3.401805453830295
 30
0.0
  0
VERTEX
  5
84
330
7C
100
AcDbEntity
  8
CUTOUTS
 62
     7
370
     9
100
AcDbVertex
100
AcDb2dVertex
 10
4.538611518012153
 20
3.401805453830295
 30
0.0
  0
VERTEX
  5
85
330
7C
100
AcDbEntity
  8
CUTOUTS
 62
     7
370
     9
100
AcDbVertex
100
AcDb2dVertex
 10
4.555000305175781
 20
3.397221883138021
 30
0.0
  0
VERTEX
  5
86
330
7C
100
AcDbEntity
  8
CUTOUTS
 62
     7
370
     9
100
AcDbVertex
100
AcDb2dVertex
 10
4.555138481987847
 20
3.397221883138021
 30
0.0
  0
VERTEX
  5
87
330
7C
100
AcDbEntity
  8
CUTOUTS
 62
     7
370
     9
100
AcDbVertex
100
AcDb2dVertex
 10
4.571666293674045
 20
3.39263916015625
 30
0.0
  0
VERTEX
  5
88
330
7C
100
AcDbEntity
  8
CUTOUTS
 62
     7
370
     9
100
AcDbVertex
100
AcDb2dVertex
 10
4.409583197699653
 20
3.191944546169704
 30
0.0
  0
VERTEX
  5
89
330
7C
100
AcDbEntity
  8
CUTOUTS
 62
     7
370
     9
100
AcDbVertex
100
AcDb2dVertex
 10
4.451666937934028
 20
3.133472018771701
 30
0.0
  0
VERTEX
  5
8A
330
7C
100
AcDbEntity
  8
CUTOUTS
 62
     7
370
     9
100
AcDbVertex
100
AcDb2dVertex
 10
4.452361212836371
 20
3.130277845594618
 30
0.0
  0
SEQEND
  5
8B
330
7C
100
AcDbEntity
  8
CUTOUTS
 62
     7
370
     9
  0
POLYLINE
  5
8C
330
1F
100
AcDbEntity
  8
CUTOUTS
 62
     7
370
     9
100
AcDb2dPolyline
 66
     1
 10
0.0
 20
0.0
 30
0.0
  0
VERTEX
  5
8D
330
8C
100
AcDbEntity
  8
CUTOUTS
 62
     7
370
     9
100
AcDbVertex
100
AcDb2dVertex
 10
4.2201385498047
 20
3.132638719346788
 30
0.0
  0
VERTEX
  5
8E
330
8C
100
AcDbEntity
  8
CUTOUTS
 62
     7
370
     9
100
AcDbVertex
100
AcDb2dVertex
 10
4.291944715711805
 20
2.79875013563368
 30
0.0
  0
VERTEX
  5
8F
330
8C
100
AcDbEntity
  8
CUTOUTS
 62
     7
370
     9
100
AcDbVertex
100
AcDb2dVertex
 10
4.276805453830295
 20
2.794027540418837
 30
0.0
  0
VERTEX
  5
90
330
8C
100
AcDbEntity
  8
CUTOUTS
 62
     7
370
     9
100
AcDbVertex
100
AcDb2dVertex
 10
4.261667039659288
 20
2.789305792914496
 30
0.0
  0
VERTEX
  5
91
330
8C
100
AcDbEntity
  8
CUTOUTS
 62
     7
370
     9
100
AcDbVertex
100
AcDb2dVertex
 10
4.189721849229601
 20
3.124305725097656
 30
0.0
  0
VERTEX
  5
92
330
8C
100
AcDbEntity
  8
CUTOUTS
 62
     7
370
     9
100
AcDbVertex
100
AcDb2dVertex
 10
4.13847181532118
 20
3.234444512261284
 30
0.0
  0
VERTEX
  5
93
330
8C
100
AcDbEntity
  8
CUTOUTS
 62
     7
370
     9
100
AcDbVertex
100
AcDb2dVertex
 10
4.325833638509114
 20
3.460972256130642
 30
0.0
  0
VERTEX
  5
94
330
8C
100
AcDbEntity
  8
CUTOUTS
 62
     7
370
     9
100
AcDbVertex
100
AcDb2dVertex
 10
4.342499627007379
 20
3.456388685438368
 30
0.0
  0
VERTEX
  5
95
330
8C
100
AcDbEntity
  8
CUTOUTS
 62
     7
370
     9
100
AcDbVertex
100
AcDb2dVertex
 10
4.359166463216146
 20
3.451805962456597
 30
0.0
  0
VERTEX
  5
96
330
8C
100
AcDbEntity
  8
CUTOUTS
 62
     7
370
     9
100
AcDbVertex
100
AcDb2dVertex
 10
4.17541673448352
 20
3.229721917046441
 30
0.0
  0
VERTEX
  5
97
330
8C
100
AcDbEntity
  8
CUTOUTS
 62
     7
370
     9
100
AcDbVertex
100
AcDb2dVertex
 10
4.2201385498047
 20
3.132638719346788
 30
0.0
  0
SEQEND
  5
98
330
8C
100
AcDbEntity
  8
CUTOUTS
 62
     7
370
     9
  0
POLYLINE
  5
99
330
1F
100
AcDbEntity
  8
CUTOUTS
 62
     7
370
     9
100
AcDb2dPolyline
 66
     1
 10
0.0
 20
0.0
 30
0.0
  0
VERTEX
  5
9A
330
99
100
AcDbEntity
  8
CUTOUTS
 62
     7
370
     9
100
AcDbVertex
100
AcDb2dVertex
 10
3.995694478352864
 20
3.131944444444444
 30
0.0
  0
VERTEX
  5
9B
330
99
100
AcDbEntity
  8
CUTOUTS
 62
     7
370
     9
100
AcDbVertex
100
AcDb2dVertex
 10
4.069999694824219
 20
2.728611416286892
 30
0.0
  0
VERTEX
  5
9C
330
99
100
AcDbEntity
  8
CUTOUTS
 62
     7
370
     9
100
AcDbVertex
100
AcDb2dVertex
 10
4.054861280653212
 20
2.723888821072049
 30
0.0
  0
VERTEX
  5
9D
330
99
100
AcDbEntity
  8
CUTOUTS
 62
     7
370
     9
100
AcDbVertex
100
AcDb2dVertex
 10
4.039722018771714
 20
2.719028049045139
 30
0.0
  0
VERTEX
  5
9E
330
99
100
AcDbEntity
  8
CUTOUTS
 62
     7
370
     9
100
AcDbVertex
100
AcDb2dVertex
 10
3.964860704210069
 20
3.12486097547743
 30
0.0
  0
VERTEX
  5
9F
330
99
100
AcDbEntity
  8
CUTOUTS
 62
     7
370
     9
100
AcDbVertex
100
AcDb2dVertex
 10
3.902360704210069
 20
3.294305589463975
 30
0.0
  0
VERTEX
  5
A0
330
99
100
AcDbEntity
  8
CUTOUTS
 62
     7
370
     9
100
AcDbVertex
100
AcDb2dVertex
 10
4.104027642144097
 20
3.522638956705729
 30
0.0
  0
VERTEX
  5
A1
330
99
100
AcDbEntity
  8
CUTOUTS
 62
     7
370
     9
100
AcDbVertex
100
AcDb2dVertex
 10
4.120972527398004
 20
3.518055386013454
 30
0.0
  0
VERTEX
  5
A2
330
99
100
AcDbEntity
  8
CUTOUTS
 62
     7
370
     9
100
AcDbVertex
100
AcDb2dVertex
 10
4.137916564941406
 20
3.513333638509114
 30
0.0
  0
VERTEX
  5
A3
330
99
100
AcDbEntity
  8
CUTOUTS
 62
     7
370
     9
100
AcDbVertex
100
AcDb2dVertex
 10
3.938472323947483
 20
3.2875001695421
 30
0.0
  0
VERTEX
  5
A4
330
99
100
AcDbEntity
  8
CUTOUTS
 62
     7
370
     9
100
AcDbVertex
100
AcDb2dVertex
 10
3.995694478352864
 20
3.131944444444444
 30
0.0
  0
SEQEND
  5
A5
330
99
100
AcDbEntity
  8
CUTOUTS
 62
     7
370
     9
  0
POLYLINE
  5
A6
330
1F
100
AcDbEntity
  8
CUTOUTS
 62
     7
370
     9
100
AcDb2dPolyline
 66
     1
 10
0.0
 20
0.0
 30
0.0
  0
VERTEX
  5
A7
330
A6
100
AcDbEntity
  8
CUTOUTS
 62
     7
370
     9
100
AcDbVertex
100
AcDb2dVertex
 10
3.768194410536024
 20
3.129444546169704
 30
0.0
  0
VERTEX
  5
A8
330
A6
100
AcDbEntity
  8
CUTOUTS
 62
     7
370
     9
100
AcDbVertex
100
AcDb2dVertex
 10
3.854305691189236
 20
2.660416497124566
 30
0.0
  0
VERTEX
  5
A9
330
A6
100
AcDbEntity
  8
CUTOUTS
 62
     7
370
     9
100
AcDbVertex
100
AcDb2dVertex
 10
3.839166429307725
 20
2.655694749620225
 30
0.0
  0
VERTEX
  5
AA
330
A6
100
AcDbEntity
  8
CUTOUTS
 62
     7
370
     9
100
AcDbVertex
100
AcDb2dVertex
 10
3.824167039659288
 20
2.650972154405382
 30
0.0
  0
VERTEX
  5
AB
330
A6
100
AcDbEntity
  8
CUTOUTS
 62
     7
370
     9
100
AcDbVertex
100
AcDb2dVertex
 10
3.737499660915811
 20
3.122361077202691
 30
0.0
  0
VERTEX
  5
AC
330
A6
100
AcDbEntity
  8
CUTOUTS
 62
     7
370
     9
100
AcDbVertex
100
AcDb2dVertex
 10
3.663194444444444
 20
3.322361416286892
 30
0.0
  0
VERTEX
  5
AD
330
A6
100
AcDbEntity
  8
CUTOUTS
 62
     7
370
     9
100
AcDbVertex
100
AcDb2dVertex
 10
3.892083062065972
 20
3.581666734483507
 30
0.0
  0
VERTEX
  5
AE
330
A6
100
AcDbEntity
  8
CUTOUTS
 62
     7
370
     9
100
AcDbVertex
100
AcDb2dVertex
 10
3.909166971842448
 20
3.576944139268663
 30
0.0
  0
VERTEX
  5
AF
330
A6
100
AcDbEntity
  8
CUTOUTS
 62
     7
370
     9
100
AcDbVertex
100
AcDb2dVertex
 10
3.925971984863281
 20
3.572222391764323
 30
0.0
  0
VERTEX
  5
B0
330
A6
100
AcDbEntity
  8
CUTOUTS
 62
     7
370
     9
100
AcDbVertex
100
AcDb2dVertex
 10
3.699305216471366
 20
3.315555148654514
 30
0.0
  0
VERTEX
  5
B1
330
A6
100
AcDbEntity
  8
CUTOUTS
 62
     7
370
     9
100
AcDbVertex
100
AcDb2dVertex
 10
3.768194410536024
 20
3.129444546169704
 30
0.0
  0
SEQEND
  5
B2
330
A6
100
AcDbEntity
  8
CUTOUTS
 62
     7
370
     9
  0
POLYLINE
  5
B3
330
1F
100
AcDbEntity
  8
CUTOUTS
 62
     7
370
     9
100
AcDb2dPolyline
 66
     1
 10
0.0
 20
0.0
 30
0.0
  0
VERTEX
  5
B4
330
B3
100
AcDbEntity
  8
CUTOUTS
 62
     7
370
     9
100
AcDbVertex
100
AcDb2dVertex
 10
3.584305657280816
 20
2.575138515896267
 30
0.0
  0
VERTEX
  5
B5
330
B3
100
AcDbEntity
  8
CUTOUTS
 62
     7
370
     9
100
AcDbVertex
100
AcDb2dVertex
 10
3.569027370876736
 20
2.570277743869358
 30
0.0
  0
VERTEX
  5
B6
330
B3
100
AcDbEntity
  8
CUTOUTS
 62
     7
370
     9
100
AcDbVertex
100
AcDb2dVertex
 10
3.553749932183172
 20
2.565416971842448
 30
0.0
  0
VERTEX
  5
B7
330
B3
100
AcDbEntity
  8
CUTOUTS
 62
     7
370
     9
100
AcDbVertex
100
AcDb2dVertex
 10
3.485555860731337
 20
3.129166497124566
 30
0.0
  0
VERTEX
  5
B8
330
B3
100
AcDbEntity
  8
CUTOUTS
 62
     7
370
     9
100
AcDbVertex
100
AcDb2dVertex
 10
3.355972290039075
 20
3.396944681803385
 30
0.0
  0
VERTEX
  5
B9
330
B3
100
AcDbEntity
  8
CUTOUTS
 62
     7
370
     9
100
AcDbVertex
100
AcDb2dVertex
 10
3.45736100938585
 20
3.506944444444444
 30
0.0
  0
VERTEX
  5
BA
330
B3
100
AcDbEntity
  8
CUTOUTS
 62
     7
370
     9
100
AcDbVertex
100
AcDb2dVertex
 10
3.475694444444444
 20
3.503611246744792
 30
0.0
  0
VERTEX
  5
BB
330
B3
100
AcDbEntity
  8
CUTOUTS
 62
     7
370
     9
100
AcDbVertex
100
AcDb2dVertex
 10
3.493888854980469
 20
3.500278049045139
 30
0.0
  0
VERTEX
  5
BC
330
B3
100
AcDbEntity
  8
CUTOUTS
 62
     7
370
     9
100
AcDbVertex
100
AcDb2dVertex
 10
3.393611484103733
 20
3.391388787163628
 30
0.0
  0
VERTEX
  5
BD
330
B3
100
AcDbEntity
  8
CUTOUTS
 62
     7
370
     9
100
AcDbVertex
100
AcDb2dVertex
 10
3.516110738118489
 20
3.138194613986545
 30
0.0
  0
VERTEX
  5
BE
330
B3
100
AcDbEntity
  8
CUTOUTS
 62
     7
370
     9
100
AcDbVertex
100
AcDb2dVertex
 10
3.516388787163628
 20
3.135555691189236
 30
0.0
  0
VERTEX
  5
BF
330
B3
100
AcDbEntity
  8
CUTOUTS
 62
     7
370
     9
100
AcDbVertex
100
AcDb2dVertex
 10
3.584305657280816
 20
2.575138515896267
 30
0.0
  0
SEQEND
  5
C0
330
B3
100
AcDbEntity
  8
CUTOUTS
 62
     7
370
     9
  0
SPLINE
  5
C1
330
1F
100
AcDbEntity
  8
CUTOUTS
 62
     7
370
     9
100
AcDbSpline
210
0.0
220
0.0
230
1.0
 70
    11
 71
     3
 72
   107
 73
   103
 74
     0
 42
0.0000000001
 43
0.0000000001
 12
1.0
 22
0.0
 32
0.0
 13
1.0
 23
0.0
 33
0.0
 40
0.0
 40
0.0
 40
0.0
 40
0.0
 40
1.0
 40
1.0
 40
1.0
 40
2.0
 40
2.0
 40
2.0
 40
3.0
 40
3.0
 40
3.0
 40
4.0
 40
4.0
 40
4.0
 40
5.0
 40
5.0
 40
5.0
 40
6.0
 40
6.0
 40
6.0
 40
7.0
 40
7.0
 40
7.0
 40
8.0
 40
8.0
 40
8.0
 40
9.0
 40
9.0
 40
9.0
 40
10.0
 40
10.0
 40
10.0
 40
11.0
 40
11.0
 40
11.0
 40
12.0
 40
12.0
 40
12.0
 40
13.0
 40
13.0
 40
13.0
 40
14.0
 40
14.0
 40
14.0
 40
15.0
 40
15.0
 40
15.0
 40
16.0
 40
16.0
 40
16.0
 40
17.0
 40
17.0
 40
17.0
 40
18.0
 40
18.0
 40
18.0
 40
19.0
 40
19.0
 40
19.0
 40
20.0
 40
20.0
 40
20.0
 40
21.0
 40
21.0
 40
21.0
 40
22.0
 40
22.0
 40
22.0
 40
23.0
 40
23.0
 40
23.0
 40
24.0
 40
24.0
 40
24.0
 40
25.0
 40
25.0
 40
25.0
 40
26.0
 40
26.0
 40
26.0
 40
27.0
 40
27.0
 40
27.0
 40
28.0
 40
28.0
 40
28.0
 40
29.0
 40
29.0
 40
29.0
 40
30.0
 40
30.0
 40
30.0
 40
31.0
 40
31.0
 40
31.0
 40
32.0
 40
32.0
 40
32.0
 40
33.0
 40
33.0
 40
33.0
 40
34.0
 40
34.0
 40
34.0
 40
34.0
 10
5.164984809027778
 20
2.8994140625
 30
0.0
 10
5.158270941840278
 20
2.8994140625
 30
0.0
 10
5.151936848958333
 20
2.902031792534722
 30
0.0
 10
5.147121853298611
 20
2.906765407986111
 30
0.0
 10
5.142225477430555
 20
2.911593967013889
 30
0.0
 10
5.139539930555555
 20
2.918036566840278
 30
0.0
 10
5.139539930555555
 20
2.924913194444444
 30
0.0
 10
5.139539930555555
 20
2.924913194444444
 30
0.0
 10
5.139539930555555
 20
3.179958767361111
 30
0.0
 10
5.139539930555555
 20
3.179958767361111
 30
0.0
 10
5.139539930555555
 20
3.179958767361111
 30
0.0
 10
5.173407660590278
 20
3.179958767361111
 30
0.0
 10
5.173407660590278
 20
3.179958767361111
 30
0.0
 10
5.176662868923611
 20
3.179958767361111
 30
0.0
 10
5.1781005859375
 20
3.182237413194444
 30
0.0
 10
5.178575303819444
 20
3.183213975694444
 30
0.0
 10
5.179050021701388
 20
3.184190538194444
 30
0.0
 10
5.179918077256944
 20
3.186726888020833
 30
0.0
 10
5.177897135416666
 20
3.189276801215278
 30
0.0
 10
5.177897135416666
 20
3.189276801215278
 30
0.0
 10
5.055487738715278
 20
3.343329535590278
 30
0.0
 10
5.055487738715278
 20
3.343329535590278
 30
0.0
 10
5.0494384765625
 20
3.3509521484375
 30
0.0
 10
5.0482177734375
 20
3.361151801215278
 30
0.0
 10
5.052300347222222
 20
3.369981553819444
 30
0.0
 10
5.056382921006944
 20
3.378797743055555
 30
0.0
 10
5.064954969618055
 20
3.384467230902778
 30
0.0
 10
5.074666341145833
 20
3.384792751736111
 30
0.0
 10
5.074666341145833
 20
3.384792751736111
 30
0.0
 10
5.300876193576388
 20
3.392293294270833
 30
0.0
 10
5.300889756944444
 20
3.392293294270833
 30
0.0
 10
5.309882269965278
 20
3.392293294270833
 30
0.0
 10
5.317681206597222
 20
3.388454861111111
 30
0.0
 10
5.322645399305555
 20
3.382025824652778
 30
0.0
 10
5.322645399305555
 20
3.382025824652778
 30
0.0
 10
5.350273980034722
 20
3.346259223090278
 30
0.0
 10
5.350273980034722
 20
3.346259223090278
 30
0.0
 10
5.350273980034722
 20
3.346259223090278
 30
0.0
 10
5.350273980034722
 20
3.347507052951389
 30
0.0
 10
5.350273980034722
 20
3.347507052951389
 30
0.0
 10
5.350273980034722
 20
3.361246744791667
 30
0.0
 10
5.3614501953125
 20
3.372667100694444
 30
0.0
 10
5.375189887152778
 20
3.372951931423611
 30
0.0
 10
5.375189887152778
 20
3.372951931423611
 30
0.0
 10
5.418768988715278
 20
3.373847113715278
 30
0.0
 10
5.418782552083333
 20
3.373847113715278
 30
0.0
 10
5.426255967881944
 20
3.373847113715278
 30
0.0
 10
5.4327392578125
 20
3.371120876736111
 30
0.0
 10
5.437594943576388
 20
3.366156684027778
 30
0.0
 10
5.442450629340278
 20
3.3612060546875
 30
0.0
 10
5.445041232638888
 20
3.354654947916667
 30
0.0
 10
5.444892035590278
 20
3.347710503472222
 30
0.0
 10
5.444892035590278
 20
3.347710503472222
 30
0.0
 10
5.443088107638888
 20
3.257785373263889
 30
0.0
 10
5.443088107638888
 20
3.257785373263889
 30
0.0
 10
5.443088107638888
 20
3.257785373263889
 30
0.0
 10
5.482381184895833
 20
3.199652777777778
 30
0.0
 10
5.482381184895833
 20
3.199652777777778
 30
0.0
 10
5.487657335069444
 20
3.19184019714511
 30
0.0
 10
5.488199869791666
 20
3.181803385416667
 30
0.0
 10
5.4837646484375
 20
3.173475477430555
 30
0.0
 10
5.479342990451388
 20
3.165134006076389
 30
0.0
 10
5.470730251736111
 20
3.159966362847222
 30
0.0
 10
5.4613037109375
 20
3.159966362847222
 30
0.0
 10
5.4613037109375
 20
3.159966362847222
 30
0.0
 10
5.451592339409722
 20
3.159966362847222
 30
0.0
 10
5.451592339409722
 20
3.159966362847222
 30
0.0
 10
5.451592339409722
 20
3.159966362847222
 30
0.0
 10
5.454928927951388
 20
2.982421875
 30
0.0
 10
5.454928927951388
 20
2.982421875
 30
0.0
 10
5.455173068576388
 20
2.969997829861111
 30
0.0
 10
5.446492513020833
 20
2.959323459201389
 30
0.0
 10
5.434271918402778
 20
2.957017686631944
 30
0.0
 10
5.434271918402778
 20
2.957017686631944
 30
0.0
 10
5.376302083333333
 20
2.946044921875
 30
0.0
 10
5.376302083333333
 20
2.946044921875
 30
0.0
 10
5.374701605902778
 20
2.945732964409722
 30
0.0
 10
5.373101128472222
 20
2.945583767361111
 30
0.0
 10
5.371527777777778
 20
2.945583767361111
 30
0.0
 10
5.364813910590278
 20
2.945583767361111
 30
0.0
 10
5.358466254340278
 20
2.948201497395833
 30
0.0
 10
5.353664822048611
 20
2.952948676215278
 30
0.0
 10
5.348795572916666
 20
2.957763671875
 30
0.0
 10
5.346110026041666
 20
2.964192708333333
 30
0.0
 10
5.346110026041666
 20
2.971055772569444
 30
0.0
 10
5.346110026041666
 20
2.971055772569444
 30
0.0
 10
5.346110026041666
 20
3.077473958333333
 30
0.0
 10
5.346110026041666
 20
3.077473958333333
 30
0.0
 10
5.346110026041666
 20
3.077473958333333
 30
0.0
 10
5.294786241319444
 20
3.0673828125
 30
0.0
 10
5.294786241319444
 20
3.0673828125
 30
0.0
 10
5.294786241319444
 20
3.0673828125
 30
0.0
 10
5.294786241319444
 20
2.947645399305555
 30
0.0
 10
5.294786241319444
 20
2.947645399305555
 30
0.0
 10
5.294786241319444
 20
2.935655381944444
 30
0.0
 10
5.286282009548611
 20
2.925103081597222
 30
0.0
 10
5.274549696180555
 20
2.922553168402778
 30
0.0
 10
5.274549696180555
 20
2.922553168402778
 30
0.0
 10
5.17041015625
 20
2.899997287326389
 30
0.0
 10
5.17041015625
 20
2.899997287326389
 30
0.0
 10
5.168619791666666
 20
2.899617513020833
 30
0.0
 10
5.166802300347222
 20
2.8994140625
 30
0.0
 10
5.164984809027778
 20
2.8994140625
 30
0.0
  0
POLYLINE
  5
C2
330
1F
100
AcDbEntity
  8
CUTOUTS
 62
     7
370
     9
100
AcDb2dPolyline
 66
     1
 10
0.0
 20
0.0
 30
0.0
  0
VERTEX
  5
C3
330
C2
100
AcDbEntity
  8
CUTOUTS
 62
     7
370
     9
100
AcDbVertex
100
AcDb2dVertex
 10
3.050496419270833
 20
2.868991427951389
 30
0.0
  0
VERTEX
  5
C4
330
C2
100
AcDbEntity
  8
CUTOUTS
 62
     7
370
     9
100
AcDbVertex
100
AcDb2dVertex
 10
2.897203233506944
 20
2.868991427951389
 30
0.0
  0
VERTEX
  5
C5
330
C2
100
AcDbEntity
  8
CUTOUTS
 62
     7
370
     9
100
AcDbVertex
100
AcDb2dVertex
 10
2.897203233506944
 20
3.081895616319444
 30
0.0
  0
VERTEX
  5
C6
330
C2
100
AcDbEntity
  8
CUTOUTS
 62
     7
370
     9
100
AcDbVertex
100
AcDb2dVertex
 10
3.144036187065972
 20
3.018107096354167
 30
0.0
  0
VERTEX
  5
C7
330
C2
100
AcDbEntity
  8
CUTOUTS
 62
     7
370
     9
100
AcDbVertex
100
AcDb2dVertex
 10
3.050496419270833
 20
2.962144639756944
 30
0.0
  0
VERTEX
  5
C8
330
C2
100
AcDbEntity
  8
CUTOUTS
 62
     7
370
     9
100
AcDbVertex
100
AcDb2dVertex
 10
3.050496419270833
 20
2.868991427951389
 30
0.0
  0
SEQEND
  5
C9
330
C2
100
AcDbEntity
  8
CUTOUTS
 62
     7
370
     9
  0
INSERT
  5
CC
330
1F
100
AcDbEntity
  8
OUTLINES
100
AcDbBlockReference
  2
block 11
 10
0.0
 20
0.0
 30
0.0
  0
ENDSEC
  0
SECTION
  2
OBJECTS
  0
DICTIONARY
  5
C
330
0
100
AcDbDictionary
281
     1
  3
ACAD_GROUP
350
D
  3
ACAD_LAYOUT
350
1A
  3
ACAD_MATERIAL
350
3B
  3
ACAD_MLEADERSTYLE
350
D2
  3
ACAD_MLINESTYLE
350
17
  3
ACAD_PLOTSETTINGS
350
19
  3
ACAD_PLOTSTYLENAME
350
E
  3
ACAD_VISUALSTYLE
350
2A
  3
AcDbVariableDictionary
350
D0
  0
DICTIONARY
  5
D
102
{ACAD_REACTORS
330
C
102
}
330
C
100
AcDbDictionary
281
     1
  0
DICTIONARY
  5
1A
102
{ACAD_REACTORS
330
C
102
}
330
C
100
AcDbDictionary
281
     1
  3
Layout1
350
1E
  3
Layout2
350
26
  3
Model
350
22
  0
DICTIONARY
  5
3B
102
{ACAD_REACTORS
330
C
102
}
330
C
100
AcDbDictionary
281
     1
  3
ByBlock
350
3D
  3
ByLayer
350
3C
  3
Global
350
3E
  0
DICTIONARY
  5
D2
102
{ACAD_REACTORS
330
C
102
}
330
C
100
AcDbDictionary
281
     1
  0
DICTIONARY
  5
17
102
{ACAD_REACTORS
330
C
102
}
330
C
100
AcDbDictionary
281
     1
  3
Standard
350
18
  0
DICTIONARY
  5
19
102
{ACAD_REACTORS
330
C
102
}
330
C
100
AcDbDictionary
281
     1
  0
ACDBDICTIONARYWDFLT
  5
E
102
{ACAD_REACTORS
330
C
102
}
330
C
100
AcDbDictionary
281
     1
  3
Normal
350
F
100
AcDbDictionaryWithDefault
340
F
  0
DICTIONARY
  5
2A
102
{ACAD_REACTORS
330
C
102
}
330
C
100
AcDbDictionary
281
     1
  3
2dWireframe
350
2F
  3
3D Hidden
350
31
  3
3dWireframe
350
30
  3
Basic
350
32
  3
Brighten
350
36
  3
ColorChange
350
3A
  3
Conceptual
350
34
  3
Dim
350
35
  3
Facepattern
350
39
  3
Flat
350
2B
  3
FlatWithEdges
350
2C
  3
Gouraud
350
2D
  3
GouraudWithEdges
350
2E
  3
Linepattern
350
38
  3
Realistic
350
33
  3
Thicken
350
37
  0
DICTIONARY
  5
D0
102
{ACAD_REACTORS
330
C
102
}
330
C
100
AcDbDictionary
281
     1
  3
DIMASSOC
350
D3
  3
HIDETEXT
350
D4
  0
LAYOUT
  5
1E
102
{ACAD_REACTORS
330
1A
102
}
330
1A
100
AcDbPlotSettings
  1

  2
none_device
  4

  6

 40
0.0
 41
0.0
 42
0.0
 43
0.0
 44
0.0
 45
0.0
 46
0.0
 47
0.0
 48
0.0
 49
0.0
140
0.0
141
0.0
142
1.0
143
1.0
 70
   688
 72
     0
 73
     0
 74
     5
  7

 75
    16
147
1.0
148
0.0
149
0.0
100
AcDbLayout
  1
Layout1
 70
     1
 71
     1
 10
0.0
 20
0.0
 11
12.0
 21
9.0
 12
0.0
 22
0.0
 32
0.0
 14
1.000000000000000E+20
 24
1.000000000000000E+20
 34
1.000000000000000E+20
 15
-1.000000000000000E+20
 25
-1.000000000000000E+20
 35
-1.000000000000000E+20
146
0.0
 13
0.0
 23
0.0
 33
0.0
 16
1.0
 26
0.0
 36
0.0
 17
0.0
 27
1.0
 37
0.0
 76
     0
330
1B
  0
LAYOUT
  5
26
102
{ACAD_REACTORS
330
1A
102
}
330
1A
100
AcDbPlotSettings
  1

  2
none_device
  4

  6

 40
0.0
 41
0.0
 42
0.0
 43
0.0
 44
0.0
 45
0.0
 46
0.0
 47
0.0
 48
0.0
 49
0.0
140
0.0
141
0.0
142
1.0
143
1.0
 70
   688
 72
     0
 73
     0
 74
     5
  7

 75
    16
147
1.0
148
0.0
149
0.0
100
AcDbLayout
  1
Layout2
 70
     1
 71
     2
 10
0.0
 20
0.0
 11
0.0
 21
0.0
 12
0.0
 22
0.0
 32
0.0
 14
0.0
 24
0.0
 34
0.0
 15
0.0
 25
0.0
 35
0.0
146
0.0
 13
0.0
 23
0.0
 33
0.0
 16
1.0
 26
0.0
 36
0.0
 17
0.0
 27
1.0
 37
0.0
 76
     0
330
23
  0
LAYOUT
  5
22
102
{ACAD_REACTORS
330
1A
102
}
330
1A
100
AcDbPlotSettings
  1

  2
none_device
  4

  6

 40
0.0
 41
0.0
 42
0.0
 43
0.0
 44
0.0
 45
0.0
 46
0.0
 47
0.0
 48
0.0
 49
0.0
140
0.0
141
0.0
142
1.0
143
1.0
 70
  1712
 72
     0
 73
     0
 74
     0
  7

 75
     0
147
1.0
148
0.0
149
0.0
100
AcDbLayout
  1
Model
 70
     1
 71
     0
 10
0.0
 20
0.0
 11
12.0
 21
9.0
 12
0.0
 22
0.0
 32
0.0
 14
1.000000000000000E+20
 24
1.000000000000000E+20
 34
1.000000000000000E+20
 15
-1.000000000000000E+20
 25
-1.000000000000000E+20
 35
-1.000000000000000E+20
146
0.0
 13
0.0
 23
0.0
 33
0.0
 16
1.0
 26
0.0
 36
0.0
 17
0.0
 27
1.0
 37
0.0
 76
     0
330
1F
331
29
  0
MATERIAL
  5
3D
102
{ACAD_REACTORS
330
3B
102
}
102
{ACAD_XDICTIONARY
360
F7
102
}
330
3B
100
AcDbMaterial
  1
ByBlock
  0
MATERIAL
  5
3C
102
{ACAD_REACTORS
330
3B
102
}
102
{ACAD_XDICTIONARY
360
F5
102
}
330
3B
100
AcDbMaterial
  1
ByLayer
  0
MATERIAL
  5
3E
102
{ACAD_REACTORS
330
3B
102
}
102
{ACAD_XDICTIONARY
360
F9
102
}
330
3B
100
AcDbMaterial
  1
Global
  0
MLINESTYLE
  5
18
102
{ACAD_REACTORS
330
17
102
}
330
17
100
AcDbMlineStyle
  2
Standard
 70
     0
  3

 62
   256
 51
90.0
 52
90.0
 71
     2
 49
0.5
 62
   256
  6
BYLAYER
 49
-0.5
 62
   256
  6
BYLAYER
  0
ACDBPLACEHOLDER
  5
F
102
{ACAD_REACTORS
330
E
102
}
330
E
  0
VISUALSTYLE
  5
2F
102
{ACAD_REACTORS
330
2A
102
}
102
{ACAD_XDICTIONARY
360
DD
102
}
330
2A
100
AcDbVisualStyle
  2
2dWireframe
 70
     4
 71
     0
 72
     2
 73
     0
 90
        0
 40
-0.6
 41
-30.0
 62
     5
 63
     7
 74
     1
 91
        4
 64
     7
 65
   257
 75
     1
175
     1
 42
1.0
 92
        0
 66
   257
 43
1.0
 76
     1
 77
     6
 78
     2
 67
     7
 79
     5
170
     0
171
     0
290
     0
174
     0
 93
        1
 44
0.0
173
     0
291
     0
 45
0.0
1001
ACAD
1000
AcDbSavedByObjectVersion
1070
     0
  0
VISUALSTYLE
  5
31
102
{ACAD_REACTORS
330
2A
102
}
102
{ACAD_XDICTIONARY
360
E1
102
}
330
2A
100
AcDbVisualStyle
  2
3D Hidden
 70
     6
 71
     1
 72
     2
 73
     2
 90
        0
 40
-0.6
 41
-30.0
 62
     5
 63
     7
 74
     2
 91
        2
 64
     7
 65
   257
 75
     2
175
     1
 42
40.0
 92
        0
 66
   257
 43
1.0
 76
     1
 77
     6
 78
     2
 67
     7
 79
     3
170
     0
171
     0
290
     0
174
     0
 93
        1
 44
0.0
173
     0
291
     0
 45
0.0
1001
ACAD
1000
AcDbSavedByObjectVersion
1070
     0
  0
VISUALSTYLE
  5
30
102
{ACAD_REACTORS
330
2A
102
}
102
{ACAD_XDICTIONARY
360
DF
102
}
330
2A
100
AcDbVisualStyle
  2
3dWireframe
 70
     5
 71
     0
 72
     2
 73
     0
 90
        0
 40
-0.6
 41
-30.0
 62
     5
 63
     7
 74
     1
 91
        4
 64
     7
 65
   257
 75
     1
175
     1
 42
1.0
 92
        0
 66
   257
 43
1.0
 76
     1
 77
     6
 78
     2
 67
     7
 79
     5
170
     0
171
     0
290
     0
174
     0
 93
        1
 44
0.0
173
     0
291
     0
 45
0.0
1001
ACAD
1000
AcDbSavedByObjectVersion
1070
     0
  0
VISUALSTYLE
  5
32
102
{ACAD_REACTORS
330
2A
102
}
102
{ACAD_XDICTIONARY
360
E3
102
}
330
2A
100
AcDbVisualStyle
  2
Basic
 70
     7
 71
     1
 72
     0
 73
     1
 90
        0
 40
-0.6
 41
-30.0
 62
     5
 63
     7
 74
     0
 91
        4
 64
     7
 65
   257
 75
     1
175
     1
 42
1.0
 92
        8
 66
     7
 43
1.0
 76
     1
 77
     6
 78
     2
 67
     7
 79
     5
170
     0
171
     0
290
     0
174
     0
 93
        1
 44
0.0
173
     0
291
     1
 45
0.0
1001
ACAD
1000
AcDbSavedByObjectVersion
1070
     0
  0
VISUALSTYLE
  5
36
102
{ACAD_REACTORS
330
2A
102
}
102
{ACAD_XDICTIONARY
360
EB
102
}
330
2A
100
AcDbVisualStyle
  2
Brighten
 70
    12
 71
     2
 72
     2
 73
     0
 90
        0
 40
-0.6
 41
-30.0
 62
     5
 63
     7
 74
     1
 91
        4
 64
     7
 65
   257
 75
     1
175
     1
 42
1.0
 92
        8
 66
     7
 43
1.0
 76
     1
 77
     6
 78
     2
 67
     7
 79
     5
170
     0
171
     0
290
     0
174
     0
 93
        1
 44
50.0
173
     0
291
     1
 45
0.0
1001
ACAD
1000
AcDbSavedByObjectVersion
1070
     0
  0
VISUALSTYLE
  5
3A
102
{ACAD_REACTORS
330
2A
102
}
102
{ACAD_XDICTIONARY
360
F3
102
}
330
2A
100
AcDbVisualStyle
  2
ColorChange
 70
    16
 71
     2
 72
     2
 73
     3
 90
        0
 40
-0.6
 41
-30.0
 62
     5
 63
     8
 74
     1
 91
        4
 64
     7
 65
   257
 75
     1
175
     1
 42
1.0
 92
        8
 66
     8
 43
1.0
 76
     1
 77
     6
 78
     2
 67
     7
 79
     5
170
     0
171
     0
290
     0
174
     0
 93
        1
 44
0.0
173
     0
291
     1
 45
0.0
1001
ACAD
1000
AcDbSavedByObjectVersion
1070
     0
  0
VISUALSTYLE
  5
34
102
{ACAD_REACTORS
330
2A
102
}
102
{ACAD_XDICTIONARY
360
E7
102
}
330
2A
100
AcDbVisualStyle
  2
Conceptual
 70
     9
 71
     3
 72
     2
 73
     0
 90
        0
 40
-0.6
 41
-30.0
 62
     5
 63
     7
 74
     2
 91
        2
 64
     7
 65
   257
 75
     1
175
     1
 42
40.0
 92
        8
 66
     7
 43
1.0
 76
     1
 77
     6
 78
     2
 67
     7
 79
     3
170
     0
171
     0
290
     0
174
     0
 93
        1
 44
0.0
173
     0
291
     0
 45
0.0
1001
ACAD
1000
AcDbSavedByObjectVersion
1070
     0
  0
VISUALSTYLE
  5
35
102
{ACAD_REACTORS
330
2A
102
}
102
{ACAD_XDICTIONARY
360
E9
102
}
330
2A
100
AcDbVisualStyle
  2
Dim
 70
    11
 71
     2
 72
     2
 73
     0
 90
        0
 40
-0.6
 41
-30.0
 62
     5
 63
     7
 74
     1
 91
        4
 64
     7
 65
   257
 75
     1
175
     1
 42
1.0
 92
        8
 66
     7
 43
1.0
 76
     1
 77
     6
 78
     2
 67
     7
 79
     5
170
     0
171
     0
290
     0
174
     0
 93
        1
 44
-50.0
173
     0
291
     1
 45
0.0
1001
ACAD
1000
AcDbSavedByObjectVersion
1070
     0
  0
VISUALSTYLE
  5
39
102
{ACAD_REACTORS
330
2A
102
}
102
{ACAD_XDICTIONARY
360
F1
102
}
330
2A
100
AcDbVisualStyle
  2
Facepattern
 70
    15
 71
     2
 72
     2
 73
     0
 90
        0
 40
-0.6
 41
-30.0
 62
     5
 63
     7
 74
     1
 91
        4
 64
     7
 65
   257
 75
     1
175
     1
 42
1.0
 92
        8
 66
     7
 43
1.0
 76
     1
 77
     6
 78
     2
 67
     7
 79
     5
170
     0
171
     0
290
     0
174
     0
 93
        1
 44
0.0
173
     0
291
     1
 45
0.0
1001
ACAD
1000
AcDbSavedByObjectVersion
1070
     0
  0
VISUALSTYLE
  5
2B
102
{ACAD_REACTORS
330
2A
102
}
102
{ACAD_XDICTIONARY
360
D5
102
}
330
2A
100
AcDbVisualStyle
  2
Flat
 70
     0
 71
     2
 72
     1
 73
     1
 90
        2
 40
-0.6
 41
30.0
 62
     5
 63
     7
 74
     0
 91
        4
 64
     7
 65
   257
 75
     1
175
     1
 42
1.0
 92
        8
 66
     7
 43
1.0
 76
     1
 77
     6
 78
     2
 67
     7
 79
     5
170
     0
171
     0
290
     0
174
     0
 93
       13
 44
0.0
173
     0
291
     1
 45
0.0
1001
ACAD
1000
AcDbSavedByObjectVersion
1070
     0
  0
VISUALSTYLE
  5
2C
102
{ACAD_REACTORS
330
2A
102
}
102
{ACAD_XDICTIONARY
360
D7
102
}
330
2A
100
AcDbVisualStyle
  2
FlatWithEdges
 70
     1
 71
     2
 72
     1
 73
     1
 90
        2
 40
-0.6
 41
30.0
 62
     5
 63
     7
 74
     1
 91
        4
 64
     7
 65
   257
 75
     1
175
     1
 42
1.0
 92
        0
 66
   257
 43
1.0
 76
     1
 77
     6
 78
     2
 67
     7
 79
     5
170
     0
171
     0
290
     0
174
     0
 93
       13
 44
0.0
173
     0
291
     1
 45
0.0
1001
ACAD
1000
AcDbSavedByObjectVersion
1070
     0
  0
VISUALSTYLE
  5
2D
102
{ACAD_REACTORS
330
2A
102
}
102
{ACAD_XDICTIONARY
360
D9
102
}
330
2A
100
AcDbVisualStyle
  2
Gouraud
 70
     2
 71
     2
 72
     2
 73
     1
 90
        2
 40
-0.6
 41
30.0
 62
     5
 63
     7
 74
     0
 91
        4
 64
     7
 65
   257
 75
     1
175
     1
 42
1.0
 92
        0
 66
     7
 43
1.0
 76
     1
 77
     6
 78
     2
 67
     7
 79
     5
170
     0
171
     0
290
     0
174
     0
 93
       13
 44
0.0
173
     0
291
     1
 45
0.0
1001
ACAD
1000
AcDbSavedByObjectVersion
1070
     0
  0
VISUALSTYLE
  5
2E
102
{ACAD_REACTORS
330
2A
102
}
102
{ACAD_XDICTIONARY
360
DB
102
}
330
2A
100
AcDbVisualStyle
  2
GouraudWithEdges
 70
     3
 71
     2
 72
     2
 73
     1
 90
        2
 40
-0.6
 41
30.0
 62
     5
 63
     7
 74
     1
 91
        4
 64
     7
 65
   257
 75
     1
175
     1
 42
1.0
 92
        0
 66
   257
 43
1.0
 76
     1
 77
     6
 78
     2
 67
     7
 79
     5
170
     0
171
     0
290
     0
174
     0
 93
       13
 44
0.0
173
     0
291
     1
 45
0.0
1001
ACAD
1000
AcDbSavedByObjectVersion
1070
     0
  0
VISUALSTYLE
  5
38
102
{ACAD_REACTORS
330
2A
102
}
102
{ACAD_XDICTIONARY
360
EF
102
}
330
2A
100
AcDbVisualStyle
  2
Linepattern
 70
    14
 71
     2
 72
     2
 73
     0
 90
        0
 40
-0.6
 41
-30.0
 62
     5
 63
     7
 74
     1
 91
        4
 64
     7
 65
   257
 75
     7
175
     7
 42
1.0
 92
        8
 66
     7
 43
1.0
 76
     1
 77
     6
 78
     2
 67
     7
 79
     5
170
     0
171
     0
290
     0
174
     0
 93
        1
 44
0.0
173
     0
291
     1
 45
0.0
1001
ACAD
1000
AcDbSavedByObjectVersion
1070
     0
  0
VISUALSTYLE
  5
33
102
{ACAD_REACTORS
330
2A
102
}
102
{ACAD_XDICTIONARY
360
E5
102
}
330
2A
100
AcDbVisualStyle
  2
Realistic
 70
     8
 71
     2
 72
     2
 73
     0
 90
        0
 40
-0.6
 41
-30.0
 62
     5
 63
     7
 74
     1
 91
        0
 64
     7
 65
   257
 75
     1
175
     1
 42
1.0
 92
        8
 66
     8
 43
1.0
 76
     1
 77
     6
 78
     2
 67
     7
 79
     5
170
     0
171
     0
290
     0
174
     0
 93
       13
 44
0.0
173
     0
291
     0
 45
0.0
1001
ACAD
1000
AcDbSavedByObjectVersion
1070
     0
  0
VISUALSTYLE
  5
37
102
{ACAD_REACTORS
330
2A
102
}
102
{ACAD_XDICTIONARY
360
ED
102
}
330
2A
100
AcDbVisualStyle
  2
Thicken
 70
    13
 71
     2
 72
     2
 73
     0
 90
        0
 40
-0.6
 41
-30.0
 62
     5
 63
     7
 74
     1
 91
        4
 64
     7
 65
   257
 75
     1
175
     1
 42
1.0
 92
       12
 66
     7
 43
1.0
 76
     1
 77
     6
 78
     2
 67
     7
 79
     5
170
     0
171
     0
290
     0
174
     0
 93
        1
 44
0.0
173
     0
291
     1
 45
0.0
1001
ACAD
1000
AcDbSavedByObjectVersion
1070
     0
  0
DICTIONARYVAR
  5
D3
102
{ACAD_REACTORS
330
D0
102
}
330
D0
100
DictionaryVariables
280
     0
  1
2
  0
DICTIONARYVAR
  5
D4
102
{ACAD_REACTORS
330
D0
102
}
330
D0
100
DictionaryVariables
280
     0
  1
1
  0
DICTIONARY
  5
F7
330
3D
100
AcDbDictionary
280
     1
281
     1
  3
ACAD_XREC_ROUNDTRIP
360
F8
  0
DICTIONARY
  5
F5
330
3C
100
AcDbDictionary
280
     1
281
     1
  3
ACAD_XREC_ROUNDTRIP
360
F6
  0
DICTIONARY
  5
F9
330
3E
100
AcDbDictionary
280
     1
281
     1
  3
ACAD_XREC_ROUNDTRIP
360
FA
  0
DICTIONARY
  5
DD
330
2F
100
AcDbDictionary
280
     1
281
     1
  3
ACAD_XREC_ROUNDTRIP
360
DE
  0
DICTIONARY
  5
E1
330
31
100
AcDbDictionary
280
     1
281
     1
  3
ACAD_XREC_ROUNDTRIP
360
E2
  0
DICTIONARY
  5
DF
330
30
100
AcDbDictionary
280
     1
281
     1
  3
ACAD_XREC_ROUNDTRIP
360
E0
  0
DICTIONARY
  5
E3
330
32
100
AcDbDictionary
280
     1
281
     1
  3
ACAD_XREC_ROUNDTRIP
360
E4
  0
DICTIONARY
  5
EB
330
36
100
AcDbDictionary
280
     1
281
     1
  3
ACAD_XREC_ROUNDTRIP
360
EC
  0
DICTIONARY
  5
F3
330
3A
100
AcDbDictionary
280
     1
281
     1
  3
ACAD_XREC_ROUNDTRIP
360
F4
  0
DICTIONARY
  5
E7
330
34
100
AcDbDictionary
280
     1
281
     1
  3
ACAD_XREC_ROUNDTRIP
360
E8
  0
DICTIONARY
  5
E9
330
35
100
AcDbDictionary
280
     1
281
     1
  3
ACAD_XREC_ROUNDTRIP
360
EA
  0
DICTIONARY
  5
F1
330
39
100
AcDbDictionary
280
     1
281
     1
  3
ACAD_XREC_ROUNDTRIP
360
F2
  0
DICTIONARY
  5
D5
330
2B
100
AcDbDictionary
280
     1
281
     1
  3
ACAD_XREC_ROUNDTRIP
360
D6
  0
DICTIONARY
  5
D7
330
2C
100
AcDbDictionary
280
     1
281
     1
  3
ACAD_XREC_ROUNDTRIP
360
D8
  0
DICTIONARY
  5
D9
330
2D
100
AcDbDictionary
280
     1
281
     1
  3
ACAD_XREC_ROUNDTRIP
360
DA
  0
DICTIONARY
  5
DB
330
2E
100
AcDbDictionary
280
     1
281
     1
  3
ACAD_XREC_ROUNDTRIP
360
DC
  0
DICTIONARY
  5
EF
330
38
100
AcDbDictionary
280
     1
281
     1
  3
ACAD_XREC_ROUNDTRIP
360
F0
  0
DICTIONARY
  5
E5
330
33
100
AcDbDictionary
280
     1
281
     1
  3
ACAD_XREC_ROUNDTRIP
360
E6
  0
DICTIONARY
  5
ED
330
37
100
AcDbDictionary
280
     1
281
     1
  3
ACAD_XREC_ROUNDTRIP
360
EE
  0
XRECORD
  5
F8
102
{ACAD_REACTORS
330
F7
102
}
330
F7
100
AcDbXrecord
280
     1
102
MATERIAL
148
0.0
149
0.0
149
0.0
 93
        0
 94
      127
282
     0
 72
     1
 77
     1
171
     1
175
     1
179
     1
273
     0
  0
XRECORD
  5
F6
102
{ACAD_REACTORS
330
F5
102
}
330
F5
100
AcDbXrecord
280
     1
102
MATERIAL
148
0.0
149
0.0
149
0.0
 93
        0
 94
      127
282
     0
 72
     1
 77
     1
171
     1
175
     1
179
     1
273
     0
  0
XRECORD
  5
FA
102
{ACAD_REACTORS
330
F9
102
}
330
F9
100
AcDbXrecord
280
     1
102
MATERIAL
148
0.0
149
0.0
149
0.0
 93
        0
 94
      127
282
     0
 72
     1
 77
     1
171
     1
175
     1
179
     1
273
     0
  0
XRECORD
  5
DE
102
{ACAD_REACTORS
330
DD
102
}
330
DD
100
AcDbXrecord
280
     1
102
RTVSPropertyOp0
 70
     1
102
RTVSPropertyOp1
 70
     1
102
RTVSPropertyOp2
 70
     1
102
RTVSPropertyOp3
 70
     1
102
RTVSPropertyOp4
 70
     1
102
RTVSPropertyOp5
 70
     1
102
RTVSPropertyOp6
 70
     1
102
RTVSPropertyOp7
 70
     1
102
RTVSPropertyOp8
 70
     1
102
RTVSPropertyOp9
 70
     1
102
RTVSPropertyOp10
 70
     1
102
RTVSPropertyOp11
 70
     1
102
RTVSPropertyOp12
 70
     1
102
RTVSPropertyOp13
 70
     1
102
RTVSPropertyOp14
 70
     1
102
RTVSPropertyOp15
 70
     1
102
RTVSPropertyOp16
 70
     1
102
RTVSPropertyOp17
 70
     1
102
RTVSPropertyOp18
 70
     1
102
RTVSPropertyOp19
 70
     1
102
RTVSPropertyOp20
 70
     1
102
RTVSPropertyOp21
 70
     1
102
RTVSPropertyOp22
 70
     1
102
RTVSPropertyOp23
 70
     1
102
RTVSPropertyOp24
 70
     1
102
RTVSPropertyOp25
 70
     1
102
RTVSPropertyOp26
 70
     1
102
RTVSPropertyOp27
 70
     1
102
RTVSPropertyOp28
 70
     1
102
RTVSPropertyOp29
 70
     1
102
RTVSPropertyOp30
 70
     1
102
RTVSPropertyOp31
 70
     1
102
RTVSPropertyOp32
 70
     1
  0
XRECORD
  5
E2
102
{ACAD_REACTORS
330
E1
102
}
330
E1
100
AcDbXrecord
280
     1
102
RTVSPropertyOp0
 70
     1
102
RTVSPropertyOp1
 70
     1
102
RTVSPropertyOp2
 70
     1
102
RTVSPropertyOp3
 70
     1
102
RTVSPropertyOp4
 70
     1
102
RTVSPropertyOp5
 70
     1
102
RTVSPropertyOp6
 70
     1
102
RTVSPropertyOp7
 70
     1
102
RTVSPropertyOp8
 70
     1
102
RTVSPropertyOp9
 70
     1
102
RTVSPropertyOp10
 70
     1
102
RTVSPropertyOp11
 70
     1
102
RTVSPropertyOp12
 70
     1
102
RTVSPropertyOp13
 70
     1
102
RTVSPropertyOp14
 70
     1
102
RTVSPropertyOp15
 70
     1
102
RTVSPropertyOp16
 70
     1
102
RTVSPropertyOp17
 70
     1
102
RTVSPropertyOp18
 70
     1
102
RTVSPropertyOp19
 70
     1
102
RTVSPropertyOp20
 70
     1
102
RTVSPropertyOp21
 70
     1
102
RTVSPropertyOp22
 70
     1
102
RTVSPropertyOp23
 70
     1
102
RTVSPropertyOp24
 70
     1
102
RTVSPropertyOp25
 70
     1
102
RTVSPropertyOp26
 70
     1
102
RTVSPropertyOp27
 70
     1
102
RTVSPropertyOp28
 70
     1
102
RTVSPropertyOp29
 70
     1
102
RTVSPropertyOp30
 70
     1
102
RTVSPropertyOp31
 70
     1
102
RTVSPropertyOp32
 70
     1
  0
XRECORD
  5
E0
102
{ACAD_REACTORS
330
DF
102
}
330
DF
100
AcDbXrecord
280
     1
102
RTVSPropertyOp0
 70
     1
102
RTVSPropertyOp1
 70
     1
102
RTVSPropertyOp2
 70
     1
102
RTVSPropertyOp3
 70
     1
102
RTVSPropertyOp4
 70
     1
102
RTVSPropertyOp5
 70
     1
102
RTVSPropertyOp6
 70
     1
102
RTVSPropertyOp7
 70
     1
102
RTVSPropertyOp8
 70
     1
102
RTVSPropertyOp9
 70
     1
102
RTVSPropertyOp10
 70
     1
102
RTVSPropertyOp11
 70
     1
102
RTVSPropertyOp12
 70
     1
102
RTVSPropertyOp13
 70
     1
102
RTVSPropertyOp14
 70
     1
102
RTVSPropertyOp15
 70
     1
102
RTVSPropertyOp16
 70
     1
102
RTVSPropertyOp17
 70
     1
102
RTVSPropertyOp18
 70
     1
102
RTVSPropertyOp19
 70
     1
102
RTVSPropertyOp20
 70
     1
102
RTVSPropertyOp21
 70
     1
102
RTVSPropertyOp22
 70
     1
102
RTVSPropertyOp23
 70
     1
102
RTVSPropertyOp24
 70
     1
102
RTVSPropertyOp25
 70
     1
102
RTVSPropertyOp26
 70
     1
102
RTVSPropertyOp27
 70
     1
102
RTVSPropertyOp28
 70
     1
102
RTVSPropertyOp29
 70
     1
102
RTVSPropertyOp30
 70
     1
102
RTVSPropertyOp31
 70
     1
102
RTVSPropertyOp32
 70
     1
  0
XRECORD
  5
E4
102
{ACAD_REACTORS
330
E3
102
}
330
E3
100
AcDbXrecord
280
     1
102
RTVSPropertyOp0
 70
     1
102
RTVSPropertyOp1
 70
     1
102
RTVSPropertyOp2
 70
     1
102
RTVSPropertyOp3
 70
     1
102
RTVSPropertyOp4
 70
     1
102
RTVSPropertyOp5
 70
     1
102
RTVSPropertyOp6
 70
     1
102
RTVSPropertyOp7
 70
     1
102
RTVSPropertyOp8
 70
     1
102
RTVSPropertyOp9
 70
     1
102
RTVSPropertyOp10
 70
     1
102
RTVSPropertyOp11
 70
     1
102
RTVSPropertyOp12
 70
     1
102
RTVSPropertyOp13
 70
     1
102
RTVSPropertyOp14
 70
     1
102
RTVSPropertyOp15
 70
     1
102
RTVSPropertyOp16
 70
     1
102
RTVSPropertyOp17
 70
     1
102
RTVSPropertyOp18
 70
     1
102
RTVSPropertyOp19
 70
     1
102
RTVSPropertyOp20
 70
     1
102
RTVSPropertyOp21
 70
     1
102
RTVSPropertyOp22
 70
     1
102
RTVSPropertyOp23
 70
     1
102
RTVSPropertyOp24
 70
     1
102
RTVSPropertyOp25
 70
     1
102
RTVSPropertyOp26
 70
     1
102
RTVSPropertyOp27
 70
     1
102
RTVSPropertyOp28
 70
     1
102
RTVSPropertyOp29
 70
     1
102
RTVSPropertyOp30
 70
     1
102
RTVSPropertyOp31
 70
     1
102
RTVSPropertyOp32
 70
     1
  0
XRECORD
  5
EC
102
{ACAD_REACTORS
330
EB
102
}
330
EB
100
AcDbXrecord
280
     1
102
RTVSPropertyOp0
 70
     1
102
RTVSPropertyOp1
 70
     1
102
RTVSPropertyOp2
 70
     1
102
RTVSPropertyOp3
 70
     1
102
RTVSPropertyOp4
 70
     1
102
RTVSPropertyOp5
 70
     1
102
RTVSPropertyOp6
 70
     1
102
RTVSPropertyOp7
 70
     1
102
RTVSPropertyOp8
 70
     1
102
RTVSPropertyOp9
 70
     1
102
RTVSPropertyOp10
 70
     1
102
RTVSPropertyOp11
 70
     1
102
RTVSPropertyOp12
 70
     1
102
RTVSPropertyOp13
 70
     1
102
RTVSPropertyOp14
 70
     1
102
RTVSPropertyOp15
 70
     1
102
RTVSPropertyOp16
 70
     1
102
RTVSPropertyOp17
 70
     1
102
RTVSPropertyOp18
 70
     1
102
RTVSPropertyOp19
 70
     1
102
RTVSPropertyOp20
 70
     1
102
RTVSPropertyOp21
 70
     1
102
RTVSPropertyOp22
 70
     1
102
RTVSPropertyOp23
 70
     1
102
RTVSPropertyOp24
 70
     1
102
RTVSPropertyOp25
 70
     1
102
RTVSPropertyOp26
 70
     1
102
RTVSPropertyOp27
 70
     1
102
RTVSPropertyOp28
 70
     1
102
RTVSPropertyOp29
 70
     1
102
RTVSPropertyOp30
 70
     1
102
RTVSPropertyOp31
 70
     1
102
RTVSPropertyOp32
 70
     1
  0
XRECORD
  5
F4
102
{ACAD_REACTORS
330
F3
102
}
330
F3
100
AcDbXrecord
280
     1
102
RTVSPropertyOp0
 70
     1
102
RTVSPropertyOp1
 70
     1
102
RTVSPropertyOp2
 70
     1
102
RTVSPropertyOp3
 70
     1
102
RTVSPropertyOp4
 70
     1
102
RTVSPropertyOp5
 70
     1
102
RTVSPropertyOp6
 70
     1
102
RTVSPropertyOp7
 70
     1
102
RTVSPropertyOp8
 70
     1
102
RTVSPropertyOp9
 70
     1
102
RTVSPropertyOp10
 70
     1
102
RTVSPropertyOp11
 70
     1
102
RTVSPropertyOp12
 70
     1
102
RTVSPropertyOp13
 70
     1
102
RTVSPropertyOp14
 70
     1
102
RTVSPropertyOp15
 70
     1
102
RTVSPropertyOp16
 70
     1
102
RTVSPropertyOp17
 70
     1
102
RTVSPropertyOp18
 70
     1
102
RTVSPropertyOp19
 70
     1
102
RTVSPropertyOp20
 70
     1
102
RTVSPropertyOp21
 70
     1
102
RTVSPropertyOp22
 70
     1
102
RTVSPropertyOp23
 70
     1
102
RTVSPropertyOp24
 70
     1
102
RTVSPropertyOp25
 70
     1
102
RTVSPropertyOp26
 70
     1
102
RTVSPropertyOp27
 70
     1
102
RTVSPropertyOp28
 70
     1
102
RTVSPropertyOp29
 70
     1
102
RTVSPropertyOp30
 70
     1
102
RTVSPropertyOp31
 70
     1
102
RTVSPropertyOp32
 70
     1
  0
XRECORD
  5
E8
102
{ACAD_REACTORS
330
E7
102
}
330
E7
100
AcDbXrecord
280
     1
102
RTVSPropertyOp0
 70
     1
102
RTVSPropertyOp1
 70
     1
102
RTVSPropertyOp2
 70
     1
102
RTVSPropertyOp3
 70
     1
102
RTVSPropertyOp4
 70
     1
102
RTVSPropertyOp5
 70
     1
102
RTVSPropertyOp6
 70
     1
102
RTVSPropertyOp7
 70
     1
102
RTVSPropertyOp8
 70
     1
102
RTVSPropertyOp9
 70
     1
102
RTVSPropertyOp10
 70
     1
102
RTVSPropertyOp11
 70
     1
102
RTVSPropertyOp12
 70
     1
102
RTVSPropertyOp13
 70
     1
102
RTVSPropertyOp14
 70
     1
102
RTVSPropertyOp15
 70
     1
102
RTVSPropertyOp16
 70
     1
102
RTVSPropertyOp17
 70
     1
102
RTVSPropertyOp18
 70
     1
102
RTVSPropertyOp19
 70
     1
102
RTVSPropertyOp20
 70
     1
102
RTVSPropertyOp21
 70
     1
102
RTVSPropertyOp22
 70
     1
102
RTVSPropertyOp23
 70
     1
102
RTVSPropertyOp24
 70
     1
102
RTVSPropertyOp25
 70
     1
102
RTVSPropertyOp26
 70
     1
102
RTVSPropertyOp27
 70
     1
102
RTVSPropertyOp28
 70
     1
102
RTVSPropertyOp29
 70
     1
102
RTVSPropertyOp30
 70
     1
102
RTVSPropertyOp31
 70
     1
102
RTVSPropertyOp32
 70
     1
  0
XRECORD
  5
EA
102
{ACAD_REACTORS
330
E9
102
}
330
E9
100
AcDbXrecord
280
     1
102
RTVSPropertyOp0
 70
     1
102
RTVSPropertyOp1
 70
     1
102
RTVSPropertyOp2
 70
     1
102
RTVSPropertyOp3
 70
     1
102
RTVSPropertyOp4
 70
     1
102
RTVSPropertyOp5
 70
     1
102
RTVSPropertyOp6
 70
     1
102
RTVSPropertyOp7
 70
     1
102
RTVSPropertyOp8
 70
     1
102
RTVSPropertyOp9
 70
     1
102
RTVSPropertyOp10
 70
     1
102
RTVSPropertyOp11
 70
     1
102
RTVSPropertyOp12
 70
     1
102
RTVSPropertyOp13
 70
     1
102
RTVSPropertyOp14
 70
     1
102
RTVSPropertyOp15
 70
     1
102
RTVSPropertyOp16
 70
     1
102
RTVSPropertyOp17
 70
     1
102
RTVSPropertyOp18
 70
     1
102
RTVSPropertyOp19
 70
     1
102
RTVSPropertyOp20
 70
     1
102
RTVSPropertyOp21
 70
     1
102
RTVSPropertyOp22
 70
     1
102
RTVSPropertyOp23
 70
     1
102
RTVSPropertyOp24
 70
     1
102
RTVSPropertyOp25
 70
     1
102
RTVSPropertyOp26
 70
     1
102
RTVSPropertyOp27
 70
     1
102
RTVSPropertyOp28
 70
     1
102
RTVSPropertyOp29
 70
     1
102
RTVSPropertyOp30
 70
     1
102
RTVSPropertyOp31
 70
     1
102
RTVSPropertyOp32
 70
     1
  0
XRECORD
  5
F2
102
{ACAD_REACTORS
330
F1
102
}
330
F1
100
AcDbXrecord
280
     1
102
RTVSPropertyOp0
 70
     1
102
RTVSPropertyOp1
 70
     1
102
RTVSPropertyOp2
 70
     1
102
RTVSPropertyOp3
 70
     1
102
RTVSPropertyOp4
 70
     1
102
RTVSPropertyOp5
 70
     1
102
RTVSPropertyOp6
 70
     1
102
RTVSPropertyOp7
 70
     1
102
RTVSPropertyOp8
 70
     1
102
RTVSPropertyOp9
 70
     1
102
RTVSPropertyOp10
 70
     1
102
RTVSPropertyOp11
 70
     1
102
RTVSPropertyOp12
 70
     1
102
RTVSPropertyOp13
 70
     1
102
RTVSPropertyOp14
 70
     1
102
RTVSPropertyOp15
 70
     1
102
RTVSPropertyOp16
 70
     1
102
RTVSPropertyOp17
 70
     1
102
RTVSPropertyOp18
 70
     1
102
RTVSPropertyOp19
 70
     1
102
RTVSPropertyOp20
 70
     1
102
RTVSPropertyOp21
 70
     1
102
RTVSPropertyOp22
 70
     1
102
RTVSPropertyOp23
 70
     1
102
RTVSPropertyOp24
 70
     1
102
RTVSPropertyOp25
 70
     1
102
RTVSPropertyOp26
 70
     1
102
RTVSPropertyOp27
 70
     1
102
RTVSPropertyOp28
 70
     1
102
RTVSPropertyOp29
 70
     1
102
RTVSPropertyOp30
 70
     1
102
RTVSPropertyOp31
 70
     1
102
RTVSPropertyOp32
 70
     1
  0
XRECORD
  5
D6
102
{ACAD_REACTORS
330
D5
102
}
330
D5
100
AcDbXrecord
280
     1
102
RTVSPropertyOp0
 70
     1
102
RTVSPropertyOp1
 70
     1
102
RTVSPropertyOp2
 70
     1
102
RTVSPropertyOp3
 70
     1
102
RTVSPropertyOp4
 70
     1
102
RTVSPropertyOp5
 70
     1
102
RTVSPropertyOp6
 70
     1
102
RTVSPropertyOp7
 70
     1
102
RTVSPropertyOp8
 70
     1
102
RTVSPropertyOp9
 70
     1
102
RTVSPropertyOp10
 70
     1
102
RTVSPropertyOp11
 70
     1
102
RTVSPropertyOp12
 70
     1
102
RTVSPropertyOp13
 70
     1
102
RTVSPropertyOp14
 70
     1
102
RTVSPropertyOp15
 70
     1
102
RTVSPropertyOp16
 70
     1
102
RTVSPropertyOp17
 70
     1
102
RTVSPropertyOp18
 70
     1
102
RTVSPropertyOp19
 70
     1
102
RTVSPropertyOp20
 70
     1
102
RTVSPropertyOp21
 70
     1
102
RTVSPropertyOp22
 70
     1
102
RTVSPropertyOp23
 70
     1
102
RTVSPropertyOp24
 70
     1
102
RTVSPropertyOp25
 70
     1
102
RTVSPropertyOp26
 70
     1
102
RTVSPropertyOp27
 70
     1
102
RTVSPropertyOp28
 70
     1
102
RTVSPropertyOp29
 70
     1
102
RTVSPropertyOp30
 70
     1
102
RTVSPropertyOp31
 70
     1
102
RTVSPropertyOp32
 70
     1
  0
XRECORD
  5
D8
102
{ACAD_REACTORS
330
D7
102
}
330
D7
100
AcDbXrecord
280
     1
102
RTVSPropertyOp0
 70
     1
102
RTVSPropertyOp1
 70
     1
102
RTVSPropertyOp2
 70
     1
102
RTVSPropertyOp3
 70
     1
102
RTVSPropertyOp4
 70
     1
102
RTVSPropertyOp5
 70
     1
102
RTVSPropertyOp6
 70
     1
102
RTVSPropertyOp7
 70
     1
102
RTVSPropertyOp8
 70
     1
102
RTVSPropertyOp9
 70
     1
102
RTVSPropertyOp10
 70
     1
102
RTVSPropertyOp11
 70
     1
102
RTVSPropertyOp12
 70
     1
102
RTVSPropertyOp13
 70
     1
102
RTVSPropertyOp14
 70
     1
102
RTVSPropertyOp15
 70
     1
102
RTVSPropertyOp16
 70
     1
102
RTVSPropertyOp17
 70
     1
102
RTVSPropertyOp18
 70
     1
102
RTVSPropertyOp19
 70
     1
102
RTVSPropertyOp20
 70
     1
102
RTVSPropertyOp21
 70
     1
102
RTVSPropertyOp22
 70
     1
102
RTVSPropertyOp23
 70
     1
102
RTVSPropertyOp24
 70
     1
102
RTVSPropertyOp25
 70
     1
102
RTVSPropertyOp26
 70
     1
102
RTVSPropertyOp27
 70
     1
102
RTVSPropertyOp28
 70
     1
102
RTVSPropertyOp29
 70
     1
102
RTVSPropertyOp30
 70
     1
102
RTVSPropertyOp31
 70
     1
102
RTVSPropertyOp32
 70
     1
  0
XRECORD
  5
DA
102
{ACAD_REACTORS
330
D9
102
}
330
D9
100
AcDbXrecord
280
     1
102
RTVSPropertyOp0
 70
     1
102
RTVSPropertyOp1
 70
     1
102
RTVSPropertyOp2
 70
     1
102
RTVSPropertyOp3
 70
     1
102
RTVSPropertyOp4
 70
     1
102
RTVSPropertyOp5
 70
     1
102
RTVSPropertyOp6
 70
     1
102
RTVSPropertyOp7
 70
     1
102
RTVSPropertyOp8
 70
     1
102
RTVSPropertyOp9
 70
     1
102
RTVSPropertyOp10
 70
     1
102
RTVSPropertyOp11
 70
     1
102
RTVSPropertyOp12
 70
     1
102
RTVSPropertyOp13
 70
     1
102
RTVSPropertyOp14
 70
     1
102
RTVSPropertyOp15
 70
     1
102
RTVSPropertyOp16
 70
     1
102
RTVSPropertyOp17
 70
     1
102
RTVSPropertyOp18
 70
     1
102
RTVSPropertyOp19
 70
     1
102
RTVSPropertyOp20
 70
     1
102
RTVSPropertyOp21
 70
     1
102
RTVSPropertyOp22
 70
     1
102
RTVSPropertyOp23
 70
     1
102
RTVSPropertyOp24
 70
     1
102
RTVSPropertyOp25
 70
     1
102
RTVSPropertyOp26
 70
     1
102
RTVSPropertyOp27
 70
     1
102
RTVSPropertyOp28
 70
     1
102
RTVSPropertyOp29
 70
     1
102
RTVSPropertyOp30
 70
     1
102
RTVSPropertyOp31
 70
     1
102
RTVSPropertyOp32
 70
     1
  0
XRECORD
  5
DC
102
{ACAD_REACTORS
330
DB
102
}
330
DB
100
AcDbXrecord
280
     1
102
RTVSPropertyOp0
 70
     1
102
RTVSPropertyOp1
 70
     1
102
RTVSPropertyOp2
 70
     1
102
RTVSPropertyOp3
 70
     1
102
RTVSPropertyOp4
 70
     1
102
RTVSPropertyOp5
 70
     1
102
RTVSPropertyOp6
 70
     1
102
RTVSPropertyOp7
 70
     1
102
RTVSPropertyOp8
 70
     1
102
RTVSPropertyOp9
 70
     1
102
RTVSPropertyOp10
 70
     1
102
RTVSPropertyOp11
 70
     1
102
RTVSPropertyOp12
 70
     1
102
RTVSPropertyOp13
 70
     1
102
RTVSPropertyOp14
 70
     1
102
RTVSPropertyOp15
 70
     1
102
RTVSPropertyOp16
 70
     1
102
RTVSPropertyOp17
 70
     1
102
RTVSPropertyOp18
 70
     1
102
RTVSPropertyOp19
 70
     1
102
RTVSPropertyOp20
 70
     1
102
RTVSPropertyOp21
 70
     1
102
RTVSPropertyOp22
 70
     1
102
RTVSPropertyOp23
 70
     1
102
RTVSPropertyOp24
 70
     1
102
RTVSPropertyOp25
 70
     1
102
RTVSPropertyOp26
 70
     1
102
RTVSPropertyOp27
 70
     1
102
RTVSPropertyOp28
 70
     1
102
RTVSPropertyOp29
 70
     1
102
RTVSPropertyOp30
 70
     1
102
RTVSPropertyOp31
 70
     1
102
RTVSPropertyOp32
 70
     1
  0
XRECORD
  5
F0
102
{ACAD_REACTORS
330
EF
102
}
330
EF
100
AcDbXrecord
280
     1
102
RTVSPropertyOp0
 70
     1
102
RTVSPropertyOp1
 70
     1
102
RTVSPropertyOp2
 70
     1
102
RTVSPropertyOp3
 70
     1
102
RTVSPropertyOp4
 70
     1
102
RTVSPropertyOp5
 70
     1
102
RTVSPropertyOp6
 70
     1
102
RTVSPropertyOp7
 70
     1
102
RTVSPropertyOp8
 70
     1
102
RTVSPropertyOp9
 70
     1
102
RTVSPropertyOp10
 70
     1
102
RTVSPropertyOp11
 70
     1
102
RTVSPropertyOp12
 70
     1
102
RTVSPropertyOp13
 70
     1
102
RTVSPropertyOp14
 70
     1
102
RTVSPropertyOp15
 70
     1
102
RTVSPropertyOp16
 70
     1
102
RTVSPropertyOp17
 70
     1
102
RTVSPropertyOp18
 70
     1
102
RTVSPropertyOp19
 70
     1
102
RTVSPropertyOp20
 70
     1
102
RTVSPropertyOp21
 70
     1
102
RTVSPropertyOp22
 70
     1
102
RTVSPropertyOp23
 70
     1
102
RTVSPropertyOp24
 70
     1
102
RTVSPropertyOp25
 70
     1
102
RTVSPropertyOp26
 70
     1
102
RTVSPropertyOp27
 70
     1
102
RTVSPropertyOp28
 70
     1
102
RTVSPropertyOp29
 70
     1
102
RTVSPropertyOp30
 70
     1
102
RTVSPropertyOp31
 70
     1
102
RTVSPropertyOp32
 70
     1
  0
XRECORD
  5
E6
102
{ACAD_REACTORS
330
E5
102
}
330
E5
100
AcDbXrecord
280
     1
102
RTVSPropertyOp0
 70
     1
102
RTVSPropertyOp1
 70
     1
102
RTVSPropertyOp2
 70
     1
102
RTVSPropertyOp3
 70
     1
102
RTVSPropertyOp4
 70
     1
102
RTVSPropertyOp5
 70
     1
102
RTVSPropertyOp6
 70
     1
102
RTVSPropertyOp7
 70
     1
102
RTVSPropertyOp8
 70
     1
102
RTVSPropertyOp9
 70
     1
102
RTVSPropertyOp10
 70
     1
102
RTVSPropertyOp11
 70
     1
102
RTVSPropertyOp12
 70
     1
102
RTVSPropertyOp13
 70
     1
102
RTVSPropertyOp14
 70
     1
102
RTVSPropertyOp15
 70
     1
102
RTVSPropertyOp16
 70
     1
102
RTVSPropertyOp17
 70
     1
102
RTVSPropertyOp18
 70
     1
102
RTVSPropertyOp19
 70
     1
102
RTVSPropertyOp20
 70
     1
102
RTVSPropertyOp21
 70
     1
102
RTVSPropertyOp22
 70
     1
102
RTVSPropertyOp23
 70
     1
102
RTVSPropertyOp24
 70
     1
102
RTVSPropertyOp25
 70
     1
102
RTVSPropertyOp26
 70
     1
102
RTVSPropertyOp27
 70
     1
102
RTVSPropertyOp28
 70
     1
102
RTVSPropertyOp29
 70
     1
102
RTVSPropertyOp30
 70
     1
102
RTVSPropertyOp31
 70
     1
102
RTVSPropertyOp32
 70
     1
  0
XRECORD
  5
EE
102
{ACAD_REACTORS
330
ED
102
}
330
ED
100
AcDbXrecord
280
     1
102
RTVSPropertyOp0
 70
     1
102
RTVSPropertyOp1
 70
     1
102
RTVSPropertyOp2
 70
     1
102
RTVSPropertyOp3
 70
     1
102
RTVSPropertyOp4
 70
     1
102
RTVSPropertyOp5
 70
     1
102
RTVSPropertyOp6
 70
     1
102
RTVSPropertyOp7
 70
     1
102
RTVSPropertyOp8
 70
     1
102
RTVSPropertyOp9
 70
     1
102
RTVSPropertyOp10
 70
     1
102
RTVSPropertyOp11
 70
     1
102
RTVSPropertyOp12
 70
     1
102
RTVSPropertyOp13
 70
     1
102
RTVSPropertyOp14
 70
     1
102
RTVSPropertyOp15
 70
     1
102
RTVSPropertyOp16
 70
     1
102
RTVSPropertyOp17
 70
     1
102
RTVSPropertyOp18
 70
     1
102
RTVSPropertyOp19
 70
     1
102
RTVSPropertyOp20
 70
     1
102
RTVSPropertyOp21
 70
     1
102
RTVSPropertyOp22
 70
     1
102
RTVSPropertyOp23
 70
     1
102
RTVSPropertyOp24
 70
     1
102
RTVSPropertyOp25
 70
     1
102
RTVSPropertyOp26
 70
     1
102
RTVSPropertyOp27
 70
     1
102
RTVSPropertyOp28
 70
     1
102
RTVSPropertyOp29
 70
     1
102
RTVSPropertyOp30
 70
     1
102
RTVSPropertyOp31
 70
     1
102
RTVSPropertyOp32
 70
     1
  0
ENDSEC
  0
EOF
